<?xml version="1.0" encoding="utf-8"?>
<!-- Generator: Adobe Illustrator 26.0.0, SVG Export Plug-In . SVG Version: 6.00 Build 0)  -->
<svg version="1.1" id="Layer_1" xmlns="http://www.w3.org/2000/svg" xmlns:xlink="http://www.w3.org/1999/xlink" x="0px" y="0px"
	 viewBox="0 0 29.4 26" style="enable-background:new 0 0 29.4 26;" xml:space="preserve">
<style type="text/css">
	.st0{fill:#70808D;}
	.st1{fill:#004187;}
</style>
<path class="st0" d="M63.7-15.9H50.9c-0.7,0-1.3-0.6-1.3-1.3c0-0.7,0.6-1.3,1.3-1.3h12.8c0.7,0,1.3,0.6,1.3,1.3
	C65.1-16.5,64.5-15.9,63.7-15.9z M69.9-24.2c0-0.7-0.6-1.3-1.3-1.3H50.9c-0.7,0-1.3,0.6-1.3,1.3c0,0.7,0.6,1.3,1.3,1.3h17.6
	C69.3-22.8,69.9-23.4,69.9-24.2L69.9-24.2z M60.2-10.3c0-0.7-0.6-1.3-1.3-1.3h-8c-0.7,0-1.3,0.6-1.3,1.3c0,0.7,0.6,1.3,1.3,1.3h8
	C59.7-9,60.2-9.5,60.2-10.3z M49.8-6.7c-0.4-0.6-1.3-0.7-1.9-0.3l-1.1,0.8v-20.2c0-0.7-0.6-1.3-1.3-1.3s-1.3,0.6-1.3,1.3v20.2
	l-1.1-0.8c-0.6-0.4-1.4-0.3-1.9,0.3c-0.4,0.6-0.3,1.4,0.3,1.9l3.2,2.4c0.2,0.2,0.5,0.3,0.8,0.3s0.6-0.1,0.8-0.3l3.2-2.4
	C50.2-5.3,50.3-6.1,49.8-6.7L49.8-6.7z"/>
<path class="st0" d="M23,17.5H10.1c-0.8,0-1.3-0.6-1.3-1.3s0.6-1.3,1.3-1.3H23c0.8,0,1.3,0.6,1.3,1.3S23.8,17.5,23,17.5z M29.2,9.1
	c0-0.8-0.6-1.3-1.3-1.3H10.1c-0.8,0-1.3,0.6-1.3,1.3s0.6,1.3,1.3,1.3h17.8C28.6,10.5,29.2,9.9,29.2,9.1z M19.5,23.1
	c0-0.8-0.6-1.3-1.3-1.3h-8.1c-0.8,0-1.3,0.6-1.3,1.3s0.6,1.3,1.3,1.3h8.1C18.9,24.5,19.5,23.9,19.5,23.1z M8.7,2.9L5.5,0.5
	C5,0.1,4.4,0.1,3.9,0.5L0.7,2.9C0.1,3.3,0,4.2,0.4,4.8c0.4,0.6,1.3,0.7,1.9,0.3l1.1-0.8v20.4c0,0.8,0.6,1.3,1.3,1.3S6,25.4,6,24.6
	V4.3l1.1,0.8c0.2,0.2,0.5,0.3,0.8,0.3c0.4,0,0.8-0.2,1.1-0.5C9.4,4.2,9.3,3.4,8.7,2.9L8.7,2.9z"/>
<path class="st1" d="M-16.3,17.4h-12.9c-0.8,0-1.3-0.6-1.3-1.3s0.6-1.3,1.3-1.3h12.9c0.8,0,1.3,0.6,1.3,1.3S-15.6,17.4-16.3,17.4z
	 M-10.1,9.1c0-0.8-0.6-1.3-1.3-1.3h-17.8c-0.8,0-1.3,0.6-1.3,1.3c0,0.8,0.6,1.3,1.3,1.3h17.8C-10.7,10.4-10.1,9.8-10.1,9.1z
	 M-19.8,23.1c0-0.8-0.6-1.3-1.3-1.3h-8.1c-0.8,0-1.3,0.6-1.3,1.3s0.6,1.3,1.3,1.3h8.1C-20.4,24.4-19.8,23.8-19.8,23.1z M-30.6,2.9
	l-3.2-2.4c-0.5-0.4-1.1-0.4-1.6,0l-3.2,2.4c-0.6,0.4-0.7,1.3-0.3,1.9c0.4,0.6,1.3,0.7,1.9,0.3l1.1-0.8v20.4c0,0.8,0.6,1.3,1.3,1.3
	s1.3-0.6,1.3-1.3V4.2l1.1,0.8c0.2,0.2,0.5,0.3,0.8,0.3c0.4,0,0.8-0.2,1.1-0.5C-29.9,4.2-30,3.4-30.6,2.9L-30.6,2.9z"/>
<path class="st1" d="M63.9,12.5H51.1c-0.7,0-1.3-0.6-1.3-1.3c0-0.7,0.6-1.3,1.3-1.3h12.8c0.7,0,1.3,0.6,1.3,1.3
	C65.2,11.9,64.6,12.5,63.9,12.5z M70,4.2c0-0.7-0.6-1.3-1.3-1.3H51.1c-0.7,0-1.3,0.6-1.3,1.3s0.6,1.3,1.3,1.3h17.6
	C69.4,5.5,70,5,70,4.2L70,4.2z M60.4,18.1c0-0.7-0.6-1.3-1.3-1.3h-8c-0.7,0-1.3,0.6-1.3,1.3c0,0.7,0.6,1.3,1.3,1.3h8
	C59.8,19.4,60.4,18.8,60.4,18.1z M50,21.7c-0.4-0.6-1.3-0.7-1.9-0.3l-1.1,0.8V2.1c0-0.7-0.6-1.3-1.3-1.3s-1.3,0.6-1.3,1.3v20.2
	l-1.1-0.8c-0.6-0.4-1.4-0.3-1.9,0.3c-0.4,0.6-0.3,1.4,0.3,1.9l3.2,2.4c0.2,0.2,0.5,0.3,0.8,0.3s0.6-0.1,0.8-0.3l3.2-2.4
	C50.3,23.1,50.4,22.3,50,21.7L50,21.7z"/>
</svg>
