<?xml version="1.0" encoding="utf-8"?>
<!-- Generator: Adobe Illustrator 26.3.1, SVG Export Plug-In . SVG Version: 6.00 Build 0)  -->
<svg version="1.1" id="Layer_1" xmlns="http://www.w3.org/2000/svg" xmlns:xlink="http://www.w3.org/1999/xlink" x="0px" y="0px"
	 viewBox="0 0 17 17" style="enable-background:new 0 0 17 17;" xml:space="preserve">
<style type="text/css">
	.st0{fill:#748895;}
</style>
<path class="st0" d="M0.1,2.6v11.8c0,1.4,1.1,2.5,2.5,2.5h11.8c1.4,0,2.5-1.1,2.5-2.5V2.6c0-1.4-1.1-2.5-2.5-2.5H2.6
	C1.2,0.1,0.1,1.2,0.1,2.6z M1.8,14.4V2.6c0-0.5,0.4-0.8,0.8-0.8h3.1v13.4H2.6C2.1,15.2,1.8,14.8,1.8,14.4z M7.4,6.8h7.8v3.4H7.4V6.8
	z M14.4,15.2h-7v-3.4h7.8v2.5C15.2,14.8,14.8,15.2,14.4,15.2z M15.2,2.6v2.5H7.4V1.8h7C14.8,1.8,15.2,2.2,15.2,2.6z"/>
</svg>
