<?xml version="1.0" encoding="utf-8"?>
<!-- Generator: Adobe Illustrator 26.2.1, SVG Export Plug-In . SVG Version: 6.00 Build 0)  -->
<svg version="1.1" id="Layer_1" xmlns="http://www.w3.org/2000/svg" xmlns:xlink="http://www.w3.org/1999/xlink" x="0px" y="0px"
	 viewBox="0 0 24 24" style="enable-background:new 0 0 24 24;" xml:space="preserve">
<style type="text/css">
	.st0{fill:#1C4484;}
</style>
<path class="st0" d="M12,0.1C12,0.1,12,0.1,12,0.1c-2.9,0-5.7,1.1-7.9,3v-1c0-1.1-0.9-2-2-2s-2,0.9-2,2v6.1c0,1.1,0.9,2,2,2h6.1
	c1.1,0,2-0.9,2-2s-0.9-2-2-2H6.7c1.3-1.1,2.8-1.8,4.5-2c2.1-0.2,4.1,0.4,5.8,1.8c3.3,2.8,3.8,7.7,1.1,11.1c-1.5,1.8-3.7,2.9-6.1,2.9
	c-1.1,0-2,0.9-2,2c0,1.1,0.9,2,2.1,2c6.6,0,11.9-5.4,11.9-11.9C23.9,5.4,18.5,0.1,12,0.1z"/>
</svg>
