<svg version="1.0" preserveAspectRatio="xMidYMid meet" width="60px" height="85px" xmlns="http://www.w3.org/2000/svg" xmlns:bx="https://boxy-svg.com">
  <defs></defs>
  <g transform="matrix(0.016617, 0, 0, -0.017226, -12.545836, 86.302254)" fill="white" stroke="white" style="background-color:#1f5487" bx:origin="0.122818 3.314618">
    <path d="M 1045 4992 C 925 4951 840 4875 787 4762 L 755 4695 L 755 2559 L 755 424 L 792 349 C 838 256 904 191 998 147 L 1065 115 L 2560 115 L 4055 115 L 4122 147 C 4216 191 4282 256 4328 349 L 4365 424 L 4368 2154 L 4370 3885 L 3808 4447 L 3245 5010 L 2170 5010 C 1177 5009 1091 5008 1045 4992 Z M 3090 4314 C 3090 3892 3092 3824 3106 3795 C 3137 3730 3134 3730 3674 3730 L 4160 3730 L 4160 2119 C 4160 873 4157 498 4148 466 C 4131 410 4066 347 4010 332 C 3975 322 3641 320 2534 322 L 1104 325 L 1062 353 C 1039 368 1008 399 993 422 L 965 464 L 962 2534 C 960 4144 962 4615 972 4650 C 986 4703 1049 4771 1100 4787 C 1125 4795 1426 4798 2113 4799 L 3090 4800 L 3090 4314 Z" style=""></path>
    <path d="M1544 2861 c-36 -22 -58 -75 -48 -115 3 -14 20 -37 36 -51 l30 -25
997 0 c986 0 999 0 1024 20 38 30 52 80 33 123 -29 71 34 67 -1058 67 -952 0
-984 -1 -1014 -19z"></path>
    <path d="M1553 2014 c-29 -15 -63 -65 -63 -94 0 -7 7 -27 16 -45 32 -68 -24
-65 1054 -65 1078 0 1022 -3 1054 65 9 18 16 38 16 45 0 7 -7 27 -16 45 -32
68 24 65 -1056 65 -863 0 -977 -2 -1005 -16z"></path>
    <path d="M1532 1145 c-38 -32 -48 -72 -28 -118 29 -71 -34 -67 1056 -67 1090
0 1027 -4 1056 67 19 43 5 93 -33 123 -25 20 -38 20 -1024 20 l-997 0 -30 -25z"></path>
  </g>
</svg>