<?xml version="1.0" encoding="utf-8"?>
<!-- Generator: Adobe Illustrator 26.3.1, SVG Export Plug-In . SVG Version: 6.00 Build 0)  -->
<svg version="1.1" id="Layer_1" xmlns="http://www.w3.org/2000/svg" xmlns:xlink="http://www.w3.org/1999/xlink" x="0px" y="0px"
	 viewBox="0 0 20 16" style="enable-background:new 0 0 20 16;" xml:space="preserve">
<style type="text/css">
	.st0{fill:#00875E;}
</style>
<g>
	<g>
		<path class="st0" d="M14.5,11.1H5.5c-0.2,0-0.3-0.1-0.3-0.3l0,0c0-0.2,0.1-0.3,0.3-0.3h8.9c0.2,0,0.3,0.1,0.3,0.3l0,0
			C14.7,11,14.6,11.1,14.5,11.1z"/>
	</g>
	<g>
		<path class="st0" d="M14.5,8.6H5.5c-0.2,0-0.3-0.1-0.3-0.3l0,0C5.2,8.1,5.4,8,5.5,8h8.9c0.2,0,0.3,0.1,0.3,0.3l0,0
			C14.7,8.5,14.6,8.6,14.5,8.6z"/>
	</g>
</g>
<g>
	<g>
		<path class="st0" d="M17.4,15.7H2.6c-1,0-1.8-0.8-1.8-1.8V2.1c0-1,0.8-1.8,1.8-1.8h4c0.5,0,1,0.2,1.3,0.5l1.7,1.7l1.2,1.3
			c1.4,0,5.8,0,6,0c1.6,0,2.3,1,2.3,2v8.1C19.2,14.9,18.4,15.7,17.4,15.7z M17.2,13.8L17.2,13.8L17.2,13.8z M2.8,13.7h14.5V5.8
			c0,0-0.2,0-0.3,0c-0.3,0-6.2,0-6.4,0l-0.4,0L8.3,3.9L6.6,2.2H2.8V13.7z"/>
	</g>
</g>
</svg>
