<?xml version="1.0" encoding="utf-8"?>
<!-- Generator: Adobe Illustrator 26.0.0, SVG Export Plug-In . SVG Version: 6.00 Build 0)  -->
<svg version="1.1" id="Layer_1" xmlns="http://www.w3.org/2000/svg" xmlns:xlink="http://www.w3.org/1999/xlink" x="0px" y="0px"
	 viewBox="0 0 29.4 26" style="enable-background:new 0 0 29.4 26;" xml:space="preserve">
<style type="text/css">
	.st0{fill:#70808D;}
	.st1{fill:#004187;}
</style>
<path class="st0" d="M22.8,12H10c-0.7,0-1.3-0.6-1.3-1.3c0-0.7,0.6-1.3,1.3-1.3h12.8c0.7,0,1.3,0.6,1.3,1.3
	C24.2,11.4,23.6,12,22.8,12z M29,3.7c0-0.7-0.6-1.3-1.3-1.3H10C9.3,2.4,8.7,3,8.7,3.7S9.3,5.1,10,5.1h17.6C28.4,5.1,29,4.5,29,3.7
	L29,3.7z M19.3,17.6c0-0.7-0.6-1.3-1.3-1.3h-8c-0.7,0-1.3,0.6-1.3,1.3c0,0.7,0.6,1.3,1.3,1.3h8C18.8,19,19.3,18.4,19.3,17.6z
	 M8.9,21.2c-0.4-0.6-1.3-0.7-1.9-0.3L6,21.8V1.6c0-0.7-0.6-1.3-1.3-1.3S3.3,0.9,3.3,1.6v20.2L2.3,21c-0.6-0.4-1.4-0.3-1.9,0.3
	c-0.4,0.6-0.3,1.4,0.3,1.9l3.2,2.4c0.2,0.2,0.5,0.3,0.8,0.3c0.3,0,0.6-0.1,0.8-0.3l3.2-2.4C9.3,22.6,9.4,21.8,8.9,21.2L8.9,21.2z"/>
<path class="st0" d="M-17-9.1h-12.9c-0.8,0-1.3-0.6-1.3-1.3s0.6-1.3,1.3-1.3H-17c0.8,0,1.3,0.6,1.3,1.3S-16.3-9.1-17-9.1z
	 M-10.8-17.4c0-0.8-0.6-1.3-1.3-1.3h-17.8c-0.8,0-1.3,0.6-1.3,1.3c0,0.8,0.6,1.3,1.3,1.3h17.8C-11.4-16.1-10.8-16.7-10.8-17.4z
	 M-20.5-3.4c0-0.8-0.6-1.3-1.3-1.3h-8.1c-0.8,0-1.3,0.6-1.3,1.3s0.6,1.3,1.3,1.3h8.1C-21.1-2.1-20.5-2.7-20.5-3.4z M-31.3-23.6
	l-3.2-2.4c-0.5-0.4-1.1-0.4-1.6,0l-3.2,2.4c-0.6,0.4-0.7,1.3-0.3,1.9c0.4,0.6,1.3,0.7,1.9,0.3l1.1-0.8v20.4c0,0.8,0.6,1.3,1.3,1.3
	S-34-1.2-34-1.9v-20.4l1.1,0.8c0.2,0.2,0.5,0.3,0.8,0.3c0.4,0,0.8-0.2,1.1-0.5C-30.6-22.3-30.7-23.1-31.3-23.6L-31.3-23.6z"/>
<path class="st1" d="M-16.9,17.4h-12.9c-0.8,0-1.3-0.6-1.3-1.3s0.6-1.3,1.3-1.3h12.9c0.8,0,1.3,0.6,1.3,1.3S-16.1,17.4-16.9,17.4z
	 M-10.7,9.1c0-0.8-0.6-1.3-1.3-1.3h-17.8c-0.8,0-1.3,0.6-1.3,1.3c0,0.8,0.6,1.3,1.3,1.3H-12C-11.3,10.4-10.7,9.8-10.7,9.1z
	 M-20.4,23.1c0-0.8-0.6-1.3-1.3-1.3h-8.1c-0.8,0-1.3,0.6-1.3,1.3s0.6,1.3,1.3,1.3h8.1C-21,24.4-20.4,23.8-20.4,23.1z M-31.1,2.9
	l-3.2-2.4c-0.5-0.4-1.1-0.4-1.6,0l-3.2,2.4c-0.6,0.4-0.7,1.3-0.3,1.9c0.4,0.6,1.3,0.7,1.9,0.3l1.1-0.8v20.4c0,0.8,0.6,1.3,1.3,1.3
	s1.3-0.6,1.3-1.3V4.2l1.1,0.8c0.2,0.2,0.5,0.3,0.8,0.3c0.4,0,0.8-0.2,1.1-0.5C-30.4,4.2-30.5,3.4-31.1,2.9L-31.1,2.9z"/>
<path class="st1" d="M63.9,12.5H51.1c-0.7,0-1.3-0.6-1.3-1.3c0-0.7,0.6-1.3,1.3-1.3h12.8c0.7,0,1.3,0.6,1.3,1.3
	C65.2,11.9,64.6,12.5,63.9,12.5z M70,4.2c0-0.7-0.6-1.3-1.3-1.3H51.1c-0.7,0-1.3,0.6-1.3,1.3s0.6,1.3,1.3,1.3h17.6
	C69.4,5.5,70,5,70,4.2L70,4.2z M60.4,18.1c0-0.7-0.6-1.3-1.3-1.3h-8c-0.7,0-1.3,0.6-1.3,1.3c0,0.7,0.6,1.3,1.3,1.3h8
	C59.8,19.4,60.4,18.8,60.4,18.1z M50,21.7c-0.4-0.6-1.3-0.7-1.9-0.3l-1.1,0.8V2.1c0-0.7-0.6-1.3-1.3-1.3s-1.3,0.6-1.3,1.3v20.2
	l-1.1-0.8c-0.6-0.4-1.4-0.3-1.9,0.3c-0.4,0.6-0.3,1.4,0.3,1.9l3.2,2.4c0.2,0.2,0.5,0.3,0.8,0.3s0.6-0.1,0.8-0.3l3.2-2.4
	C50.3,23.1,50.4,22.3,50,21.7L50,21.7z"/>
</svg>
