<?xml version="1.0" encoding="utf-8"?>
<!-- Generator: Adobe Illustrator 27.2.0, SVG Export Plug-In . SVG Version: 6.00 Build 0)  -->
<svg version="1.1" xmlns="http://www.w3.org/2000/svg" xmlns:xlink="http://www.w3.org/1999/xlink" x="0px" y="0px"
	 viewBox="0 0 32 31" style="enable-background:new 0 0 32 31;" xml:space="preserve">
<style type="text/css">
	.st0{display:none;}
	.st1{display:inline;fill:#0C4C90;}
	.st2{display:inline;}
	.st3{fill:#0C4C90;}
</style>
<g id="Layer_1" class="st0">
	<path class="st1" d="M29,4.5H12l1,2.6h15.7c0.3,0,0.6,0.1,0.9,0.1h0v-2C29.7,4.8,29.3,4.5,29,4.5L29,4.5z"/>
	<path class="st1" d="M29.2,8.6c-0.3-0.1-0.6-0.1-0.9-0.1H11.8L10.4,5L9.9,3.7L2,3.7c-0.4,0-0.8,0.2-1.1,0.4
		C0.7,4.5,0.5,4.8,0.5,5.2v20.5c0,0.4,0.2,0.8,0.4,1C1.2,27,1.6,27.2,2,27.2h28c0.4,0,0.8-0.2,1.1-0.4c0.3-0.3,0.4-0.7,0.4-1.1V11.6
		c0-0.7-0.2-1.3-0.6-1.9C30.4,9.2,29.8,8.8,29.2,8.6L29.2,8.6z M21.6,19.5l-3.9,0v3.9h-3.4v-3.9h-3.9v-3.4h3.9v-3.9h3.4v3.9h3.9
		V19.5z"/>
</g>
<g id="Layer_2" class="st0">
	<g class="st2">
		<path class="st3" d="M15.4,15.5c-0.1-4.8-0.3-9.4-5-14.2C6.6,2.8,3.6,5.8,2,9.5l0,0c0.4,0.4,0.8,0.8,1.2,1.1l7-7l0,0
			c0.4,0.4,0.7,0.9,1,1.4h0l-6.7,6.7c0.6,0.4,1.2,0.8,1.9,1.1l5.9-5.9c0.3,0.6,0.5,1.1,0.6,1.7l-4.8,4.8c0.8,0.3,1.5,0.5,2.3,0.6h0
			l3-3c0.1,0.7,0.2,1.4,0.2,2.2l-1.1,1.1c0.4,0,0.8,0.1,1.2,0.1c0,0.3,0,0.7,0,1c0,0.2,0,0.4,0,0.7c-4-0.2-8.2-1-12.4-4.9
			C1,12.6,0.8,14,0.8,15.5c0,8.4,6.8,15.2,15.2,15.2c1.5,0,2.9-0.2,4.2-0.6C15.7,25.1,15.5,20.2,15.4,15.5z"/>
		<path class="st3" d="M29.2,20.3l-7,7c-0.4-0.4-0.7-0.9-1-1.4l6.7-6.7c-0.6-0.4-1.2-0.8-1.9-1.1L20.2,24c-0.3-0.6-0.5-1.1-0.6-1.7
			l4.8-4.8c-0.8-0.3-1.5-0.5-2.3-0.6l0,0l-3,3c-0.1-0.7-0.2-1.4-0.2-2.2l1.1-1.1c-0.4,0-0.8-0.1-1.2-0.1c0-0.3,0-0.7,0-1
			c0-0.2,0-0.4,0-0.7c3.9,0.2,7.9,1,11.9,4.5c0.3-1.2,0.5-2.5,0.5-3.8c0-8.4-6.8-15.2-15.2-15.2c-1.3,0-2.6,0.2-3.8,0.5
			c4.6,5,4.8,9.9,4.9,14.7c0.1,4.8,0.3,9.3,4.8,14c3.7-1.6,6.7-4.6,8.2-8.4C29.8,20.8,29.5,20.5,29.2,20.3z"/>
	</g>
</g>
<g id="Layer_3" class="st0">
	<path class="st1" d="M19.4,16.2c0-2.1-1.7-3.8-3.8-3.8c-2.1,0-3.8,1.7-3.8,3.8c0,2.1,1.7,3.8,3.8,3.8C17.7,20,19.4,18.3,19.4,16.2z
		 M19.7,24.7c4.3-1,7.3-4.9,7.3-9.3c0-5.3-4.3-9.6-9.6-9.6c-3.6,0-6.9,2.1-8.5,5.3h1c1.5-2.7,4.5-4.4,7.5-4.4c4.8,0,8.7,3.9,8.7,8.7
		c0,2.3-1,4.6-2.6,6.2l-0.1,0.1H0v3.1H18C18.6,24.8,19.4,24.8,19.7,24.7L19.7,24.7z M17.4,0.9c-6.5,0-12,4.3-13.9,10.3h3.7
		c1.7-3.9,5.6-6.7,10.1-6.7c6.1,0,11,4.9,11,11c0,6.1-4.9,11-11,11H7.9c2.5,2.2,5.8,3.5,9.5,3.5c8,0,14.5-6.5,14.5-14.6
		C31.9,7.4,25.4,0.9,17.4,0.9L17.4,0.9z M11,17c0-1.6-1.3-3-3-3H0V20h8.1C9.7,20,11,18.6,11,17L11,17z"/>
</g>
<g id="Layer_4" class="st0">
	<path class="st1" d="M31.3,17.4c0-3.7-1.4-7.3-3.8-10.1V5.9c0-1.7-0.7-3.2-2-4.3c-2.4-2.1-6-1.8-8.1,0.6c-0.5,0-1,0-1.4,0
		C9.7,2.1,4.6,7.2,4.6,13.5v5.7v0.3c-2.3,0.8-3.8,3-3.8,5.4c0,3.2,2.6,5.7,5.7,5.7h15.3v-3.8H6.5c-1.1,0-1.9-0.9-1.9-1.9
		s0.9-1.9,1.9-1.9h19.1C28.8,23.1,31.3,20.5,31.3,17.4L31.3,17.4z M27.5,17.4c0,1.1-0.9,1.9-1.9,1.9l-17.2,0v-5.7
		c0-4.2,3.4-7.6,7.6-7.6c1.3,0,2.6,0.2,3.8,0.7V5.9c0-1.1,0.9-1.9,1.9-1.9s1.9,0.9,1.9,1.9v3C26.1,11,27.5,14.1,27.5,17.4L27.5,17.4
		z"/>
	<path class="st1" d="M23.7,13.5c0,1.1-0.9,1.9-1.9,1.9s-1.9-0.9-1.9-1.9s0.9-1.9,1.9-1.9S23.7,12.5,23.7,13.5"/>
</g>
<g id="Layer_5" class="st0">
	<path class="st1" d="M14.4,7.6c-2,0.4-4.4,1.4-6.8,2.8c-2.7,1.6-6,3.7-7.2,6.7c-0.3,0.7-0.4,1.5,0,2.1c0.7,1.2,1.3,2.5,2,3.5
		c1.2,1,3.6,0.5,4.7,0.2c1.2-0.3,2.6-0.9,4-1.5c0.7,0.7,1.9,1.1,3.3,1.5c1.9,0.5,4.2,0.8,6.7,0.8c2.4,0,4.8-0.2,6.7-0.7
		c1.5-0.4,3.4-1,3.9-2.5c0.1-1.4,0-2.8,0-4.2c-0.1-0.8-0.6-1.4-1-1.8c-0.6-0.5-1.4-0.9-2.3-1.2c-2.6-0.7-4.5-1-7.4-1
		c0-0.1,0-0.1,0-0.2c-0.7-1.2-1.4-2.4-2-3.6C17.7,7.1,16,7.2,14.4,7.6L14.4,7.6z M17.8,9.4c-1.1-0.1-2.4,0.1-3.4,0.4
		c-1.7,0.4-3.7,1.2-5.8,2.4c-3.8,2.2-6,4.7-6.7,6.7c-0.5-0.3-0.4-0.9-0.3-1.2c1.4-2.7,4.4-4.7,6.7-6.1c2.3-1.4,4.6-2.3,6.4-2.6
		C16,8.6,17.5,8.3,17.8,9.4L17.8,9.4z M17.6,10c-0.4,0.7-0.8,1.3-1.2,1.8c-1.2,1.4-3.1,2.9-5.5,4.3c-2.3,1.4-4.6,2.2-6.4,2.6
		c-0.8,0.2-1.5,0.2-2,0.2c0.7-1.7,2.8-4.2,6.4-6.3c2-1.2,3.9-1.9,5.6-2.3C15.6,10.2,16.6,10,17.6,10L17.6,10z M18.7,10.9l0.9,1.6
		c-0.1,1.1-1.1,2-1.8,2.7c-1.3,1.3-3.2,2.6-5.2,3.8c-2.1,1.2-4.1,2.1-5.9,2.6c-1.7,0.5-2.9,0.4-3.4,0.2c-0.3-0.5-0.6-1-0.9-1.5
		c0.8,0,1.6-0.1,2.3-0.2c2-0.4,4.4-1.4,6.8-2.8c2.4-1.4,4.5-3,5.8-4.5C17.9,12.2,18.4,11.5,18.7,10.9L18.7,10.9z M11.5,12
		c-0.7,0.4-1.2,0.8-1.4,1.3c-0.2,0.5-0.2,0.9-0.2,1.2c0,0.7-0.7,1-1.1,1.1c-0.4,0.1-0.6,0.5-0.5,0.9s0.6,0.6,0.9,0.4
		c0.8-0.3,1.4-0.6,1.7-1.1s0.4-1,0.4-1.3c0-0.7,0.4-1.1,0.9-1.3c0.3-0.1,0.5-0.5,0.4-0.8C12.2,12,11.9,11.8,11.5,12L11.5,12z
		 M28,14.5c0.9,0.3,1.5,0.6,1.9,1c0.4,0.3,0.6,0.6,0.5,1c-0.7-0.5-1.8-1-3.1-1.4c-1.7-0.5-3.8-0.9-6.2-0.9c-0.2,0-0.5,0-0.7,0
		c0.1-0.2,0.2-0.5,0.3-0.7C23.9,13.6,25.8,13.8,28,14.5L28,14.5z M8.4,13.9c-0.8,0.1-1.4,0.5-1.6,1c-0.3,0.5-0.2,1-0.2,1.3
		c0.1,0.6-0.6,0.6-0.9,0.6c-0.4,0-0.7,0.3-0.7,0.7c0,0.4,0.4,0.7,0.8,0.6c0.9,0,1.5-0.2,1.9-0.7s0.3-1,0.3-1.3
		c-0.1-0.7,0.3-0.8,0.7-0.9c0.3-0.1,0.6-0.4,0.5-0.7C8.9,14.1,8.7,13.9,8.4,13.9L8.4,13.9z M21.1,14.9c2.3,0,4.3,0.3,6,0.8
		c1.2,0.4,2.2,0.8,2.8,1.3c-0.7,0.5-1.4,0.8-2,1c-1.7,0.6-4.1,1-6.9,1c-1.9,0-3.6-0.2-5.1-0.5c1-0.7,2-1.5,2.8-2.2
		c0.4-0.4,0.8-0.8,1.1-1.2C20.3,14.9,20.8,14.9,21.1,14.9L21.1,14.9z M20.7,15.9c-0.2,0.1-0.3,0.3-0.2,0.4c0.1,0.2,0.3,0.3,0.4,0.2
		c0.6-0.2,0.9-0.1,1-0.1c0.1,0.1,0.2,0.3,0.3,0.6c0.4,1.2,1.5,1,2.3,0.6c0.2-0.1,0.2-0.3,0.2-0.5s-0.3-0.2-0.5-0.1
		c-0.7,0.4-1.1,0.4-1.4-0.2c-0.1-0.3-0.2-0.7-0.6-1C21.7,15.7,21.2,15.8,20.7,15.9L20.7,15.9z M23.3,15.9c-0.2,0.1-0.3,0.3-0.2,0.4
		c0.1,0.2,0.2,0.3,0.4,0.2c0.6-0.2,0.9-0.1,1-0.1c0.1,0.1,0.2,0.3,0.3,0.6c0.4,1.2,1.5,1,2.3,0.6c0.2-0.1,0.2-0.3,0.2-0.5
		c-0.1-0.2-0.3-0.2-0.5-0.1c-0.7,0.4-1.1,0.4-1.4-0.2c-0.1-0.3-0.2-0.7-0.6-1C24.4,15.7,23.9,15.8,23.3,15.9L23.3,15.9z"/>
</g>
<g id="Layer_6">
	<g>
		<path class="st3" d="M15.5,11.7c-0.5,0-0.9,0.2-1.3,0.5s-0.5,0.8-0.5,1.3s0.2,0.9,0.5,1.3c0.3,0.3,0.8,0.5,1.3,0.5
			c0.5,0,0.9-0.2,1.3-0.5c0.3-0.3,0.5-0.8,0.5-1.3s-0.2-0.9-0.5-1.3C16.4,11.9,16,11.7,15.5,11.7L15.5,11.7z M15.5,14.4L15.5,14.4
			c-0.3,0-0.6-0.2-0.8-0.5c-0.1-0.3-0.1-0.7,0.2-0.9s0.6-0.3,0.9-0.2c0.3,0.1,0.5,0.4,0.5,0.8c0,0.2-0.1,0.4-0.2,0.6
			C15.9,14.3,15.7,14.4,15.5,14.4L15.5,14.4z"/>
		<path class="st3" d="M21.2,21.3c-0.5,0-0.9,0.2-1.3,0.5c-0.3,0.3-0.5,0.8-0.5,1.3s0.2,0.9,0.5,1.3c0.3,0.3,0.8,0.5,1.3,0.5
			s0.9-0.2,1.3-0.5c0.3-0.3,0.5-0.8,0.5-1.3s-0.2-0.9-0.5-1.3C22.2,21.5,21.7,21.3,21.2,21.3z M21.2,24c-0.3,0-0.6-0.2-0.8-0.5
			c-0.1-0.3-0.1-0.7,0.2-0.9s0.6-0.3,0.9-0.2c0.3,0.1,0.5,0.4,0.5,0.8c0,0.2-0.1,0.4-0.2,0.6C21.7,23.9,21.5,24,21.2,24L21.2,24z"/>
		<path class="st3" d="M25.6,26.2c2.2-2,3.7-4.7,4.3-7.6c0.6-2.9,0.3-5.9-0.9-8.6c-1.2-2.7-3.2-5-5.7-6.5c0.3-0.4,0.3-1,0.1-1.5
			s-0.5-0.9-1-1.1c-0.5-0.2-1-0.2-1.5,0c-0.5,0.2-0.8,0.6-1,1.1c-2.1-0.6-4.2-0.7-6.3-0.4C11.5,2,9.5,2.8,7.7,4
			C7.3,3.6,6.6,3.3,6,3.5C5.4,3.6,4.9,4.1,4.7,4.7C4.5,5.3,4.6,6,5.1,6.5C2.9,9,1.7,12.3,1.6,15.6c0,3.4,1.1,6.6,3.2,9.2
			c-0.2,0.4-0.3,0.8-0.3,1.2c0.1,0.4,0.3,0.8,0.6,1.1c0.3,0.3,0.8,0.4,1.2,0.4c0.4,0,0.7-0.1,1-0.3c2.2,1.7,4.9,2.6,7.7,2.8
			c2.8,0.1,5.6-0.5,8-1.9c0,0.4,0.2,0.8,0.5,1.1c0.3,0.3,0.7,0.5,1.1,0.5c0.4,0,0.9-0.1,1.2-0.4c0.4-0.3,0.6-0.6,0.7-1.1
			c0.1-0.4,0-0.9-0.2-1.3C26.3,26.7,26,26.4,25.6,26.2L25.6,26.2z M21.7,1.8L21.7,1.8c0.3,0,0.6,0.2,0.8,0.5
			c0.1,0.3,0.1,0.7-0.2,0.9s-0.6,0.3-0.9,0.2c-0.3-0.1-0.5-0.4-0.5-0.8C20.9,2.2,21.2,1.8,21.7,1.8L21.7,1.8z M6.4,4.4
			C6.7,4.4,7,4.6,7.2,5C7.3,5.3,7.2,5.6,7,5.9C6.8,6.1,6.4,6.2,6.1,6C5.8,5.9,5.6,5.6,5.6,5.3C5.6,4.8,6,4.4,6.4,4.4L6.4,4.4z
			 M6.4,26.6L6.4,26.6c-0.3,0-0.6-0.2-0.8-0.5c-0.1-0.3-0.1-0.7,0.2-0.9c0.2-0.2,0.6-0.3,0.9-0.2c0.3,0.1,0.5,0.4,0.5,0.8
			c0,0.2-0.1,0.4-0.2,0.6C6.8,26.5,6.6,26.6,6.4,26.6L6.4,26.6z M8.1,26.5L8.1,26.5c0.1-0.2,0.1-0.5,0.1-0.7c0-0.6-0.3-1.2-0.9-1.5
			c-0.5-0.3-1.2-0.4-1.8-0.1c-1.3-1.6-2.2-3.5-2.7-5.5c-0.4-2-0.4-4.1,0.1-6.2c0.3,0.6,1,1.4,2,1.4c1.6,0,0.6,1.2,2,1.4l0,0
			c0.7,0.1,1.4,0.5,1.8,1.2c0,0-1.1,2.8,0.8,4c1.8,1.1,2.2,3.3,2.1,5.2c-0.1,1.8,1.5,2,1.5,2c0.2-1.1,0.7-2.2,1.5-3.1
			c1.2-1.3,0.6-2.2,1.4-2.5c0.8-0.3,2.5-0.9,1.8-2.2c-0.7-1.3-1.4-0.7-2.3-1.3c-0.9-0.5-1.6-2.3-3.2-2.3s-4-0.5-4.2-1.5
			c-0.2-1,0.2-1.8,1.8-1.8c1.6,0,3.7-3.6,4.5-4.1c0.8-0.4-0.1-1.1,0.1-2.3C14.8,5.2,12,5,11,5.5C10.2,6,9.4,4.9,8,6.1l0,0
			c0.1-0.3,0.2-0.5,0.2-0.9c0-0.1,0-0.2,0-0.3c1.7-1.2,3.6-2,5.6-2.3c2-0.3,4.1-0.2,6.1,0.5c0.1,0.5,0.5,1,1,1.2
			c0.5,0.2,1.1,0.2,1.6,0c0.7,0.4,1.4,0.9,2.1,1.5c-0.4,0.4-0.3,1.2-0.4,2.2c-0.2,1.3-2.1,0.6-2.3,2.3c-0.3,1.7,1.7,0.5,3-0.3
			c0.8-0.5,2.3,0,3.2,0.4l0,0c0.3,0.7,0.5,1.3,0.7,2c-0.9-0.1-1.6,0.3-2.4,0.5c-1,0.3-2.1-0.6-3.6-0.9c-1.4-0.3-1.6,0.6-2.3,2.5
			s1.2,3.1,2.6,3c1.3,0,2.1,0.2,2.2,2.8l0,0c0.1,1.3,0.4,2.6,1,3.7c-2.1,2.7-5.2,4.5-8.6,4.9C14.3,29.4,10.8,28.5,8.1,26.5L8.1,26.5
			z M24.9,28.8L24.9,28.8c-0.3,0-0.6-0.2-0.8-0.5c-0.1-0.3-0.1-0.7,0.2-0.9c0.2-0.2,0.6-0.3,0.9-0.2c0.3,0.1,0.5,0.4,0.5,0.8
			C25.8,28.4,25.4,28.8,24.9,28.8L24.9,28.8z"/>
		<path class="st3" d="M5.4,16.4c-0.5,0-0.9,0.2-1.3,0.5c-0.3,0.3-0.5,0.8-0.5,1.3s0.2,0.9,0.5,1.3C4.5,19.9,5,20,5.4,20
			s0.9-0.2,1.3-0.5c0.3-0.3,0.5-0.8,0.5-1.3s-0.2-0.9-0.5-1.3C6.4,16.6,5.9,16.4,5.4,16.4L5.4,16.4z M5.4,19c-0.3,0-0.6-0.2-0.8-0.5
			c-0.1-0.3-0.1-0.7,0.2-0.9c0.2-0.2,0.6-0.3,0.9-0.2c0.3,0.1,0.5,0.4,0.5,0.8C6.3,18.7,5.9,19,5.4,19L5.4,19z"/>
		<path class="st3" d="M21.1,7.9c0-0.5-0.2-0.9-0.5-1.3c-0.3-0.3-0.8-0.5-1.3-0.5S18.4,6.3,18,6.6c-0.3,0.3-0.5,0.8-0.5,1.3
			s0.2,0.9,0.5,1.3c0.3,0.3,0.8,0.5,1.3,0.5s0.9-0.2,1.3-0.5C20.9,8.9,21.1,8.4,21.1,7.9L21.1,7.9z M19.3,8.7L19.3,8.7
			c-0.3,0-0.6-0.2-0.8-0.5c-0.1-0.3,0-0.7,0.2-0.9C19,7.1,19.3,7,19.6,7.2c0.3,0.1,0.5,0.4,0.5,0.8C20.2,8.4,19.8,8.7,19.3,8.7
			L19.3,8.7z"/>
	</g>
</g>
</svg>
