<svg width="21" height="28" viewBox="0 0 21 28" fill="none" xmlns="http://www.w3.org/2000/svg">
<path d="M14.184 10.1046L12.1282 12.1038L12.1282 5.7314C12.1282 5.32608 11.7929 5 11.3761 5L10.6239 5C10.2071 5 9.87183 5.32608 9.87183 5.7314L9.87183 12.1038L7.81605 10.1046C7.52147 9.81812 7.04513 9.81812 6.75368 10.1046L6.22093 10.6227C5.92635 10.9091 5.92635 11.3724 6.22093 11.6558L10.4673 15.7851C10.7618 16.0716 11.2382 16.0716 11.5296 15.7851L15.7791 11.6558C16.0736 11.3693 16.0736 10.9061 15.7791 10.6227L15.2463 10.1046C14.9517 9.81812 14.4754 9.81812 14.184 10.1046Z" fill="white"/>
<path d="M17.6199 20.03C17.7172 20.03 17.8144 20.03 17.8144 19.9363C17.9117 19.9363 18.009 19.9363 18.1063 19.8427C18.2036 19.7491 18.3008 19.6554 18.3008 19.4682C18.3008 19.2809 18.2036 19.1873 18.1063 19.0936C18.009 19 17.8144 19 17.6199 19H15.0907C14.9934 19 14.7989 19 14.7016 19.0936C14.6043 19.1873 14.5071 19.2809 14.4098 19.3745C14.3125 19.4682 14.3125 19.5618 14.3125 19.7491V19.8427V23.6816V23.7753C14.3125 23.9625 14.4098 24.1498 14.5071 24.2434C14.6043 24.3371 14.7016 24.4307 14.8962 24.4307C14.8962 24.4307 14.8962 24.4307 14.9934 24.4307C15.188 24.4307 15.3825 24.4307 15.4798 24.0562C15.5771 23.9625 15.6744 23.7753 15.6744 23.4944V22.0899H17.2308C17.4253 22.0899 17.5226 22.0899 17.6199 21.9963C17.7172 21.9026 17.7172 21.9026 17.7172 21.809H17.8144C17.9117 21.7154 18.009 21.6217 18.009 21.4345C18.009 21.2472 17.9117 21.1536 17.8144 21.0599C17.7172 20.9663 17.5226 20.9663 17.3281 20.9663H15.6744V20.03H17.6199Z" fill="white"/>
<path d="M8.0856 19.9363C7.98833 19.6554 7.89105 19.5618 7.6965 19.3745C7.50195 19.2809 7.30739 19.1873 7.11284 19.0936C6.91829 19 6.52918 19 6.14008 19H4.77821C4.48638 19 4.29183 19.0936 4.19455 19.1873C4.09728 19.2809 4 19.4682 4 19.7491V23.6816C4 23.9625 4.09728 24.1498 4.19455 24.2434C4.29183 24.3371 4.48638 24.4307 4.68093 24.4307C4.87549 24.4307 5.07004 24.4307 5.16732 24.1498C5.26459 23.9625 5.36187 23.7753 5.36187 23.588V22.2772H6.0428H6.23735C6.82101 22.2772 7.40467 21.9963 7.6965 21.809C7.98833 21.6217 8.18288 21.1536 8.18288 20.6854C8.18288 20.6854 8.18288 20.6854 8.18288 20.5918C8.18288 20.4045 8.18288 20.1236 8.0856 19.9363ZM6.91829 20.779C6.91829 20.9663 6.91829 21.0599 6.82101 21.1536C6.82101 21.2472 6.62646 21.3408 6.52918 21.3408C6.33463 21.4345 6.14008 21.4345 5.94553 21.4345H5.36187V20.1236H5.84825C6.43191 20.1236 6.62646 20.2172 6.72374 20.3109C6.82101 20.4045 6.91829 20.5918 6.91829 20.779Z" fill="white"/>
<path d="M11.9761 19.0936C11.6843 19 11.3925 19 11.0034 19H9.64149C9.34966 19 9.15511 19.0936 9.05783 19.1873C8.96056 19.2809 8.86328 19.4682 8.86328 19.7491V23.4944C8.86328 23.6816 8.96056 23.8689 8.96056 23.9625C8.96056 24.0562 9.05783 24.0562 9.15511 24.1498L9.25239 24.2434C9.34966 24.3371 9.54422 24.3371 9.73877 24.3371H11.1006C11.3925 24.3371 11.587 24.3371 11.6843 24.2434C11.8788 24.1498 12.0734 24.1498 12.268 24.0562C12.4625 24.0562 12.5598 23.8689 12.7543 23.7753C12.9489 23.588 13.1434 23.4007 13.2407 23.2135C13.338 22.9326 13.4353 22.7453 13.5325 22.4644C13.6298 22.1835 13.6298 21.9026 13.6298 21.6217C13.6298 20.6854 13.338 19.9363 12.7543 19.4682C12.4625 19.2809 12.268 19.1873 11.9761 19.0936ZM12.268 21.7154C12.268 22.3708 12.0734 22.839 11.7816 23.1198C11.7816 23.1198 11.6843 23.2135 11.587 23.2135C11.4897 23.3071 11.3925 23.3071 11.2952 23.3071C11.1979 23.3071 11.1006 23.3071 10.9061 23.3071H10.2251V20.1236H10.8088C11.1006 20.1236 11.3925 20.1236 11.587 20.2172C11.7816 20.3109 11.9761 20.4981 12.0734 20.6854C12.1707 20.8727 12.268 21.2472 12.268 21.7154Z" fill="white"/>
</svg>
