<svg width="14" height="17" viewBox="0 0 14 17" fill="none" xmlns="http://www.w3.org/2000/svg">
<path d="M13.1156 16.6477H0.874375C0.389826 16.6477 0 16.2579 0 15.7734V14.899C0 14.4144 0.389826 14.0246 0.874375 14.0246H13.1156C13.6002 14.0246 13.99 14.4144 13.99 14.899V15.7734C13.99 16.2579 13.6002 16.6477 13.1156 16.6477ZM3.29348 7.04783L5.68344 4.65787V12.2759C5.68344 12.7604 6.07326 13.1502 6.55781 13.1502H7.43219C7.91674 13.1502 8.30656 12.7604 8.30656 12.2759V4.65787L10.6965 7.04783C11.039 7.39029 11.5928 7.39029 11.9316 7.04783L12.5509 6.42848C12.8934 6.08601 12.8934 5.53224 12.5509 5.19342L7.61435 0.256848C7.27189 -0.0856159 6.71811 -0.0856159 6.37929 0.256848L1.43908 5.19342C1.09661 5.53589 1.09661 6.08966 1.43908 6.42848L2.05842 7.04783C2.40089 7.39029 2.95466 7.39029 3.29348 7.04783Z" fill="white"/>
</svg>
