<?xml version="1.0" encoding="utf-8"?>
<!-- Generator: Adobe Illustrator 26.3.1, SVG Export Plug-In . SVG Version: 6.00 Build 0)  -->
<svg version="1.1" id="Layer_1" xmlns="http://www.w3.org/2000/svg" xmlns:xlink="http://www.w3.org/1999/xlink" x="0px" y="0px"
	 viewBox="0 0 68.7 68.5" style="enable-background:new 0 0 68.7 68.5;" xml:space="preserve">
<style type="text/css">
	.st0{fill:#2DC799;}
	.st1{opacity:0.2;}
</style>
<g class="st1">
	<circle cx="34.5" cy="34.5" r="31"/>
</g>
<path class="st0" d="M34.4,0.3c-18.7,0-34,15.3-34,34s15.3,34,34,34s34-15.3,34-34S53.1,0.3,34.4,0.3z M34.4,64.5
	c-16.7,0-30.2-13.6-30.2-30.2S17.7,4.1,34.4,4.1s30.2,13.6,30.2,30.2S51,64.5,34.4,64.5z"/>
<path class="st0" d="M35.7,15.9c-0.7-0.7-1.9-0.7-2.7,0l-17,17c-0.7,0.7-0.7,1.9,0,2.7c0.7,0.7,1.9,0.7,2.7,0l13.8-13.8v27.6
	c0,1,0.8,1.9,1.9,1.9s1.9-0.8,1.9-1.9V21.8L50,35.6c0.4,0.4,0.9,0.6,1.3,0.6s1-0.2,1.3-0.6c0.7-0.7,0.7-1.9,0-2.7L35.7,15.9z"/>
</svg>
