<?xml version="1.0" encoding="utf-8"?>
<!-- Generator: Adobe Illustrator 26.3.1, SVG Export Plug-In . SVG Version: 6.00 Build 0)  -->
<svg version="1.1" id="Layer_1" xmlns="http://www.w3.org/2000/svg" xmlns:xlink="http://www.w3.org/1999/xlink" x="0px" y="0px"
	 viewBox="0 0 17 17" style="enable-background:new 0 0 17 17;" xml:space="preserve">
<style type="text/css">
	.st0{fill:#010101;}
</style>
<path class="st0" d="M14.4,0.1H2.6c-1.4,0-2.5,1.1-2.5,2.5v11.8c0,1.4,1.1,2.5,2.5,2.5h11.8c1.4,0,2.5-1.1,2.5-2.5V2.6
	C16.9,1.2,15.7,0.1,14.4,0.1z M2.6,1.8h11.8c0.5,0,0.8,0.4,0.8,0.8v3.1H1.8V2.6C1.8,2.2,2.1,1.8,2.6,1.8z M10.2,7.4v7.8H6.8V7.4
	H10.2z M1.8,14.4v-7h3.4v7.8H2.6C2.1,15.2,1.8,14.8,1.8,14.4z M14.4,15.2h-2.5V7.4h3.4v7C15.2,14.8,14.8,15.2,14.4,15.2z"/>
</svg>
