<!-- <svg xmlns="http://www.w3.org/2000/svg" fill="#004187" size="100" viewBox="0 0 320 512">! Font Awesome Pro 6.1.1 by @fontawesome - https://fontawesome.com License - https://fontawesome.com/license (Commercial License) Copyright 2022 Fonticons, Inc.<path d="M310.6 361.4c12.5 12.5 12.5 32.75 0 45.25C304.4 412.9 296.2 416 288 416s-16.38-3.125-22.62-9.375L160 301.3L54.63 406.6C48.38 412.9 40.19 416 32 416S15.63 412.9 9.375 406.6c-12.5-12.5-12.5-32.75 0-45.25l105.4-105.4L9.375 150.6c-12.5-12.5-12.5-32.75 0-45.25s32.75-12.5 45.25 0L160 210.8l105.4-105.4c12.5-12.5 32.75-12.5 45.25 0s12.5 32.75 0 45.25l-105.4 105.4L310.6 361.4z"/></svg> -->
<svg xmlns="http://www.w3.org/2000/svg" xmlns:xlink="http://www.w3.org/1999/xlink" version="1.1" width="256" height="256" viewBox="0 0 256 256" xml:space="preserve">
<desc>Created with Fabric.js 1.7.22</desc>
<defs>
</defs>
<g transform="translate(128 128) scale(1.23 1.23)" style="">
	<g style="stroke: none; stroke-width: 0; stroke-dasharray: none; stroke-linecap: butt; stroke-linejoin: miter; stroke-miterlimit: 10; fill: none; fill-rule: nonzero; opacity: 1;" transform="translate(-103.04999999999998 -103.05) scale(2.29 2.29)" >
	<path d="M 6 90 c -1.536 0 -3.071 -0.586 -4.243 -1.758 c -2.343 -2.343 -2.343 -6.142 0 -8.484 l 78 -78 c 2.342 -2.343 6.143 -2.343 8.484 0 c 2.344 2.343 2.344 6.142 0 8.485 l -78 78 C 9.071 89.414 7.536 90 6 90 z" style="stroke: none; stroke-width: 1; stroke-dasharray: none; stroke-linecap: butt; stroke-linejoin: miter; stroke-miterlimit: 10; fill: rgb(0,65,135); fill-rule: nonzero; opacity: 1;" transform=" matrix(1 0 0 1 0 0) " stroke-linecap="round" />
	<path d="M 84 90 c -1.535 0 -3.071 -0.586 -4.242 -1.758 l -78 -78 c -2.343 -2.343 -2.343 -6.142 0 -8.485 c 2.343 -2.343 6.143 -2.343 8.485 0 l 78 78 c 2.344 2.343 2.344 6.142 0 8.484 C 87.071 89.414 85.535 90 84 90 z" style="stroke: none; stroke-width: 1; stroke-dasharray: none; stroke-linecap: butt; stroke-linejoin: miter; stroke-miterlimit: 10; fill: rgb(0,65,135); fill-rule: nonzero; opacity: 1;" transform=" matrix(1 0 0 1 0 0) " stroke-linecap="round" />
</g>
</g>
</svg>