<?xml version="1.0" encoding="utf-8"?>
<!-- Generator: Adobe Illustrator 26.0.0, SVG Export Plug-In . SVG Version: 6.00 Build 0)  -->
<svg version="1.1" xmlns="http://www.w3.org/2000/svg" xmlns:xlink="http://www.w3.org/1999/xlink" x="0px" y="0px"
	 viewBox="0 0 141.6 81.7" style="enable-background:new 0 0 141.6 81.7;" xml:space="preserve">
<style type="text/css">
	.st0{display:none;}
	.st1{display:inline;}
	.st2{fill-rule:evenodd;clip-rule:evenodd;fill:#FFFFFF;}
	.st3{display:inline;fill:#FFFFFF;}
	.st4{fill:#FFFFFF;}
</style>
<g id="Layer_1">
</g>
<g id="Ped_Gen" class="st0">
	<g class="st1">
		<path class="st2" d="M67.9,11.3c0.9-0.2,3.9-0.4,4.4-0.3c0.6-0.4,0.3,0.1,0.5-0.8c0.7,0,1,0,1.3,0.3c0.2,0,0.3,0,0.5,0
			c0,0.3,0,0.5,0,0.8c1.8,0.1,2.7-0.3,3.6,0.3c0.5-0.1,0.5-0.1,0.8-0.3c0.2-0.3,0.3-1,0.5-1.3c-0.1-0.5-0.1-0.5-0.3-0.8
			c-2-1.5-9.6-1.1-11.8-1c0,0.9,0.1,2,0.5,2.6C67.9,10.9,67.9,11.1,67.9,11.3z"/>
		<path class="st2" d="M55.3,16.1c0-0.1,0-0.2,0-0.3c0.3-0.4,0,0,0-0.5c0.6-0.2,0.5-0.3,1,0c0.6-0.4,0.5-0.3,0.5-1.3
			c0.8-0.1,1.6,0.2,2.3,0c2.4-0.8,5.2-3,8-3.1c-0.1-0.6-0.2-1.6-0.5-2.1c0-0.2,0-0.3,0-0.5c-0.5,0-1,0-1.5,0c-1.5,1.1-4.9,1-7.2,2.1
			c-1.6,0.7-3.3,2.4-5.1,2.8c0.4,1.4,1.3,1.6,1.5,3.1C55,15.9,54.4,16.1,55.3,16.1z"/>
		<path class="st2" d="M80.2,13.1c0.7-0.1,0.9-0.1,1.3-0.3c0.1,0.4,0.2,0.4,0.3,1c0.5-0.1,1-0.2,1.5-0.3c0,0.3,0,0.5,0,0.8
			c0.6-0.2,0.4-0.1,0.8-0.5c0.7,0.6,2.4,1.2,2.8,2.1c0.2,0.6,0.2,0.3-0.3,0.8c0.7,1,1.9,1.3,2.6,2.3c1.6-0.4,1.9-2,3.1-2.8
			c-0.6-2.9-9-4.9-11.3-6.7c-1.3,0.4-0.9,1.4-1.5,2.3C79.8,12.3,80,12.4,80.2,13.1z"/>
		<path class="st2" d="M68.1,12.8C68,12.9,68,13,67.9,13.1c0.1,0.4,0.2,0.9,0.3,1.3c1.8,0.2,2,0.3,4.6,0.3c-0.1,0.6-0.1,0.7-0.3,1
			c0.3,0.3,1,0.5,1.3,0.8c0.3-0.6,0.5-0.7,1-1c0.1,0.3,0.2,0.5,0.3,0.8c0.5-0.2,0.4-0.6,0.8-0.8c0.6-0.3,1.1,0.2,1.5,0
			c0.6-0.3,0.4-0.4,0.8-0.8c0-0.3,0-0.5,0-0.8c-2-0.4-3.5-0.7-5.7-1C70.9,12.6,69.4,13.2,68.1,12.8z"/>
		<path class="st2" d="M67.1,13.1c-3.5,0.8-8.8,1.8-11.3,4.4c-0.1,0.1-0.2,0.2-0.3,0.3c0.1,0,0.2,0,0.3,0c0.3,1.1,0.8,1.6,1.3,2.6
			c0.2,0.1,0.3,0.2,0.5,0.3c0.2-0.7,0.1-0.8,0-1.8c0.5,0.1,0.5,0.1,0.8,0.3c0.3-0.3,0.6-0.7,0.8-1c1.8,0.1,3.5,0.7,5.4-1
			c0.7-0.4,0.6-1,1-1.5c0.1-0.1,1.2-0.4,1.8-0.5c0-0.7,0-1-0.3-1.3C67.1,13.4,67.1,13.2,67.1,13.1z"/>
		<path class="st2" d="M45.5,23.6c0.5,0.2,1-0.2,1.8,0c0-0.5,0-1,0-1.5c0.3,0,0.7,0,1,0c0-0.4,0-0.9,0-1.3c0.7,0.1,0.7,0,1,0.3
			c0.2,0,0.3,0,0.5,0c-0.3-0.3-0.5-0.5-0.8-0.8c0.5-1.1,3.7-3.4,4.6-3.3c-0.3-1.2-0.9-2.2-1.8-2.8c0-0.1,0-0.2,0-0.3
			c-2.2,0.7-7.5,5.8-8.2,8c-0.1,0-0.2,0-0.3,0C43.8,22.8,44.5,23.3,45.5,23.6z"/>
		<path class="st2" d="M78.1,16.1c0.5,0.7,0.7,0.5,0.8,1.8c0.6-0.2,0.4-0.1,0.8-0.5c0.8,0.4,0.5,0.9,1,1.3c0.7,0.5,1.5,0.1,2.3,0.5
			c1,0.5,2.4,2,3.1,2.8c0.5-0.1,0.5-0.1,0.8-0.3c1-0.4,1.9-1.6,2.3-2.6c-3.3-2-7-4.1-10.3-5.4C78.8,14.6,78.6,15.6,78.1,16.1z"/>
		<path class="st2" d="M92.8,20c0.2,0.2,0,0.1,0.3,0c0.8-0.3,1.4-0.9,1.8-1.5c0.3-0.9-1.1-1.4-1.5-2.3c-0.3,0-0.5,0-0.8,0
			C91.4,17.8,91,18.4,92.8,20z"/>
		<path class="st2" d="M51.4,25.9c0.2-0.4,0.1-0.3-0.3-0.8c0.4-0.3,0.8-0.4,1.5-0.5c0-0.3,0-0.5,0-0.8c0.3,0,0.5,0,0.8,0
			c0.2-1.3,1.2-2,2.3-2.3c0.3-0.2,0.2-0.2,0.8-0.3c0-0.3,0-0.5,0-0.8c-0.7-0.7-1.3-1.7-1.8-2.6c-3.8,0.6-4.5,5.2-7.5,6.4
			c0.4,1,1.2,1.4,2.1,1.8C49.5,26.2,51,26.1,51.4,25.9z"/>
		<path class="st2" d="M58.6,19c0,0.2,0,0.3,0,0.5C59.1,19.2,58.9,19.4,58.6,19z"/>
		<path class="st2" d="M95.4,24.6c0,0.1,0,0.2,0,0.3c1.1-0.4,2.4-1.2,3.1-2.1c0.5-0.6-2-2.9-2.3-3.9c-0.3,0-0.5,0-0.8,0
			c-0.7,0.7-1.4,1.4-2.1,2.1C93.5,22.5,94.4,23.9,95.4,24.6z"/>
		<path class="st2" d="M51.9,50.8c0.4-0.2,0.3-0.1,0.5-0.3c0.2-0.7-0.7-1.5-1-2.3c-0.5-1.5-0.9-4.3-1.3-6.7
			c-0.1-0.8,0.3-3.1,0.5-3.9c1.6-7.1,5.5-12.8,12.1-15.7c1.6-0.7,4.6-0.7,5.9-1.5c1.4,0,2.7,0,4.1,0c-0.6-1.1-2.2-0.6-3.1-0.8
			c-0.6,0.4-1.6,0-2.6,0.3c-2.2,0.6-4.8,1.3-6.7,2.3c-5.8,3.2-13.2,12.6-10.5,22.6C50.6,46.9,51.2,48.9,51.9,50.8z"/>
		<path class="st2" d="M88.7,21c-0.1,0-0.2,0-0.3,0c0.2,0.7,0.3,0.6,0.5,1.3c1,0,1-0.2,2.3-0.3c-0.2-1.5-0.8-1.3-1.3-2.3
			C89.2,20.1,89,20.2,88.7,21z"/>
		<path class="st2" d="M73,20c0.2,0.4,0.1,0.3,0.3,0.5c1.5,1,3.9,0.5,5.1,1.5c0.3,0,0.7,0,1,0c-0.2-0.6-0.3-0.6-0.5-1
			C76.9,20.6,75.4,20,73,20z"/>
		<path class="st2" d="M86.1,26.7c-0.7-2.1-4.4-4.1-6.4-4.9c-0.2,1,4.7,3.5,5.7,4.9C85.6,26.7,85.9,26.7,86.1,26.7z"/>
		<path class="st2" d="M56.6,31.3c0.5,0.3,0.5,0.4,1.3,0.5c0.1-0.5,0.1-0.5,0.3-0.8c0-0.2,0-0.3,0-0.5c0.3,0,0.5,0,0.8,0
			c0.3-1.2,0.8-0.8,1-2.1c1.2-0.1,4-2.3,4.1-2.8c1.3-0.1,1.9-0.3,2.8-0.8c0.4-0.3,0.9,1,1.5,0.8c0.1-0.3,0.2-0.5,0.3-0.8
			c0.6-0.3,2.2-0.5,2.6-0.5c1.5-0.3,2.3,1.6,3.9,0.8c1.8,0.3,1.8,1.4,2.3,2.1c0.6,0.1,0.4,0.2,0.8-0.5c0.6,0.4,0.3-0.1,0.5,0.8
			c0.2-0.2,0.3-0.3,0.5-0.5c0.6,0.4,0.3-0.1,0.5,0.8c1.3,0.2,1.6,0.9,2.1,1.8c1.6-0.1,1.8-0.4,2.3-1.5c-0.4-0.3-0.3-0.2-0.5-0.8
			c-0.8,0.2-0.6,0-1,0.5c-0.1,0-0.2,0-0.3,0c0.2-0.2,0.3-0.3,0.5-0.5c-0.2-1.3-1.8-1.9-3.1-2.1c-0.1-0.8-0.1-0.9-0.5-1.3
			c0-0.1,0-0.2,0-0.3c-0.6,0.4-0.3-0.1-0.5,0.8c-0.6-0.4-0.3,0.1-0.5-0.8c-2.4-0.1-3.4-1-5.1-1.5c-0.2,0.4-0.2,0.8-0.3,1.5
			c-0.2-0.3-0.2-0.6-0.3-1.3c-1.1,0.1-4.4-0.1-5.4,0.5c-0.6,0.4-0.3-0.1-0.5,0.8c-1.8-1.1-4.6,1.2-6.2,2.1c-0.3-0.1-0.5-0.2-0.8-0.3
			c-1.1,0.8-0.8,2.2-2.6,2.6c-0.1,0.4-0.2,0.9-0.3,1.3c-0.9,0.2-0.7,0.4-1.3,0.8c0,0.3,0,0.5,0,0.8c0.3,0,0.5,0,0.8,0
			c0,0.2,0,0.3,0,0.5c-0.3-0.2-0.5-0.3-0.8-0.5c-1.4,1.6-2.8,4.2-2.8,6.4c0.9,0.1,1.3,0.1,1.8,0.5C55.2,37.3,56.9,32.5,56.6,31.3z"
			/>
		<path class="st2" d="M91.8,22c-0.6,1-1.4,2.2-2.3,2.8c0.4,1,1.1,1.6,1.5,2.6c1.7-0.3,2.2-1.3,3.6-1.8C94.2,24.4,93,22.5,91.8,22z"
			/>
		<path class="st2" d="M42.2,29c0.2-0.2,0.3-0.4,0.5-0.8c0.3,0,0.7,0,1,0c0.3-1.8,1-2.4,1.5-4.1c-0.7-0.6-1.4-1.1-2.3-1.5
			c-1.1,2.2-2.6,4.6-3.6,6.9c-0.5,1.2-0.4,2.6-1,3.6c0,0.3,0,0.7,0,1c1.1,0.3,1.9,0.5,3.3,0.5C41.8,32.3,42.9,31.2,42.2,29z"/>
		<path class="st2" d="M97.4,23.8c-0.1,1.7,0.6,2.4-0.8,3.9c0,0.2,0,0.3,0,0.5c0.6-0.2,1.1-0.4,1.5-0.8c0.9,1.1,0.9,3,1.8,4.1
			c0.4,0.2,1.4-0.2,2.3-0.3c-0.2-2.7-1.6-6.6-3.3-8c-0.1-0.1-0.2-0.2-0.3-0.3C98.3,23.6,98.2,23.7,97.4,23.8z"/>
		<path class="st2" d="M46.8,25.4c-0.7,2.1-2.2,4.2-3.1,6.2c-0.5,1.1-0.2,2-0.8,2.8c0.1,0.3,0.2,0.5,0.3,0.8c0.7,0,1,0,1.3,0.3
			c0.1,0,0.2,0,0.3,0c0.4-1.6,0.7-3.1,1.5-4.1c0.4-0.2,0.4,0,1,0.3c0.3-0.5,0.2-0.5,0.8-0.8c-0.1-0.5-0.2-0.9-0.5-1.3
			c0.2-0.2,0.6-0.3,0.8-0.5c0.3-0.6-0.4-0.9,0.3-1.8C48.4,25.9,47.9,25.6,46.8,25.4z"/>
		<path class="st2" d="M94.6,25.9c-0.6,0.4-1.2,0.9-1.8,1.3c-0.1,0.8-0.2,1.5-0.3,2.3c0.8-0.2,0.6,0,1-0.5c0.2,0.3,0.2,0.4,0.3,1
			c0.6-0.2,0.4-0.1,1,0c0.4,1,0.7,1.7,0.8,3.1c0.7-0.2,1.6-0.4,2.1-0.8c0.6-1.6-2.1-4.7-2.6-6.4C94.9,25.9,94.8,25.9,94.6,25.9z"/>
		<path class="st2" d="M68.4,26.4c-0.8,0.5-0.4,0.5-0.3,1.5c0.3,0,0.5,0,0.8,0c0-0.9-0.3-0.4,0.3-1c0-0.2,0-0.3,0-0.5
			C68.4,26.5,68.8,26.6,68.4,26.4z"/>
		<path class="st2" d="M69.7,26.9c-0.2,0.8-0.3,1.1-0.8,1.5c0,0.4,0,0.9,0,1.3C69.6,29.4,70.3,27.8,69.7,26.9z"/>
		<path class="st2" d="M86.9,27.2c-0.3,0-0.5,0-0.8,0c1,1.6,2.4,3.2,3.3,4.9c0.5,0.9,0.4,1.9,1,2.6c0.1,0.1,0.2,0.2,0.3,0.3
			c0.1-0.1,0.2-0.2,0.3-0.3C90.2,31.4,88.4,29.6,86.9,27.2z"/>
		<path class="st2" d="M89.5,42.4c0.2,0,0.3,0,0.5,0c0.2-0.4-0.4-0.9-0.5-1.5c-0.3,0-0.7,0-1,0c0-0.2,0-0.3,0-0.5c0.3,0,0.7,0,1,0
			c-0.1-4.2-1.8-5.4-2.6-9.3c-0.6,0.2-0.4,0.1-0.8,0.5c-0.2,0-0.3,0-0.5,0c0.6-1.3,0.1-1.2-0.3-2.6c-1.5,0.1-1.3,0.4-2.1,1
			c0.6,2.1,1.9,2.2,1.8,4.4c0.3,0,0.5,0,0.8,0c0.6,2.5,1.2,4.7,1,6.4c-0.1,1.2,0.7,2.8-0.5,3.6c0,0.2,0,0.3,0,0.5
			c0.7,0.1,1.6,0.2,2.1,0.5C89.3,44.9,89,43.2,89.5,42.4z"/>
		<path class="st2" d="M68.4,31.6c0.2-0.2,0.3-0.3,0.5-0.5c0-0.3,0-0.5,0-0.8c-0.9-0.2-0.7-0.1-1-0.8c-0.3,0-0.5,0-0.8,0
			c0.1,0.7,0.3,0.7,0,1.3C67.5,31.4,67.7,31.2,68.4,31.6z"/>
		<circle class="st2" cx="60.9" cy="30.3" r="0.4"/>
		<path class="st2" d="M99.7,35.7c0.3,0.7,1.3,1.6,0.5,2.8c0.2,0.9,0.3,0.8,0.5,1.5c1.2,0,2.5,0,3.3-0.3c0-3.5-1.2-5.6-1.5-8.2
			c-0.9,0.2-1.7,0.3-2.6,0.5C99.9,33.4,99.4,34.9,99.7,35.7z"/>
		<path class="st2" d="M61.2,31.8c0.4,1.2,1.1,2.1,0.5,2.8c0.3,0.2,0.2,0.2,0.8,0.3c0.2-1.4,0.1-2-0.8-2.8c0-0.1,0-0.2,0-0.3
			C61.5,31.8,61.4,31.8,61.2,31.8z"/>
		<path class="st2" d="M69.4,32.6c-0.2-0.8,0.1-0.4-0.5-0.8c0.2,0.4,0.1,0.3,0.3,0.5c0,0.1,0,0.2,0,0.3
			C69.2,32.6,69.3,32.6,69.4,32.6z"/>
		<path class="st2" d="M94.9,34.4c0.6,1.8-0.2,1.1,0,2.1c0.3,0.3,0.8,0.7,0.8,1.3c0,0.6-0.4,1.2,0,1.8c0,0.2,0,0.3,0,0.5
			c1.2,0,2.4,0,3.6,0c0-2.1-0.1-5.1-1-6.4c0-0.2,0-0.3,0-0.5C96.4,33.3,96.3,34,94.9,34.4z"/>
		<path class="st2" d="M42.2,47.5c-0.3,0-0.5,0-0.8,0c0.2-0.7,0.3-0.6,0.5-1.3c-0.4-0.1-0.4-0.2-1-0.3c0-1.3,0.8-1.7,0.5-2.8
			c-0.7-2.5-0.6-6.4-0.3-8c-0.9-0.3-1.9-0.5-3.1-0.5c-0.1,2.9-1.3,6.6-0.5,10c0.4,1.7,0.9,3.4,1,5.1c1.2-0.3,2.4-0.5,3.6-0.8
			C42,48.4,42.1,48.4,42.2,47.5z"/>
		<path class="st2" d="M57.8,34.9c0,0.3,0,0.5,0,0.8c0.2,0,0.3,0,0.5,0C58.1,35.1,58.3,35.2,57.8,34.9z"/>
		<path class="st2" d="M63.5,35.4c0.1-0.1,0.2-0.2,0.3-0.3c-0.4-0.1-0.6-0.2-1.3-0.3c0.3,0.3,0.7,0.6,1,0.8
			C63.5,35.6,63.5,35.5,63.5,35.4z"/>
		<path class="st2" d="M91,46c0.1,0,0.2,0,0.3,0c1.4-3.8,0.2-7.1,0-11.1c-0.2,0-0.3,0-0.5,0c-0.3,1.9,1.7,7.1,0.3,9.3
			C91,44.8,91,45.4,91,46z"/>
		<path class="st2" d="M44.7,35.9c-0.7-0.1-1.1-0.3-2.1-0.3c-0.1,3.7-1.1,10,0.8,12.6c0.6,0.3,2.6-0.5,3.6-0.8
			C46.9,47,47,47,46.8,46.7c-0.4-0.2-0.6,0-1-0.3c-0.1-0.1-0.2-0.2-0.3-0.3c0.3-0.1,0.8-0.3,1-0.5c0.1-0.1,0.2-0.2,0.3-0.3
			c-0.7-0.2-0.5-0.1-1.3,0c-0.2-0.4-0.1-0.3-0.3-0.5c0.2-1,0.3-0.7,0.8-1.3c0,0,0.2-0.8,0-1.3c0.1-2.6-0.1-3.2-1.3-4.4
			C44.7,38,44.8,36.7,44.7,35.9z"/>
		<path class="st2" d="M69.2,37.5c0.3-0.4-0.2-0.7-0.3-0.8C69.1,37.1,68.5,37,69.2,37.5z"/>
		<circle class="st2" cx="80.2" cy="37" r="0.4"/>
		<path class="st2" d="M54,45.7c0,0.1,0,0.2,0,0.3c-0.3,0.1-0.7,0.2-1,0.3c0.3,1.2,0.8,2.4,1.5,3.1c0.3,0.2,0.1,0.1,0.5,0.3
			c0.4-0.4,0.8-0.8,1.3-1c-0.3-2.4-3.5-6.3-1.5-9.3c0-0.7-0.1-1.1-0.3-1.5c-0.6-0.1-1.2-0.2-1.8-0.3c-0.7,2.7-0.2,5,0,8.5
			C53.1,45.9,53.6,45.8,54,45.7z"/>
		<path class="st2" d="M81.2,38c0,0.1,0,0.2,0,0.3c0.8-0.1,0.7-0.2,1.3-0.5c-0.3-0.2-0.2-0.2-0.8-0.3C81.4,38.1,81.9,37.7,81.2,38z"
			/>
		<path class="st2" d="M71.5,38c0.1,0,0.2,0,0.3,0c0-0.1,0-0.2,0-0.3c-0.4,0-0.9,0-1.3,0c-0.3,0.6,0.1,0.2-0.5,0.5
			C70.4,38.6,71,38.4,71.5,38z"/>
		<path class="st2" d="M85.3,38.2c-0.6-0.5-1.2-0.5-2.3-0.5C83.2,38.7,83.6,38.3,85.3,38.2z"/>
		<path class="st2" d="M66.3,38.8c-0.3-0.6,0.1-0.2-0.5-0.5c-0.4,0.4-0.7,0.8-1.3,1c0.1,0.1,0.2,0.2,0.3,0.3c0.3,0.1,0.5-0.1,1,0
			C66.2,38.8,65.5,39.1,66.3,38.8z"/>
		<path class="st2" d="M69.2,38.5c-0.5,0.4-1.1,0.5-1.5,1c-0.1,0-0.2,0-0.3,0c0,0.1,0,0.2,0,0.3c1.2-0.1,1.1-0.5,2.1-0.8
			C69.2,38.6,69.4,38.8,69.2,38.5z"/>
		<path class="st2" d="M75.1,39.5c0.1,0.6,0.1,0.6,0.3,1c0.1,0.1,0.2,0.2,0.3,0.3c0.1,0,0.2,0,0.3,0C75.7,39.9,75.7,39.9,75.1,39.5z
			"/>
		<path class="st2" d="M103.9,40.6c-0.1-0.1-1.9-0.2-2.6-0.3c-0.7,2.1-0.4,5.7-2.6,6.9c0.1,0.3,0.2,0.5,0.3,0.8
			c1.5,0.3,2.5,0.5,4.1,1C103.5,47.9,104.8,42,103.9,40.6z"/>
		<path class="st2" d="M99.2,40.6c-1.3,0.1-2.6,0.2-3.9,0.3c0,2,0.1,4.7-0.8,5.4c0.2,0.4,0.1,0.3,0.3,0.5c0.6,0.4,1.9,0.4,2.6,0.8
			c0.6-0.1,0.7-0.1,1-0.3C99.4,45.9,99.3,42.8,99.2,40.6z"/>
		<path class="st2" d="M67.4,41.8c0.1,0,0.2,0,0.3,0c-0.2-0.4-0.1-0.3-0.3-0.5C67.4,41.5,67.4,41.7,67.4,41.8z"/>
		<path class="st2" d="M78.7,42.4c0.1,0,0.2,0,0.3,0c-0.2-0.4-0.1-0.3-0.3-0.5C78.7,42,78.7,42.2,78.7,42.4z"/>
		<path class="st2" d="M66.8,43.4c0.1,0,0.2,0,0.3,0c-0.2-0.4-0.1-0.3-0.3-0.5C66.8,43,66.8,43.2,66.8,43.4z"/>
		<path class="st2" d="M76.1,45.2c0.3-0.5,0.3-1.1,0-1.5C76,44.2,76.1,44.2,76.1,45.2z"/>
		<path class="st2" d="M76.9,46.5c0.3-0.4,0.3-0.6,0-1C76.9,45.8,76.9,46.1,76.9,46.5z"/>
		<path class="st2" d="M87.7,49.3c0.1-1,0.5-2,1-2.6c0-0.2,0-0.3,0-0.5c-0.8-0.3-1.5-0.5-2.3-0.8c-0.4,0.7-0.6,2.2-1.3,2.6
			C85.5,48.9,86.4,49.3,87.7,49.3z"/>
		<path class="st2" d="M89.7,50.8c0.4-1.2,0.9-2.4,1.3-3.6c-0.3-0.6,0.1-0.2-0.5-0.5c-0.2,1.1-0.6,2.4-1.3,3.1
			c0.1,0.5,0.1,0.5,0.3,0.8C89.5,50.7,89.6,50.8,89.7,50.8z"/>
		<path class="st2" d="M47.8,53.2c1.3-0.5,0.3-4.2-0.5-5.1c-0.4-0.2-2.5,0.6-3.6,0.8c0.1,1.9,0.9,4.5,2.1,5.4
			C46,54.5,47.5,53.5,47.8,53.2z"/>
		<path class="st2" d="M72.2,48.3c0.1-0.1,0.2-0.2,0.3-0.3c-0.2,0-0.3,0-0.5,0c0.2,0.4,0.1,0.3,0.3,0.5
			C72.2,48.4,72.2,48.4,72.2,48.3z"/>
		<path class="st2" d="M97.9,50.1c-0.1-0.6-0.1-0.6-0.3-1c-1.2-0.3-2.1-0.7-3.6-0.8c-0.1,0.7-0.2,1.1-0.5,1.5c0.2,0.9,0.2,0.8,1,1
			c-0.1,0.9-0.1,1.1-0.5,1.5c0,0.3,0,0.5,0,0.8c0.8,0.3,1.5,0.5,2.3,0.8C96.6,52.7,97.2,50.9,97.9,50.1z"/>
		<path class="st2" d="M58.6,52.4c0.2-0.4-1.4-2.8-2.3-3.1c-0.3,0.3-0.9,0.6-1.3,0.8c0.2,1.5,1.2,2.5,2.1,3.3c0,0.1,0,0.2,0,0.3
			C57.9,53.4,58.2,53,58.6,52.4z"/>
		<path class="st2" d="M85.6,49.3c-0.3,0-0.7,0-1,0c0,0.3,0,0.5,0,0.8c-0.4,0-0.9,0-1.3,0c0,0.7,0.2,0.4,0,0.8
			c0.2,1.4,0.7,1.2,1.3,2.1c0.6-0.1,0.6-0.1,1-0.3c-0.2-0.8,0-0.6-0.5-1c0-0.1,0-0.2,0-0.3c0.8,0.1,0.8,0.2,1.5,0
			C86.6,49.9,86.2,50.1,85.6,49.3z"/>
		<path class="st2" d="M44.7,55c-0.4-0.6,0.1-0.3-0.8-0.5c0-0.4,0-0.9,0-1.3c-0.1,0.1-0.2,0.2-0.3,0.3c-0.7-0.3-0.2-0.1-0.5-0.8
			c-0.7-0.3-0.1-0.1,0.3-0.8c-1.4-0.6-1.2-1-2.1-2.1c-0.5-0.3-1.4,0.1-2.3,0.3c-0.1,0.1-0.2,0.2-0.3,0.3c0.6,2.3,1.5,4.2,2.3,6.2
			c1.5-0.1,2.5-0.7,3.3-1.5C44.6,55,44.6,55,44.7,55z"/>
		<path class="st2" d="M98.5,55c0.4,0.6,0.7,0.8,1.5,1c0.3,0.2,0.1,0.1,0.5,0.3c0.8-1.7,2-3.6,2.1-5.9c-1.2-0.2-1.8-0.6-3.1-0.8
			C99.4,51.2,99.1,54.2,98.5,55z"/>
		<path class="st2" d="M55.3,55.2c0.1,0.1,0.2,0.2,0.3,0.3c0.1-0.1,0.2-0.2,0.3-0.3c-0.4-1.2-2.1-3.4-3.1-4.1c0,0.3,0,0.7,0,1
			C53.6,53.1,54.2,54.4,55.3,55.2z"/>
		<path class="st2" d="M66.1,51.4c0.3,0.2,0.1,0.1,0.5,0.3c0-0.1,0-0.2,0-0.3C66.4,51.4,66.2,51.4,66.1,51.4z"/>
		<path class="st2" d="M88.9,52.1c-0.2-0.8,0.1-0.4-0.5-0.8c-0.3,1-1.1,1.9-1.8,2.6c0,0.3,0,0.5,0,0.8C87.6,54,88,52.9,88.9,52.1z"
			/>
		<path class="st2" d="M65,52.4c0.2,0,0.3,0,0.5,0c-0.1-0.5-0.1-0.5-0.3-0.8C65.2,51.9,65.1,52.1,65,52.4z"/>
		<path class="st2" d="M77.9,52.7c0.1-0.1,0.2-0.1,0.2-0.1c-0.2-0.2-0.3-0.3-0.5-0.4C77.5,52.4,77.5,52.9,77.9,52.7z"/>
		<path class="st2" d="M79.7,48c-2.2-4.5-1.5-7.2-1-12.6c2.4-0.1,3.4-0.7,5.7-0.8c0-0.1,0-0.2,0-0.3c-1.6-0.5-3.3,0.2-5.4,0.3
			c0.1-0.6,0.1-0.7,0.3-1c0-0.4,0-0.9,0-1.3c-0.1,0-0.2,0-0.3,0c-0.3,1.2-0.9,2-0.8,2.8c-0.8,0.3-1.5,0.5-2.3,0.8
			c-0.1-0.4-0.2-0.4-0.3-1c0.3,0,0.5,0,0.8,0c-0.7-0.8-1.2-0.8-1.3-2.3c1.8,0,3.1-0.5,3.9-1.5c0.2,0.3,0.2,0.6,0.3,1.3
			c0.1,0,0.2,0,0.3,0c0.2-1.1,0.6-1.9,1-2.8c-0.1-0.1-0.2-0.2-0.3-0.3c-1.9,0.4-3.6,2.7-4.9,2.1c-0.6-0.3-0.6-0.6-1-1
			c0.1-1.2,0.3-1.8,1-2.3c0-0.2,0-0.3,0-0.5c-0.6,0.3-0.7,0.4-1,1c-0.1,0-0.2,0-0.3,0c0.1-0.4,0.2-0.9,0.3-1.3c-0.5-0.3-1-0.5-1.3-1
			c-1.5,0.9-0.3,3.2-1.3,4.6c-0.3,0.2-0.1,0.1-0.5,0.3c-0.2-0.7-0.1-0.7,0-1.5c-0.2,0-0.3,0-0.5,0c-0.3,0.6-0.8,1.4-1.3,1.8
			c0.1,0.1,0.2,0.2,0.3,0.3c0.2,0.4,0.4-0.3,0.8-0.5c0.1,0.1,0.2,0.2,0.3,0.3c-0.1,0.9-0.2,0.9,0,1.5c-0.1,0-0.2,0-0.3,0
			C70,33,69,32.8,68.4,33.1c-0.2,0-0.3,0-0.5,0c0.3,0.4,0.3,0.2,0.5,0.8c0.8-0.2,0.6,0,1-0.5c0.1,0,0.2,0,0.3,0
			c-0.3,1.2-1.7,2.8-2.6,2.6c-0.5,0.5-0.9,1.7-0.5,2.3c0.2,0.4,0.1,0.3,0.3,0.5c1.2-2.6,2.9-2.7,4.4-4.6c1.3,0.2,1.2,0.7,1.5,1.8
			c0.1,0.1,0.2,0.2,0.3,0.3c0.1,0,0.2,0,0.3,0c-0.1-1.6-0.7-2.7-1.5-3.6c0-0.1,0-0.2,0-0.3c1.1,0.1,1.6,0.4,2.1,0.3
			c0.4,0.6-0.2,0.8,0.8,1.3c0,0-0.1,1-0.3,0.5c-0.1-0.1-0.2-0.2-0.3-0.3c0.2,0.5,0.6,1.1,1,1.5c0,0.2,0,0.3,0,0.5
			c-1.1,0.2-1.8,0.6-2.8,0.8c0,0.3,0,0.5,0,0.8c0.6-0.2,1-0.4,1.8-0.5c-0.1,0.5-0.2,1-0.3,1.5c-0.3,0-0.5,0-0.8,0
			c1.1,1.8,2,4.1,2.6,6.4c0.4,1.7-0.7,1.9,0.5,2.6c-0.2,0.2-0.6,0.3-0.8,0.5c-2.4-0.1-2-1.5-3.3-2.1c-0.8-0.3-2.1,0.3-3.1-0.3
			c-1.5-0.9-2.6-2.9-4.1-3.9c0.3-0.9,0.8-0.9,1.3-1.5c0.6,0.3,0.2-0.1,0.5,0.5c0.8-0.5,0.1-0.4,0.8-1c0-0.1,0-0.2,0-0.3
			c-1.5,0.3-1.7,1.1-3.3,1.3c-0.1-0.5-0.2-1-0.3-1.5c1.8-1.7,2.4-4.1,4.6-5.4c-0.5-0.3-0.5-0.1-1,0c0.1-0.8,0.3-0.6,0.5-1
			c-0.3-0.6-0.4-0.6-0.5-1.5c-0.1,0-0.2,0-0.3,0c-0.2,0.4-0.1,0.3-0.3,0.5c-0.1,1,0,0.8,0.3,1.8c-2.3,2.1-4.4,1.9-6.4,3.6
			c-1.7-0.1-2.7-1.2-3.3-2.3c-0.1,0-0.2,0-0.3,0c0.2,1.2,1,1.8,1.8,2.3c-0.7,0.6-1.9,0.8-2.3,1c-0.2,0-0.3,0-0.5,0
			c0.3,1.2,1.6,1.8,2.6,2.3c-0.1,0.2-0.2,0.3-0.3,0.5c-0.8-0.1-0.9-0.1-1.3-0.5c-0.3,0-0.5,0-0.8,0c0.4,0.5,0.2,0.4,1,0.5
			c-0.3,0.6-0.4,0.5-1,0.8c0.1,0.1,0.2,0.2,0.3,0.3c0.4,0.4,1.5-0.9,2.6-0.3c0.3-0.5,0.1-0.3,0-1c0.5,0.3,1,0.7,1.5,1
			c-0.2,1.5-1.2,2.6-2.6,1.5c-0.6,0-1.2,0-1.8,0c0.3,0.4,0.7,0.5,1,0.8c0.5,0,1,0,1.5,0c-0.5,0.8-0.6,0.2-1,0.5c-0.1,0-0.2,0-0.3,0
			c0.3,0.2,0.2,0.2,0.8,0.3c-0.3,0.8-0.6,0.9-1.3,1.3c0.1,0.5,0.1,0.5,0.3,0.8c0.9,0.4,2.3-0.8,2.8-1.5c0.2,0,0.3,0,0.5,0
			c-0.3,0.6,0.1,0.2-0.5,0.5c0,0.7-0.2,0.4,0,0.8c0.1,0.1,0.2,0.2,0.3,0.3c0.3-0.5,0.5-1,0.8-1.5c0.8,0.2,1.5,0.3,2.3,0.5
			c0.1,0.1,0.2,0.2,0.3,0.3c0,0.2,0,0.3,0,0.5c-0.7-0.3-1.8-0.7-2.6-0.3c-0.1,0-0.2,0-0.3,0c0.5,0.3,1.9,0.5,2.6,0.5
			c0.1,0.1,0.2,0.2,0.3,0.3c0.1,1.9,0.2,4.7-0.8,5.7c0.2,0.4,0.1,0.3,0.3,0.5c0,0.1,0,0.2,0,0.3c0.2,0,0.3,0,0.5,0
			c0.4-1.8,0.5-4.1,0.5-6.2c1.2,0.6,1.5,1.7,2.8,2.1c-0.1,0.1-0.2,0.2-0.3,0.3c-0.3,0.7-0.1,0.2-0.8,0.5c0.4,0.6,1.3,1,2.1,1.3
			c-0.4,0.7,0,0.4-0.8,0.3c-0.4,0.9-0.8,1.7-1.5,2.3c0,0.2,0,0.3,0,0.5c1.3-0.2,1.4-1,1.8-0.5c0.2-0.3,0.2-0.6,0.3-1.3
			c0.2,0,0.3,0,0.5,0c0.4,0.9,0.7,1.6,0.8,2.8c0.2,0,0.3,0,0.5,0c0.1-0.1,0.2-0.2,0.3-0.3c0-1.3-0.2-2.3-0.8-3.1
			c0.2-0.8,0-0.6,0.5-1c0.1-0.1,0.2-0.2,0.3-0.3c0.7,1.3,1.4,2.5,1.5,4.4c0.1-0.1,0.2-0.2,0.3-0.3c1.1-1.1,0.4-3.2,1.3-4.1
			c0.1-0.1,0.2-0.2,0.3-0.3c0.7,1,1.5,2.1,2.3,3.1c0.2,0.3,0.4-0.4,1,0.5c0.7-0.4,0.6-1.7,0.5-2.8c0.2,0.1,0.3,0.1,0.5,0.2
			c0-0.1,0.1-0.2,0.1-0.2c0.1,0.2,0.7,0.4,0.5,0.6c0.2,0.2,0.4,0.4,0.5,0.6c0.3,0,0.7,0,1,0c-0.1-0.1-0.2-0.2-0.3-0.3
			c-0.4-0.8-1.3-1.6-2.3-1.8c-0.2-0.4-0.1-0.3-0.3-0.5c0-0.3,0-0.5,0-0.8c0.7,0.2,0.7,0.4,1.5,0.5c0.1,0.5,0.1,0.5,0.3,0.8
			c0,0.2,0,0.3,0,0.5c0.2-0.3,0.2-0.4,0.3-1c0.9,0.4,1.2,0.3,1.5,1.3c0.2,0,0.3,0,0.5,0c0-0.1,0-0.2,0-0.3c0.3-0.6,0.1-0.6-0.5-1
			c0-0.3,0-0.5,0-0.8c0.3,0.1,1,0.3,1.3,0.5c0.3,0,0.5,0,0.8,0c0-0.1,0-0.2,0-0.3c-0.8-0.3-1.5-0.7-2.6-0.8c0-0.2,0-0.3,0-0.5
			c1,0.3,2.3,0.6,3.1,0.3c0.2,0,0.3,0,0.5,0C82.8,48.4,80.9,48.1,79.7,48z M71.5,33.9c-0.3,0-0.5,0-0.8,0c0.1-0.4,0.2-0.4,0.3-1
			c0.3,0.1,0.5,0.2,0.8,0.3C71.6,33.4,71.6,33.6,71.5,33.9z M73.8,32.1c-0.6-0.2-0.7-0.2-1-0.5c-0.2-0.5-0.1-0.2,0-0.8
			c0.6,0.3,0.6,0.4,1,0.8C73.8,31.7,73.8,31.9,73.8,32.1z M60.4,40c-0.8,0-1,0.2-1.3,0c-0.7-0.3-0.6-0.5-1.3-0.8
			c0.4-0.7,1-0.6,1.5-1c0.4,0.3,0.2,0.3,0.8,0.5c-0.3,0.2-0.1,0.1-0.5,0.3c0.3,0.3,0.5,0.5,0.8,0.8C60.4,39.9,60.4,40,60.4,40z
			 M75.8,49.3c-0.2,0.5-0.1,0.3-0.5,0C75.5,49.3,75.7,49.3,75.8,49.3z M69.7,46.7c0.5,0.2,0.9,0.4,1.3,0.8c0.3,0,0.5,0,0.8,0
			c-0.3-0.6,0.1-0.2-0.5-0.5c0-0.1,0-0.2,0-0.3c0.2,0,0.3,0,0.5,0c0.1,0.4,0.2,0.4,0.3,1c0.5,0.1,0.5,0.1,0.8,0.3c0.2,0,0.3,0,0.5,0
			c-0.4,0.7,0,0.4-0.8,0.3c0.3,0.6-0.1,0.2,0.5,0.5c0,0.2,0,0.3,0,0.5c-1.1-0.1-2.3-1.3-3.1-2.3c-0.1,0-0.2,0-0.3,0
			C69.7,46.9,69.7,46.8,69.7,46.7z M71.7,49.6c-0.4-0.2-0.3-0.1-0.5-0.3C71.7,49.5,71.5,49.3,71.7,49.6z M60.7,38
			c1.3-0.5,3-0.8,3.9-1.8c0.2,0,0.3,0,0.5,0c-0.3,0.5-0.6,1.5-1,2.1c0,0.1,0,0.2,0,0.3c-0.6-0.4-0.3,0.1-0.5-0.8c-0.1,0-0.2,0-0.3,0
			c-0.2,0.6,0.1,1.4-0.3,2.1c0,0.1,0,0.2,0,0.3c-0.2-0.2-0.3-0.8-0.5-1c0-0.1,0-0.2,0-0.3C62,38.6,62.1,38.9,62,39
			c-0.8-0.1-0.7-0.2-1.3-0.5C60.7,38.3,60.7,38.2,60.7,38z M60.7,40.3c0.3,0,0.5,0,0.8,0c0.2,0.2,0.3,0.3,0.5,0.5
			c-0.1,0.5-0.1,0.5-0.3,0.8c0,0.1,0,0.2,0,0.3C61,41.5,60.9,41.1,60.7,40.3z M63.5,45.4c-1.2-0.2-1.3-0.6-2.3-0.8
			c0.1-0.3,0.2-0.5,0.3-0.8c1,0.3,1.3,0.8,2.1,1.3C63.5,45.3,63.5,45.4,63.5,45.4z M63.5,43.1c0-0.1,0-0.2,0-0.3
			c0.7,0,0.4,0.2,0.8,0c1.3,0.3,1.4,0.9,2.3,1.5c0,0.2,0,0.3,0,0.5c-0.3-0.3-0.5-0.5-0.8-0.8c-0.1,0-0.2,0-0.3,0
			c0.2,0.7,0.3,0.9,0.8,1.3c0,0.1,0,0.2,0,0.3c-0.7-0.1-1.4-0.2-2.1-0.3c0.3-0.2,0.2-0.2,0.8-0.3C64.9,44.2,64.1,43.3,63.5,43.1z
			 M69.2,51.1c0,0.1,0,0.2,0,0.3C68,50.4,67.4,49,66.3,48c0-0.2,0-0.3,0-0.5c0.8,0.2,2.2,0.5,2.6,1.3c0.3,0,0.5,0,0.8,0
			c-0.7-1-2.1-1.7-3.1-2.3c0.4-0.2,0,0,0.8,0c-0.1-0.8-0.3-1-0.5-1.5c1.5,1,2.5,2.6,4.1,3.6c0,0.2,0,0.3,0,0.5
			c-0.6-0.2-0.4-0.1-0.8-0.5c-0.1,0-0.2,0-0.3,0c0.3,0.8,0.2,0.8,1,1C70.6,50.2,69.7,50.7,69.2,51.1z M71.7,53.4c-0.1,0-0.2,0-0.3,0
			c-0.2-0.5-0.3-1-0.5-1.5c0.4,0.3,0.2,0.3,0.8,0.5C71.7,52.7,71.7,53.1,71.7,53.4z M72,51.6c-0.2,0.4-0.1,0.3-0.3,0.5
			c-0.1-0.4-0.2-0.4-0.3-1c-0.3,0-0.5,0-0.8,0c0.1,0.2,0.2,0.3,0.3,0.5c-0.2,0-0.3,0-0.5,0c0.3-0.8,0.2-0.8,1-1
			c0.3-0.2,0.1-0.1,0.5-0.3c0.1,0.1,0.2,0.2,0.3,0.3C72.2,51.2,72.2,51.3,72,51.6z M76.6,52.9c-0.1,0-0.2,0-0.3,0
			c-0.6-1.8-1.9-1.8-3.1-2.8c-0.2,0-0.3,0-0.5,0c0.3-0.7,0.5-0.2,1.3-0.8c0.3,0,0.7,0,1,0c-0.3,0.6,0.1,0.2-0.5,0.5
			c0.4,0.8,1.4,1.5,2.1,2.1C76.6,52.2,76.6,52.6,76.6,52.9z M76.6,48.3c0-0.2,0-0.3,0-0.5c0.3,0,0.5,0,0.8,0c0,0.2,0,0.3,0,0.5
			C77.1,48.3,76.9,48.3,76.6,48.3z M77.6,49.6c-0.6-0.2-0.4-0.1-0.8-0.5c0.3,0.1,0.5,0.2,0.8,0.3C77.6,49.4,77.6,49.5,77.6,49.6z
			 M77.6,47.2c-0.3,0.2-0.3,0.1-1,0.3c-0.3-0.2-0.1-0.1-0.5-0.3c-0.1-3.4-1-5.9-1.5-8.6c0-0.1,0-0.3,0-0.4c0,0,0,0-0.1,0
			c-0.1-0.5-0.2-1-0.2-1.5c0.5-0.1,0.5-0.1,0.8-0.3c0.8,0.9,1.3,5.4,1.3,5.4c0,0.3,0,0.7,0,1c0.6-0.4,0.4-0.1,0.5-1
			c0.9,1.2,0.2,2.6,1,3.6C77.9,46.2,77.9,46.8,77.6,47.2z M77.6,39.5c0,0.6,0,1.2,0,1.8c-0.1,0-0.2,0-0.3,0C76.9,40,76.7,38,75.8,37
			c0-0.3,0-0.5,0-0.8c0.7-0.1,1.1-0.3,2.1-0.3C77.9,37,78.1,38.8,77.6,39.5z M78.1,46.7c0.6,0.3,0.4,0.4,0.8,0.8c0,0.2,0,0.3,0,0.5
			C78.3,47.7,78.3,47.5,78.1,46.7z M78.9,48.5c0,0.2,0,0.3,0,0.5c-0.1,0-0.2,0-0.3,0c0-0.2,0-0.3,0-0.5
			C78.7,48.5,78.8,48.5,78.9,48.5z M79.9,50.6c-0.7-0.3-0.4-0.3-1.3-0.5c0-0.3,0-0.5,0-0.8c0.4,0.1,0.4,0.2,1,0.3
			c0.1,0.5,0.1,0.5,0.3,0.8C79.9,50.4,79.9,50.5,79.9,50.6z"/>
		<path class="st2" d="M69.7,50.1c0.2,0,0.3,0,0.5,0c0-0.2,0-0.3,0-0.5c-0.3-0.1-0.5-0.2-0.8-0.3C69.5,49.6,69.6,49.8,69.7,50.1z"/>
		<circle class="st2" cx="69.2" cy="50.1" r="0.4"/>
		<path class="st2" d="M82,55.5c1-0.4,1.4-1.2,2.6-1.5c0-0.2,0-0.3,0-0.5c-0.5-0.3-0.9-0.6-1.3-1c-1.4,0.1-1.4,0.6-2.6,0.8
			c-0.2,1.3-0.4,1-0.5,2.3c-0.2-0.2-0.3-0.3-0.5-0.5c-0.6-0.2-0.5,0.7-0.8,0.5c-0.4-0.3-0.3-0.7-0.8-1c-0.3,0.8-0.4,0.8-0.5,2.1
			c-2-0.8-2.6,1.1-4.1,0.3c-0.6,0.4-0.3-0.1-0.5,0.8c-1.2-0.6-2.6,0-4.4-0.3c-0.2,0.5-0.3,1.2-0.3,2.1c0.9,0,1.4,0.1,2.1,0.3
			c0.1-0.4,0.2-0.4,0.3-1c0.2,0.3,0.2,0.4,0.3,1c0.5,0.1,1,0.2,1.5,0.3c0.3-0.5,0.4-0.5,0.5-1.3c0.2,0.3,0.2,0.4,0.3,1
			c1.8-0.4,2.9-1.4,5.4-1.5c0.1-0.9,0.2-0.6-0.3-1.3c0-0.1,0-0.2,0-0.3c0.3,0.2,0.5,0.3,0.8,0.5c0,0.3,0,0.5,0,0.8
			c1.3-0.3,1.2-1,1-2.1c0.7,0.5,0.5,0.7,1.8,0.8c-0.1-0.8-0.1-0.9-0.5-1.3c0-0.1,0-0.2,0-0.3C81.7,55.1,81.8,55.3,82,55.5z"/>
		<path class="st2" d="M64.8,52.6c-0.2,0-0.3,0-0.5,0C64.7,53,64.5,53.1,64.8,52.6z"/>
		<path class="st2" d="M52.4,58.3c-0.3-1.5-2.3-4.3-3.6-4.9c-0.7,0.7-1.7,1-2.3,1.8c-0.1,0.1-0.2,0.2-0.3,0.3
			c1.4,1.5,1.9,3.5,3.6,4.6c0,0.1,0,0.2,0,0.3C51.1,59.9,51.5,58.9,52.4,58.3z"/>
		<path class="st2" d="M95.4,55.2c-1.1-0.6-2.2-1.2-3.3-1.8c-0.7,1.9,0.2,2.8,1.5,3.3c-0.2,0.2-0.3,0.3-0.5,0.5c0,0.1,0,0.2,0,0.3
			c-0.9-0.3-1.8-0.9-2.3-1.5c-0.2,0.2-0.3,0.8-0.5,1c0.7,0.7,1.4,1.4,2.1,2.1C93.8,58.6,94.7,56.6,95.4,55.2z"/>
		<path class="st2" d="M74.8,55.5c0-0.7,0-1.2-0.3-1.5c-0.1,0.3-0.2,0.7-0.3,1c0.1,0,0.2,0,0.3,0c0,0.2,0,0.3,0,0.5
			C74.6,55.5,74.7,55.5,74.8,55.5z"/>
		<path class="st2" d="M66.1,57.8c0-0.4,0-0.9,0-1.3c-2.2-0.3-3.4-0.5-5.1-2.3c-0.6,0.1-0.6,0.1-1,0.3c-0.2,0.4-0.1,0.3-0.3,0.5
			c0.2,0.9,0.4,0.7,0.8,1.3c0.3,0,0.5,0,0.8,0c0,0.3,0,0.7,0,1c1.2-0.1,1.7,0,2.6,0.8c0.6-0.4,0.3,0.1,0.5-0.8c0.1,0,0.2,0,0.3,0
			c-0.1,0.5-0.2,1-0.3,1.5c0.7,0,1,0,1.3-0.3C65.7,58.4,65.9,58,66.1,57.8z"/>
		<path class="st2" d="M67.6,54.7c0,0.2,0,0.3,0,0.5C68.1,55,67.9,55.1,67.6,54.7z"/>
		<path class="st2" d="M79.9,60.6c0.2-0.3,0.3-0.7,0.5-1c0.8-0.5,1.5-0.3,2.3-0.8c0.3-0.2,0.3-0.9,0.5-1c0.5-0.3,0.8,0.6,1.3,0
			c0.7-0.7,0.5-1.4,1.5-2.1c-0.2-0.8,0.1-0.4-0.5-0.8c-2.5,4.7-11.1,7-17.7,6.4c0,0.2,0,0.3,0,0.5c1.4,0.2,2.7,0.3,4.1,0.5
			c1.7-0.4,3.7-0.9,5.7-1.5C78.4,60.8,79.2,60.7,79.9,60.6z"/>
		<path class="st2" d="M45,55.7c-0.8,0.7-2,1.4-3.1,1.8c0.4,1.4,3.3,5.4,4.6,5.9c0.3,0.2,0.1,0.1,0.5,0.3c0.6-0.6,1.2-1.2,1.8-1.8
			c-0.5-2.2-2.7-3-3.3-5.1C45.3,56.5,45.2,55.9,45,55.7z"/>
		<path class="st2" d="M95.9,55.7c-0.1,2.1-1.1,3-2.3,3.9c0.3,1.4,1.5,1.6,2.3,2.6c1.9-0.4,2.4-2.7,3.6-3.9
			C99.2,56.8,97.4,55.9,95.9,55.7z"/>
		<path class="st2" d="M67.6,56.5c-0.3,0.3-0.7,0.6-1,0.8c0,0.7-0.1,1.1-0.3,1.5c0.3,0.1,0.5,0.2,0.8,0.3
			C68.3,59.5,68.3,57.3,67.6,56.5z"/>
		<path class="st2" d="M65,60.6c-3-0.7-4.6-3.1-7.5-3.3c1.3,2.4,4.4,2.2,6.4,3.9c0.3,0,0.7,0,1,0C65,60.9,65,60.8,65,60.6z"/>
		<path class="st2" d="M88.2,63.2c1.5-0.5,2.2-1.7,3.3-2.6c-0.4-1.2-1.4-2.1-2.8-2.3c0.2,0.6,0.1,0.4,0.5,0.8
			c-0.1,0.3-0.2,0.5-0.3,0.8c-1-0.2-0.9-0.4-1.5-0.8c-0.1,0.1-0.2,0.2-0.3,0.3c0.3,0.3,0.7,0.7,1,1c-0.2,0.7-0.3,1.1-0.5,1.5
			C87.8,62.7,87.9,62.6,88.2,63.2z"/>
		<path class="st2" d="M65.8,61.6c0.5,0.1,0.5,0.1,0.8,0.3c0.3,0,0.7,0,1,0c0-0.2,0-0.3,0-0.5c-0.3-0.1-1-0.3-1.3-0.5
			C65.7,61.2,66,60.8,65.8,61.6z"/>
		<path class="st2" d="M87.7,63.9c-0.3-1.2-1.4-2.5-2.3-3.1c-0.1,0.1-0.2,0.2-0.3,0.3c0.2,0.2,0.3,0.3,0.5,0.5
			c-0.3,1.4-1,0.9-1.8,2.1c-1.7-0.3-3.5-0.5-5.1,1c-0.7,0.4-0.5,1.3-1,1.8c-0.3,0.5-0.1,0-0.5-0.3c-0.3,0.3-0.7,0.6-1,0.8
			c-0.1,0.9-0.1,0.5,0,1.5c2.5-0.4,5.8-1.2,8.2-2.6C85.4,65.4,86.4,64.2,87.7,63.9z"/>
		<path class="st2" d="M64.3,68.3c0.3-0.9,0.5-1.7,0.8-2.6c-0.7-0.4-0.6-0.7-1-1.3c-0.2-0.7-0.4,0.2-0.5,0.5
			c-0.7-0.3-0.9-0.9-1.5-1.3c-0.2,0.3-0.3,0.5-0.5,0.8c0,0.1,0,0.2,0,0.3c-0.1,0-0.2,0-0.3,0c0.1-0.6,0.1-0.6,0.3-1
			c-1.3-0.6-2.2-1.4-3.9-1.5c0,0.3,0,0.5,0,0.8c-0.1,0.1-0.2,0.2-0.3,0.3c-1.5-0.3-1.5-1-2.6-1.5c-0.5,0.5-1,1-1.5,1.5
			C55.2,66,60.5,66.5,64.3,68.3z"/>
		<path class="st2" d="M93.3,61.6c-0.3,0-0.7,0-1,0c-0.2,0.7,0.1,0.7-0.5,1.3c-0.2,0.3-1-0.5-1.5-0.8c-0.5,0.8-0.6,1-1.3,1
			c0.2,1.9,1.2,2.6,2.1,3.9c2-0.4,2.7-2.1,4.1-3.1C94.8,62.7,93.9,62.5,93.3,61.6z"/>
		<path class="st2" d="M76.1,65.2c-0.2-0.4-0.1-0.3-0.3-0.5c-0.3,0.2-1,0.3-1.3,0.5c-0.1,0-0.2,0-0.3,0c0,0.1,0,0.2,0,0.3
			c0.7,0,1,0,1.3-0.3C75.7,65.2,75.9,65.2,76.1,65.2z"/>
		<path class="st2" d="M63,69.1c-0.6,0.3-0.9,0.7-1.5,0.3c0-0.2,0-0.3,0-0.5c-0.6-0.3-0.7,0.4-1.3,0c-0.1,0-0.2,0-0.3,0
			c0.1-0.2,0.2-0.3,0.3-0.5c-0.1,0-0.2,0-0.3,0c-0.2,0-0.2-0.1-0.5,0.5c-0.7-0.3-1.3-0.8-1.8-1.3c-0.1,0-0.2,0-0.3,0
			c0.1,0.3,0.2,0.5,0.3,0.8c-0.8-0.4-0.4-0.5-0.8-0.8c-0.4-0.2,0,0-0.8,0c0.2-0.5,0.3-1,0.3-1.8c-1.3,0.3-0.9,0.9-1.3,1
			c-0.9,0.4-2.2-1.3-2.8-1.5c-0.3-0.2-0.1-0.1-0.5-0.3c-0.4,0.8-0.8,1.3-1.5,1.8c1.6,3.9,9.1,3.8,12.3,6.2c1.4-0.3,1.2-1.5,1.5-2.6
			C63.4,70,63.2,69.8,63,69.1z"/>
		<path class="st2" d="M88.7,65.2c-1.3,0.2-0.5,0.1-1,0.8c-0.5,0.3-0.3,0.1-1,0c-0.1,0.6-0.1,0.6-0.3,1.3c-0.7,0.1-1.5-0.1-2.1,0
			c-0.4,0.4-0.9,0.9-1.3,1.3c-1.1,0.6-4.3,1.6-4.9,1.5c-0.7,0.3-0.2,0.1-0.5,0.8c-0.5-0.1-0.5-0.1-0.8-0.3c-0.2,0-0.3,0-0.5,0
			c0.2,0.9,0.5,1.3,0.5,2.6c4.3-0.1,8-2,11.1-3.6c1-0.5,1.5-1.5,2.8-1.8c-0.5-1.1-1.4-1.7-1.8-2.8C88.9,65.1,88.8,65.1,88.7,65.2z"
			/>
		<path class="st2" d="M75.3,68.8c-0.1-0.5-0.2-1-0.3-1.5c-1.2,0.1-2.7,0.1-3.1,0.3c-0.7,0-1,0-1.3-0.3c-0.2-0.4-0.2-0.3,0-0.8
			c-0.3-0.3-1-0.5-1.3-0.8c-0.2,0.6-0.3,0.4-0.5,1c-0.6-0.3-0.5-0.2-0.8-0.8c-0.7,0.3-0.2,0.1-0.5,0.8c-0.7,0-1.4,0-2.1,0
			c-0.1,0.5-0.2,1-0.3,1.5C69.6,69.2,71,68.9,75.3,68.8z"/>
		<path class="st2" d="M75.6,70.6c-2,0.2-2.6,0.4-4.9,0.5c0,0.3,0,0.5,0,0.8c-1.8-0.2-1-0.5-1.8-1c-0.3-0.2-4.1,0-4.1,0
			c-0.1,0.1-0.2,0.2-0.3,0.3c-0.1,0.2-0.2,1.2-0.3,2.1c4.4,0.6,8.8,0.4,11.6,0.5c0.1-0.1,0.2-0.2,0.3-0.3c-0.1-0.9-0.2-1.7-0.3-2.6
			C75.7,70.8,75.7,70.7,75.6,70.6z"/>
	</g>
</g>
<g id="PedCBio" class="st0">
	<g class="st1">
		<path class="st2" d="M89.1,8c5,0,10,0,15,0c0,5,0,9.9,0,14.9c-5,0-10,0-15,0C89.1,17.9,89.1,12.9,89.1,8z"/>
		<path class="st2" d="M86.9,8.1c0,1.3,0,2.7,0,4c-10.2,0-20.4,0-30.5,0c-5.2,0-10.3-0.5-12.5,2.5c-1.7,2.3-1.7,5.6-1.7,9.7
			c0,5.1,0,10.2,0,15.3c-1.3,0-2.6,0-3.9,0c0-7.2,0-14.4,0-21.7c0.5-2.1,1.2-4,2.4-5.6c3.5-4.8,9-4.3,17.1-4.3
			C67.4,8.1,77.2,8.1,86.9,8.1z"/>
		<path class="st2" d="M69.9,39.9c-5,0-10,0-15,0c-0.1-7.1,4.1-11.7,9-13.7c0.6-0.3,5-1.9,5.8-1.2c0.5,0.8,0.1,3.1,0.1,4.2
			C69.9,32.7,69.9,36.3,69.9,39.9z"/>
		<path class="st2" d="M72.2,24.8c5,0,9.9,0,14.9,0c0,5,0,10,0,15c-5,0-9.9,0-14.9,0C72.2,34.8,72.2,29.8,72.2,24.8z"/>
		<path class="st2" d="M89.1,24.8c5,0,10,0,15,0c-0.1,8.3-6.5,15.1-15,15C89.1,34.8,89.1,29.8,89.1,24.8z"/>
		<path class="st2" d="M99.9,39.9c1.3,0,2.7,0,4,0c0,5.6,0,11.2,0,16.8c0,2.7,0.4,6.2-0.3,8.5c-0.5,1.6-1.3,3.2-2.2,4.4
			c-3.5,4.6-8.7,4.2-16.7,4.2c-9.9,0-19.8,0-29.7,0c0-1.3,0-2.6,0-3.9c10.2,0,20.4,0,30.5,0c5.4,0,10.5,0.4,12.8-2.6
			c1.7-2.2,1.5-5.6,1.5-9.6C99.9,51.8,99.9,45.8,99.9,39.9z"/>
		<path class="st2" d="M53.1,42c0,5,0,10,0,15c-1.2,0.4-3.4,0.1-4.9,0.1c-3.4,0-6.8,0-10.1,0C38.1,48.7,44.8,42,53.1,42z"/>
		<path class="st2" d="M55.1,42c5,0,9.9,0,14.9,0c0,5,0,10.1,0,15.1c-4.9,0-9.8,0-14.7,0c-0.4-1.2-0.1-3.4-0.1-4.9
			C55.1,48.8,55.1,45.4,55.1,42z"/>
		<path class="st2" d="M72.2,42c5,0,9.9,0,14.9,0c0.1,8.5-6.5,15-14.9,15.1C72.2,52.1,72.2,47,72.2,42z"/>
		<path class="st2" d="M38.2,59.3c5,0,10,0,15,0c0,4.9,0,9.7,0,14.6c-5,0-10,0-15,0C38.2,69.1,38.2,64.2,38.2,59.3z"/>
	</g>
</g>
<g id="PDC" class="st0">
	<path class="st3" d="M3.8,39.6c0,0.9,0.6,1.6,1.4,1.8c0.8,0.2,1.7-0.2,2.1-1c0.1-0.2,0.2-0.2,0.4-0.2c11,0,22,0,33,0
		c0,0,0.1,0,0.1,0c0.1,0,0.2,0,0.2,0.1c0.3,0.7,0.9,1.1,1.7,1.1c0.8,0,1.3-0.4,1.7-1.1c0.1-0.1,0.1-0.2,0.3-0.2c9,0,18,0,27,0
		c0.1,0,0.2,0.1,0.3,0.2c0.3,0.7,0.9,1,1.7,1.1c0.8,0,1.3-0.4,1.7-1c0.1-0.2,0.2-0.2,0.3-0.2c3.6,0,7.2,0,10.8,0c3.3,0,6.6,0,9.9,0
		c0.1,0,0.2,0,0.3,0.2c0.3,0.7,0.9,1.1,1.7,1.1c0.8,0,1.3-0.4,1.7-1.1c0.1-0.1,0.1-0.2,0.3-0.2c4.9,0,9.8,0,14.7,0
		c0.1,0,0.2,0,0.3,0.1c0.7,1.2,2.4,1.2,3.1,0c0.1-0.1,0.1-0.1,0.2-0.1c2.9,0,5.8,0,8.7,0c0.1,0,0.2,0,0.2,0.1
		c0.3,0.7,0.9,1.1,1.7,1.1c0.8,0,1.3-0.4,1.7-1.1c0.1-0.1,0.1-0.2,0.3-0.2c1.1,0,2.2,0,3.3,0c0.2,0,0.3,0,0.4,0.2
		c0.4,0.8,1.2,1.2,2.1,1c0.8-0.2,1.4-0.9,1.4-1.8c0-0.8-0.6-1.6-1.4-1.8c-0.8-0.2-1.7,0.2-2.1,1c-0.1,0.1-0.1,0.2-0.3,0.2
		c-1.1,0-2.3,0-3.4,0c-0.1,0-0.2,0-0.3-0.2c-0.3-0.7-0.9-1.1-1.7-1.1c-0.8,0-1.3,0.4-1.7,1.1c-0.1,0.1-0.1,0.2-0.3,0.2
		c-2.8,0-5.7,0-8.5,0c-0.2,0-0.2,0-0.3-0.2c-0.3-0.8-1-1.2-1.8-1.2c-0.8,0-1.5,0.5-1.7,1.2c-0.1,0.2-0.1,0.2-0.3,0.2
		c-4.8,0-9.7,0-14.5,0c-0.2,0-0.2,0-0.3-0.2c-0.3-0.7-0.9-1-1.7-1c-0.8,0-1.3,0.4-1.7,1C96.4,39,96.3,39,96.2,39
		c-6.9,0-13.8,0-20.7,0c-0.2,0-0.2,0-0.3-0.2c-0.3-0.7-0.9-1-1.7-1c-0.7,0-1.3,0.4-1.6,1C71.7,39,71.7,39,71.5,39
		c-9,0-17.9,0-26.9,0c-0.2,0-0.2,0-0.3-0.2c-0.3-0.7-0.9-1-1.7-1c-0.7,0-1.3,0.4-1.6,1C40.9,39,40.8,39,40.7,39c-11,0-22,0-33.1,0
		c-0.2,0-0.2,0-0.3-0.2c-0.4-0.8-1.2-1.2-2.1-1C4.4,38,3.8,38.8,3.8,39.6z"/>
	<path class="st3" d="M106.4,50.5c-0.1-0.1-0.1-0.1-0.2-0.2c-0.7-1.1-1.5-2.3-2.2-3.4c-0.1-0.2-0.2-0.2-0.4-0.2c-0.4,0-0.7,0-1.1,0
		c-0.3,0-0.3,0-0.3,0.3c0,1.5,0,3.1,0,4.6c0,1.7,0,3.4,0,5.1c0,0.3,0,0.3,0.3,0.3c0.3,0,0.6,0,1,0c0.4,0,0.4,0,0.4-0.4
		c0-2.2,0-4.4,0-6.5c0-0.1,0-0.2,0-0.3c0,0,0,0,0.1,0c0,0.1,0.1,0.1,0.1,0.2c0.5,0.7,1,1.5,1.5,2.2c0.5,0.7,0.2,0.5,1,0.6
		c0.2,0,0.3-0.1,0.4-0.2c0.6-0.9,1.1-1.7,1.7-2.6c0-0.1,0.1-0.1,0.1-0.2c0,0.1,0,0.1,0,0.2c0,0.5,0,1.1,0,1.6c0,1.7,0,3.4,0,5.2
		c0,0.3,0,0.3,0.3,0.3c0.4,0,0.7,0,1.1,0c0.3,0,0.3,0,0.3-0.3c0-2,0-4.1,0-6.1c0-1.2,0-2.4,0-3.6c0-0.3,0-0.3-0.3-0.3
		c-0.4,0-0.7,0-1.1,0c-0.2,0-0.3,0.1-0.4,0.2c-0.5,0.8-1,1.5-1.5,2.2C107,49.6,106.7,50.1,106.4,50.5z"/>
	<path class="st3" d="M96.3,50.5c-0.1-0.1-0.1-0.1-0.2-0.2c-0.7-1.1-1.5-2.3-2.2-3.4c-0.1-0.2-0.2-0.2-0.4-0.2c-0.4,0-0.7,0-1.1,0
		c-0.3,0-0.3,0-0.3,0.3c0,1.6,0,3.1,0,4.7c0,1.7,0,3.3,0,5c0,0.3,0,0.3,0.3,0.3c0.3,0,0.7,0,1,0c0.4,0,0.4,0,0.4-0.4
		c0-2.2,0-4.4,0-6.6c0-0.1,0-0.2,0-0.3c0,0,0,0,0.1,0c0,0.1,0.1,0.1,0.1,0.2c0.5,0.7,1,1.5,1.5,2.2c0.5,0.7,0.2,0.5,1,0.6
		c0.2,0,0.3-0.1,0.4-0.2c0.6-0.9,1.1-1.7,1.7-2.6c0-0.1,0.1-0.1,0.1-0.1c0,0,0,0,0.1,0c0,0.1,0,0.1,0,0.2c0,0.5,0,1,0,1.5
		c0,1.7,0,3.4,0,5.1c0,0.3,0,0.3,0.3,0.3c0.4,0,0.7,0,1.1,0c0.3,0,0.3,0,0.3-0.3c0-2.1,0-4.2,0-6.3c0-1.1,0-2.2,0-3.4
		c0-0.3,0-0.3-0.3-0.3c-0.4,0-0.7,0-1.1,0c-0.2,0-0.3,0.1-0.4,0.2c-0.5,0.8-1,1.5-1.5,2.2C96.9,49.6,96.6,50.1,96.3,50.5z"/>
	<path class="st3" d="M127.2,53.8C127.1,53.8,127.1,53.8,127.2,53.8c-0.1,0-0.1-0.1-0.2-0.2c-1.4-2.2-2.7-4.5-4.1-6.7
		c-0.1-0.1-0.2-0.2-0.3-0.2c-0.4,0-0.8,0-1.1,0c-0.2,0-0.3,0.1-0.3,0.3c0,3.3,0,6.5,0,9.8c0,0.2,0.1,0.3,0.3,0.3c0.4,0,0.8,0,1.2,0
		c0.2,0,0.3,0,0.3-0.3c0-0.7,0-1.5,0-2.2c0-1.5,0-2.9,0-4.4c0-0.1,0-0.1,0-0.2c0,0,0,0,0.1,0c0.1,0.1,0.1,0.2,0.2,0.2
		c1.4,2.2,2.7,4.4,4.1,6.7c0.1,0.1,0.2,0.2,0.3,0.2c0.3,0,0.7,0,1,0c0.4,0,0.4,0,0.4-0.4c0-3.2,0-6.3,0-9.5c0,0,0-0.1,0-0.1
		c0-0.2-0.1-0.2-0.3-0.2c-0.4,0-0.8,0-1.2,0c-0.3,0-0.3,0-0.3,0.3c0,2.2,0,4.3,0,6.5C127.2,53.6,127.2,53.7,127.2,53.8z"/>
	<path class="st3" d="M98.8,30.2C98.8,30.2,98.8,30.2,98.8,30.2c-0.1,0-0.1-0.1-0.2-0.1c-0.2-0.3-0.4-0.7-0.6-1
		c-1.2-1.9-2.3-3.8-3.5-5.7c-0.1-0.2-0.2-0.2-0.4-0.2c-0.3,0-0.7,0-1,0c-0.3,0-0.3,0-0.3,0.3c0,1.6,0,3.3,0,4.9c0,1.6,0,3.2,0,4.7
		c0,0.3,0,0.3,0.3,0.3c0.4,0,0.7,0,1.1,0c0.3,0,0.3,0,0.3-0.3c0-0.7,0-1.4,0-2.2c0-1.5,0-2.9,0-4.4c0-0.1,0-0.1,0-0.2
		c0.1,0.1,0.2,0.2,0.2,0.2c1.4,2.2,2.7,4.4,4,6.6c0.1,0.1,0.2,0.2,0.3,0.2c0.4,0,0.7,0,1.1,0c0.3,0,0.3,0,0.3-0.3c0-1.1,0-2.3,0-3.4
		c0-2.1,0-4.1,0-6.2c0-0.3,0-0.3-0.3-0.3c-0.3,0-0.7,0-1,0c-0.3,0-0.3,0-0.3,0.3c0,2.2,0,4.3,0,6.5C98.8,30,98.8,30.1,98.8,30.2z"/>
	<path class="st3" d="M131,53.6c-0.2,0-0.4,0-0.6,0c-0.1,0-0.2,0.1-0.2,0.2c0,0.3,0,0.7,0.1,1c0.2,1,0.9,1.6,1.8,2
		c0.9,0.4,1.8,0.4,2.8,0.3c0.6-0.1,1.2-0.3,1.8-0.7c1.2-0.9,1.4-2.7,0.4-3.8c-0.3-0.3-0.6-0.6-1-0.7c-0.7-0.3-1.5-0.6-2.2-0.9
		c-0.5-0.2-0.9-0.4-1.3-0.7c-0.7-0.5-0.6-1.6,0.2-2c0.4-0.2,0.8-0.2,1.2-0.2c0.6,0,1.1,0.1,1.5,0.5c0.4,0.3,0.5,0.8,0.5,1.3
		c0,0.1,0.1,0.2,0.2,0.2c0.4,0,0.9,0,1.3,0c0.1,0,0.2-0.1,0.2-0.2c0.1-1.2-0.4-2.1-1.4-2.7c-0.6-0.4-1.3-0.5-2-0.5
		c-0.9,0-1.8,0.1-2.6,0.6c-1.5,0.9-1.5,3-0.5,4c0.3,0.3,0.7,0.6,1.1,0.7c0.6,0.3,1.3,0.5,1.9,0.8c0.5,0.2,0.9,0.4,1.4,0.7
		c0.3,0.2,0.5,0.5,0.5,0.9c0,0.6-0.4,1.2-1,1.3c-0.6,0.2-1.3,0.1-1.9-0.1c-0.5-0.2-0.9-0.5-1.1-1.1c0-0.2,0-0.3,0-0.5
		c0-0.2-0.1-0.3-0.3-0.3C131.4,53.7,131.2,53.6,131,53.6z"/>
	<path class="st3" d="M13.7,28.3c0,1.6,0,3.2,0,4.9c0,0.3,0,0.3,0.3,0.3c2.1,0,4.3,0,6.4,0c0.2,0,0.3-0.1,0.3-0.3c0-0.3,0-0.6,0-0.9
		c0-0.3,0-0.3-0.3-0.3c-1.6,0-3.1,0-4.7,0c-0.2,0-0.2-0.1-0.2-0.2c0-0.8,0-1.7,0-2.5c0-0.3,0-0.3,0.3-0.3c1,0,2.1,0,3.1,0
		c0.2,0,0.3,0,0.3-0.3c0-0.3,0-0.6,0-0.9c0-0.3,0-0.3-0.3-0.3c-1,0-2.1,0-3.1,0c-0.2,0-0.2-0.1-0.2-0.2c0-0.8,0-1.6,0-2.4
		c0-0.2,0.1-0.3,0.3-0.3c1.6,0,3.2,0,4.7,0c0.2,0,0.3-0.1,0.3-0.3c0-0.3,0-0.6,0-0.9c0-0.3,0-0.3-0.3-0.3c-2.1,0-4.2,0-6.3,0
		c-0.3,0-0.3,0-0.3,0.3C13.7,25,13.7,26.7,13.7,28.3z"/>
	<path class="st3" d="M110.9,28.3c0,1.6,0,3.2,0,4.9c0,0.2,0,0.3,0.2,0.3c2.2,0,4.3,0,6.5,0c0.2,0,0.2-0.1,0.2-0.2
		c0-0.3,0-0.6,0-0.9c0-0.3,0-0.3-0.3-0.3c-1.6,0-3.1,0-4.7,0c-0.2,0-0.2-0.1-0.2-0.2c0-0.8,0-1.7,0-2.5c0-0.2,0.1-0.3,0.3-0.3
		c1,0,2.1,0,3.1,0c0.3,0,0.3,0,0.3-0.3c0-0.3,0-0.6,0-0.9c0-0.3,0-0.3-0.3-0.3c-1,0-2.1,0-3.1,0c-0.2,0-0.2-0.1-0.2-0.2
		c0-0.8,0-1.6,0-2.4c0-0.3,0-0.3,0.3-0.3c1.6,0,3.1,0,4.7,0c0.2,0,0.3,0,0.3-0.3c0-0.3,0-0.6,0-0.9c0-0.3,0-0.3-0.3-0.3
		c-2.1,0-4.2,0-6.3,0c-0.3,0-0.3,0-0.3,0.3C110.9,25.1,110.9,26.7,110.9,28.3z"/>
	<path class="st3" d="M103.8,28.3c0-0.6,0-1.3,0-1.9c0-0.5,0.1-0.9,0.5-1.3c0.5-0.6,1.5-0.8,2.3-0.5c0.7,0.3,1.2,0.9,1.2,1.7
		c0,0.2,0.1,0.3,0.3,0.3c0.3,0,0.6,0,0.9-0.1c0.5,0,0.6,0.1,0.5-0.6c-0.1-1-0.6-1.8-1.5-2.4c-1-0.6-2-0.7-3.1-0.5
		c-1.7,0.3-2.8,1.6-2.8,3.3c0,1.3,0,2.5,0,3.8c0,1.4,0.6,2.4,1.9,3c1.1,0.5,2.2,0.5,3.3,0.1c1.4-0.4,2.1-1.5,2.2-3
		c0-0.1,0-0.3-0.2-0.3c-0.4,0-0.9,0-1.3-0.1c-0.2,0-0.2,0.1-0.2,0.2c-0.1,1.1-0.6,1.7-1.7,1.8c-1.4,0.2-2.3-0.7-2.3-2
		C103.8,29.5,103.8,28.9,103.8,28.3z"/>
	<path class="st3" d="M76.4,28.3c0-0.6,0-1.3,0-1.9c0-0.4,0.1-0.7,0.3-1.1c0.6-1,2-1,2.8-0.6c0.6,0.3,0.9,0.9,0.9,1.6
		c0,0.3,0,0.3,0.3,0.3c0.3,0,0.6,0,0.9,0c0.5,0,0.6,0.1,0.5-0.6c-0.1-1-0.6-1.8-1.4-2.4c-1-0.6-2-0.7-3.1-0.5
		c-1.7,0.3-2.8,1.6-2.8,3.2c0,1.3,0,2.6,0,3.9c0,1.4,0.8,2.5,2.1,3c1,0.4,2,0.4,3,0.1c1.4-0.4,2.3-1.6,2.3-3c0-0.1,0-0.3-0.2-0.3
		c-0.4,0-0.8,0-1.3-0.1c-0.2,0-0.2,0-0.2,0.2c0,1-0.6,1.7-1.6,1.8c-1.4,0.2-2.4-0.7-2.3-2C76.5,29.5,76.4,28.9,76.4,28.3z"/>
	<path class="st3" d="M64.6,28.3c0-0.6,0-1.2,0-1.9c0-0.4,0.1-0.8,0.3-1.1c0.5-0.7,1.4-1,2.3-0.7c0.8,0.2,1.3,0.9,1.3,1.7
		c0,0.3,0,0.3,0.3,0.3c0.3,0,0.6,0,0.9,0c0.6,0,0.6,0,0.5-0.6c-0.1-1-0.6-1.8-1.4-2.3c-1-0.6-2-0.7-3.1-0.5
		c-1.7,0.3-2.8,1.6-2.8,3.2c0,1.3,0,2.6,0,3.9c0,1.3,0.6,2.4,1.9,2.9c1,0.5,2.1,0.5,3.2,0.2c1.4-0.4,2.3-1.6,2.3-3
		c0-0.1,0-0.2-0.2-0.3c-0.4,0-0.8,0-1.3-0.1c-0.2,0-0.2,0.1-0.2,0.2c0,1-0.6,1.7-1.6,1.8c-1.4,0.2-2.4-0.7-2.3-2
		C64.6,29.5,64.6,28.9,64.6,28.3z"/>
	<path class="st3" d="M76.1,51.9c0-0.6,0-1.3,0-1.9c0-0.4,0.1-0.7,0.3-1.1c0.5-0.7,1.4-1,2.4-0.8c0.8,0.2,1.3,0.9,1.3,1.8
		c0,0.2,0.1,0.3,0.3,0.3c0.3,0,0.6,0,0.9-0.1c0.5,0,0.6,0,0.5-0.6c-0.1-1-0.6-1.8-1.4-2.3c-1-0.6-2-0.7-3.1-0.5
		c-1.7,0.3-2.8,1.6-2.8,3.2c0,1.3,0,2.6,0,3.9c0,1.3,0.6,2.3,1.9,2.9c1,0.5,2.1,0.5,3.2,0.2c1.4-0.4,2.3-1.5,2.3-3
		c0-0.1,0-0.3-0.2-0.3c-0.4,0-0.9,0-1.3-0.1c-0.2,0-0.2,0.1-0.2,0.2c-0.1,1.1-0.6,1.7-1.7,1.8c-1.4,0.2-2.3-0.7-2.3-2
		C76.1,53.1,76.1,52.5,76.1,51.9z"/>
	<path class="st3" d="M59,52.6c0-1.4,0-2.8,0-4.1c0-0.2,0.1-0.2,0.2-0.2c0.8,0,1.6,0,2.4,0c0.2,0,0.3,0,0.3-0.3c0-0.3,0-0.6,0-0.9
		c0-0.2-0.1-0.3-0.3-0.3c-2.3,0-4.7,0-7,0c-0.2,0-0.3,0.1-0.2,0.2c0,0.3,0,0.6,0,0.9c0,0.3,0,0.4,0.3,0.4c0.8,0,1.5,0,2.3,0
		c0.2,0,0.3,0.1,0.3,0.3c0,1.6,0,3.1,0,4.7c0,1.2,0,2.4,0,3.5c0,0.3,0,0.3,0.3,0.3c0.3,0,0.7,0,1,0c0.3,0,0.3,0,0.3-0.3
		C59,55.3,59,54,59,52.6z"/>
	<path class="st3" d="M44.9,29c0,0.9,0,1.8,0,2.8c0,0.5,0,1,0,1.4c0,0.2,0.1,0.2,0.2,0.2c0.4,0,0.8,0,1.2,0c0.2,0,0.2-0.1,0.2-0.2
		c0-0.1,0-0.1,0-0.2c0-2.7,0-5.4,0-8.1c0-0.2,0-0.2,0.2-0.2c0.8,0,1.6,0,2.5,0c0.2,0,0.3-0.1,0.3-0.3c0-0.3,0-0.6,0-1
		c0-0.2-0.1-0.3-0.3-0.3c-2.3,0-4.7,0-7,0c-0.2,0-0.3,0.1-0.3,0.3c0,0.3,0,0.6,0,0.9c0,0.3,0,0.3,0.3,0.3c0.8,0,1.5,0,2.3,0
		c0.2,0,0.3,0.1,0.3,0.3C44.9,26.2,44.9,27.6,44.9,29z"/>
	<path class="st3" d="M59.6,28.3c0,1.6,0,3.2,0,4.9c0,0.2,0,0.3,0.3,0.3c0.4,0,0.8,0,1.1,0c0.2,0,0.3-0.1,0.3-0.3c0-3.3,0-6.5,0-9.8
		c0-0.2,0-0.3-0.3-0.3c-0.4,0-0.7,0-1.1,0c-0.3,0-0.3,0-0.3,0.3C59.6,25,59.6,26.7,59.6,28.3z"/>
	<path class="st3" d="M30.9,28.3c0,1.6,0,3.2,0,4.8c0,0.3,0,0.3,0.3,0.3c0.4,0,0.7,0,1.1,0c0.3,0,0.3,0,0.3-0.3c0-1,0-2,0-3.1
		c0-2.2,0-4.4,0-6.6c0-0.2,0-0.3-0.3-0.3c-0.4,0-0.7,0-1.1,0c-0.3,0-0.3,0-0.3,0.3C30.9,25.1,30.9,26.7,30.9,28.3z"/>
	<path class="st3" d="M3.8,39.6c0-0.8,0.6-1.6,1.4-1.8c0.8-0.2,1.7,0.2,2.1,1C7.4,39,7.5,39,7.6,39c11,0,22,0,33.1,0
		c0.2,0,0.2-0.1,0.3-0.2c0.3-0.7,0.9-1,1.6-1c0.8,0,1.3,0.4,1.7,1c0.1,0.1,0.1,0.2,0.3,0.2c9,0,17.9,0,26.9,0c0.2,0,0.2,0,0.3-0.2
		c0.3-0.7,0.9-1,1.6-1c0.8,0,1.3,0.4,1.7,1c0.1,0.1,0.1,0.2,0.3,0.2c6.9,0,13.8,0,20.7,0c0.2,0,0.2,0,0.3-0.2c0.3-0.7,0.9-1,1.7-1
		c0.8,0,1.3,0.4,1.7,1c0.1,0.1,0.1,0.2,0.3,0.2c4.8,0,9.7,0,14.5,0c0.2,0,0.2,0,0.3-0.2c0.3-0.7,0.9-1.2,1.7-1.2
		c0.8,0,1.5,0.5,1.8,1.2c0.1,0.2,0.1,0.2,0.3,0.2c2.8,0,5.7,0,8.5,0c0.1,0,0.2,0,0.3-0.2c0.3-0.7,0.9-1.1,1.7-1.1
		c0.8,0,1.3,0.4,1.7,1.1c0.1,0.1,0.1,0.2,0.3,0.2c1.1,0,2.3,0,3.4,0c0.2,0,0.2,0,0.3-0.2c0.4-0.8,1.2-1.2,2.1-1
		c0.8,0.2,1.4,0.9,1.4,1.8c0,0.8-0.6,1.6-1.4,1.8c-0.8,0.2-1.7-0.2-2.1-1c-0.1-0.2-0.2-0.2-0.4-0.2c-1.1,0-2.2,0-3.3,0
		c-0.1,0-0.2,0-0.3,0.2c-0.3,0.7-0.9,1.1-1.7,1.1c-0.8,0-1.3-0.4-1.7-1.1c-0.1-0.1-0.1-0.1-0.2-0.1c-2.9,0-5.8,0-8.7,0
		c-0.1,0-0.2,0-0.2,0.1c-0.8,1.2-2.4,1.2-3.1,0c-0.1-0.1-0.1-0.1-0.3-0.1c-4.9,0-9.8,0-14.7,0c-0.1,0-0.2,0-0.3,0.2
		c-0.3,0.7-0.9,1.1-1.7,1.1c-0.8,0-1.3-0.4-1.7-1.1c-0.1-0.1-0.1-0.2-0.3-0.2c-3.3,0-6.6,0-9.9,0c-3.6,0-7.2,0-10.8,0
		c-0.2,0-0.2,0-0.3,0.2c-0.3,0.7-0.9,1-1.7,1c-0.8,0-1.3-0.4-1.7-1.1c-0.1-0.1-0.1-0.2-0.3-0.2c-9,0-18,0-27,0c-0.1,0-0.2,0-0.3,0.2
		c-0.3,0.7-0.9,1.1-1.7,1.1c-0.8,0-1.3-0.4-1.7-1.1c-0.1-0.1-0.1-0.2-0.2-0.1c0,0-0.1,0-0.1,0c-11,0-22,0-33,0c-0.2,0-0.3,0-0.4,0.2
		c-0.4,0.8-1.2,1.2-2.1,1C4.4,41.2,3.8,40.5,3.8,39.6z"/>
	<path class="st3" d="M106.4,50.5c0.3-0.5,0.6-0.9,0.9-1.4c0.5-0.7,1-1.5,1.5-2.2c0.1-0.2,0.2-0.2,0.4-0.2c0.4,0,0.7,0,1.1,0
		c0.3,0,0.3,0,0.3,0.3c0,1.2,0,2.4,0,3.6c0,2,0,4.1,0,6.1c0,0.3,0,0.3-0.3,0.3c-0.4,0-0.7,0-1.1,0c-0.3,0-0.3,0-0.3-0.3
		c0-1.7,0-3.4,0-5.2c0-0.5,0-1.1,0-1.6c0,0,0-0.1,0-0.2c-0.1,0.1-0.1,0.1-0.1,0.2c-0.6,0.9-1.1,1.7-1.7,2.6
		c-0.1,0.2-0.2,0.2-0.4,0.2c-0.8,0-0.6,0.1-1-0.6c-0.5-0.7-1-1.5-1.5-2.2c0-0.1-0.1-0.1-0.1-0.2c0,0,0,0-0.1,0c0,0.1,0,0.2,0,0.3
		c0,2.2,0,4.4,0,6.5c0,0.4,0,0.4-0.4,0.4c-0.3,0-0.6,0-1,0c-0.3,0-0.3,0-0.3-0.3c0-1.7,0-3.4,0-5.1c0-1.5,0-3.1,0-4.6
		c0-0.3,0-0.3,0.3-0.3c0.4,0,0.7,0,1.1,0c0.2,0,0.3,0.1,0.4,0.2c0.7,1.1,1.5,2.3,2.2,3.4C106.3,50.4,106.4,50.4,106.4,50.5z"/>
	<path class="st3" d="M96.3,50.5c0.3-0.5,0.6-0.9,0.9-1.4c0.5-0.7,1-1.5,1.5-2.2c0.1-0.2,0.2-0.2,0.4-0.2c0.4,0,0.7,0,1.1,0
		c0.3,0,0.3,0,0.3,0.3c0,1.1,0,2.2,0,3.4c0,2.1,0,4.2,0,6.3c0,0.3,0,0.3-0.3,0.3c-0.4,0-0.7,0-1.1,0c-0.3,0-0.3,0-0.3-0.3
		c0-1.7,0-3.4,0-5.1c0-0.5,0-1,0-1.5c0-0.1,0-0.1,0-0.2c0,0,0,0-0.1,0c0,0-0.1,0.1-0.1,0.1c-0.6,0.9-1.1,1.7-1.7,2.6
		c-0.1,0.2-0.2,0.2-0.4,0.2c-0.8,0-0.6,0.1-1-0.6c-0.5-0.7-1-1.5-1.5-2.2c0-0.1-0.1-0.1-0.1-0.2c0,0,0,0-0.1,0c0,0.1,0,0.2,0,0.3
		c0,2.2,0,4.4,0,6.6c0,0.4,0,0.4-0.4,0.4c-0.3,0-0.7,0-1,0c-0.3,0-0.3,0-0.3-0.3c0-1.7,0-3.3,0-5c0-1.6,0-3.1,0-4.7
		c0-0.3,0-0.3,0.3-0.3c0.4,0,0.7,0,1.1,0c0.2,0,0.3,0.1,0.4,0.2c0.7,1.1,1.5,2.3,2.2,3.4C96.2,50.4,96.2,50.4,96.3,50.5z"/>
	<path class="st3" d="M127.2,53.8c0-0.1,0-0.2,0-0.3c0-2.2,0-4.3,0-6.5c0-0.3,0-0.3,0.3-0.3c0.4,0,0.8,0,1.2,0
		c0.2,0,0.3,0.1,0.3,0.2c0,0,0,0.1,0,0.1c0,3.2,0,6.3,0,9.5c0,0.4,0,0.4-0.4,0.4c-0.3,0-0.7,0-1,0c-0.2,0-0.3-0.1-0.3-0.2
		c-1.4-2.2-2.7-4.4-4.1-6.7c0-0.1-0.1-0.2-0.2-0.2c0,0,0,0-0.1,0c0,0.1,0,0.1,0,0.2c0,1.5,0,2.9,0,4.4c0,0.7,0,1.5,0,2.2
		c0,0.2,0,0.3-0.3,0.3c-0.4,0-0.8,0-1.2,0c-0.2,0-0.3-0.1-0.3-0.3c0-3.3,0-6.5,0-9.8c0-0.2,0.1-0.3,0.3-0.3c0.4,0,0.8,0,1.1,0
		c0.2,0,0.3,0.1,0.3,0.2c1.4,2.2,2.7,4.5,4.1,6.7C127,53.7,127.1,53.7,127.2,53.8C127.1,53.8,127.1,53.8,127.2,53.8z"/>
	<path class="st3" d="M98.8,30.2c0-0.1,0-0.2,0-0.3c0-2.2,0-4.3,0-6.5c0-0.3,0-0.3,0.3-0.3c0.3,0,0.7,0,1,0c0.3,0,0.3,0,0.3,0.3
		c0,2.1,0,4.1,0,6.2c0,1.1,0,2.3,0,3.4c0,0.3,0,0.3-0.3,0.3c-0.4,0-0.7,0-1.1,0c-0.1,0-0.2-0.1-0.3-0.2c-1.3-2.2-2.7-4.4-4-6.6
		c-0.1-0.1-0.1-0.2-0.2-0.2c0,0.1,0,0.1,0,0.2c0,1.5,0,2.9,0,4.4c0,0.7,0,1.4,0,2.2c0,0.3,0,0.3-0.3,0.3c-0.4,0-0.7,0-1.1,0
		c-0.3,0-0.3,0-0.3-0.3c0-1.6,0-3.2,0-4.7c0-1.6,0-3.3,0-4.9c0-0.3,0-0.3,0.3-0.3c0.3,0,0.7,0,1,0c0.2,0,0.3,0.1,0.4,0.2
		c1.2,1.9,2.3,3.8,3.5,5.7c0.2,0.3,0.4,0.7,0.6,1C98.7,30.1,98.7,30.1,98.8,30.2C98.8,30.2,98.8,30.2,98.8,30.2z"/>
	<path class="st3" d="M70.1,56.7c-0.4-1.1-0.7-2.2-1.1-3.3c-0.7-2.1-1.4-4.3-2.1-6.4c-0.1-0.2-0.2-0.3-0.4-0.3c-0.5,0-1,0-1.6,0
		c-0.2,0-0.3,0.1-0.4,0.3c-0.7,2.2-1.4,4.4-2.1,6.6c-0.3,1-0.7,2.1-1,3.1C61.5,57,61.5,57,61.8,57c0.4,0,0.8,0,1.3,0
		c0.2,0,0.3-0.1,0.3-0.2c0.1-0.4,0.3-0.9,0.4-1.3c0-0.2,0.1-0.2,0.3-0.2c1.2,0,2.4,0,3.6,0c0.2,0,0.2,0.1,0.3,0.2
		c0.1,0.5,0.3,0.9,0.4,1.4c0,0.1,0.1,0.2,0.3,0.2c0.2,0,0.5,0,0.7,0c0.2,0,0.4,0,0.6,0C70.2,57,70.2,57,70.1,56.7z M67.2,53.9
		c-0.9,0-1.8,0-2.7,0c-0.2,0-0.2,0-0.2-0.2c0.5-1.6,1-3.1,1.4-4.7c0-0.1,0-0.1,0.1-0.1c0,0,0,0,0.1,0c0.5,1.7,1,3.3,1.6,5
		C67.3,53.9,67.3,53.9,67.2,53.9z"/>
	<path class="st3" d="M131,53.6c0.2,0,0.4,0,0.6,0c0.2,0,0.3,0.1,0.3,0.3c0,0.2,0,0.3,0,0.5c0.1,0.6,0.6,0.9,1.1,1.1
		c0.6,0.2,1.3,0.2,1.9,0.1c0.7-0.2,1-0.7,1-1.3c0-0.4-0.2-0.7-0.5-0.9c-0.4-0.3-0.9-0.5-1.4-0.7c-0.6-0.3-1.3-0.5-1.9-0.8
		c-0.4-0.2-0.8-0.4-1.1-0.7c-1-0.9-1-3.1,0.5-4c0.8-0.5,1.7-0.6,2.6-0.6c0.7,0,1.4,0.2,2,0.5c1,0.6,1.5,1.5,1.4,2.7
		c0,0.1-0.1,0.2-0.2,0.2c-0.4,0-0.9,0-1.3,0c-0.1,0-0.2-0.1-0.2-0.2c0-0.5-0.1-0.9-0.5-1.3c-0.4-0.4-1-0.5-1.5-0.5
		c-0.4,0-0.8,0-1.2,0.2c-0.8,0.4-0.9,1.5-0.2,2c0.4,0.3,0.9,0.5,1.3,0.7c0.7,0.3,1.5,0.6,2.2,0.9c0.4,0.2,0.7,0.4,1,0.7
		c1,1,0.8,2.9-0.4,3.8c-0.5,0.4-1.1,0.6-1.8,0.7c-0.9,0.1-1.9,0.1-2.8-0.3c-0.9-0.4-1.6-1-1.8-2c-0.1-0.3,0-0.7-0.1-1
		c0-0.1,0.1-0.2,0.2-0.2C130.6,53.6,130.8,53.6,131,53.6z"/>
	<path class="st3" d="M13.7,28.3c0-1.6,0-3.2,0-4.8c0-0.3,0-0.3,0.3-0.3c2.1,0,4.2,0,6.3,0c0.3,0,0.3,0,0.3,0.3c0,0.3,0,0.6,0,0.9
		c0,0.2-0.1,0.3-0.3,0.3c-1.6,0-3.2,0-4.7,0c-0.2,0-0.3,0.1-0.3,0.3c0,0.8,0,1.6,0,2.4c0,0.2,0.1,0.2,0.2,0.2c1,0,2.1,0,3.1,0
		c0.3,0,0.3,0,0.3,0.3c0,0.3,0,0.6,0,0.9c0,0.2,0,0.3-0.3,0.3c-1,0-2.1,0-3.1,0c-0.3,0-0.3,0-0.3,0.3c0,0.8,0,1.7,0,2.5
		c0,0.2,0.1,0.2,0.2,0.2c1.6,0,3.1,0,4.7,0c0.3,0,0.3,0,0.3,0.3c0,0.3,0,0.6,0,0.9c0,0.2-0.1,0.3-0.3,0.3c-2.1,0-4.3,0-6.4,0
		c-0.2,0-0.3,0-0.3-0.3C13.7,31.5,13.7,29.9,13.7,28.3z"/>
	<path class="st3" d="M110.9,28.3c0-1.6,0-3.2,0-4.8c0-0.3,0-0.3,0.3-0.3c2.1,0,4.2,0,6.3,0c0.3,0,0.3,0,0.3,0.3c0,0.3,0,0.6,0,0.9
		c0,0.2,0,0.3-0.3,0.3c-1.6,0-3.1,0-4.7,0c-0.3,0-0.3,0-0.3,0.3c0,0.8,0,1.6,0,2.4c0,0.2,0.1,0.2,0.2,0.2c1,0,2.1,0,3.1,0
		c0.3,0,0.3,0,0.3,0.3c0,0.3,0,0.6,0,0.9c0,0.3,0,0.3-0.3,0.3c-1,0-2.1,0-3.1,0c-0.2,0-0.3,0.1-0.3,0.3c0,0.8,0,1.7,0,2.5
		c0,0.2,0,0.2,0.2,0.2c1.6,0,3.1,0,4.7,0c0.3,0,0.3,0,0.3,0.3c0,0.3,0,0.6,0,0.9c0,0.2-0.1,0.2-0.2,0.2c-2.2,0-4.3,0-6.5,0
		c-0.2,0-0.2-0.1-0.2-0.3C110.9,31.5,110.9,29.9,110.9,28.3z"/>
	<path class="st3" d="M103.8,28.3c0,0.6,0,1.2,0,1.8c0,1.3,0.9,2.1,2.3,2c1-0.1,1.6-0.8,1.7-1.8c0-0.2,0.1-0.2,0.2-0.2
		c0.4,0,0.9,0,1.3,0.1c0.2,0,0.2,0.1,0.2,0.3c-0.1,1.4-0.8,2.5-2.2,3c-1.1,0.4-2.2,0.4-3.3-0.1c-1.2-0.6-1.8-1.6-1.9-3
		c0-1.3,0-2.5,0-3.8c0-1.7,1.1-3,2.8-3.3c1.1-0.2,2.1-0.1,3.1,0.5c0.9,0.5,1.4,1.3,1.5,2.4c0.1,0.6,0,0.5-0.5,0.6
		c-0.3,0-0.6,0-0.9,0.1c-0.2,0-0.3-0.1-0.3-0.3c0-0.8-0.5-1.5-1.2-1.7c-0.8-0.3-1.8-0.1-2.3,0.5c-0.3,0.4-0.5,0.8-0.5,1.3
		C103.8,27,103.8,27.6,103.8,28.3z"/>
	<path class="st3" d="M76.4,28.3c0,0.6,0,1.2,0,1.8c0,1.3,1,2.2,2.3,2c1-0.1,1.6-0.8,1.6-1.8c0-0.2,0.1-0.2,0.2-0.2
		c0.4,0,0.8,0,1.3,0.1c0.2,0,0.2,0.1,0.2,0.3c0,1.5-0.9,2.6-2.3,3c-1,0.3-2,0.3-3-0.1c-1.3-0.5-2.1-1.6-2.1-3c0-1.3,0-2.6,0-3.9
		c0-1.7,1.2-3,2.8-3.2c1.1-0.2,2.1-0.1,3.1,0.5c0.9,0.5,1.3,1.3,1.4,2.4c0.1,0.6,0,0.5-0.5,0.6c-0.3,0-0.6,0-0.9,0
		c-0.3,0-0.3,0-0.3-0.3c0-0.7-0.3-1.2-0.9-1.6c-0.8-0.4-2.1-0.4-2.8,0.6c-0.2,0.3-0.3,0.7-0.3,1.1C76.4,27,76.4,27.7,76.4,28.3z"/>
	<path class="st3" d="M64.6,28.3c0,0.6,0,1.2,0,1.8c0,1.3,1,2.2,2.3,2c1-0.1,1.6-0.8,1.6-1.8c0-0.2,0.1-0.2,0.2-0.2
		c0.4,0,0.8,0,1.3,0.1c0.2,0,0.2,0.1,0.2,0.3c0,1.5-0.9,2.6-2.3,3c-1.1,0.3-2.2,0.3-3.2-0.2c-1.2-0.6-1.8-1.6-1.9-2.9
		c0-1.3,0-2.6,0-3.9c0-1.7,1.2-3,2.8-3.2c1.1-0.2,2.1-0.1,3.1,0.5c0.9,0.5,1.3,1.3,1.4,2.3c0.1,0.6,0,0.5-0.5,0.6
		c-0.3,0-0.6,0-0.9,0c-0.3,0-0.3,0-0.3-0.3c0-0.9-0.5-1.5-1.3-1.7c-0.9-0.3-1.9,0-2.3,0.7c-0.2,0.3-0.3,0.7-0.3,1.1
		C64.6,27,64.6,27.6,64.6,28.3z"/>
	<path class="st3" d="M76.1,51.9c0,0.6,0,1.2,0,1.8c0,1.3,0.9,2.1,2.3,2c1-0.1,1.6-0.8,1.7-1.8c0-0.1,0-0.2,0.2-0.2
		c0.4,0,0.9,0,1.3,0.1c0.2,0,0.2,0.1,0.2,0.3c-0.1,1.5-0.9,2.6-2.3,3c-1.1,0.3-2.1,0.3-3.2-0.2c-1.2-0.6-1.8-1.6-1.9-2.9
		c0-1.3,0-2.6,0-3.9c0-1.7,1.2-3,2.8-3.2c1.1-0.2,2.1-0.1,3.1,0.5c0.9,0.5,1.3,1.3,1.4,2.3c0.1,0.6,0,0.5-0.5,0.6
		c-0.3,0-0.6,0-0.9,0.1c-0.2,0-0.3-0.1-0.3-0.3c0-0.9-0.5-1.5-1.3-1.8c-0.9-0.3-1.9,0-2.4,0.8c-0.2,0.3-0.3,0.7-0.3,1.1
		C76.1,50.6,76.1,51.3,76.1,51.9z"/>
	<path class="st3" d="M59,52.6c0,1.4,0,2.7,0,4.1c0,0.3,0,0.3-0.3,0.3c-0.3,0-0.7,0-1,0c-0.3,0-0.3,0-0.3-0.3c0-1.2,0-2.4,0-3.5
		c0-1.6,0-3.1,0-4.7c0-0.2-0.1-0.3-0.3-0.3c-0.8,0-1.5,0-2.3,0c-0.3,0-0.3,0-0.3-0.4c0-0.3,0-0.6,0-0.9c0-0.2,0.1-0.2,0.2-0.2
		c2.3,0,4.7,0,7,0c0.2,0,0.3,0.1,0.3,0.3c0,0.3,0,0.6,0,0.9c0,0.2,0,0.3-0.3,0.3c-0.8,0-1.6,0-2.4,0c-0.2,0-0.2,0.1-0.2,0.2
		C59.1,49.8,59,51.2,59,52.6z"/>
	<path class="st3" d="M44.9,29c0-1.4,0-2.7,0-4.1c0-0.2-0.1-0.3-0.3-0.3c-0.8,0-1.5,0-2.3,0c-0.3,0-0.3,0-0.3-0.3c0-0.3,0-0.6,0-0.9
		c0-0.2,0.1-0.3,0.3-0.3c2.3,0,4.7,0,7,0c0.2,0,0.3,0.1,0.3,0.3c0,0.3,0,0.6,0,1c0,0.2-0.1,0.3-0.3,0.3c-0.8,0-1.6,0-2.5,0
		c-0.2,0-0.2,0.1-0.2,0.2c0,2.7,0,5.4,0,8.1c0,0.1,0,0.1,0,0.2c0,0.2-0.1,0.2-0.2,0.2c-0.4,0-0.8,0-1.2,0c-0.2,0-0.2-0.1-0.2-0.2
		c0-0.5,0-1,0-1.4C44.9,30.8,44.9,29.9,44.9,29z"/>
	<path class="st3" d="M59.6,28.3c0-1.6,0-3.2,0-4.8c0-0.3,0-0.3,0.3-0.3c0.4,0,0.7,0,1.1,0c0.2,0,0.3,0,0.3,0.3c0,3.3,0,6.5,0,9.8
		c0,0.2-0.1,0.3-0.3,0.3c-0.4,0-0.8,0-1.1,0c-0.2,0-0.3,0-0.3-0.3C59.6,31.5,59.6,29.9,59.6,28.3z"/>
	<path class="st3" d="M30.9,28.3c0-1.6,0-3.2,0-4.8c0-0.3,0-0.3,0.3-0.3c0.4,0,0.7,0,1.1,0c0.2,0,0.3,0,0.3,0.3c0,2.2,0,4.4,0,6.6
		c0,1,0,2,0,3.1c0,0.3,0,0.3-0.3,0.3c-0.4,0-0.7,0-1.1,0c-0.3,0-0.3,0-0.3-0.3C30.9,31.5,30.9,29.9,30.9,28.3z"/>
	<path class="st3" d="M29.3,25.9c0-0.9-0.4-1.6-1.2-2.2c-0.7-0.5-1.5-0.6-2.3-0.7c-1.2,0-2.3,0-3.5,0c-0.3,0-0.3,0-0.3,0.3
		c0,1.6,0,3.2,0,4.8c0,1.6,0,3.2,0,4.8c0,0.3,0,0.4,0.3,0.4c1.2,0,2.4,0,3.6,0c0.4,0,0.8-0.1,1.2-0.2c1.3-0.4,2.2-1.4,2.2-2.7
		C29.3,29,29.3,27.5,29.3,25.9z M27.6,30.4c-0.1,0.9-0.7,1.6-1.7,1.6c-0.6,0-1.3,0-1.9,0c-0.2,0-0.3,0-0.3-0.2c0-1.1,0-2.3,0-3.4
		c0-1.1,0-2.3,0-3.4c0-0.2,0.1-0.2,0.2-0.2c0.7,0,1.3,0,2,0c0.9,0,1.6,0.6,1.6,1.5c0,0.9,0,1.8,0,2.7C27.6,29.3,27.6,29.9,27.6,30.4
		z"/>
	<path class="st3" d="M45.5,49.5c0-0.8-0.3-1.4-0.9-1.9c-0.7-0.6-1.6-0.8-2.5-0.8c-1.2,0-2.3,0-3.5,0c-0.3,0-0.3,0-0.3,0.3
		c0,1.6,0,3.2,0,4.8c0,1.6,0,3.2,0,4.8c0,0.3,0,0.3,0.3,0.3c1.2,0,2.4,0,3.6,0c0.4,0,0.8-0.1,1.2-0.2c1.3-0.4,2.1-1.4,2.2-2.6
		C45.5,52.7,45.5,51.1,45.5,49.5z M43.8,53.7c0,0.3-0.1,0.6-0.2,0.8c-0.2,0.6-0.8,1-1.5,1c-0.7,0-1.4,0-2,0c-0.2,0-0.2-0.1-0.2-0.2
		c0-1.2,0-2.3,0-3.5c0-1.1,0-2.3,0-3.4c0-0.2,0-0.3,0.3-0.3c0.6,0,1.2,0,1.8,0c1.2,0,1.8,0.7,1.8,1.8C43.8,51.2,43.8,52.5,43.8,53.7
		z"/>
	<path class="st3" d="M58.2,33.1c-0.4-0.9-0.9-1.9-1.4-2.8c-0.2-0.5-0.5-1-0.7-1.5c0.1,0,0.2-0.1,0.3-0.1c0.3-0.1,0.6-0.3,0.8-0.5
		c1.2-0.9,1.2-2.6,0.6-3.7c-0.6-1.1-1.5-1.5-2.7-1.5c-1.3,0-2.6,0-3.9,0c-0.3,0-0.3,0-0.3,0.3c0,1.4,0,2.8,0,4.2c0,1.8,0,3.7,0,5.5
		c0,0.3,0,0.3,0.3,0.3c0.4,0,0.7,0,1.1,0c0.3,0,0.3,0,0.3-0.3c0-1.3,0-2.6,0-3.9c0-0.2,0.1-0.2,0.2-0.2c0.5,0,0.9,0,1.4,0
		c0.2,0,0.3,0.1,0.4,0.3c0.6,1.3,1.2,2.6,1.8,4c0.1,0.1,0.2,0.2,0.3,0.2c0.4,0,0.8,0,1.3,0C58.2,33.4,58.3,33.4,58.2,33.1z
		 M54.9,27.7c-0.7,0-1.4,0-2.2,0c-0.2,0-0.2-0.1-0.2-0.2c0-0.5,0-0.9,0-1.4c0-0.4,0-0.9,0-1.3c0-0.1,0-0.2,0.2-0.2
		c0.7,0,1.4,0,2.2,0c0.9,0,1.5,0.6,1.5,1.5C56.4,27,55.8,27.7,54.9,27.7z"/>
	<path class="st3" d="M126.5,33.1c-0.4-0.8-0.8-1.6-1.2-2.5c-0.3-0.6-0.6-1.2-0.9-1.8c0.1,0,0.2-0.1,0.3-0.1
		c0.3-0.1,0.6-0.3,0.8-0.4c0.9-0.8,1.1-1.8,0.9-2.9c-0.3-1.4-1.4-2.3-2.9-2.3c-1.3,0-2.7,0-4,0c-0.2,0-0.3,0.1-0.3,0.3
		c0,0.3,0,0.7,0,1c0,2.9,0,5.8,0,8.7c0,0.3,0,0.3,0.3,0.3c0.4,0,0.7,0,1.1,0c0.3,0,0.3,0,0.3-0.3c0-1.3,0-2.6,0-3.8
		c0-0.3,0-0.3,0.3-0.3c0.4,0,0.9,0,1.3,0c0.2,0,0.3,0.1,0.4,0.3c0.6,1.3,1.2,2.6,1.8,4c0.1,0.2,0.2,0.2,0.3,0.2c0.4,0,0.8,0,1.2,0
		C126.6,33.4,126.6,33.4,126.5,33.1z M123.3,27.7c-0.7,0-1.4,0-2.2,0c-0.1,0-0.2-0.1-0.2-0.2c0-0.5,0-0.9,0-1.4c0-0.5,0-0.9,0-1.4
		c0-0.1,0-0.2,0.2-0.2c0.7,0,1.4,0,2.2,0c0.9,0,1.5,0.7,1.5,1.5C124.8,27,124.2,27.6,123.3,27.7z"/>
	<path class="st3" d="M119.6,50.1c0-1.4-0.8-2.6-2.1-3.2c-0.7-0.3-1.4-0.3-2.1-0.3c-1.9,0.1-3.2,1.6-3.2,3.5c0,1.1,0,2.2,0,3.3
		c0,0.3,0,0.5,0,0.8c0.2,1.1,0.7,2,1.8,2.6c0.9,0.5,1.8,0.5,2.8,0.4c1.6-0.3,2.8-1.6,2.9-3.2c0-0.7,0-1.3,0-2c0,0,0,0,0,0
		C119.6,51.3,119.6,50.7,119.6,50.1z M117.9,53.7c0,0.6-0.2,1.2-0.7,1.6c-0.7,0.5-1.4,0.6-2.2,0.3c-0.8-0.3-1.1-0.9-1.2-1.7
		c0-0.6,0-1.3,0-1.9c0,0,0,0,0,0c0-0.6,0-1.3,0-1.9c0-1.1,0.8-1.8,1.9-1.9c1.1-0.1,1.9,0.5,2.1,1.6c0,0.2,0.1,0.3,0.1,0.5
		C117.9,51.3,117.9,52.5,117.9,53.7z"/>
	<path class="st3" d="M90.6,50.1c0-1.4-0.8-2.6-2.1-3.1c-0.7-0.3-1.4-0.3-2.1-0.3c-1.9,0.1-3.2,1.6-3.2,3.5c0,1.1,0,2.2,0,3.2
		c0,0.3,0,0.5,0,0.8c0.2,1.2,0.7,2.1,1.8,2.6c0.9,0.4,1.8,0.5,2.8,0.4c1.6-0.3,2.8-1.6,2.9-3.2c0-0.7,0-1.4,0-2c0,0,0,0,0,0
		C90.6,51.3,90.6,50.7,90.6,50.1z M88.9,53.7c0,0.9-0.5,1.7-1.3,1.9c-0.9,0.3-1.9,0-2.4-0.7c-0.3-0.4-0.4-0.8-0.4-1.3
		c0-0.6,0-1.2,0-1.7c0,0,0,0,0,0c0-0.6,0-1.3,0-1.9c0.1-1.2,1.1-2.1,2.3-1.9c1.1,0.2,1.8,0.9,1.8,2C88.9,51.3,88.9,52.5,88.9,53.7z"
		/>
	<path class="st3" d="M42.5,33.2c0-0.1,0-0.1,0-0.2c-0.6-1.8-1.2-3.7-1.8-5.5c-0.4-1.4-0.9-2.8-1.3-4.2c-0.1-0.2-0.1-0.3-0.3-0.3
		c-0.3,0-0.5,0-0.8,0c-0.3,0-0.5,0-0.8,0c-0.2,0-0.3,0.1-0.4,0.3c-0.6,1.9-1.2,3.8-1.8,5.8c-0.4,1.3-0.9,2.7-1.3,4
		c-0.1,0.2,0,0.3,0.2,0.3c0.4,0,0.8,0,1.3,0c0.2,0,0.3-0.1,0.3-0.3c0.1-0.4,0.3-0.9,0.4-1.3c0-0.1,0.1-0.2,0.3-0.2
		c1.2,0,2.4,0,3.6,0c0.2,0,0.2,0.1,0.3,0.2c0.1,0.5,0.3,0.9,0.4,1.4c0,0.1,0.1,0.2,0.2,0.2c0.5,0,0.9,0,1.4,0
		C42.5,33.4,42.5,33.3,42.5,33.2z M39.6,30.3c-0.9,0-1.8,0-2.7,0c-0.2,0-0.2,0-0.2-0.2c0.5-1.6,1-3.1,1.4-4.7c0-0.1,0-0.1,0.1-0.1
		c0,0,0,0,0.1,0c0.5,1.7,1,3.3,1.6,5C39.7,30.3,39.6,30.3,39.6,30.3z"/>
	<path class="st3" d="M91.5,33c-0.4-1.1-0.7-2.2-1.1-3.3c-0.7-2.1-1.4-4.3-2.1-6.4c-0.1-0.2-0.2-0.3-0.4-0.3c-0.5,0-1,0-1.6,0
		c-0.2,0-0.3,0.1-0.4,0.3c-0.7,2.2-1.4,4.4-2.1,6.6c-0.3,1-0.7,2.1-1,3.1c-0.1,0.3-0.1,0.3,0.3,0.3c0.4,0,0.8,0,1.2,0
		c0.2,0,0.3-0.1,0.3-0.2c0.1-0.4,0.3-0.9,0.4-1.3c0-0.2,0.1-0.2,0.3-0.2c1.2,0,2.4,0,3.6,0c0.2,0,0.2,0,0.3,0.2
		c0.1,0.5,0.3,0.9,0.4,1.4c0,0.1,0.1,0.2,0.3,0.2c0.2,0,0.5,0,0.7,0c0.2,0,0.4,0,0.6,0C91.6,33.4,91.6,33.4,91.5,33z M88.6,30.3
		c-0.9,0-1.8,0-2.7,0c-0.2,0-0.2,0-0.2-0.2c0.5-1.6,1-3.1,1.4-4.7c0-0.1,0-0.1,0.1-0.2c0,0,0,0,0.1,0c0.5,1.7,1,3.3,1.6,5
		C88.7,30.3,88.7,30.3,88.6,30.3z"/>
	<path class="st3" d="M54.9,56.7c-0.6-1.8-1.2-3.6-1.7-5.4c-0.5-1.4-0.9-2.9-1.4-4.3c-0.1-0.2-0.2-0.3-0.4-0.3c-0.3,0-0.5,0-0.8,0
		c-0.3,0-0.5,0-0.8,0c-0.2,0-0.3,0.1-0.4,0.3c-0.6,2-1.3,4-1.9,6.1c-0.4,1.2-0.8,2.4-1.2,3.7c-0.1,0.2,0,0.3,0.2,0.3
		c0.4,0,0.8,0,1.3,0c0.2,0,0.3-0.1,0.3-0.2c0.1-0.5,0.3-0.9,0.4-1.4c0-0.1,0.1-0.2,0.3-0.2c1.2,0,2.4,0,3.6,0c0.2,0,0.2,0.1,0.3,0.2
		c0.1,0.4,0.3,0.9,0.4,1.3c0.1,0.2,0.1,0.3,0.3,0.3c0.4,0,0.8,0,1.2,0C55,57,55,57,54.9,56.7z M52,53.9c-0.9,0-1.8,0-2.8,0
		c-0.2,0-0.2,0-0.2-0.2c0.5-1.6,1-3.1,1.4-4.7c0-0.1,0-0.1,0.1-0.2c0.5,1.7,1,3.3,1.6,5C52.1,53.9,52,53.9,52,53.9z"/>
	<path class="st3" d="M9.5,23.1c-1.4,0-2.8,0-4.2,0c-0.2,0-0.2,0.1-0.2,0.2c0,3.3,0,6.5,0,9.8c0,0.2,0.1,0.2,0.2,0.2
		c0.4,0,0.8,0,1.2,0c0.3,0,0.3,0,0.3-0.3c0-1.2,0-2.4,0-3.6c0-0.1,0-0.2,0-0.3c0.1,0,0.2,0,0.3,0c0.8,0,1.7,0,2.5,0
		c1.5-0.1,2.7-1,2.9-2.7C12.6,24.6,11.4,23.2,9.5,23.1z M10.2,27.4c-0.3,0.3-0.7,0.4-1.1,0.4c-0.7,0-1.4,0-2.1,0
		c-0.1,0-0.2,0-0.2-0.2c0-0.5,0-1,0-1.5c0-0.5,0-0.9,0-1.4c0-0.1,0-0.2,0.2-0.2c0.7,0,1.4,0,2.1,0c0.7,0,1.3,0.4,1.5,1
		C10.9,26.2,10.7,27,10.2,27.4z"/>
</g>
<g id="CGCI" class="st0">
	<path class="st3" d="M47.6,65.6c-0.5-0.3-0.8-0.5-1.3-0.8c1.1-1.9,2.1-3.7,3.2-5.7c-1.6-0.9-3-1.8-4.5-2.6
		c-0.6-0.3-0.9-0.7-0.9-1.5c0.1-1.4,0-2.8,0-4.2c0-0.8-0.2-1.1-1.1-1.1c-1.5,0.1-3,0-4.5,0c-0.5,0-1,0-1-0.7c0-0.7,0.4-0.8,0.9-0.8
		c1.6,0,3.2,0,4.7,0c0.7,0,0.9-0.2,0.9-0.9c0-1.6,0-3.3,0-4.9c0-0.7-0.2-0.9-0.9-0.9c-1.6,0-3.2,0-4.7,0c-0.5,0-0.9,0-0.9-0.7
		c0-0.7,0.4-0.7,0.9-0.7c1.5,0,3.1,0,4.6,0c0.8,0,1-0.3,1-1c0-1.6,0-3.2,0-4.7c0-0.8-0.3-1-1-1c-1.6,0-3.2,0-4.7,0
		c-0.5,0-0.8-0.1-0.8-0.7c0-0.6,0.2-0.8,0.8-0.8c1.6,0,3.2,0,4.8,0c0.7,0,0.9-0.2,0.9-0.9c0-1.5,0-3,0-4.4c0-0.7,0.2-1.1,0.8-1.4
		c1.5-0.8,3-1.7,4.6-2.6c-1.1-1.9-2.1-3.7-3.2-5.7c0.4-0.3,0.8-0.5,1.3-0.8c1.1,1.9,2.2,3.7,3.3,5.7c1.9-1.1,3.8-2.2,5.8-3.3
		c-1.1-1.9-2.1-3.7-3.3-5.7c0.4-0.3,0.8-0.5,1.3-0.8c1.1,1.9,2.2,3.7,3.3,5.7c1.9-1.1,3.8-2.2,5.8-3.3c-1.1-1.9-2.1-3.7-3.2-5.7
		c0.4-0.3,0.8-0.5,1.3-0.8c1.1,1.9,2.2,3.7,3.3,5.7c1.3-0.7,2.5-1.3,3.6-2.1c1.3-0.9,2.3-0.9,3.6,0c1.1,0.8,2.3,1.4,3.6,2.1
		c1.1-1.9,2.2-3.8,3.3-5.7c0.5,0.3,0.9,0.5,1.4,0.8c-1.1,1.9-2.2,3.8-3.3,5.7c1.9,1.1,3.8,2.2,5.7,3.3c1.1-1.9,2.2-3.8,3.3-5.7
		c0.5,0.3,0.9,0.5,1.4,0.8c-1.1,1.9-2.2,3.7-3.3,5.7c1.9,1.1,3.8,2.2,5.7,3.3c1.1-1.9,2.2-3.7,3.3-5.7c0.5,0.3,0.9,0.5,1.4,0.8
		c-1.1,1.9-2.1,3.7-3.3,5.7c1.5,0.9,2.9,1.7,4.4,2.5c0.7,0.4,1,0.9,1,1.7c-0.1,1.4,0,2.8,0,4.1c0,0.7,0.2,1,1,1c1.8,0,3.7,0,5.6,0
		c0,0.5,0,1,0,1.6c-0.8,0-1.7,0-2.5,0c-0.9,0-1.8,0-2.7,0c-1.4,0-1.4,0-1.4,1.4c0,1.7,0,3.3,0,5.2c1.2,0,2.2,0,3.3,0
		c0.8,0,1.6,0,2.4,0c0.6,0,1,0.1,1,0.8c0,0.8-0.4,0.8-1,0.8c-1.6,0-3.2,0-4.8,0c-0.3,0-0.7,0.3-0.7,0.5c-0.1,2,0,4,0,6.1
		c2.2,0,4.3,0,6.5,0c0,0.6,0,1,0,1.6c-1.7,0-3.3,0-4.9,0c-1.8,0-1.6-0.2-1.6,1.6c0,1.3,0,2.6,0,3.8c0,0.6-0.2,1-0.7,1.2
		c-1.5,0.8-3,1.7-4.6,2.7c1.1,1.9,2.1,3.7,3.2,5.7c-0.4,0.3-0.8,0.5-1.4,0.8c-1.1-1.9-2.2-3.8-3.3-5.7c-1.9,1.1-3.8,2.2-5.7,3.3
		c1.1,1.9,2.1,3.7,3.3,5.7c-0.5,0.3-0.9,0.5-1.4,0.8c-1.1-1.9-2.2-3.7-3.3-5.7c-1.9,1.1-3.8,2.2-5.7,3.3c1.1,1.9,2.1,3.7,3.3,5.7
		c-0.5,0.3-0.9,0.5-1.3,0.8c-1.1-1.9-2.2-3.7-3.3-5.7c-1.5,0.9-3,1.6-4.4,2.5c-0.7,0.5-1.3,0.5-2,0c-1.4-0.9-2.8-1.7-4.4-2.5
		c-1.1,1.9-2.2,3.7-3.3,5.7c-0.4-0.3-0.9-0.5-1.3-0.8c1.1-1.9,2.1-3.7,3.2-5.7C61.9,66.3,60,65.2,58,64c-1.1,1.9-2.2,3.8-3.3,5.7
		c-0.4-0.3-0.8-0.5-1.3-0.8c1.1-1.9,2.1-3.7,3.2-5.7c-1.9-1.1-3.8-2.2-5.8-3.3C49.8,61.8,48.7,63.6,47.6,65.6z M85.1,40.8
		c0-8-6.5-14.5-14.5-14.5c-8.1,0-14.6,6.5-14.6,14.6c0,8.1,6.5,14.5,14.6,14.5C78.6,55.4,85.1,48.8,85.1,40.8z M71.8,14.8
		c0,0.1-0.1,0.1-0.1,0.2c0.2,0.2,0.4,0.3,0.6,0.5c5.6,4.4,11.3,8.9,16.9,13.4c0.4,0.3,0.9,0.8,1,1.3c1,6.5,1.9,13,2.8,19.5
		c0.2,1.2,0.4,2.5,0.6,3.7c0.1,0,0.1,0,0.2,0c0-0.3,0-0.6,0-1c0-7.9,0-15.8,0-23.8c0-0.8-0.3-1.3-1-1.7c-6.7-3.8-13.4-7.7-20.1-11.6
		C72.4,15.1,72.1,15,71.8,14.8z M69.5,15c-0.1-0.1-0.1-0.1-0.2-0.2C69.2,14.9,69,15,68.9,15c-7,4-14,8-20.9,12
		c-0.6,0.3-0.6,0.7-0.6,1.3c0,8.1,0,16.2,0,24.3c0,0.3,0,0.5,0.1,0.8c0.2-0.4,0.3-0.8,0.4-1.3c1.1-7.3,2.1-14.5,3.2-21.8
		c0.1-0.5,0.4-1.1,0.8-1.4c4.9-3.9,9.7-7.7,14.6-11.5C67.4,16.6,68.4,15.8,69.5,15z M48.7,54.7c0,0.1,0,0.1-0.1,0.2
		c0.2,0.2,0.5,0.3,0.7,0.5c6.8,3.9,13.6,7.8,20.4,11.8c0.6,0.4,1.1,0.3,1.7-0.1c6.8-3.9,13.6-7.9,20.4-11.8c0.3-0.2,0.6-0.4,0.8-0.5
		c-0.5,0-0.9,0.1-1.3,0.3c-6.6,2.6-13.2,5.3-19.8,7.9c-0.7,0.3-1.3,0.3-2,0c-6.5-2.6-13.1-5.2-19.7-7.8C49.5,55,49.1,54.8,48.7,54.7
		z"/>
	<path class="st3" d="M70.5,41.9c-2.7,2.6-5.8,4.1-9.6,4.1c0-0.3-0.1-0.5-0.1-0.7c0-0.2,0-0.4,0-0.7c1.3,0.1,1.2-0.7,1.2-1.6
		c0-1.6-0.1-3.2,0-4.7c0-0.8-0.2-1.3-1.1-1.2c0-0.5,0-0.9,0-1.4c3.8-0.1,6.9,1.4,9.6,4c2.6-2.8,5.8-4.2,9.7-4.1c0,0.5,0,0.9,0,1.5
		c-1.2-0.1-1.1,0.7-1.1,1.6c0,1.5,0,3.1,0,4.6c0,1,0,1,1.1,1.2c0,0.5,0,0.9,0,1.5C76.4,46.1,73.2,44.8,70.5,41.9z M77.5,37.5
		c-0.3,0.1-0.6,0.1-0.9,0.2c-1.4,0.4-1.4,0.4-1.4,1.8c0,0.9,0,1.8,0,2.7c0,1.5,0.7,2,2.3,1.8C77.5,41.8,77.5,39.7,77.5,37.5z
		 M63.5,44.2c0.5-0.1,0.8-0.2,1.2-0.3c1-0.2,1.4-0.7,1.2-1.7c-0.1-0.8,0-1.6,0-2.5c0-1.5-0.7-2.2-2.4-2
		C63.5,39.8,63.5,41.9,63.5,44.2z M71.6,40.8c0.7,0.6,1.2,1.1,1.9,1.7c0-1.2,0-2.2,0-3.4C72.8,39.7,72.3,40.2,71.6,40.8z M67.5,42.5
		c0.7-0.6,1.3-1.1,1.9-1.7c-0.7-0.6-1.3-1-1.9-1.6C67.5,40.4,67.5,41.3,67.5,42.5z"/>
</g>
<g id="HTAN" class="st0">
	<g class="st1">
		<path class="st4" d="M130.9,43.6c0-6.8,0-13.5,0-20.3c2.6,0,5.1,0,7.6,0c0,11.3,0,22.5,0,33.8c-0.2,0-0.4,0-0.6,0
			c-1.7,0-3.4,0-5.2,0c-0.4,0-0.7-0.1-0.9-0.4c-4.3-5.3-8.6-10.5-13-15.8c-1.1-1.3-2.2-2.6-3.2-3.9c-0.1-0.1-0.2-0.2-0.4-0.4
			c0,6.9,0,13.7,0,20.5c-2.6,0-5.1,0-7.7,0c0-0.2,0-0.5,0-0.7c0-10.8,0-21.6,0-32.4c0-0.8,0-0.8,0.8-0.8c1.7,0,3.4,0,5.1,0
			c0.4,0,0.7,0.1,0.9,0.4c5.3,6.4,10.5,12.9,15.8,19.3c0.2,0.2,0.4,0.5,0.6,0.7C130.8,43.7,130.9,43.7,130.9,43.6z"/>
		<path class="st4" d="M3,23.3c2.6,0,5.1,0,7.7,0c0,4.4,0,8.8,0,13.3c5.2,0,10.3,0,15.5,0c0-4.4,0-8.8,0-13.3c0.2,0,0.4-0.1,0.6-0.1
			c2.2,0,4.4,0,6.6,0c0.5,0,0.6,0.1,0.6,0.6c0,10.9,0,21.8,0,32.7c0,0.2,0,0.3,0,0.5c-0.2,0-0.4,0-0.5,0c-2.2,0-4.4,0-6.6,0
			c-0.5,0-0.6-0.2-0.6-0.6c0-4.2,0-8.3,0-12.5c0-0.2,0-0.5,0-0.8c-5.2,0-10.3,0-15.5,0c0,4.6,0,9.2,0,13.8c-2.6,0-5.1,0-7.7,0
			C3,45.8,3,34.6,3,23.3z"/>
		<path class="st4" d="M103.9,57.1c-2.2,0-4.2,0-6.2,0c-0.6,0-1.4,0.2-1.9-0.1c-0.5-0.3-0.6-1.1-0.8-1.7c-0.7-1.7-1.4-3.3-2.1-5
			c-0.1-0.4-0.3-0.5-0.7-0.5c-4.9,0-9.9,0-14.8,0c-0.4,0-0.6,0.2-0.7,0.5c-0.9,2.1-1.7,4.2-2.6,6.3c-0.2,0.4-0.3,0.5-0.8,0.5
			c-2.3,0-4.6,0-6.9,0c-0.2,0-0.3,0-0.6,0c0.1-0.3,0.2-0.5,0.3-0.7c4.8-10.9,9.7-21.7,14.5-32.6c0.2-0.4,0.4-0.5,0.8-0.5
			c2.2,0,4.4,0,6.7,0c0.4,0,0.6,0.2,0.8,0.5c3.4,7.6,6.8,15.2,10.2,22.8c1.5,3.3,2.9,6.5,4.4,9.8C103.6,56.6,103.7,56.8,103.9,57.1z
			 M90.2,44c-1.8-4.4-3.6-8.6-5.3-12.9c-0.1,0-0.1,0-0.2,0c-1.8,4.3-3.5,8.6-5.3,12.9C83.1,44,86.6,44,90.2,44z"/>
		<path class="st4" d="M67.8,23.2c0,0.5,0,0.9,0,1.3c0,1.4,0,2.9,0,4.3c0,0.6-0.2,0.7-0.7,0.7c-3.1,0-6.3,0-9.4,0
			c-0.6,0-0.8,0.1-0.8,0.8c0,8.7,0,17.3,0,26c0,0.3,0,0.5,0,0.8c-2.6,0-5.1,0-7.8,0c0-9.2,0-18.3,0-27.5c-3.7,0-7.2,0-10.9,0
			c0-1.1,0-2.2,0-3.3c0-0.8,0-1.7,0-2.5c0-0.4,0.1-0.6,0.6-0.5c0.6,0,1.2,0,1.8,0c8.8,0,17.5,0,26.3,0
			C67.2,23.2,67.4,23.2,67.8,23.2z"/>
	</g>
</g>
<g id="Utah" class="st0">
	<path class="st3" d="M108,73.6c-4.2,0-8.4,0-12.5,0c-4.6,0-9.2,0-13.7,0c-1,0-1.8,0-2.1-1.3c-0.3-1.8-1.7-2.5-3.4-2.5
		c-3.7,0-7.4-0.1-11.1,0c-2.3,0-2.9,0.7-4,3.8c-0.9,0-1.8,0-2.7,0c-7.8,0-15.6,0-23.3,0c-1,0-2.1,0.1-1.9-1.3
		c0.2-1.4-1.2-3.5,1.3-4.2c0.1,0,0.3,0,0.4-0.1c5.4-1.1,5.4-1.1,5.4-6.7c0-14.8,0-29.5,0-44.3c0-1.8-0.4-3-2.4-2.9
		c-0.2,0-0.4-0.1-0.6-0.1c-4.7-0.8-4.7-0.8-4-5.8c9.2,0,18.5,0,27.8,0c1.6,3.8,1.6,3.8,6,3.8c3,0,6,0,8.9,0c1.9,0,3.2-0.7,3.7-2.7
		C79.9,8.7,80.6,8,81.1,8C90,7.9,99,7.9,108.3,7.9c0,1.5,0.1,2.9,0,4.2c0,0.4-0.6,0.8-0.9,1.2c-0.1,0.1-0.4,0.1-0.6,0.1
		c-1.8,0.4-4.2,0.3-5.2,1.5c-0.9,1.1-0.3,3.5-0.3,5.3c0,14.7,0,29.4-0.1,44.1c0,2,0.4,3.2,2.6,3.2c0.2,0,0.4,0.1,0.6,0.1
		C108.8,68.4,108.9,68.5,108,73.6z M74.9,34.3c0-2.4-1.8-4.3-4.2-4.3c-2.4,0-4.3,2-4.3,4.3c0.1,2.3,1.9,4.1,4.2,4.2
		C73,38.6,74.9,36.7,74.9,34.3z M71.3,51.5c2.3,0,4.3-2,4.3-4.3c0-2.3-1.8-4.1-4.1-4.2c-2.5-0.1-4.3,1.7-4.4,4.2
		C67.1,49.5,69,51.5,71.3,51.5z M83.4,41.5c0.1-1.7-1.3-3.4-3.1-3.6c-1.8-0.2-3.4,1.3-3.5,3.1c-0.1,1.9,1.2,3.4,3,3.5
		C81.6,44.7,83.2,43.4,83.4,41.5z M65.3,40.3c0-1.9-1.3-3.3-3.2-3.3c-1.9,0-3.3,1.3-3.3,3.2c0,1.9,1.4,3.4,3.2,3.4
		C63.8,43.6,65.3,42.1,65.3,40.3z M78.6,24.5c-1.7,0-3.2,1.4-3.2,3.1c0,1.7,1.3,3,3,3.1c1.7,0.1,3.2-1.3,3.3-3
		C81.8,26,80.4,24.5,78.6,24.5z M66.5,54c0-1.9-1.2-3.1-3.1-3.2c-1.8,0-3.2,1.3-3.2,3.1c0,1.6,1.4,3,3,3.1
		C65.1,57.1,66.5,55.8,66.5,54z M54.9,13c0.1,1.3,1.1,2.2,2.6,2.3c1.5,0.1,2.8-1.4,2.7-2.8c-0.2-1.5-1-2.5-2.7-2.6
		C56,9.9,54.8,11.2,54.9,13z M87.2,68.8c-0.2-1.4-0.9-2.4-2.6-2.5c-1.5-0.1-2.8,1.1-2.8,2.7c0,1.6,1,2.5,2.5,2.7
		C85.9,71.7,87.2,70.4,87.2,68.8z M86.7,34c-0.1-1.6-1-2.5-2.5-2.5c-1.4,0-2.3,0.9-2.4,2.3c0,1.5,0.8,2.5,2.4,2.5
		C85.8,36.4,86.5,35.5,86.7,34z M61,46.9c-0.6-0.5-1.5-1.5-2.5-1.7c-1.5-0.3-2.7,0.9-2.4,2.4c0.2,0.9,1.3,2.1,2.2,2.4
		C59.8,50.3,60.7,49.2,61,46.9z M55.5,59.8c0,0.3,0,0.7,0,1c0.9,0.7,1.8,1.7,2.8,1.9c1.4,0.3,2.4-0.8,2.5-2.3c0.1-1.5-1-2.6-2.4-2.4
		C57.4,58.1,56.5,59.2,55.5,59.8z M80.3,20.5c0,0.4,0,0.7,0,1.1c0.9,0.7,1.8,1.7,2.8,1.9c1.5,0.2,2.4-0.9,2.4-2.4
		c0-1.4-1-2.5-2.3-2.3C82.2,18.9,81.3,19.9,80.3,20.5z M82.1,62.7c0-0.4,0-0.7,0-1.1c-0.9-0.6-1.8-1.7-2.7-1.6c-0.8,0-1.9,1.2-2.2,2
		c-0.4,1.4,0.8,2.5,2.1,2.3C80.4,64.3,81.2,63.3,82.1,62.7z M65.2,19.9c0-0.4,0-0.7,0-1.1c-0.9-0.6-1.7-1.6-2.7-1.8
		c-1.3-0.2-2.5,0.9-2.2,2.3c0.2,0.9,1.3,2,2.1,2.1C63.3,21.5,64.3,20.5,65.2,19.9z M75.4,58.3c0-0.3,0-0.6,0-1
		c-0.9-0.5-1.8-1.5-2.6-1.5c-0.7,0.1-1.8,1.2-2,2c-0.2,1.3,0.8,2.3,2.2,2C73.9,59.7,74.6,58.8,75.4,58.3z M71.6,24.2
		c0-0.3,0-0.7,0-1c-0.8-0.5-1.5-1.4-2.4-1.5c-1.3-0.2-2.3,0.7-2.1,2c0.2,0.8,1.2,1.9,1.9,2C69.9,25.7,70.8,24.7,71.6,24.2z
		 M84.9,14.5c-1.1-0.9-1.8-1.8-2.3-1.7c-0.7,0.1-1.6,0.9-1.8,1.6c-0.1,0.4,0.9,1.6,1.4,1.6C82.9,16.1,83.6,15.3,84.9,14.5z
		 M62.1,67.1c-1.1-0.8-1.8-1.7-2.3-1.6c-0.7,0.2-1.2,1.1-1.8,1.7c0.6,0.6,1.2,1.4,1.8,1.6C60.3,68.8,61,67.9,62.1,67.1z"/>
</g>
<g id="ccss" class="st0">
	<path class="st3" d="M123.7,17c1.4,0.3,2.8,0.5,4.2,0.9c5.3,1.4,9.2,6.2,9.7,11.7c0,0.6,0.1,1.1,0.2,1.8c-2,0-3.8,0-5.8,0
		c-0.1-0.6-0.3-1.3-0.4-2c-1-3.8-3.5-5.9-7.2-6.8c-3.4-0.8-6.8-0.6-10,0.9c-3.2,1.4-4.5,5.4-3.4,8.3c0.5,1.4,1.6,2.2,2.8,2.8
		c2.4,1.3,5,1.7,7.5,2.4c3.6,0.9,7.1,1.7,10.6,2.9c3.5,1.2,6.3,3.5,7.2,7.2c1.5,6.1-0.1,11.3-6,14.7c-3,1.7-6.2,2.3-9.6,2.5
		c-3.5,0.3-6.8-0.2-10.1-1.3c-2.6-0.9-5-2.3-7-4.5c-0.4,0.5-0.8,1-1.2,1.4c-2.8,2.5-6.2,3.6-9.8,4.2c-4.1,0.6-8.1,0.4-12-0.9
		c-3.3-1-6.2-2.7-8.2-5.6c-0.1-0.1-0.2-0.2-0.3-0.4c-1.6,2.2-3.6,4-6.1,5.2c-2.5,1.2-5.2,1.7-8,2c-2.7,0.2-5.3,0-7.9-0.6
		c-5.8-1.5-9.8-5-12.4-10.4c-0.1,0.2-0.3,0.4-0.3,0.7c-2.3,6.2-7,9.2-13.3,10.2c-3.9,0.6-7.8,0.5-11.5-0.8c-5.6-2-9.3-5.9-11.6-11.3
		c-1.8-4.3-2.3-8.9-1.9-13.5c0.3-4.6,1.5-8.9,4.1-12.8c3.4-5.1,8.2-7.9,14.3-8.6c0.1,0,0.2-0.1,0.3-0.1c1.8,0,3.6,0,5.4,0
		c0.2,0,0.5,0.1,0.7,0.1c4.1,0.5,7.7,1.9,10.7,4.7c1.7,1.7,2.8,3.7,3.6,6c0.2-0.3,0.3-0.4,0.4-0.6c2.3-4.5,6-7.5,10.7-9.1
		c1.6-0.5,3.3-0.8,4.9-1.2c1.8,0,3.5,0,5.3,0c0.1,0,0.3,0.1,0.4,0.1c3.7,0.4,7,1.6,9.9,4c1.1,0.9,2.2,1.9,3.2,2.8
		c1.8-3.2,5-5,8.7-6.1c1.2-0.3,2.4-0.5,3.6-0.8c1.8,0,3.5,0,5.3,0c1.2,0.2,2.5,0.4,3.7,0.7c2.8,0.7,5.3,2.1,7.1,4.3
		c0.6,0.8,1.2,1.6,1.8,2.5c1.8-3.5,4.8-5.5,8.4-6.6c1.4-0.4,2.9-0.7,4.4-1C120.2,17,122,17,123.7,17z M72.7,46.3
		c1.2,0.5,2.6,1.2,4,1.7c0.8,0.3,1,0.7,1.2,1.4c1,4.1,3.2,7.3,7.2,8.8c2.8,1.1,5.8,1.4,8.8,1c2.2-0.3,4.2-0.8,6.1-2
		c3.7-2.6,4.3-9.4-0.8-11.7c-2.3-1.1-4.7-1.7-7.1-2.3c-3.5-0.9-7-1.6-10.4-2.7c-4.2-1.4-7.3-4.1-7.7-9c-0.7,0.1-1.3,0.2-1.9,0.3
		c-0.1-0.1-0.1-0.2-0.2-0.2c-0.1-0.2-0.1-0.4-0.1-0.6c-0.6-2.2-1.6-4.1-3.4-5.6c-2.8-2.4-6.2-3.3-9.8-3.1c-4.4,0.1-8,1.8-10.7,5.4
		c-2.5,3.3-3.5,7.2-3.8,11.2c-0.2,3.1,0.1,6.1,0.9,9.1c0.9,3.4,2.5,6.3,5.3,8.5c3.2,2.5,6.8,3.2,10.7,2.8c4.8-0.5,8.2-3,10.1-7.4
		C71.8,50.1,72.1,48.2,72.7,46.3z M35.6,32c-0.2-0.8-0.4-1.5-0.7-2.2c-1.2-3.2-3.1-5.6-6.4-6.8c-2.5-0.9-5-1.1-7.5-0.8
		c-5.7,0.7-9.5,3.9-11.6,9.2c-1.9,4.8-2.1,9.8-1,14.9c0.7,3.3,2,6.3,4.3,8.8c2.9,3.1,6.4,4.4,10.6,4.3c5.2-0.1,9.9-3.2,11.7-8
		c0.6-1.6,0.9-3.3,1.3-4.9c0.2,0.1,0.6,0.2,0.9,0.4c0.3,0.1,0.7,0.3,1.1,0.4c-1-5.6-0.7-11,1.2-16.4C38.2,31.2,36.9,31.6,35.6,32z
		 M101.3,31.4c-0.1-0.5-0.1-0.9-0.2-1.2c-0.5-2.5-1.5-4.7-3.8-6.1c-4.4-2.6-9-2.6-13.6-0.6c-2.7,1.2-3.8,3.7-3.7,6.7
		c0.1,2.6,1.7,4,3.8,4.8c2.5,0.9,5,1.6,7.6,2.2c4,1,8,1.7,11.7,3.7c2.8,1.5,4.8,3.7,5.5,6.9c0.2,1.1,0.2,2.2,0.5,3.3
		c0.8,3.6,3.1,5.9,6.4,7.2c4.3,1.6,8.7,1.6,13.1,0c3.1-1.1,4.6-3.4,4.8-6.6c0.2-2.9-1.4-5.3-4.3-6.4c-1.9-0.7-3.9-1.3-5.9-1.8
		c-3.8-1.1-7.8-1.9-11.5-3.1c-3.9-1.3-6.6-3.9-7.2-8.2c0-0.2-0.1-0.3-0.2-0.6C103.4,31.4,102.4,31.4,101.3,31.4z"/>
</g>
<g id="Default">
	<g>
		<path class="st4" d="M70.3,8c-18.2,0-33,14.7-33,32.9s14.8,32.9,33,32.9c18.2,0,33-14.7,33-32.9S88.5,8,70.3,8z M70.3,67.4
			c-14.6,0-26.4-12-26.4-26.5c0-14.6,11.9-26.4,26.4-26.4c14.6,0,26.5,11.9,26.5,26.4C96.7,55.4,84.9,67.4,70.3,67.4z"/>
		<path class="st4" d="M77.9,49.9c-2.2,1.5-4.8,2.5-7.6,2.5c-2.8,0-5.5-0.9-7.6-2.5c-4,2-6.3,4.7-8.2,8.5c4.5,4,10.2,6.1,15.8,6.1
			c6.2,0,12-2.5,15.8-6.1C84.4,54.7,81.5,51.6,77.9,49.9z"/>
		<path class="st4" d="M61.4,47.3l0.2-0.1c-1-1.7-2.4-3.1-4.2-3.9c-1.2,0.9-2.8,1.4-4.4,1.4c-1.6,0-3.1-0.5-4.4-1.4
			c-0.6,0.3-1.1,0.6-1.6,1c0.5,3.9,2.3,8.3,5.3,11.8c0,0,0,0.1,0.1,0.1C54.3,52.4,57.5,49.2,61.4,47.3z"/>
		<path class="st4" d="M53,41.7c2.3,0,4.2-1.9,4.2-4.2c0-2.3-1.9-4.2-4.2-4.2c-2.3,0-4.2,1.9-4.2,4.2C48.8,39.9,50.6,41.7,53,41.7z"
			/>
		<path class="st4" d="M70.3,47.2c4,0,7.4-3.3,7.4-7.3s-3.3-7.4-7.4-7.4c-4.1,0-7.3,3.3-7.3,7.4S66.2,47.2,70.3,47.2z"/>
		<path class="st4" d="M87.6,41.7c2.3,0,4.2-1.9,4.2-4.2c0-2.3-1.9-4.2-4.2-4.2c-2.3,0-4.2,1.9-4.2,4.2
			C83.3,39.9,85.2,41.7,87.6,41.7z"/>
		<path class="st4" d="M87.6,44.7c-1.6,0-3.2-0.5-4.4-1.4c-1.8,0.9-3.2,2.2-4.2,3.9l0.2,0.1c4,1.9,7.1,5.1,9.1,8.9
			c2.8-3.3,4.7-7.4,5.4-11.9c-0.5-0.4-1.1-0.8-1.7-1C90.7,44.2,89.2,44.7,87.6,44.7z"/>
	</g>
</g>
<g id="Layer_6">
</g>
</svg>
