<?xml version="1.0" encoding="utf-8"?>
<!-- Generator: Adobe Illustrator 26.0.0, SVG Export Plug-In . SVG Version: 6.00 Build 0)  -->
<svg version="1.1" xmlns="http://www.w3.org/2000/svg" xmlns:xlink="http://www.w3.org/1999/xlink" x="0px" y="0px"
	 viewBox="0 0 64.8 49.8" style="enable-background:new 0 0 64.8 49.8;" xml:space="preserve">
<style type="text/css">
	.st0{display:none;}
	.st1{display:inline;fill-rule:evenodd;clip-rule:evenodd;fill:#FFFFFF;}
	.st2{display:inline;}
	.st3{fill-rule:evenodd;clip-rule:evenodd;fill:#FFFFFF;}
	.st4{display:inline;fill:#FFFFFF;}
	.st5{fill:#FFFFFF;}
</style>
<g id="St_Jude" class="st0">
	<path class="st1" d="M62,47.7c-0.9-0.5-1.9-0.9-2.9-1.4c-3.2-1.4-6.5-2.4-10.1-3.5c-1.2-0.4-2.4-0.4-3.5-0.7
		c-0.5-0.1-1.3,0-1.7-0.3c0,0-0.1,0-0.1,0c0,0,0,0,0-0.1c0.3-0.2,0.3-0.6,0.5-0.8c0.5-0.6,1.1-1.5,1.6-2c0.4-0.4,1.9-0.4,2.4-0.6
		c1.5-0.6,2.5-2.2,2.9-3.9c-0.1-0.1-0.2-0.1-0.3-0.2c0-0.1-0.1,0,0-0.1c0-0.8-0.4-0.4-0.7-0.8c-0.5,0-0.5,0.2-0.8,0.4
		c-0.1-0.2-0.2-0.3-0.3-0.4c-0.7,0.1-1.3,1-1.6,1.5c-0.2,0-0.4,0-0.5,0.1c-0.1,0-0.2,0-0.3,0c0.1-0.2,0.2-0.3,0.5-0.4
		c0-0.1,0-0.1,0-0.2c0.4-0.1,0.4-0.5,0.6-0.7c0-0.4-0.1-0.6-0.1-0.8c-0.7-0.1-1.1,0.4-1.6,0.7c-0.2,0-0.4,0.1-0.6,0.1
		c-0.4,0.2-1.1,0.7-1.5,1c-0.3,0.2-0.5,0.7-0.8,0.9c-0.7,0.6-2.9,1.8-4,1.8c0-1.2-0.3-2.4-0.5-3.4c-0.3-1.2-0.3-2.5-0.7-3.5
		c-0.4-0.9-1.4-2.4-2-3.1c-0.1-0.1-0.2-0.1-0.3-0.1c-0.5-0.6-0.9-1.3-1.5-1.8c0,0,0,0,0-0.1c1.2,0.4,2.6,1.2,3.3-0.4
		c0.5-0.1,0.7,0.1,1.2-0.1c0.1-0.3,0-0.7,0.3-0.8c0.2-0.1,0.6,0,0.7-0.1c0.2-0.1,0.1-0.1,0.3-0.2c0-0.3,0-0.6,0.1-1
		c0.6-0.1,0.9-0.2,1.3-0.4c0.1-0.3,0.2-0.7,0.1-1.2c-0.1-0.5-0.6-1.7-0.2-2.2c0.2-0.7,1.1-0.8,1.6-1.2c1-0.7,1.2-1.8,2.4-2.4
		c0.5-2.2,0-4.1-0.8-5.8c-1.8-3.5-4.3-6.2-8.2-7.7C34.3,1,31.2,1.3,29.5,2c-3,1.3-5.7,4.3-6.6,7.6c-0.4,1.5,0.3,3.7-0.5,5
		c-0.4,0-0.4,0.1-0.6-0.1c-0.2,0.1-0.1,0.1-0.3,0.1c0.1,0.5,0.3,1,0.7,1.3c0.2,0,0.4,0.1,0.6,0.1c0.2,0.1,0.3,0.4,0.5,0.5
		c0,0,0,0,0,0.1c-0.6,0.1-1-0.2-1.6-0.2c0.1,1.5,1.2,2.1,2.2,2.8c0.2,0.8,0.3,2.2-0.2,2.9c-0.2,0.4-0.7,0.4-1,0.6
		c-0.5,0.3-0.9,1.1-1.2,1.6c-0.3,0.7-0.1,1.5-0.3,2.2c-0.4,1.5-0.8,3.1-1.2,4.7c-0.2,0.9,0,1.9,0.1,2.6c0,0.9,0,1.7,0.1,2.6
		c0,2-0.4,4.1-0.3,5.9c-1.7,0.1-3.4,0.7-4.8,1.2c-0.6,0.2-1.1,0.2-1.8,0.4c-2.6,0.9-5.1,1.8-7.5,2.9c-0.8,0.4-1.7,0.8-2.5,1.2
		c-0.4,0.2-0.7,0.6-1.2,0.7c0,0.1,0,0.1,0,0.2c1.5-0.4,2.9-1.1,4.3-1.6c2.4-0.8,4.9-1.3,7.3-2c1.7-0.5,3.6-0.6,5.4-1
		c0.5,0,1-0.1,1.6-0.1c1.8-0.4,4-0.2,6-0.7c0.8,0,1.7,0,2.5-0.1c0.5-0.1,1.4,0.1,2-0.1c0.8-0.2,2.4-0.2,3.2,0
		c0.7,0.2,1.7-0.1,2.3,0.1c0.4,0,0.9,0,1.3,0c0.7,0,1.6,0.1,2.2,0.2c0.3,0,0.6,0,0.9,0c0.9,0.2,2,0.1,3,0.3c2.2,0.5,4.6,0.6,6.6,1.2
		c1.1,0.3,2.1,0.3,3.2,0.6c1.7,0.5,3.6,1,5.2,1.6c0.9,0.3,2.7,0.6,3.4,1.2c0.2,0,0.1,0,0.3-0.1C62.8,47.9,62.3,47.8,62,47.7z
		 M34.1,33.5c0,0,0,0.1,0,0.1c-3.1,0-6,1.6-7.3,3.5c-0.4,0-0.6-0.2-0.9-0.4c-0.4-1.9,2.6-3.5,4.1-3.9c0.6-0.2,1.4-0.1,1.9-0.4
		c1.5,0,1.5,0.1,2.3,0.7C34.2,33.2,34.2,33.4,34.1,33.5z"/>
</g>
<g id="PedcBio" class="st0">
	<path class="st1" d="M45.8,0.5c3.7,0,7.4,0,11.1,0c0,3.7,0,7.3,0,11c-3.7,0-7.4,0-11.1,0C45.8,7.8,45.8,4.1,45.8,0.5z"/>
	<path class="st1" d="M44.2,0.6c0,1,0,2,0,3c-7.5,0-15.1,0-22.6,0c-3.9,0-7.6-0.4-9.3,1.9c-1.3,1.7-1.2,4.1-1.2,7.2
		c0,3.8,0,7.5,0,11.3c-1,0-1.9,0-2.9,0c0-5.3,0-10.7,0-16c0.4-1.6,0.9-3,1.7-4.1c2.6-3.5,6.6-3.2,12.6-3.2C29.8,0.6,37,0.6,44.2,0.6
		z"/>
	<path class="st1" d="M31.7,24.1c-3.7,0-7.4,0-11.1,0c-0.1-5.2,3-8.6,6.7-10.2c0.5-0.2,3.7-1.4,4.3-0.9c0.4,0.6,0.1,2.3,0.1,3.1
		C31.7,18.8,31.7,21.4,31.7,24.1z"/>
	<path class="st1" d="M33.3,12.9c3.7,0,7.3,0,11,0c0,3.7,0,7.4,0,11.1c-3.7,0-7.3,0-11,0C33.3,20.3,33.3,16.6,33.3,12.9z"/>
	<path class="st1" d="M45.8,12.9c3.7,0,7.4,0,11.1,0C56.9,19.1,52.1,24,45.8,24C45.8,20.3,45.8,16.6,45.8,12.9z"/>
	<path class="st1" d="M53.9,24.1c1,0,2,0,3,0c0,4.1,0,8.3,0,12.4c0,2,0.3,4.6-0.2,6.3c-0.4,1.2-1,2.4-1.6,3.3
		c-2.6,3.4-6.5,3.1-12.3,3.1c-7.3,0-14.7,0-22,0c0-1,0-1.9,0-2.9c7.5,0,15.1,0,22.6,0c4,0,7.8,0.3,9.5-2c1.2-1.7,1.1-4.1,1.1-7.1
		C53.9,32.9,53.9,28.5,53.9,24.1z"/>
	<path class="st1" d="M19.2,25.7c0,3.7,0,7.4,0,11.1c-0.9,0.3-2.5,0.1-3.6,0.1c-2.5,0-5,0-7.5,0C8.1,30.6,13,25.7,19.2,25.7z"/>
	<path class="st1" d="M20.7,25.7c3.7,0,7.3,0,11,0c0,3.7,0,7.5,0,11.2c-3.6,0-7.3,0-10.9,0c-0.3-0.9-0.1-2.5-0.1-3.6
		C20.7,30.7,20.7,28.2,20.7,25.7z"/>
	<path class="st1" d="M33.3,25.7c3.7,0,7.3,0,11,0c0.1,6.3-4.8,11.1-11,11.2C33.3,33.1,33.3,29.4,33.3,25.7z"/>
	<path class="st1" d="M8.1,38.5c3.7,0,7.4,0,11.1,0c0,3.6,0,7.2,0,10.8c-3.7,0-7.4,0-11.1,0C8.1,45.7,8.1,42.1,8.1,38.5z"/>
</g>
<g id="Pediatric_Genomics" class="st0">
	<path class="st1" d="M35.2,2.7c0-0.2,0-0.4,0-0.6c-0.1,0-0.3,0-0.4,0c-0.2-0.2-0.5-0.2-1-0.2c-0.2,0.6,0.1,0.3-0.4,0.6
		c-0.3-0.1-2.6,0.1-3.3,0.2c0-0.1,0-0.3,0-0.4c-0.3-0.4-0.4-1.3-0.4-1.9c1.6-0.1,7.4-0.4,8.9,0.8c0.1,0.2,0.1,0.2,0.2,0.6
		c-0.1,0.2-0.2,0.8-0.4,1c-0.2,0.1-0.2,0.1-0.6,0.2C37.3,2.5,36.6,2.7,35.2,2.7z"/>
	<path class="st1" d="M28.1,0.6c0.4,0,0.8,0,1.2,0c0,0.1,0,0.3,0,0.4c0.2,0.3,0.3,1.1,0.4,1.5c-2.1,0-4.2,1.7-6,2.3
		c-0.5,0.2-1.2-0.1-1.7,0c0,0.7,0.1,0.7-0.4,1c-0.4-0.2-0.3-0.1-0.8,0c0,0.4,0.2,0.1,0,0.4c0,0.1,0,0.1,0,0.2
		c-0.6,0-0.2-0.1-0.8,0.2c-0.2-1.1-0.9-1.3-1.2-2.3c1.4-0.4,2.6-1.6,3.8-2.1C24.4,1.4,27,1.4,28.1,0.6z"/>
	<path class="st1" d="M41.8,4.4c-0.4,0.1-0.8,0.1-1.2,0.2c-0.1-0.4-0.1-0.5-0.2-0.8C40.1,4,40,4,39.5,4c-0.2-0.5-0.3-0.6-0.6-1
		c0.5-0.7,0.2-1.5,1.2-1.7c1.8,1.4,8,2.9,8.5,5c-0.9,0.6-1.1,1.8-2.3,2.1c-0.5-0.7-1.4-1-1.9-1.7c0.3-0.4,0.4-0.2,0.2-0.6
		c-0.3-0.6-1.6-1.1-2.1-1.5c-0.3,0.3-0.1,0.2-0.6,0.4C41.8,4.8,41.8,4.6,41.8,4.4z"/>
	<path class="st1" d="M33.9,5.2c-2,0-2.1,0-3.5-0.2c-0.1-0.3-0.1-0.6-0.2-1c0.1-0.1,0.1-0.1,0.2-0.2c1,0.3,2.1-0.2,3.3,0
		c1.6,0.2,2.7,0.5,4.2,0.8c0,0.2,0,0.4,0,0.6c-0.3,0.3-0.1,0.4-0.6,0.6c-0.3,0.2-0.7-0.2-1.2,0c-0.3,0.1-0.2,0.4-0.6,0.6
		c-0.1-0.2-0.1-0.4-0.2-0.6C35,6,34.9,6.1,34.7,6.5c-0.2-0.2-0.7-0.4-1-0.6C33.8,5.7,33.8,5.6,33.9,5.2z"/>
	<path class="st1" d="M22.5,8.3c0,0.8,0.1,0.8,0,1.3c-0.1-0.1-0.3-0.1-0.4-0.2c-0.3-0.7-0.8-1.1-1-1.9c-0.1,0-0.1,0-0.2,0
		c0.1-0.1,0.1-0.1,0.2-0.2C23.1,5.4,27,4.6,29.6,4c0,0.1,0,0.3,0,0.4c0.2,0.2,0.2,0.5,0.2,1c-0.4,0.1-1.2,0.3-1.3,0.4
		c-0.3,0.4-0.3,0.9-0.8,1.2c-1.4,1.3-2.7,0.8-4,0.8c-0.2,0.3-0.3,0.6-0.6,0.8C22.9,8.3,22.9,8.4,22.5,8.3z"/>
	<path class="st1" d="M15.6,10.8c-0.3,0-0.5,0-0.8,0c0,0.4,0,0.8,0,1.2c-0.6-0.2-0.9,0.2-1.3,0c-0.8-0.2-1.3-0.6-1.5-1.3
		c0.1,0,0.1,0,0.2,0c0.6-1.6,4.5-5.4,6.2-6c0,0.1,0,0.1,0,0.2C19,5.3,19.4,6,19.6,6.9c-0.7,0-3.1,1.7-3.5,2.5
		c0.2,0.2,0.4,0.4,0.6,0.6c-0.1,0-0.3,0-0.4,0c-0.2-0.2-0.2-0.1-0.8-0.2C15.6,10.1,15.6,10.5,15.6,10.8z"/>
	<path class="st1" d="M38.5,4.6c2.4,1,5.2,2.5,7.7,4c-0.3,0.7-1,1.6-1.7,1.9c-0.2,0.1-0.2,0.1-0.6,0.2c-0.5-0.6-1.6-1.8-2.3-2.1
		c-0.6-0.3-1.2,0-1.7-0.4c-0.4-0.3-0.2-0.7-0.8-1c-0.3,0.3-0.1,0.2-0.6,0.4c-0.1-1-0.2-0.8-0.6-1.3C38.2,5.9,38.4,5.2,38.5,4.6z"/>
	<path class="st1" d="M48.7,6.4c0.2,0,0.4,0,0.6,0c0.4,0.7,1.4,1,1.2,1.7c-0.3,0.5-0.8,0.9-1.3,1.2c-0.2,0-0.1,0.2-0.2,0
		C47.5,8.1,47.8,7.6,48.7,6.4z"/>
	<path class="st1" d="M21.8,10.2c-0.4,0.1-0.4,0-0.6,0.2c-0.8,0.2-1.6,0.8-1.7,1.7c-0.2,0-0.4,0-0.6,0c0,0.2,0,0.4,0,0.6
		c-0.5,0.1-0.8,0.1-1.2,0.4c0.3,0.3,0.3,0.3,0.2,0.6c-0.3,0.2-1.4,0.2-1.5,0.2c-0.7-0.3-1.3-0.6-1.5-1.3c2.2-0.9,2.8-4.3,5.6-4.8
		c0.4,0.7,0.8,1.4,1.3,1.9C21.8,9.8,21.8,10,21.8,10.2z"/>
	<path class="st1" d="M40.4,7.7c0,0.1,0,0.3,0,0.4c0.1,0,0.3,0,0.4,0c0-0.1,0-0.3,0-0.4C40.7,7.7,40.6,7.7,40.4,7.7z"/>
	<path class="st1" d="M23.3,8.5c0.2,0.3,0.3,0.2,0,0.4C23.3,8.7,23.3,8.6,23.3,8.5z"/>
	<path class="st1" d="M50.8,8.5c0.2,0,0.4,0,0.6,0c0.3,0.7,2.1,2.4,1.7,2.9c-0.5,0.7-1.5,1.3-2.3,1.5c0-0.1,0-0.1,0-0.2
		c-0.7-0.5-1.4-1.6-1.5-2.7C49.8,9.5,50.3,9,50.8,8.5z"/>
	<path class="st1" d="M31.6,9c0.7,0.2,1.9-0.2,2.3,0.6c-1,0-2.1,0-3.1,0c-1,0.6-3.3,0.7-4.4,1.2c-5,2.1-7.8,6.4-9,11.7
		c-0.1,0.6-0.5,2.3-0.4,2.9c0.3,1.8,0.6,3.9,1,5c0.2,0.6,0.9,1.2,0.8,1.7c-0.2,0.2-0.1,0.1-0.4,0.2c-0.5-1.5-1-3-1.5-4.4
		c-2-7.5,3.5-14.5,7.9-16.9c1.4-0.8,3.4-1.3,5-1.7C30.3,9.1,31.1,9.3,31.6,9z"/>
	<path class="st1" d="M47.7,10.8c-1,0.1-1,0.2-1.7,0.2c-0.1-0.5-0.2-0.5-0.4-1c0.1,0,0.1,0,0.2,0c0.2-0.6,0.4-0.7,1-1
		C47.2,9.8,47.6,9.6,47.7,10.8z"/>
	<path class="st1" d="M34.1,9.2c1.8,0,2.9,0.4,4.4,0.8c0.2,0.3,0.2,0.3,0.4,0.8c-0.3,0-0.5,0-0.8,0c-1-0.8-2.7-0.4-3.8-1.2
		C34.1,9.4,34.2,9.6,34.1,9.2z"/>
	<path class="st1" d="M39.1,10.6c1.5,0.6,4.3,2.1,4.8,3.7c-0.2,0-0.4,0-0.6,0C42.6,13.2,38.9,11.4,39.1,10.6z"/>
	<path class="st1" d="M37.9,11.9c0.2,0.6-0.1,0.3,0.4,0.6c0.2-0.6-0.1-0.3,0.4-0.6c0,0.1,0,0.1,0,0.2c0.3,0.3,0.3,0.4,0.4,1
		c1,0.1,2.1,0.6,2.3,1.5c-0.1,0.1-0.3,0.3-0.4,0.4c0.1,0,0.1,0,0.2,0c0.3-0.4,0.2-0.3,0.8-0.4c0.2,0.5,0.1,0.3,0.4,0.6
		c-0.3,0.9-0.5,1.1-1.7,1.2c-0.3-0.7-0.6-1.2-1.5-1.3c-0.2-0.6,0.1-0.3-0.4-0.6c-0.1,0.1-0.3,0.3-0.4,0.4c-0.2-0.6,0.1-0.3-0.4-0.6
		c-0.3,0.5-0.1,0.5-0.6,0.4c-0.4-0.5-0.4-1.3-1.7-1.5c-1.1,0.6-1.7-0.8-2.9-0.6c-0.3,0-1.4,0.2-1.9,0.4c-0.1,0.2-0.1,0.4-0.2,0.6
		c-0.5,0.2-0.8-0.8-1.2-0.6c-0.7,0.4-1.1,0.5-2.1,0.6c-0.1,0.4-2.2,2.1-3.1,2.1c-0.2,0.9-0.6,0.6-0.8,1.5c-0.2,0-0.4,0-0.6,0
		c0,0.1,0,0.3,0,0.4c-0.1,0.2-0.1,0.2-0.2,0.6c-0.6-0.1-0.6-0.2-1-0.4c0.3,0.9-1,4.5-1.5,4.8c-0.4-0.3-0.7-0.3-1.3-0.4
		c0-1.6,1-3.6,2.1-4.8c0.2,0.2,0.3,0.3,0.6,0.4c0-0.1,0-0.3,0-0.4c-0.2,0-0.4,0-0.6,0c0-0.2,0-0.4,0-0.6c0.4-0.3,0.3-0.4,1-0.6
		c0.1-0.3,0.1-0.6,0.2-1c1.3-0.3,1.1-1.3,1.9-1.9c0.2,0.1,0.4,0.1,0.6,0.2c1.1-0.6,3.3-2.3,4.6-1.5c0.2-0.6-0.1-0.3,0.4-0.6
		c0.7-0.5,3.2-0.3,4-0.4c0,0.5,0,0.7,0.2,1c0-0.5,0.1-0.8,0.2-1.2C35.4,11.2,36.1,11.9,37.9,11.9z"/>
	<path class="st1" d="M48.1,10.8c0.9,0.3,1.8,1.8,2.1,2.7c-1,0.4-1.4,1.1-2.7,1.3c-0.4-0.7-0.9-1.2-1.2-1.9
		C47.1,12.4,47.7,11.5,48.1,10.8z"/>
	<path class="st1" d="M12.1,15.4c-0.3,0-0.5,0-0.8,0c-0.1,0.2-0.2,0.4-0.4,0.6c0.6,1.6-0.2,2.5-0.4,4.2c-1.1,0-1.7-0.2-2.5-0.4
		c0-0.3,0-0.5,0-0.8c0.5-0.7,0.4-1.8,0.8-2.7c0.7-1.8,1.8-3.6,2.7-5.2c0.7,0.3,1.2,0.7,1.7,1.2C12.9,13.6,12.4,14.1,12.1,15.4z"/>
	<path class="st1" d="M56,17.7c-0.7,0.1-1.5,0.3-1.7,0.2c-0.6-0.9-0.7-2.2-1.3-3.1c-0.3,0.3-0.7,0.4-1.2,0.6c0-0.1,0-0.3,0-0.4
		c1-1.1,0.5-1.6,0.6-2.9c0.5-0.1,0.7-0.2,1-0.6c0.1,0.1,0.1,0.1,0.2,0.2C54.8,12.8,55.9,15.6,56,17.7z"/>
	<path class="st1" d="M29.3,12.1c0,0.1,0,0.3,0,0.4c0.1,0,0.1,0,0.2,0c0-0.1,0-0.3,0-0.4C29.4,12.1,29.3,12.1,29.3,12.1z"/>
	<path class="st1" d="M37.7,12.7c0,0.1,0,0.3,0,0.4c0.1,0,0.1,0,0.2,0c0-0.1,0-0.3,0-0.4C37.9,12.7,37.8,12.7,37.7,12.7z"/>
	<path class="st1" d="M14.4,13.3c0.8,0.2,1.2,0.4,1.3,1.3c-0.5,0.7,0,0.9-0.2,1.3c-0.1,0.1-0.4,0.3-0.6,0.4c0.2,0.3,0.3,0.6,0.4,1
		c-0.5,0.2-0.3,0.2-0.6,0.6c-0.4-0.2-0.5-0.3-0.8-0.2c-0.7,0.7-0.9,1.9-1.2,3.1c-0.1,0-0.1,0-0.2,0c-0.2-0.2-0.5-0.2-1-0.2
		c-0.1-0.2-0.1-0.4-0.2-0.6c0.4-0.6,0.2-1.3,0.6-2.1C12.8,16.4,13.9,14.9,14.4,13.3z"/>
	<path class="st1" d="M24.6,13.7c0,0.1,0,0.3,0,0.4c0.3,0.2,0.5,0.4,0.8,0.6C25.2,14.2,25,13.9,24.6,13.7z"/>
	<path class="st1" d="M48.7,16.4c0.1-0.6,0.1-1.2,0.2-1.7c0.4-0.3,0.9-0.6,1.3-1c0.1,0,0.3,0,0.4,0c0.4,1.3,2.4,3.6,1.9,4.8
		c-0.4,0.3-1,0.5-1.5,0.6c0-1-0.3-1.6-0.6-2.3c-0.5-0.1-0.3-0.1-0.8,0c0-0.4,0-0.5-0.2-0.8C49.2,16.3,49.3,16.2,48.7,16.4z"/>
	<path class="st1" d="M30.4,15.2c-0.1-0.8-0.4-0.8,0.2-1.2c0.3,0.1,0,0,0.6,0c0,0.1,0,0.3,0,0.4c-0.4,0.5-0.2,0.1-0.2,0.8
		C30.8,15.2,30.6,15.2,30.4,15.2z"/>
	<path class="st1" d="M31.6,14.4c0.4,0.6,0,1.8-0.6,2.1c0-0.3,0-0.6,0-1C31.4,15.3,31.4,15,31.6,14.4z"/>
	<path class="st1" d="M33.9,14.6c0,0.5,0.1,0.7,0.2,1c0.1,0,0.1,0,0.2,0c0-0.3,0-0.5,0-0.8C34.1,14.8,34,14.7,33.9,14.6z"/>
	<path class="st1" d="M43.9,14.6c0.2,0,0.4,0,0.6,0c1.1,1.8,2.5,3.2,3.1,5.6c-0.1,0.1-0.1,0.1-0.2,0.2c-0.1-0.1-0.1-0.1-0.2-0.2
		c-0.5-0.5-0.4-1.3-0.8-1.9C45.7,17,44.6,15.9,43.9,14.6z"/>
	<path class="st1" d="M43.3,16c0.3,1,0.7,0.9,0.2,1.9c0.1,0,0.3,0,0.4,0c0.3-0.3,0.1-0.2,0.6-0.4c0.6,2.9,1.8,3.8,1.9,6.9
		c-0.3,0-0.5,0-0.8,0c0,0.1,0,0.3,0,0.4c0.3,0,0.5,0,0.8,0c0.1,0.5,0.5,0.8,0.4,1.2c-0.1,0-0.3,0-0.4,0c-0.4,0.6-0.1,1.9-0.8,2.3
		c-0.4-0.2-1-0.3-1.5-0.4c0-0.1,0-0.3,0-0.4c0.9-0.6,0.3-1.8,0.4-2.7c0.2-1.3-0.3-2.9-0.8-4.8c-0.2,0-0.4,0-0.6,0
		c0.1-1.6-0.9-1.7-1.3-3.3C42.4,16.3,42.2,16,43.3,16z"/>
	<path class="st1" d="M31,16.9c0,0.2,0,0.4,0,0.6c-0.1,0.1-0.3,0.3-0.4,0.4c-0.5-0.3-0.7-0.1-1-0.6c0.2-0.4,0.1-0.4,0-1
		c0.2,0,0.4,0,0.6,0C30.5,16.8,30.3,16.8,31,16.9z"/>
	<path class="st1" d="M24.8,16.7c0.1,0,0.3,0,0.4,0c0,0.1,0,0.3,0,0.4c-0.1,0-0.3,0-0.4,0C24.8,17,24.8,16.9,24.8,16.7z"/>
	<path class="st1" d="M56.2,17.9c0.3,2,1.1,3.5,1.2,6.2c-0.6,0.2-1.6,0.2-2.5,0.2c-0.2-0.6-0.3-0.5-0.4-1.2c0.6-0.9-0.2-1.6-0.4-2.1
		c-0.2-0.6,0.2-1.7,0.2-2.7C54.9,18.2,55.6,18,56.2,17.9z"/>
	<path class="st1" d="M26.2,20.4c-0.4-0.1-0.4,0-0.6-0.2c0.5-0.6-0.1-1.2-0.4-2.1c0.1,0,0.3,0,0.4,0c0,0.1,0,0.1,0,0.2
		C26.3,18.9,26.3,19.4,26.2,20.4z"/>
	<path class="st1" d="M31,18.1c0.5,0.3,0.2,0,0.4,0.6c-0.1,0-0.1,0-0.2,0c0-0.1,0-0.1,0-0.2C31,18.3,31.1,18.4,31,18.1z"/>
	<path class="st1" d="M33.3,18.1c0.2,0.2,0.1,0.1,0.4,0.2C33.5,18.1,33.6,18.2,33.3,18.1z"/>
	<path class="st1" d="M53.7,24.2c-0.9,0-1.8,0-2.7,0c0-0.1,0-0.3,0-0.4c-0.3-0.5,0-0.9,0-1.3c0-0.5-0.3-0.7-0.6-1
		c-0.1-0.7,0.4-0.2,0-1.5c1.1-0.3,1.2-0.8,2.5-1c0,0.1,0,0.3,0,0.4C53.6,20.4,53.7,22.7,53.7,24.2z"/>
	<path class="st1" d="M7.9,20.2c0.9,0,1.7,0.1,2.3,0.4c-0.2,1.2-0.3,4.1,0.2,6c0.2,0.9-0.4,1.1-0.4,2.1c0.4,0.1,0.5,0.1,0.8,0.2
		c-0.1,0.5-0.2,0.5-0.4,1c0.2,0,0.4,0,0.6,0c-0.1,0.7-0.1,0.6,0,1.2c-0.9,0.2-1.8,0.4-2.7,0.6c-0.1-1.3-0.5-2.6-0.8-3.8
		C7,25.1,7.8,22.4,7.9,20.2z"/>
	<path class="st1" d="M22.7,20.4c0.3,0.3,0.2,0.1,0.4,0.6c-0.1,0-0.3,0-0.4,0C22.7,20.8,22.7,20.6,22.7,20.4z"/>
	<path class="st1" d="M26.2,20.4c0.5,0,0.7,0.1,1,0.2c-0.1,0.1-0.1,0.1-0.2,0.2c0,0.1,0,0.1,0,0.2C26.7,20.8,26.4,20.6,26.2,20.4z"
		/>
	<path class="st1" d="M47.4,20.4c0.1,0,0.3,0,0.4,0c0.1,3,1.1,5.4,0,8.3c-0.1,0-0.1,0-0.2,0c0-0.4,0-0.9,0-1.3
		C48.6,25.7,47.1,21.8,47.4,20.4z"/>
	<path class="st1" d="M11.4,21c0.7,0,1,0.1,1.5,0.2c0.1,0.5,0,1.5,0,1.5c0.9,0.9,1,1.3,1,3.3c0.2,0.4,0,1,0,1
		c-0.4,0.4-0.4,0.2-0.6,1c0.2,0.2,0.1,0.1,0.2,0.4c0.6-0.1,0.5-0.1,1,0c-0.1,0.1-0.1,0.1-0.2,0.2c-0.2,0.2-0.5,0.3-0.8,0.4
		c0.1,0.1,0.1,0.1,0.2,0.2c0.3,0.2,0.4,0,0.8,0.2c0.1,0.2,0.1,0.2,0.2,0.6c-0.8,0.2-2.3,0.8-2.7,0.6C10.5,28.4,11.3,23.8,11.4,21z"
		/>
	<path class="st1" d="M44.3,21.2c0.2,0.2,0.1,0.1,0.4,0.2C44.5,21.2,44.6,21.3,44.3,21.2z"/>
	<path class="st1" d="M31,21.7c0.1,0.1,0.4,0.3,0.2,0.6C30.7,22,31.2,22,31,21.7z"/>
	<path class="st1" d="M39.3,21.7c0.1,0,0.3,0,0.4,0c0,0.1,0,0.3,0,0.4c-0.1,0-0.3,0-0.4,0C39.3,22,39.3,21.9,39.3,21.7z"/>
	<path class="st1" d="M18.9,28.7c-0.1-2.6-0.5-4.3,0-6.4c0.4,0.1,0.9,0.1,1.3,0.2c0.1,0.3,0.2,0.6,0.2,1.2c-1.4,2.2,1,5.1,1.2,6.9
		c-0.3,0.2-0.7,0.5-1,0.8c-0.3-0.1-0.2,0-0.4-0.2c-0.6-0.5-1-1.4-1.2-2.3c0.3-0.1,0.5-0.1,0.8-0.2c0-0.1,0-0.1,0-0.2
		C19.5,28.5,19.2,28.6,18.9,28.7z"/>
	<path class="st1" d="M40.6,22.3c0.4,0.1,0.4,0,0.6,0.2c-0.4,0.2-0.4,0.3-1,0.4c0-0.1,0-0.1,0-0.2C40.7,22.5,40.4,22.8,40.6,22.3z"
		/>
	<path class="st1" d="M32.2,22.5c0.3,0,0.6,0,1,0c0,0.1,0,0.1,0,0.2c-0.1,0-0.1,0-0.2,0c-0.4,0.3-0.8,0.4-1.2,0.2
		C32.2,22.7,31.9,23,32.2,22.5z"/>
	<path class="st1" d="M41.6,22.5c0.8,0,1.3,0,1.7,0.4C42,23,41.7,23.2,41.6,22.5z"/>
	<path class="st1" d="M28.7,22.9c0.5,0.2,0.1-0.1,0.4,0.4c-0.6,0.3-0.1,0.1-0.4,0.6c-0.4-0.1-0.5,0.1-0.8,0
		c-0.1-0.1-0.1-0.1-0.2-0.2C28.1,23.5,28.4,23.2,28.7,22.9z"/>
	<path class="st1" d="M34.8,22.9c0.1,0.4,0.1,0.5,0.2,0.8c0.1,0,0.1,0,0.2,0c0-0.3,0-0.5,0-0.8C35.1,22.9,35,22.9,34.8,22.9z"/>
	<path class="st1" d="M31.2,23.1c0.2,0.2,0.1,0.1,0.2,0.4c-0.7,0.2-0.6,0.5-1.5,0.6c0-0.1,0-0.1,0-0.2c0.1,0,0.1,0,0.2,0
		C30.4,23.5,30.8,23.4,31.2,23.1z"/>
	<path class="st1" d="M35.6,23.9c0.4,0.3,0.5,0.3,0.6,1c-0.1,0-0.1,0-0.2,0c-0.1-0.1-0.1-0.1-0.2-0.2C35.7,24.3,35.7,24.3,35.6,23.9
		z"/>
	<path class="st1" d="M55.2,24.4c0.5,0,1.8,0.1,1.9,0.2c0.7,1.1-0.2,5.5-0.6,6.4c-1.2-0.4-2-0.5-3.1-0.8c-0.1-0.2-0.1-0.4-0.2-0.6
		C54.9,28.7,54.7,26,55.2,24.4z"/>
	<path class="st1" d="M53.7,24.6c0.1,1.6,0.1,4-0.6,5c-0.2,0.2-0.3,0.1-0.8,0.2c-0.5-0.3-1.5-0.3-1.9-0.6c-0.2-0.2-0.1-0.1-0.2-0.4
		c0.7-0.5,0.6-2.6,0.6-4C51.8,24.8,52.7,24.7,53.7,24.6z"/>
	<path class="st1" d="M29.8,25.2c0.2,0.2,0.1,0.1,0.2,0.4c-0.1,0-0.1,0-0.2,0C29.8,25.5,29.8,25.3,29.8,25.2z"/>
	<path class="st1" d="M37.3,25.4c0,0.1,0,0.3,0,0.4c0.1,0,0.1,0,0.2,0c0-0.1,0-0.3,0-0.4C37.5,25.4,37.4,25.4,37.3,25.4z"/>
	<path class="st1" d="M38.3,25.6c0.2,0.2,0.1,0.1,0.2,0.4c-0.1,0-0.1,0-0.2,0C38.3,25.9,38.3,25.7,38.3,25.6z"/>
	<path class="st1" d="M26,25.8c0.2,0.2,0.1,0.1,0.4,0.2C26.2,25.8,26.3,25.9,26,25.8z"/>
	<path class="st1" d="M29.5,26.4c0.2,0.2,0.1,0.1,0.2,0.4c-0.1,0-0.1,0-0.2,0C29.5,26.6,29.5,26.5,29.5,26.4z"/>
	<path class="st1" d="M36.4,26.9c0.2,0.3,0.2,0.8,0,1.2C36.4,27.4,36.3,27.4,36.4,26.9z"/>
	<path class="st1" d="M37,28.3c0.2,0.3,0.2,0.4,0,0.8C37,28.8,37,28.5,37,28.3z"/>
	<path class="st1" d="M45,31.2c-0.9,0-1.6-0.3-1.9-1c0.5-0.3,0.7-1.4,1-1.9c0.6,0.2,1.2,0.4,1.7,0.6c0,0.1,0,0.3,0,0.4
		C45.4,29.7,45.1,30.4,45,31.2z"/>
	<path class="st1" d="M28.3,28.7c0,0.1,0,0.3,0,0.4c0.1,0,0.3,0,0.4,0c0-0.1,0-0.1,0-0.2C28.6,28.8,28.4,28.7,28.3,28.7z"/>
	<path class="st1" d="M47.2,29.3c0.5,0.2,0.1-0.1,0.4,0.4c-0.3,0.9-0.6,1.8-1,2.7c-0.1-0.1-0.1-0.1-0.2-0.2
		c-0.1-0.2-0.1-0.2-0.2-0.6C46.7,31,47,30.1,47.2,29.3z"/>
	<path class="st1" d="M27.5,29.4c0.2,0.2,0.1,0.1,0.4,0.2C27.7,29.5,27.9,29.6,27.5,29.4z"/>
	<path class="st1" d="M12.1,30.8c0.8-0.1,2.4-0.8,2.7-0.6c0.6,0.7,1.3,3.5,0.4,3.8c-0.3,0.3-1.3,1-1.5,0.8
		C12.8,34.1,12.2,32.2,12.1,30.8z"/>
	<path class="st1" d="M33.3,30.2c0.1,0,0.3,0,0.4,0c-0.1,0.1-0.1,0.1-0.2,0.2c0,0.1,0,0.1,0,0.2C33.3,30.4,33.4,30.5,33.3,30.2z"/>
	<path class="st1" d="M49.9,30.4c1.1,0,1.8,0.4,2.7,0.6c0.1,0.3,0.1,0.3,0.2,0.8c-0.5,0.6-1,2-1.2,2.9c-0.6-0.2-1.2-0.4-1.7-0.6
		c0-0.2,0-0.4,0-0.6c0.3-0.3,0.3-0.5,0.4-1.2c-0.7-0.2-0.6-0.1-0.8-0.8C49.7,31.2,49.8,31,49.9,30.4z"/>
	<path class="st1" d="M34.5,30.6c0,0.1,0,0.3,0,0.4c0.1,0,0.1,0,0.2,0c0-0.1,0-0.3,0-0.4C34.6,30.6,34.5,30.6,34.5,30.6z"/>
	<path class="st1" d="M21.6,31.2c0.7,0.2,1.9,2,1.7,2.3c-0.3,0.5-0.6,0.8-1.2,1c0-0.1,0-0.1,0-0.2c-0.7-0.6-1.4-1.4-1.5-2.5
		C20.9,31.6,21.3,31.4,21.6,31.2z"/>
	<path class="st1" d="M42.7,31.2c0.3,0,0.5,0,0.8,0c0.5,0.6,0.7,0.4,0.8,1.5c-0.5,0.2-0.6,0.1-1.2,0c0,0.1,0,0.1,0,0.2
		c0.4,0.3,0.3,0.2,0.4,0.8c-0.3,0.1-0.3,0.1-0.8,0.2c-0.5-0.6-0.8-0.5-1-1.5c0.1-0.3,0,0,0-0.6c0.3,0,0.6,0,1,0
		C42.7,31.6,42.7,31.4,42.7,31.2z"/>
	<path class="st1" d="M12.3,35c0.6,0.2,0.3-0.1,0.6,0.4c-0.1,0-0.1,0-0.2,0c-0.6,0.6-1.4,1.1-2.5,1.2c-0.6-1.5-1.3-2.9-1.7-4.6
		c0.1-0.1,0.1-0.1,0.2-0.2c0.7-0.1,1.3-0.4,1.7-0.2c0.6,0.8,0.5,1.1,1.5,1.5c-0.3,0.5-0.7,0.3-0.2,0.6c0.2,0.5-0.2,0.3,0.4,0.6
		c0.1-0.1,0.1-0.1,0.2-0.2C12.3,34.4,12.3,34.7,12.3,35z"/>
	<path class="st1" d="M53.9,31.4c0.9,0.1,1.4,0.4,2.3,0.6c0,1.8-0.9,3.1-1.5,4.4c-0.3-0.1-0.2,0-0.4-0.2c-0.6-0.2-0.8-0.3-1.2-0.8
		C53.6,34.9,53.9,32.6,53.9,31.4z"/>
	<path class="st1" d="M18.9,32.5c0.7,0.5,2,2.2,2.3,3.1c-0.1,0.1-0.1,0.1-0.2,0.2c-0.1-0.1-0.1-0.1-0.2-0.2C20,35,19.6,34,18.9,33.3
		C18.9,33,18.9,32.8,18.9,32.5z"/>
	<path class="st1" d="M28.9,32.7c0.1,0,0.3,0,0.4,0c0,0.1,0,0.1,0,0.2C28.9,32.8,29.1,32.9,28.9,32.7z"/>
	<path class="st1" d="M45.6,32.7c0.5,0.3,0.2,0,0.4,0.6c-0.7,0.5-1,1.4-1.7,1.9c0-0.2,0-0.4,0-0.6C44.8,34.2,45.4,33.4,45.6,32.7z"
		/>
	<path class="st1" d="M28.3,32.9c0.1,0.2,0.1,0.2,0.2,0.6c-0.1,0-0.3,0-0.4,0C28.2,33.3,28.2,33.1,28.3,32.9z"/>
	<g class="st2">
		<path class="st3" d="M37.8,33.7c0.1,0,0.1-0.1,0.1-0.1c-0.1-0.1-0.2-0.2-0.4-0.3C37.4,33.5,37.5,33.8,37.8,33.7z"/>
		<path class="st3" d="M42.5,20.2c0-0.1,0-0.1,0-0.2c-1.2-0.4-2.5,0.2-4,0.2c0-0.4,0-0.5,0.2-0.8c0-0.3,0-0.6,0-1
			c-0.1,0-0.1,0-0.2,0c-0.2,0.9-0.6,1.5-0.6,2.1c-0.6,0.2-1.2,0.4-1.7,0.6c-0.1-0.3-0.1-0.3-0.2-0.8c0.2,0,0.4,0,0.6,0
			c-0.5-0.6-0.9-0.6-1-1.7c1.3,0,2.3-0.4,2.9-1.2c0.2,0.2,0.2,0.5,0.2,1c0.1,0,0.1,0,0.2,0c0.2-0.8,0.5-1.5,0.8-2.1
			c-0.1-0.1-0.1-0.1-0.2-0.2c-1.4,0.3-2.7,2-3.7,1.5c-0.4-0.2-0.4-0.5-0.8-0.8c0-0.9,0.3-1.3,0.8-1.7c0-0.1,0-0.3,0-0.4
			c-0.4,0.3-0.5,0.3-0.8,0.8c-0.1,0-0.1,0-0.2,0c0.1-0.3,0.1-0.6,0.2-1c-0.4-0.2-0.7-0.3-1-0.8c-1.1,0.7-0.2,2.4-1,3.5
			c-0.2,0.2,0,0.1-0.4,0.2c-0.2-0.5-0.1-0.6,0-1.2c-0.1,0-0.3,0-0.4,0c-0.3,0.4-0.6,1-1,1.3c0.1,0.1,0.1,0.1,0.2,0.2
			c0.2,0.3,0.3-0.2,0.6-0.4c0.1,0.1,0.1,0.1,0.2,0.2c-0.1,0.7-0.1,0.6,0,1.2c-0.1,0-0.1,0-0.2,0c-0.3,0.1-1.1-0.1-1.5,0.2
			c-0.1,0-0.3,0-0.4,0c0.2,0.3,0.2,0.2,0.4,0.6c0.6-0.1,0.5,0,0.8-0.4c0.1,0,0.1,0,0.2,0c-0.2,0.9-1.3,2.1-1.9,1.9
			c-0.4,0.4-0.6,1.3-0.4,1.7c0.1,0.3,0,0.2,0.2,0.4c0.9-2,2.1-2,3.3-3.5c1,0.2,0.9,0.5,1.2,1.3c0.1,0.1,0.1,0.1,0.2,0.2
			c0.1,0,0.1,0,0.2,0c-0.1-1.2-0.5-2.1-1.2-2.7c0-0.1,0-0.1,0-0.2c0.8,0.1,1.2,0.3,1.5,0.2c0.3,0.5-0.1,0.6,0.6,1c0,0,0,0.8-0.2,0.4
			c-0.1-0.1-0.1-0.1-0.2-0.2c0.2,0.4,0.5,0.8,0.8,1.2c0,0.1,0,0.3,0,0.4c-0.8,0.2-1.4,0.5-2.1,0.6c0,0.2,0,0.4,0,0.6
			c0.4-0.2,0.7-0.3,1.3-0.4c-0.1,0.4-0.1,0.8-0.2,1.2c-0.2,0-0.4,0-0.6,0c0.8,1.3,1.5,3.1,1.9,4.8c0.3,1.3-0.5,1.5,0.4,1.9
			c-0.1,0.1-0.4,0.3-0.6,0.4c-1.8-0.1-1.5-1.1-2.5-1.5c-0.6-0.2-1.5,0.2-2.3-0.2c-1.1-0.6-1.9-2.1-3.1-2.9c0.2-0.7,0.6-0.7,1-1.2
			c0.5,0.3,0.1-0.1,0.4,0.4c0.6-0.4,0.1-0.3,0.6-0.8c0-0.1,0-0.1,0-0.2c-1.1,0.2-1.3,0.8-2.5,1c-0.1-0.4-0.1-0.8-0.2-1.2
			c1.3-1.3,1.8-3,3.5-4c-0.4-0.2-0.3-0.1-0.8,0c0.1-0.6,0.2-0.4,0.4-0.8c-0.2-0.4-0.3-0.4-0.4-1.2c-0.1,0-0.1,0-0.2,0
			c-0.1,0.3,0,0.2-0.2,0.4c-0.1,0.7,0,0.6,0.2,1.3c-1.7,1.6-3.3,1.4-4.8,2.7c-1.3-0.1-2-0.9-2.5-1.7c-0.1,0-0.1,0-0.2,0
			c0.2,0.9,0.7,1.3,1.3,1.7c-0.5,0.5-1.4,0.6-1.7,0.8c-0.1,0-0.3,0-0.4,0c0.2,0.9,1.2,1.4,1.9,1.7c-0.1,0.1-0.1,0.3-0.2,0.4
			c-0.6-0.1-0.6-0.1-1-0.4c-0.2,0-0.4,0-0.6,0c0.3,0.3,0.2,0.3,0.8,0.4c-0.2,0.4-0.3,0.4-0.8,0.6c0.1,0.1,0.1,0.1,0.2,0.2
			c0.3,0.3,1.1-0.7,1.9-0.2c0.2-0.4,0.1-0.2,0-0.8c0.4,0.3,0.8,0.5,1.2,0.8c-0.1,1.1-0.9,1.9-1.9,1.2c-0.4,0-0.9,0-1.3,0
			c0.2,0.3,0.5,0.3,0.8,0.6c0.4,0,0.8,0,1.2,0c-0.4,0.6-0.5,0.2-0.8,0.4c-0.1,0-0.1,0-0.2,0c0.2,0.1,0.2,0.1,0.6,0.2
			c-0.2,0.6-0.5,0.7-1,1c0.1,0.4,0,0.4,0.2,0.6c0.6,0.3,1.7-0.6,2.1-1.2c0.1,0,0.3,0,0.4,0c-0.3,0.5,0.1,0.1-0.4,0.4
			c0,0.6-0.1,0.3,0,0.6c0.1,0.1,0.1,0.1,0.2,0.2c0.2-0.4,0.4-0.7,0.6-1.2c0.6,0.1,1.2,0.3,1.7,0.4c0.1,0.1,0.1,0.1,0.2,0.2
			c0,0.1,0,0.3,0,0.4c-0.5-0.2-1.4-0.6-1.9-0.2c-0.1,0-0.1,0-0.2,0c0.4,0.3,1.4,0.3,1.9,0.4c0.1,0.1,0.1,0.1,0.2,0.2
			c0,1.4,0.2,3.6-0.6,4.2c0.1,0.3,0,0.2,0.2,0.4c0,0.1,0,0.1,0,0.2c0.1,0,0.3,0,0.4,0c0.3-1.4,0.4-3.1,0.4-4.6
			c0.9,0.5,1.1,1.2,2.1,1.5c-0.1,0.1-0.1,0.1-0.2,0.2c-0.2,0.6-0.1,0.2-0.6,0.4c0.3,0.5,1,0.8,1.5,1c-0.3,0.5,0,0.3-0.6,0.2
			c-0.3,0.7-0.6,1.2-1.2,1.7c0,0.1,0,0.3,0,0.4c0.9-0.2,1.1-0.7,1.3-0.4c0.2-0.2,0.2-0.5,0.2-1c0.1,0,0.3,0,0.4,0
			c0.3,0.7,0.5,1.2,0.6,2.1c0.1,0,0.3,0,0.4,0c0.1-0.1,0.1-0.1,0.2-0.2c0-1-0.1-1.7-0.6-2.3c0.1-0.6,0-0.5,0.4-0.8
			c0.1-0.1,0.1-0.1,0.2-0.2c0.6,1,1,1.9,1.2,3.3c0.1-0.1,0.1-0.1,0.2-0.2c0.9-0.8,0.3-2.4,1-3.1c0.1-0.1,0.1-0.1,0.2-0.2
			c0.5,0.8,1.1,1.5,1.7,2.3c0.2,0.2,0.3-0.3,0.8,0.4c0.5-0.3,0.4-1.2,0.4-2.1c0.1,0,0.2,0.1,0.3,0.2c0-0.1,0-0.1,0.1-0.1
			c0.1,0.1,0.5,0.3,0.3,0.5c0.1,0.1,0.3,0.3,0.4,0.5c0.3,0,0.5,0,0.8,0C39,34,39,33.9,38.9,33.9c-0.3-0.6-1-1.2-1.7-1.3
			c-0.1-0.3,0-0.2-0.2-0.4c0-0.2,0-0.4,0-0.6c0.6,0.2,0.5,0.3,1.2,0.4c0.1,0.4,0,0.4,0.2,0.6c0,0.1,0,0.3,0,0.4
			c0.2-0.2,0.2-0.3,0.2-0.8c0.6,0.3,0.9,0.3,1.2,1c0.1,0,0.3,0,0.4,0c0-0.1,0-0.1,0-0.2c0.2-0.4,0-0.5-0.4-0.8c0-0.2,0-0.4,0-0.6
			c0.3,0.1,0.8,0.2,1,0.4c0.2,0,0.4,0,0.6,0c0-0.1,0-0.1,0-0.2c-0.6-0.3-1.2-0.5-1.9-0.6c0-0.1,0-0.3,0-0.4C40,31,41,31.2,41.6,31
			c0.1,0,0.3,0,0.4,0c-0.6-0.5-2-0.7-2.9-0.8c-1.7-3.3-1.1-5.4-0.8-9.4C40.1,20.7,40.8,20.3,42.5,20.2z M32.9,19.6
			c-0.2,0-0.4,0-0.6,0c0.1-0.3,0.1-0.3,0.2-0.8c0.2,0.1,0.4,0.1,0.6,0.2C33,19.2,33,19.4,32.9,19.6z M34.7,18.3
			c-0.4-0.1-0.5-0.1-0.8-0.4c-0.2-0.4-0.1-0.1,0-0.6c0.4,0.2,0.4,0.3,0.8,0.6C34.7,18,34.7,18.2,34.7,18.3z M24.6,24.2
			c-0.6,0-0.8,0.1-1,0c-0.6-0.2-0.4-0.4-1-0.6c0.3-0.5,0.7-0.4,1.2-0.8c0.3,0.2,0.2,0.2,0.6,0.4c-0.2,0.2,0,0.1-0.4,0.2
			c0.2,0.2,0.4,0.4,0.6,0.6C24.6,24.1,24.6,24.2,24.6,24.2z M36.2,31.2c-0.2,0.3-0.1,0.2-0.4,0C35.9,31.2,36.1,31.2,36.2,31.2z
			 M31.6,29.3c0.4,0.2,0.7,0.3,1,0.6c0.2,0,0.4,0,0.6,0c-0.3-0.5,0.1-0.1-0.4-0.4c0-0.1,0-0.1,0-0.2c0.1,0,0.3,0,0.4,0
			c0.1,0.3,0.1,0.3,0.2,0.8c0.4,0.1,0.4,0,0.6,0.2c0.1,0,0.3,0,0.4,0c-0.3,0.5,0,0.3-0.6,0.2c0.3,0.5-0.1,0.1,0.4,0.4
			c0,0.1,0,0.3,0,0.4c-0.9-0.1-1.7-0.9-2.3-1.7c-0.1,0-0.1,0-0.2,0C31.6,29.4,31.6,29.3,31.6,29.3z M33.1,31.4
			c-0.3-0.1-0.2,0-0.4-0.2C33.1,31.3,32.9,31.2,33.1,31.4z M24.8,22.7c1-0.4,2.3-0.6,2.9-1.3c0.1,0,0.3,0,0.4,0
			c-0.2,0.4-0.5,1.1-0.8,1.5c0,0.1,0,0.1,0,0.2c-0.5-0.3-0.2,0-0.4-0.6c-0.1,0-0.1,0-0.2,0c-0.1,0.4,0.1,1.1-0.2,1.5
			c0,0.1,0,0.1,0,0.2c-0.1-0.2-0.3-0.6-0.4-0.8c0-0.1,0-0.1,0-0.2c-0.4-0.1-0.2,0.1-0.4,0.2c-0.6-0.1-0.6-0.2-1-0.4
			C24.8,23,24.8,22.8,24.8,22.7z M24.8,24.4c0.2,0,0.4,0,0.6,0c0.1,0.1,0.3,0.3,0.4,0.4c-0.1,0.4,0,0.4-0.2,0.6c0,0.1,0,0.1,0,0.2
			C25.1,25.3,25,25.1,24.8,24.4z M27,28.3c-0.9-0.1-1-0.4-1.7-0.6c0.1-0.2,0.1-0.4,0.2-0.6c0.8,0.2,1,0.6,1.5,1
			C27,28.2,27,28.2,27,28.3z M27.5,28.3c0.2-0.1,0.2-0.1,0.6-0.2c-0.1-0.7-0.7-1.4-1.2-1.5c0-0.1,0-0.1,0-0.2c0.6,0,0.3,0.1,0.6,0
			c1,0.2,1.1,0.7,1.7,1.2c0,0.1,0,0.3,0,0.4c-0.2-0.2-0.4-0.4-0.6-0.6c-0.1,0-0.1,0-0.2,0c0.1,0.5,0.2,0.7,0.6,1c0,0.1,0,0.1,0,0.2
			C28.6,28.4,28,28.4,27.5,28.3z M31.2,32.5c0,0.1,0,0.1,0,0.2c-0.9-0.7-1.3-1.8-2.1-2.5c0-0.1,0-0.3,0-0.4c0.6,0.2,1.6,0.4,1.9,1
			c0.2,0,0.4,0,0.6,0c-0.5-0.7-1.5-1.3-2.3-1.7c0.3-0.2,0,0,0.6,0c-0.1-0.6-0.2-0.7-0.4-1.2c1.1,0.8,1.9,1.9,3.1,2.7
			c0,0.1,0,0.3,0,0.4c-0.5-0.2-0.3-0.1-0.6-0.4c-0.1,0-0.1,0-0.2,0c0.2,0.6,0.2,0.6,0.8,0.8C32.3,31.9,31.6,32.2,31.2,32.5z
			 M33.1,34.3c-0.1,0-0.1,0-0.2,0c-0.1-0.4-0.3-0.8-0.4-1.2c0.3,0.2,0.2,0.2,0.6,0.4C33.1,33.7,33.1,34,33.1,34.3z M33.3,32.9
			c-0.1,0.3,0,0.2-0.2,0.4C33,33,33,33,32.9,32.5c-0.2,0-0.4,0-0.6,0c0.1,0.1,0.1,0.3,0.2,0.4c-0.1,0-0.3,0-0.4,0
			c0.2-0.6,0.2-0.6,0.8-0.8c0.2-0.2,0-0.1,0.4-0.2c0.1,0.1,0.1,0.1,0.2,0.2C33.5,32.6,33.5,32.7,33.3,32.9z M36.8,33.9
			c-0.1,0-0.1,0-0.2,0c-0.4-1.3-1.4-1.3-2.3-2.1c-0.1,0-0.3,0-0.4,0c0.2-0.5,0.4-0.1,1-0.6c0.3,0,0.5,0,0.8,0
			c-0.3,0.5,0.1,0.1-0.4,0.4c0.3,0.6,1,1.1,1.5,1.5C36.8,33.4,36.8,33.6,36.8,33.9z M36.8,30.4c0-0.1,0-0.3,0-0.4c0.2,0,0.4,0,0.6,0
			c0,0.1,0,0.3,0,0.4C37.2,30.4,37,30.4,36.8,30.4z M37.5,31.4c-0.5-0.2-0.3-0.1-0.6-0.4c0.2,0.1,0.4,0.1,0.6,0.2
			C37.5,31.2,37.5,31.3,37.5,31.4z M37.5,29.6c-0.2,0.2-0.2,0.1-0.8,0.2c-0.2-0.2,0-0.1-0.4-0.2c-0.1-3.1-1.2-5.3-1.3-7.9
			c0.4-0.1,0.4,0,0.6-0.2c0.6,0.7,1,4,1,4c0,0.3,0,0.5,0,0.8c0.5-0.3,0.3-0.1,0.4-0.8c0.7,0.9,0.1,1.9,0.8,2.7
			C37.7,28.8,37.7,29.3,37.5,29.6z M37.5,23.9c0,0.4,0,0.9,0,1.3c-0.1,0-0.1,0-0.2,0c-0.4-1-0.5-2.5-1.2-3.3c0-0.2,0-0.4,0-0.6
			c0.5-0.1,0.9-0.2,1.5-0.2C37.8,22,37.9,23.4,37.5,23.9z M39.3,31.9c0,0.1,0,0.1,0,0.2c-0.5-0.2-0.3-0.3-1-0.4c0-0.2,0-0.4,0-0.6
			c0.3,0.1,0.3,0.1,0.8,0.2C39.2,31.8,39.1,31.7,39.3,31.9z M38.3,31c0-0.1,0-0.3,0-0.4c0.1,0,0.1,0,0.2,0c0,0.1,0,0.3,0,0.4
			C38.4,31,38.4,31,38.3,31z M38.5,29.8c0,0.1,0,0.3,0,0.4c-0.5-0.3-0.5-0.4-0.6-1C38.4,29.5,38.2,29.5,38.5,29.8z"/>
		<path class="st3" d="M31.6,31.8c0.1,0,0.3,0,0.4,0c0-0.1,0-0.3,0-0.4c-0.2-0.1-0.4-0.1-0.6-0.2C31.4,31.4,31.5,31.6,31.6,31.8z"/>
		<circle class="st3" cx="31.2" cy="31.8" r="0.3"/>
	</g>
	<path class="st1" d="M40.8,36.6c-1-0.1-0.8-0.2-1.3-0.6c0.1,0.8,0.2,1.3-0.8,1.5c0-0.2,0-0.4,0-0.6c-0.2-0.1-0.4-0.3-0.6-0.4
		c0,0.1,0,0.1,0,0.2c0.4,0.5,0.3,0.3,0.2,1c-1.8,0.1-2.7,0.9-4,1.2c0-0.4,0-0.5-0.2-0.8c-0.1,0.6-0.2,0.6-0.4,1
		c-0.4-0.1-0.8-0.1-1.2-0.2c0-0.4,0-0.5-0.2-0.8c-0.1,0.4-0.1,0.5-0.2,0.8c-0.5-0.1-0.9-0.2-1.5-0.2c0-0.6,0.1-1.1,0.2-1.5
		c1.3,0.2,2.4-0.2,3.3,0.2c0.2-0.6-0.1-0.3,0.4-0.6c1.2,0.7,1.6-0.8,3.1-0.2c0.1-0.9,0.2-0.9,0.4-1.5c0.4,0.2,0.3,0.5,0.6,0.8
		c0.2,0.2,0.1-0.6,0.6-0.4c0.1,0.1,0.3,0.3,0.4,0.4c0.1-1,0.2-0.7,0.4-1.7c0.9-0.2,0.9-0.5,1.9-0.6c0.3,0.3,0.6,0.5,1,0.8
		c0,0.1,0,0.3,0,0.4c-0.9,0.2-1.2,0.8-1.9,1.2c-0.1-0.1-0.3-0.3-0.4-0.4c0,0.1,0,0.1,0,0.2C40.7,35.9,40.7,36,40.8,36.6z"/>
	<path class="st1" d="M27.5,33.7c0.1,0,0.3,0,0.4,0C27.7,34,27.8,33.9,27.5,33.7z"/>
	<path class="st1" d="M16,34.3c0.9,0.4,2.5,2.6,2.7,3.7c-0.7,0.5-1,1.2-1.9,1.5c0-0.1,0-0.1,0-0.2c-1.3-0.9-1.7-2.4-2.7-3.5
		c0.1-0.1,0.1-0.1,0.2-0.2C14.7,35,15.5,34.8,16,34.3z"/>
	<path class="st1" d="M48.3,34.3c0.8,0.4,1.7,0.9,2.5,1.3c-0.5,1-1.2,2.5-2.3,2.9c-0.5-0.5-1-1-1.5-1.5c0.1-0.2,0.3-0.6,0.4-0.8
		c0.4,0.5,1.1,0.9,1.7,1.2c0-0.1,0-0.1,0-0.2c0.1-0.1,0.3-0.3,0.4-0.4C48.4,36.3,47.8,35.7,48.3,34.3z"/>
	<path class="st1" d="M35.2,34.6c0.2,0.3,0.2,0.6,0.2,1.2c-0.1,0-0.1,0-0.2,0c0-0.1,0-0.3,0-0.4c-0.1,0-0.1,0-0.2,0
		C35.1,35.2,35.2,34.9,35.2,34.6z"/>
	<path class="st1" d="M27.5,38.3c0.1-0.4,0.1-0.8,0.2-1.2c-0.1,0-0.1,0-0.2,0c-0.2,0.6,0.1,0.3-0.4,0.6c-0.7-0.6-1-0.6-1.9-0.6
		c0-0.3,0-0.5,0-0.8c-0.2,0-0.4,0-0.6,0c-0.3-0.4-0.4-0.3-0.6-1c0.2-0.2,0.1-0.1,0.2-0.4c0.3-0.1,0.3-0.1,0.8-0.2
		c1.3,1.4,2.2,1.5,3.8,1.7c0,0.3,0,0.6,0,1c-0.1,0.1-0.3,0.4-0.4,0.6C28.2,38.3,28,38.3,27.5,38.3z"/>
	<path class="st1" d="M30,35.2c0.2,0.3,0.3,0.2,0,0.4C30,35.5,30,35.3,30,35.2z"/>
	<path class="st1" d="M43.5,35.4c0.5,0.3,0.2,0,0.4,0.6c-0.8,0.5-0.6,1-1.2,1.5c-0.4,0.4-0.6-0.2-1,0c-0.2,0.1-0.2,0.7-0.4,0.8
		c-0.6,0.4-1.1,0.2-1.7,0.6c-0.1,0.3-0.3,0.5-0.4,0.8c-0.6,0.1-1.2,0.1-1.7,0.2c-1.5,0.4-3,0.9-4.2,1.2c-1-0.1-2.1-0.3-3.1-0.4
		c0-0.1,0-0.3,0-0.4C35.2,40.6,41.6,38.9,43.5,35.4z"/>
	<path class="st1" d="M13.1,36c0.1,0.2,0.3,0.6,0.4,0.8c0.5,1.6,2.2,2.2,2.5,3.8c-0.4,0.4-0.9,0.9-1.3,1.3c-0.3-0.1-0.2,0-0.4-0.2
		c-1-0.3-3.1-3.4-3.5-4.4C11.6,37,12.5,36.5,13.1,36z"/>
	<path class="st1" d="M51.2,36c1.1,0.1,2.5,0.8,2.7,1.9c-0.9,0.9-1.3,2.6-2.7,2.9c-0.6-0.7-1.5-0.8-1.7-1.9
		C50.4,38.2,51.2,37.5,51.2,36z"/>
	<path class="st1" d="M30,36.6c0.5,0.6,0.5,2.3-0.4,1.9c-0.2-0.1-0.4-0.1-0.6-0.2c0.1-0.3,0.2-0.6,0.2-1.2
		C29.5,37,29.8,36.8,30,36.6z"/>
	<path class="st1" d="M22.5,37.1c2.1,0.2,3.3,2,5.6,2.5c0,0.1,0,0.3,0,0.4c-0.3,0-0.5,0-0.8,0C25.8,38.8,23.5,38.9,22.5,37.1z"/>
	<path class="st1" d="M36.2,37.5c0,0.1,0,0.3,0,0.4c0.1,0,0.1,0,0.2,0c0-0.1,0-0.3,0-0.4C36.3,37.5,36.3,37.5,36.2,37.5z"/>
	<path class="st1" d="M45.8,37.9c1.1,0.1,1.8,0.8,2.1,1.7c-0.9,0.6-1.4,1.6-2.5,1.9c-0.2-0.4-0.3-0.4-0.4-1c0.2-0.3,0.2-0.7,0.4-1.2
		c-0.3-0.3-0.5-0.5-0.8-0.8c0.1-0.1,0.1-0.1,0.2-0.2c0.5,0.3,0.4,0.4,1.2,0.6c0.1-0.2,0.1-0.4,0.2-0.6C45.9,38.2,46,38.4,45.8,37.9z
		"/>
	<path class="st1" d="M28.7,40.4c0.2-0.6-0.1-0.3,0.4-0.6c0.2,0.1,0.7,0.3,1,0.4c0,0.1,0,0.3,0,0.4c-0.3,0-0.5,0-0.8,0
		C29.1,40.5,29.1,40.5,28.7,40.4z"/>
	<path class="st1" d="M36.4,45.6c0-0.8-0.1-0.5,0-1.2c0.3-0.2,0.6-0.3,0.8-0.6c0.3,0.2,0.1,0.5,0.4,0.2c0.4-0.4,0.3-1,0.8-1.3
		c1.2-1.1,2.6-1,3.8-0.8c0.6-0.8,1.1-0.5,1.3-1.5c-0.1-0.1-0.3-0.3-0.4-0.4c0.1-0.1,0.1-0.1,0.2-0.2c0.7,0.5,1.5,1.4,1.7,2.3
		c-1,0.2-1.7,1.1-2.5,1.5C40.7,44.7,38.3,45.3,36.4,45.6z"/>
	<path class="st1" d="M22.5,40.8c1.2,0.1,1.9,0.7,2.9,1.2c-0.1,0.3-0.1,0.3-0.2,0.8c0.1,0,0.1,0,0.2,0c0-0.1,0-0.1,0-0.2
		c0.2-0.2,0.3-0.3,0.4-0.6c0.5,0.3,0.6,0.7,1.2,1c0.1-0.2,0.2-0.9,0.4-0.4c0.3,0.4,0.3,0.7,0.8,1c-0.2,0.6-0.4,1.3-0.6,1.9
		c-2.9-1.4-6.8-1.7-8.3-3.8c0.4-0.4,0.8-0.8,1.2-1.2c0.8,0.4,0.8,1,1.9,1.2c0.1-0.1,0.1-0.1,0.2-0.2C22.5,41.2,22.5,41,22.5,40.8z"
		/>
	<path class="st1" d="M48.5,40.4c0.3,0,0.5,0,0.8,0c0.5,0.7,1.1,0.8,1.3,1.7c-1.1,0.7-1.6,2-3.1,2.3c-0.6-0.9-1.4-1.5-1.5-2.9
		c0.5,0,0.6-0.1,1-0.8c0.4,0.2,1,0.8,1.2,0.6C48.6,41,48.4,40.9,48.5,40.4z"/>
	<path class="st1" d="M22.9,41.8c0,0.1,0,0.3,0,0.4c0.1,0,0.1,0,0.2,0c0-0.1,0-0.3,0-0.4C23,41.8,23,41.8,22.9,41.8z"/>
	<path class="st1" d="M36.2,42.7c0.2,0.2,0.1,0.1,0.2,0.4c-0.1,0-0.3,0-0.4,0c-0.2,0.2-0.5,0.2-1,0.2c0-0.1,0-0.1,0-0.2
		c0.1,0,0.1,0,0.2,0C35.4,43,36,42.9,36.2,42.7z"/>
	<path class="st1" d="M21.6,43.5c0,0.6-0.1,1-0.2,1.3c0.6,0,0.3-0.2,0.6,0c0.3,0.2,0,0.3,0.6,0.6c-0.1-0.2-0.1-0.4-0.2-0.6
		c0.1,0,0.1,0,0.2,0c0.4,0.3,0.9,0.8,1.3,1c0.3-0.4,0.2-0.4,0.4-0.4c0.1,0,0.1,0,0.2,0c-0.1,0.1-0.1,0.3-0.2,0.4c0.1,0,0.1,0,0.2,0
		c0.4,0.3,0.5-0.2,1,0c0,0.1,0,0.3,0,0.4c0.5,0.3,0.7,0,1.2-0.2c0.2,0.6,0.3,0.7,0.8,1c-0.3,0.8-0.1,1.7-1.2,1.9
		c-2.4-1.8-8.1-1.7-9.2-4.6c0.5-0.4,0.9-0.7,1.2-1.3c0.3,0.1,0.2,0,0.4,0.2c0.4,0.2,1.5,1.4,2.1,1.2C20.9,44.1,20.6,43.7,21.6,43.5z
		"/>
	<path class="st1" d="M37,49.1c0-1-0.2-1.2-0.4-1.9c0.1,0,0.3,0,0.4,0c0.2,0.1,0.2,0.1,0.6,0.2c0.2-0.5-0.2-0.3,0.4-0.6
		c0.5,0.1,2.8-0.7,3.7-1.2c0.3-0.3,0.6-0.6,1-1c0.4-0.1,1,0.1,1.5,0c0.2-0.5,0.1-0.5,0.2-1c0.5,0.1,0.4,0.2,0.8,0
		c0.4-0.5-0.2-0.5,0.8-0.6c0.1-0.1,0.1-0.1,0.2-0.2c0.3,0.9,1,1.3,1.3,2.1c-1,0.2-1.4,0.9-2.1,1.3C42.9,47.6,40.2,49,37,49.1z"/>
	<path class="st1" d="M35.6,44.6c0.1,0.4,0.1,0.8,0.2,1.2c-3.2,0.1-4.3,0.3-7.5-0.4c0.1-0.4,0.1-0.8,0.2-1.2c0.5,0,1,0,1.5,0
		c0.2-0.5-0.2-0.3,0.4-0.6c0.2,0.4,0.1,0.4,0.6,0.6c0.2-0.5,0.2-0.3,0.4-0.8c0.2,0.2,0.7,0.4,1,0.6c-0.2,0.3-0.2,0.2,0,0.6
		c0.2,0.2,0.5,0.2,1,0.2C33.6,44.7,34.7,44.7,35.6,44.6z"/>
	<path class="st1" d="M32.3,48.1c0-0.2,0-0.4,0-0.6c1.7-0.1,2.1-0.2,3.7-0.4c0.1,0.1,0.1,0.1,0.2,0.2c0.1,0.6,0.1,1.3,0.2,1.9
		c-0.1,0.1-0.1,0.1-0.2,0.2c-2.1-0.1-5.4,0-8.7-0.4c0-0.6,0.1-1.4,0.2-1.5c0.1-0.1,0.1-0.1,0.2-0.2c0,0,2.9-0.1,3.1,0
		C31.6,47.7,31,47.9,32.3,48.1z"/>
</g>
<g id="PDC" class="st0">
	<path class="st4" d="M2.5,23.9c0,0.4,0.3,0.7,0.6,0.8c0.4,0.1,0.8-0.1,0.9-0.4c0-0.1,0.1-0.1,0.2-0.1c4.9,0,9.9,0,14.8,0
		c0,0,0,0,0,0c0.1,0,0.1,0,0.1,0.1c0.2,0.3,0.4,0.5,0.8,0.5c0.3,0,0.6-0.2,0.7-0.5c0-0.1,0.1-0.1,0.1-0.1c4,0,8.1,0,12.1,0
		c0.1,0,0.1,0,0.1,0.1c0.2,0.3,0.4,0.5,0.7,0.5c0.3,0,0.6-0.2,0.7-0.5c0-0.1,0.1-0.1,0.1-0.1c1.6,0,3.2,0,4.8,0c1.5,0,3,0,4.5,0
		c0.1,0,0.1,0,0.1,0.1c0.2,0.3,0.4,0.5,0.7,0.5c0.3,0,0.6-0.2,0.7-0.5c0-0.1,0.1-0.1,0.1-0.1c2.2,0,4.4,0,6.6,0c0.1,0,0.1,0,0.1,0.1
		c0.3,0.5,1.1,0.5,1.4,0c0,0,0.1-0.1,0.1-0.1c1.3,0,2.6,0,3.9,0c0.1,0,0.1,0,0.1,0.1c0.2,0.3,0.4,0.5,0.8,0.5c0.3,0,0.6-0.2,0.7-0.5
		c0-0.1,0.1-0.1,0.1-0.1c0.5,0,1,0,1.5,0c0.1,0,0.1,0,0.2,0.1c0.2,0.3,0.6,0.5,0.9,0.4c0.4-0.1,0.6-0.4,0.6-0.8
		c0-0.4-0.3-0.7-0.6-0.8c-0.4-0.1-0.8,0.1-0.9,0.4c0,0.1-0.1,0.1-0.1,0.1c-0.5,0-1,0-1.5,0c-0.1,0-0.1,0-0.1-0.1
		c-0.2-0.3-0.4-0.5-0.7-0.5c-0.3,0-0.6,0.2-0.7,0.5c0,0.1-0.1,0.1-0.1,0.1c-1.3,0-2.5,0-3.8,0c-0.1,0-0.1,0-0.1-0.1
		c-0.1-0.3-0.4-0.6-0.8-0.6c-0.3,0-0.7,0.2-0.8,0.6c0,0.1-0.1,0.1-0.1,0.1c-2.2,0-4.3,0-6.5,0c-0.1,0-0.1,0-0.1-0.1
		c-0.2-0.3-0.4-0.5-0.7-0.5c-0.3,0-0.6,0.2-0.7,0.5c0,0.1-0.1,0.1-0.1,0.1c-3.1,0-6.2,0-9.3,0c-0.1,0-0.1,0-0.1-0.1
		c-0.2-0.3-0.4-0.5-0.7-0.5c-0.3,0-0.6,0.2-0.7,0.5c0,0.1-0.1,0.1-0.1,0.1c-4,0-8,0-12.1,0c-0.1,0-0.1,0-0.1-0.1
		c-0.2-0.3-0.4-0.5-0.7-0.5c-0.3,0-0.6,0.2-0.7,0.5c0,0.1-0.1,0.1-0.1,0.1c-4.9,0-9.9,0-14.8,0c-0.1,0-0.1,0-0.1-0.1
		c-0.2-0.4-0.6-0.5-0.9-0.4C2.8,23.2,2.5,23.5,2.5,23.9z"/>
	<path class="st4" d="M48.5,28.8C48.5,28.7,48.5,28.7,48.5,28.8c-0.4-0.6-0.7-1.1-1.1-1.6c0-0.1-0.1-0.1-0.2-0.1c-0.2,0-0.3,0-0.5,0
		c-0.1,0-0.1,0-0.1,0.1c0,0.7,0,1.4,0,2.1c0,0.8,0,1.5,0,2.3c0,0.1,0,0.1,0.1,0.1c0.1,0,0.3,0,0.4,0c0.2,0,0.2,0,0.2-0.2
		c0-1,0-2,0-2.9c0,0,0-0.1,0-0.1c0,0,0,0,0,0c0,0,0,0,0.1,0.1c0.2,0.3,0.4,0.7,0.7,1c0.2,0.3,0.1,0.2,0.5,0.2c0.1,0,0.1,0,0.2-0.1
		c0.2-0.4,0.5-0.8,0.8-1.2c0,0,0,0,0.1-0.1c0,0,0,0.1,0,0.1c0,0.2,0,0.5,0,0.7c0,0.8,0,1.5,0,2.3c0,0.1,0,0.1,0.1,0.1
		c0.2,0,0.3,0,0.5,0c0.1,0,0.1,0,0.1-0.1c0-0.9,0-1.8,0-2.7c0-0.5,0-1.1,0-1.6c0-0.1,0-0.1-0.1-0.1c-0.2,0-0.3,0-0.5,0
		c-0.1,0-0.1,0-0.2,0.1c-0.2,0.3-0.4,0.7-0.7,1C48.8,28.4,48.6,28.6,48.5,28.8z"/>
	<path class="st4" d="M44,28.8C43.9,28.7,43.9,28.7,44,28.8c-0.4-0.6-0.7-1.1-1.1-1.6c0-0.1-0.1-0.1-0.2-0.1c-0.2,0-0.3,0-0.5,0
		c-0.1,0-0.1,0-0.1,0.1c0,0.7,0,1.4,0,2.1c0,0.7,0,1.5,0,2.2c0,0.1,0,0.1,0.1,0.1c0.2,0,0.3,0,0.5,0c0.2,0,0.2,0,0.2-0.2
		c0-1,0-2,0-3c0,0,0-0.1,0-0.1c0,0,0,0,0,0c0,0,0,0,0.1,0.1c0.2,0.3,0.4,0.7,0.7,1c0.2,0.3,0.1,0.2,0.5,0.2c0.1,0,0.1,0,0.2-0.1
		c0.2-0.4,0.5-0.8,0.8-1.2c0,0,0,0,0.1-0.1c0,0,0,0,0,0c0,0,0,0.1,0,0.1c0,0.2,0,0.5,0,0.7c0,0.8,0,1.5,0,2.3c0,0.1,0,0.1,0.1,0.1
		c0.2,0,0.3,0,0.5,0c0.1,0,0.1,0,0.1-0.1c0-0.9,0-1.9,0-2.8c0-0.5,0-1,0-1.5c0-0.1,0-0.1-0.1-0.1c-0.2,0-0.3,0-0.5,0
		c-0.1,0-0.1,0-0.2,0.1c-0.2,0.3-0.4,0.7-0.7,1C44.2,28.4,44.1,28.6,44,28.8z"/>
	<path class="st4" d="M57.8,30.2C57.8,30.2,57.8,30.2,57.8,30.2C57.8,30.2,57.7,30.2,57.8,30.2c-0.7-1.1-1.3-2.1-1.9-3.1
		c0-0.1-0.1-0.1-0.2-0.1c-0.2,0-0.3,0-0.5,0c-0.1,0-0.1,0-0.1,0.1c0,1.5,0,2.9,0,4.4c0,0.1,0,0.1,0.1,0.1c0.2,0,0.3,0,0.5,0
		c0.1,0,0.1,0,0.1-0.1c0-0.3,0-0.7,0-1c0-0.7,0-1.3,0-2c0,0,0-0.1,0-0.1c0,0,0,0,0,0c0,0,0,0.1,0.1,0.1c0.6,1,1.2,2,1.8,3
		c0,0.1,0.1,0.1,0.2,0.1c0.2,0,0.3,0,0.5,0c0.2,0,0.2,0,0.2-0.2c0-1.4,0-2.8,0-4.3c0,0,0,0,0-0.1c0-0.1,0-0.1-0.1-0.1
		c-0.2,0-0.3,0-0.5,0c-0.1,0-0.1,0-0.1,0.1c0,1,0,1.9,0,2.9C57.8,30.2,57.8,30.2,57.8,30.2z"/>
	<path class="st4" d="M45.1,19.7C45.1,19.7,45.1,19.7,45.1,19.7C45,19.6,45,19.6,45.1,19.7c-0.2-0.2-0.3-0.4-0.4-0.5
		c-0.5-0.9-1-1.7-1.6-2.6c0-0.1-0.1-0.1-0.2-0.1c-0.2,0-0.3,0-0.5,0c-0.1,0-0.1,0-0.1,0.1c0,0.7,0,1.5,0,2.2c0,0.7,0,1.4,0,2.1
		c0,0.1,0,0.1,0.1,0.1c0.2,0,0.3,0,0.5,0c0.1,0,0.1,0,0.1-0.1c0-0.3,0-0.6,0-1c0-0.7,0-1.3,0-2c0,0,0-0.1,0-0.1c0,0,0.1,0.1,0.1,0.1
		c0.6,1,1.2,2,1.8,3c0,0.1,0.1,0.1,0.1,0.1c0.2,0,0.3,0,0.5,0c0.1,0,0.1,0,0.1-0.1c0-0.5,0-1,0-1.5c0-0.9,0-1.9,0-2.8
		c0-0.1,0-0.1-0.1-0.1c-0.2,0-0.3,0-0.5,0c-0.1,0-0.1,0-0.1,0.1c0,1,0,1.9,0,2.9C45.1,19.6,45.1,19.6,45.1,19.7z"/>
	<path class="st4" d="M59.5,30.2c-0.1,0-0.2,0-0.3,0c-0.1,0-0.1,0-0.1,0.1c0,0.1,0,0.3,0,0.4c0.1,0.5,0.4,0.7,0.8,0.9
		c0.4,0.2,0.8,0.2,1.2,0.1c0.3,0,0.6-0.1,0.8-0.3c0.5-0.4,0.6-1.2,0.2-1.7c-0.1-0.1-0.3-0.3-0.4-0.3c-0.3-0.2-0.7-0.3-1-0.4
		c-0.2-0.1-0.4-0.2-0.6-0.3c-0.3-0.2-0.3-0.7,0.1-0.9c0.2-0.1,0.3-0.1,0.5-0.1c0.3,0,0.5,0.1,0.7,0.2c0.2,0.2,0.2,0.3,0.2,0.6
		c0,0,0,0.1,0.1,0.1c0.2,0,0.4,0,0.6,0c0.1,0,0.1,0,0.1-0.1c0-0.5-0.2-0.9-0.6-1.2c-0.3-0.2-0.6-0.2-0.9-0.2c-0.4,0-0.8,0-1.2,0.2
		c-0.7,0.4-0.7,1.4-0.2,1.8c0.1,0.1,0.3,0.3,0.5,0.3c0.3,0.1,0.6,0.2,0.9,0.4c0.2,0.1,0.4,0.2,0.6,0.3c0.1,0.1,0.2,0.2,0.2,0.4
		c0,0.3-0.2,0.5-0.5,0.6c-0.3,0.1-0.6,0.1-0.9,0c-0.2-0.1-0.4-0.2-0.5-0.5c0-0.1,0-0.2,0-0.2c0-0.1,0-0.1-0.1-0.1
		C59.7,30.2,59.6,30.2,59.5,30.2z"/>
	<path class="st4" d="M6.9,18.8c0,0.7,0,1.5,0,2.2c0,0.1,0,0.1,0.1,0.1c1,0,1.9,0,2.9,0c0.1,0,0.1,0,0.1-0.1c0-0.1,0-0.3,0-0.4
		c0-0.1,0-0.1-0.1-0.1c-0.7,0-1.4,0-2.1,0c-0.1,0-0.1,0-0.1-0.1c0-0.4,0-0.7,0-1.1c0-0.1,0-0.1,0.1-0.1c0.5,0,0.9,0,1.4,0
		c0.1,0,0.1,0,0.1-0.1c0-0.1,0-0.3,0-0.4c0-0.1,0-0.1-0.1-0.1c-0.5,0-0.9,0-1.4,0c-0.1,0-0.1,0-0.1-0.1c0-0.4,0-0.7,0-1.1
		c0-0.1,0-0.1,0.1-0.1c0.7,0,1.4,0,2.1,0c0.1,0,0.1,0,0.1-0.1c0-0.1,0-0.3,0-0.4c0-0.1,0-0.1-0.1-0.1c-0.9,0-1.9,0-2.8,0
		c-0.1,0-0.1,0-0.1,0.1C6.9,17.4,6.9,18.1,6.9,18.8z"/>
	<path class="st4" d="M50.5,18.8c0,0.7,0,1.5,0,2.2c0,0.1,0,0.1,0.1,0.1c1,0,1.9,0,2.9,0c0.1,0,0.1,0,0.1-0.1c0-0.1,0-0.3,0-0.4
		c0-0.1,0-0.1-0.1-0.1c-0.7,0-1.4,0-2.1,0c-0.1,0-0.1,0-0.1-0.1c0-0.4,0-0.7,0-1.1c0-0.1,0-0.1,0.1-0.1c0.5,0,0.9,0,1.4,0
		c0.1,0,0.1,0,0.1-0.1c0-0.1,0-0.3,0-0.4c0-0.1,0-0.1-0.1-0.1c-0.5,0-0.9,0-1.4,0c-0.1,0-0.1,0-0.1-0.1c0-0.4,0-0.7,0-1.1
		c0-0.1,0-0.1,0.1-0.1c0.7,0,1.4,0,2.1,0c0.1,0,0.1,0,0.1-0.1c0-0.1,0-0.3,0-0.4c0-0.1,0-0.1-0.1-0.1c-0.9,0-1.9,0-2.8,0
		c-0.1,0-0.1,0-0.1,0.1C50.5,17.4,50.5,18.1,50.5,18.8z"/>
	<path class="st4" d="M47.3,18.8c0-0.3,0-0.6,0-0.8c0-0.2,0.1-0.4,0.2-0.6c0.2-0.3,0.7-0.3,1-0.2c0.3,0.1,0.5,0.4,0.5,0.8
		c0,0.1,0,0.1,0.1,0.1c0.1,0,0.3,0,0.4,0c0.2,0,0.2,0,0.2-0.3c0-0.5-0.3-0.8-0.7-1.1c-0.4-0.3-0.9-0.3-1.4-0.2
		c-0.8,0.1-1.2,0.7-1.2,1.5c0,0.6,0,1.1,0,1.7c0,0.6,0.3,1.1,0.8,1.3c0.5,0.2,1,0.2,1.5,0.1c0.6-0.2,1-0.7,1-1.3
		c0-0.1,0-0.1-0.1-0.1c-0.2,0-0.4,0-0.6,0c-0.1,0-0.1,0-0.1,0.1c0,0.5-0.3,0.8-0.7,0.8c-0.6,0.1-1-0.3-1-0.9
		C47.3,19.3,47.3,19.1,47.3,18.8z"/>
	<path class="st4" d="M35.1,18.8c0-0.3,0-0.6,0-0.9c0-0.2,0-0.3,0.1-0.5c0.3-0.4,0.9-0.5,1.2-0.3c0.3,0.2,0.4,0.4,0.4,0.7
		c0,0.1,0,0.1,0.1,0.1c0.1,0,0.3,0,0.4,0c0.2,0,0.3,0,0.2-0.3c0-0.5-0.3-0.8-0.6-1.1c-0.4-0.3-0.9-0.3-1.4-0.2
		c-0.7,0.1-1.3,0.7-1.3,1.4c0,0.6,0,1.2,0,1.8c0,0.6,0.4,1.1,0.9,1.4c0.4,0.2,0.9,0.2,1.3,0c0.6-0.2,1-0.7,1-1.4
		c0-0.1,0-0.1-0.1-0.1c-0.2,0-0.4,0-0.6,0c-0.1,0-0.1,0-0.1,0.1c0,0.5-0.3,0.7-0.7,0.8c-0.6,0.1-1.1-0.3-1-0.9
		C35.1,19.3,35.1,19.1,35.1,18.8z"/>
	<path class="st4" d="M29.7,18.8c0-0.3,0-0.6,0-0.8c0-0.2,0-0.3,0.1-0.5c0.2-0.3,0.6-0.4,1.1-0.3c0.3,0.1,0.6,0.4,0.6,0.8
		c0,0.1,0,0.1,0.1,0.1c0.1,0,0.3,0,0.4,0c0.2,0,0.3,0,0.2-0.3c0-0.5-0.3-0.8-0.6-1.1c-0.4-0.3-0.9-0.3-1.4-0.2
		c-0.7,0.1-1.3,0.7-1.3,1.4c0,0.6,0,1.2,0,1.8c0,0.6,0.3,1.1,0.8,1.3c0.5,0.2,0.9,0.2,1.4,0.1c0.6-0.2,1-0.7,1-1.4
		c0-0.1,0-0.1-0.1-0.1c-0.2,0-0.4,0-0.6,0c-0.1,0-0.1,0-0.1,0.1c0,0.5-0.3,0.7-0.7,0.8c-0.6,0.1-1.1-0.3-1-0.9
		C29.7,19.3,29.7,19.1,29.7,18.8z"/>
	<path class="st4" d="M34.9,29.4c0-0.3,0-0.6,0-0.8c0-0.2,0-0.3,0.1-0.5c0.2-0.3,0.6-0.5,1.1-0.3c0.4,0.1,0.6,0.4,0.6,0.8
		c0,0.1,0,0.1,0.1,0.1c0.1,0,0.3,0,0.4,0c0.2,0,0.3,0,0.2-0.3c0-0.5-0.3-0.8-0.6-1c-0.4-0.3-0.9-0.3-1.4-0.2
		c-0.7,0.1-1.3,0.7-1.3,1.4c0,0.6,0,1.2,0,1.8c0,0.6,0.3,1,0.8,1.3c0.5,0.2,0.9,0.2,1.4,0.1c0.6-0.2,1-0.7,1.1-1.4
		c0-0.1,0-0.1-0.1-0.1c-0.2,0-0.4,0-0.6,0c-0.1,0-0.1,0-0.1,0.1c0,0.5-0.3,0.8-0.7,0.8c-0.6,0.1-1.1-0.3-1-0.9
		C34.9,29.9,34.9,29.7,34.9,29.4z"/>
	<path class="st4" d="M27.3,29.7c0-0.6,0-1.2,0-1.9c0-0.1,0-0.1,0.1-0.1c0.4,0,0.7,0,1.1,0c0.1,0,0.1,0,0.1-0.1c0-0.1,0-0.3,0-0.4
		c0-0.1,0-0.1-0.1-0.1c-1,0-2.1,0-3.1,0c-0.1,0-0.1,0-0.1,0.1c0,0.1,0,0.3,0,0.4c0,0.2,0,0.2,0.2,0.2c0.3,0,0.7,0,1,0
		c0.1,0,0.1,0,0.1,0.1c0,0.7,0,1.4,0,2.1c0,0.5,0,1.1,0,1.6c0,0.1,0,0.1,0.1,0.1c0.2,0,0.3,0,0.5,0c0.1,0,0.2,0,0.2-0.2
		C27.3,30.9,27.3,30.3,27.3,29.7z"/>
	<path class="st4" d="M20.9,19.1c0,0.4,0,0.8,0,1.2c0,0.2,0,0.4,0,0.6c0,0.1,0,0.1,0.1,0.1c0.2,0,0.4,0,0.6,0c0.1,0,0.1,0,0.1-0.1
		c0,0,0-0.1,0-0.1c0-1.2,0-2.4,0-3.7c0-0.1,0-0.1,0.1-0.1c0.4,0,0.7,0,1.1,0c0.1,0,0.1,0,0.1-0.1c0-0.1,0-0.3,0-0.4
		c0-0.1,0-0.1-0.1-0.1c-1,0-2.1,0-3.1,0c-0.1,0-0.1,0-0.1,0.1c0,0.1,0,0.3,0,0.4c0,0.1,0,0.1,0.1,0.1c0.3,0,0.7,0,1,0
		c0.1,0,0.1,0,0.1,0.1C20.9,17.9,20.9,18.5,20.9,19.1z"/>
	<path class="st4" d="M27.5,18.8c0,0.7,0,1.5,0,2.2c0,0.1,0,0.1,0.1,0.1c0.2,0,0.3,0,0.5,0c0.1,0,0.1,0,0.1-0.1c0-1.5,0-2.9,0-4.4
		c0-0.1,0-0.1-0.1-0.1c-0.2,0-0.3,0-0.5,0c-0.1,0-0.1,0-0.1,0.1C27.5,17.4,27.5,18.1,27.5,18.8z"/>
	<path class="st4" d="M14.6,18.8c0,0.7,0,1.4,0,2.2c0,0.1,0,0.1,0.1,0.1c0.2,0,0.3,0,0.5,0c0.1,0,0.1,0,0.1-0.1c0-0.5,0-0.9,0-1.4
		c0-1,0-2,0-3c0-0.1,0-0.1-0.1-0.1c-0.2,0-0.3,0-0.5,0c-0.1,0-0.1,0-0.1,0.1C14.6,17.4,14.6,18.1,14.6,18.8z"/>
	<path class="st4" d="M2.5,23.9c0-0.4,0.3-0.7,0.6-0.8c0.4-0.1,0.8,0.1,0.9,0.4c0,0.1,0.1,0.1,0.1,0.1c4.9,0,9.9,0,14.8,0
		c0.1,0,0.1,0,0.1-0.1c0.2-0.3,0.4-0.5,0.7-0.5c0.3,0,0.6,0.2,0.7,0.5c0,0.1,0.1,0.1,0.1,0.1c4,0,8,0,12.1,0c0.1,0,0.1,0,0.1-0.1
		c0.2-0.3,0.4-0.5,0.7-0.5c0.3,0,0.6,0.2,0.7,0.5c0,0.1,0.1,0.1,0.1,0.1c3.1,0,6.2,0,9.3,0c0.1,0,0.1,0,0.1-0.1
		c0.2-0.3,0.4-0.5,0.7-0.5c0.3,0,0.6,0.2,0.7,0.5c0,0.1,0.1,0.1,0.1,0.1c2.2,0,4.3,0,6.5,0c0.1,0,0.1,0,0.1-0.1
		c0.1-0.3,0.4-0.6,0.8-0.6c0.4,0,0.7,0.2,0.8,0.6c0,0.1,0.1,0.1,0.1,0.1c1.3,0,2.5,0,3.8,0c0.1,0,0.1,0,0.1-0.1
		c0.2-0.3,0.4-0.5,0.7-0.5c0.3,0,0.6,0.2,0.7,0.5c0,0.1,0.1,0.1,0.1,0.1c0.5,0,1,0,1.5,0c0.1,0,0.1,0,0.1-0.1
		c0.2-0.4,0.6-0.5,0.9-0.4c0.4,0.1,0.6,0.4,0.6,0.8c0,0.4-0.3,0.7-0.6,0.8c-0.4,0.1-0.8-0.1-0.9-0.4c0-0.1-0.1-0.1-0.2-0.1
		c-0.5,0-1,0-1.5,0c-0.1,0-0.1,0-0.1,0.1c-0.2,0.3-0.4,0.5-0.7,0.5c-0.3,0-0.6-0.2-0.8-0.5c0,0,0-0.1-0.1-0.1c-1.3,0-2.6,0-3.9,0
		c-0.1,0-0.1,0-0.1,0.1c-0.3,0.5-1.1,0.5-1.4,0c0,0-0.1-0.1-0.1-0.1c-2.2,0-4.4,0-6.6,0c-0.1,0-0.1,0-0.1,0.1
		c-0.2,0.3-0.4,0.5-0.7,0.5c-0.3,0-0.6-0.2-0.7-0.5c0-0.1-0.1-0.1-0.1-0.1c-1.5,0-3,0-4.5,0c-1.6,0-3.2,0-4.8,0
		c-0.1,0-0.1,0-0.1,0.1c-0.2,0.3-0.4,0.5-0.7,0.5c-0.3,0-0.6-0.2-0.7-0.5c0-0.1-0.1-0.1-0.1-0.1c-4,0-8.1,0-12.1,0
		c-0.1,0-0.1,0-0.1,0.1c-0.1,0.3-0.4,0.5-0.7,0.5c-0.3,0-0.6-0.2-0.8-0.5c0,0,0-0.1-0.1-0.1c0,0,0,0,0,0c-4.9,0-9.9,0-14.8,0
		c-0.1,0-0.1,0-0.2,0.1c-0.2,0.3-0.6,0.5-0.9,0.4C2.8,24.6,2.5,24.3,2.5,23.9z"/>
	<path class="st4" d="M48.5,28.8c0.1-0.2,0.3-0.4,0.4-0.6c0.2-0.3,0.4-0.7,0.7-1c0-0.1,0.1-0.1,0.2-0.1c0.2,0,0.3,0,0.5,0
		c0.1,0,0.1,0,0.1,0.1c0,0.5,0,1.1,0,1.6c0,0.9,0,1.8,0,2.7c0,0.1,0,0.1-0.1,0.1c-0.2,0-0.3,0-0.5,0c-0.1,0-0.1,0-0.1-0.1
		c0-0.8,0-1.5,0-2.3c0-0.2,0-0.5,0-0.7c0,0,0,0,0-0.1c0,0,0,0.1-0.1,0.1c-0.3,0.4-0.5,0.8-0.8,1.2c0,0.1-0.1,0.1-0.2,0.1
		c-0.4,0-0.3,0.1-0.5-0.2c-0.2-0.3-0.4-0.7-0.7-1c0,0,0-0.1-0.1-0.1c0,0,0,0,0,0c0,0,0,0.1,0,0.1c0,1,0,2,0,2.9c0,0.2,0,0.2-0.2,0.2
		c-0.1,0-0.3,0-0.4,0c-0.1,0-0.1,0-0.1-0.1c0-0.8,0-1.5,0-2.3c0-0.7,0-1.4,0-2.1c0-0.1,0-0.1,0.1-0.1c0.2,0,0.3,0,0.5,0
		c0.1,0,0.1,0,0.2,0.1C47.8,27.7,48.1,28.2,48.5,28.8C48.5,28.7,48.5,28.7,48.5,28.8z"/>
	<path class="st4" d="M44,28.8c0.1-0.2,0.3-0.4,0.4-0.6c0.2-0.3,0.4-0.7,0.7-1c0-0.1,0.1-0.1,0.2-0.1c0.2,0,0.3,0,0.5,0
		c0.1,0,0.1,0,0.1,0.1c0,0.5,0,1,0,1.5c0,0.9,0,1.9,0,2.8c0,0.1,0,0.1-0.1,0.1c-0.2,0-0.3,0-0.5,0c-0.1,0-0.1,0-0.1-0.1
		c0-0.8,0-1.5,0-2.3c0-0.2,0-0.5,0-0.7c0,0,0-0.1,0-0.1c0,0,0,0,0,0c0,0,0,0-0.1,0.1c-0.3,0.4-0.5,0.8-0.8,1.2
		c0,0.1-0.1,0.1-0.2,0.1c-0.4,0-0.3,0.1-0.5-0.2c-0.2-0.3-0.4-0.7-0.7-1c0,0,0-0.1-0.1-0.1c0,0,0,0,0,0c0,0,0,0.1,0,0.1c0,1,0,2,0,3
		c0,0.2,0,0.2-0.2,0.2c-0.2,0-0.3,0-0.5,0c-0.1,0-0.1,0-0.1-0.1c0-0.7,0-1.5,0-2.2c0-0.7,0-1.4,0-2.1c0-0.1,0-0.1,0.1-0.1
		c0.2,0,0.3,0,0.5,0c0.1,0,0.1,0,0.2,0.1C43.2,27.7,43.5,28.2,44,28.8C43.9,28.7,43.9,28.7,44,28.8z"/>
	<path class="st4" d="M57.8,30.2c0,0,0-0.1,0-0.1c0-1,0-1.9,0-2.9c0-0.1,0-0.1,0.1-0.1c0.2,0,0.3,0,0.5,0c0.1,0,0.1,0,0.1,0.1
		c0,0,0,0,0,0.1c0,1.4,0,2.8,0,4.3c0,0.2,0,0.2-0.2,0.2c-0.2,0-0.3,0-0.5,0c-0.1,0-0.1,0-0.2-0.1c-0.6-1-1.2-2-1.8-3
		c0,0,0-0.1-0.1-0.1c0,0,0,0,0,0c0,0,0,0.1,0,0.1c0,0.7,0,1.3,0,2c0,0.3,0,0.7,0,1c0,0.1,0,0.1-0.1,0.1c-0.2,0-0.3,0-0.5,0
		c-0.1,0-0.1,0-0.1-0.1c0-1.5,0-2.9,0-4.4c0-0.1,0-0.1,0.1-0.1c0.2,0,0.3,0,0.5,0c0.1,0,0.1,0,0.2,0.1
		C56.5,28.2,57.1,29.2,57.8,30.2C57.7,30.2,57.8,30.2,57.8,30.2C57.8,30.2,57.8,30.2,57.8,30.2z"/>
	<path class="st4" d="M45.1,19.7c0,0,0-0.1,0-0.1c0-1,0-1.9,0-2.9c0-0.1,0-0.1,0.1-0.1c0.2,0,0.3,0,0.5,0c0.1,0,0.1,0,0.1,0.1
		c0,0.9,0,1.9,0,2.8c0,0.5,0,1,0,1.5c0,0.1,0,0.1-0.1,0.1c-0.2,0-0.3,0-0.5,0c-0.1,0-0.1,0-0.1-0.1c-0.6-1-1.2-2-1.8-3
		c0,0-0.1-0.1-0.1-0.1c0,0,0,0.1,0,0.1c0,0.7,0,1.3,0,2c0,0.3,0,0.6,0,1c0,0.1,0,0.1-0.1,0.1c-0.2,0-0.3,0-0.5,0
		c-0.1,0-0.1,0-0.1-0.1c0-0.7,0-1.4,0-2.1c0-0.7,0-1.5,0-2.2c0-0.1,0-0.1,0.1-0.1c0.2,0,0.3,0,0.5,0c0.1,0,0.1,0,0.2,0.1
		c0.5,0.9,1,1.7,1.6,2.6C44.8,19.3,44.9,19.4,45.1,19.7C45,19.6,45,19.6,45.1,19.7C45.1,19.7,45.1,19.7,45.1,19.7z"/>
	<path class="st4" d="M32.2,31.5c-0.2-0.5-0.3-1-0.5-1.5c-0.3-1-0.6-1.9-0.9-2.9c0-0.1-0.1-0.1-0.2-0.1c-0.2,0-0.5,0-0.7,0
		c-0.1,0-0.1,0-0.2,0.1c-0.3,1-0.6,2-0.9,2.9c-0.1,0.5-0.3,0.9-0.4,1.4c0,0.1,0,0.2,0.1,0.2c0.2,0,0.4,0,0.6,0c0.1,0,0.1,0,0.1-0.1
		c0.1-0.2,0.1-0.4,0.2-0.6c0-0.1,0.1-0.1,0.1-0.1c0.5,0,1.1,0,1.6,0c0.1,0,0.1,0,0.1,0.1c0.1,0.2,0.1,0.4,0.2,0.6
		c0,0.1,0,0.1,0.1,0.1c0.1,0,0.2,0,0.3,0c0.1,0,0.2,0,0.3,0C32.3,31.7,32.3,31.7,32.2,31.5z M30.9,30.3c-0.4,0-0.8,0-1.2,0
		c-0.1,0-0.1,0-0.1-0.1c0.2-0.7,0.4-1.4,0.6-2.1c0,0,0,0,0-0.1c0,0,0,0,0,0C30.6,28.8,30.8,29.5,30.9,30.3
		C31,30.3,31,30.3,30.9,30.3z"/>
	<path class="st4" d="M59.5,30.2c0.1,0,0.2,0,0.3,0c0.1,0,0.1,0,0.1,0.1c0,0.1,0,0.2,0,0.2c0.1,0.3,0.3,0.4,0.5,0.5
		c0.3,0.1,0.6,0.1,0.9,0c0.3-0.1,0.5-0.3,0.5-0.6c0-0.2-0.1-0.3-0.2-0.4c-0.2-0.1-0.4-0.2-0.6-0.3c-0.3-0.1-0.6-0.2-0.9-0.4
		c-0.2-0.1-0.3-0.2-0.5-0.3c-0.4-0.4-0.4-1.4,0.2-1.8c0.4-0.2,0.7-0.3,1.2-0.2c0.3,0,0.6,0.1,0.9,0.2c0.5,0.3,0.7,0.7,0.6,1.2
		c0,0.1,0,0.1-0.1,0.1c-0.2,0-0.4,0-0.6,0c0,0-0.1-0.1-0.1-0.1c0-0.2-0.1-0.4-0.2-0.6c-0.2-0.2-0.4-0.2-0.7-0.2
		c-0.2,0-0.4,0-0.5,0.1c-0.3,0.2-0.4,0.7-0.1,0.9c0.2,0.1,0.4,0.2,0.6,0.3c0.3,0.1,0.7,0.3,1,0.4c0.2,0.1,0.3,0.2,0.4,0.3
		c0.4,0.5,0.4,1.3-0.2,1.7c-0.2,0.2-0.5,0.3-0.8,0.3c-0.4,0.1-0.8,0-1.2-0.1c-0.4-0.2-0.7-0.4-0.8-0.9c0-0.1,0-0.3,0-0.4
		c0-0.1,0-0.1,0.1-0.1C59.3,30.2,59.4,30.2,59.5,30.2z"/>
	<path class="st4" d="M6.9,18.8c0-0.7,0-1.4,0-2.2c0-0.1,0-0.1,0.1-0.1c0.9,0,1.9,0,2.8,0c0.1,0,0.1,0,0.1,0.1c0,0.1,0,0.3,0,0.4
		c0,0.1,0,0.1-0.1,0.1c-0.7,0-1.4,0-2.1,0c-0.1,0-0.1,0-0.1,0.1c0,0.4,0,0.7,0,1.1c0,0.1,0,0.1,0.1,0.1c0.5,0,0.9,0,1.4,0
		c0.1,0,0.1,0,0.1,0.1c0,0.1,0,0.3,0,0.4c0,0.1,0,0.1-0.1,0.1c-0.5,0-0.9,0-1.4,0c-0.1,0-0.1,0-0.1,0.1c0,0.4,0,0.7,0,1.1
		c0,0.1,0,0.1,0.1,0.1c0.7,0,1.4,0,2.1,0c0.1,0,0.1,0,0.1,0.1c0,0.1,0,0.3,0,0.4c0,0.1,0,0.1-0.1,0.1c-1,0-1.9,0-2.9,0
		c-0.1,0-0.1,0-0.1-0.1C6.9,20.3,6.9,19.5,6.9,18.8z"/>
	<path class="st4" d="M50.5,18.8c0-0.7,0-1.4,0-2.2c0-0.1,0-0.1,0.1-0.1c0.9,0,1.9,0,2.8,0c0.1,0,0.1,0,0.1,0.1c0,0.1,0,0.3,0,0.4
		c0,0.1,0,0.1-0.1,0.1c-0.7,0-1.4,0-2.1,0c-0.1,0-0.1,0-0.1,0.1c0,0.4,0,0.7,0,1.1c0,0.1,0,0.1,0.1,0.1c0.5,0,0.9,0,1.4,0
		c0.1,0,0.1,0,0.1,0.1c0,0.1,0,0.3,0,0.4c0,0.1,0,0.1-0.1,0.1c-0.5,0-0.9,0-1.4,0c-0.1,0-0.1,0-0.1,0.1c0,0.4,0,0.7,0,1.1
		c0,0.1,0,0.1,0.1,0.1c0.7,0,1.4,0,2.1,0c0.1,0,0.1,0,0.1,0.1c0,0.1,0,0.3,0,0.4c0,0.1,0,0.1-0.1,0.1c-1,0-1.9,0-2.9,0
		c-0.1,0-0.1-0.1-0.1-0.1C50.5,20.3,50.5,19.5,50.5,18.8z"/>
	<path class="st4" d="M47.3,18.8c0,0.3,0,0.5,0,0.8c0,0.6,0.4,1,1,0.9c0.5-0.1,0.7-0.3,0.7-0.8c0-0.1,0-0.1,0.1-0.1
		c0.2,0,0.4,0,0.6,0c0.1,0,0.1,0.1,0.1,0.1c0,0.6-0.4,1.1-1,1.3c-0.5,0.2-1,0.2-1.5-0.1c-0.6-0.3-0.8-0.7-0.8-1.3c0-0.6,0-1.1,0-1.7
		c0-0.8,0.5-1.4,1.2-1.5c0.5-0.1,1,0,1.4,0.2c0.4,0.2,0.6,0.6,0.7,1.1c0,0.3,0,0.2-0.2,0.3c-0.1,0-0.3,0-0.4,0c-0.1,0-0.1,0-0.1-0.1
		c0-0.4-0.2-0.7-0.5-0.8c-0.4-0.1-0.8,0-1,0.2c-0.2,0.2-0.2,0.4-0.2,0.6C47.3,18.2,47.3,18.5,47.3,18.8z"/>
	<path class="st4" d="M35.1,18.8c0,0.3,0,0.5,0,0.8c0,0.6,0.4,1,1,0.9c0.5-0.1,0.7-0.4,0.7-0.8c0-0.1,0-0.1,0.1-0.1
		c0.2,0,0.4,0,0.6,0c0.1,0,0.1,0.1,0.1,0.1c0,0.7-0.4,1.2-1,1.4c-0.4,0.1-0.9,0.1-1.3,0c-0.6-0.2-0.9-0.7-0.9-1.4c0-0.6,0-1.2,0-1.8
		c0-0.7,0.5-1.3,1.3-1.4c0.5-0.1,1,0,1.4,0.2c0.4,0.2,0.6,0.6,0.6,1.1c0,0.3,0,0.2-0.2,0.3c-0.1,0-0.3,0-0.4,0c-0.1,0-0.1,0-0.1-0.1
		c0-0.3-0.1-0.6-0.4-0.7c-0.3-0.2-1-0.2-1.2,0.3c-0.1,0.1-0.1,0.3-0.1,0.5C35.1,18.2,35.1,18.5,35.1,18.8z"/>
	<path class="st4" d="M29.7,18.8c0,0.3,0,0.5,0,0.8c0,0.6,0.4,1,1,0.9c0.5-0.1,0.7-0.4,0.7-0.8c0-0.1,0-0.1,0.1-0.1
		c0.2,0,0.4,0,0.6,0c0.1,0,0.1,0.1,0.1,0.1c0,0.7-0.4,1.2-1,1.4c-0.5,0.1-1,0.1-1.4-0.1c-0.6-0.3-0.8-0.7-0.8-1.3c0-0.6,0-1.2,0-1.8
		c0-0.7,0.5-1.3,1.3-1.4c0.5-0.1,1,0,1.4,0.2c0.4,0.2,0.6,0.6,0.6,1.1c0,0.3,0,0.2-0.2,0.3c-0.1,0-0.3,0-0.4,0c-0.1,0-0.1,0-0.1-0.1
		c0-0.4-0.2-0.7-0.6-0.8c-0.4-0.1-0.8,0-1.1,0.3c-0.1,0.2-0.1,0.3-0.1,0.5C29.7,18.2,29.7,18.5,29.7,18.8z"/>
	<path class="st4" d="M34.9,29.4c0,0.3,0,0.5,0,0.8c0,0.6,0.4,1,1,0.9c0.5-0.1,0.7-0.3,0.7-0.8c0-0.1,0-0.1,0.1-0.1
		c0.2,0,0.4,0,0.6,0c0.1,0,0.1,0.1,0.1,0.1c0,0.7-0.4,1.2-1.1,1.4c-0.5,0.1-1,0.1-1.4-0.1c-0.5-0.3-0.8-0.7-0.8-1.3
		c0-0.6,0-1.2,0-1.8c0-0.7,0.5-1.3,1.3-1.4c0.5-0.1,1,0,1.4,0.2c0.4,0.2,0.6,0.6,0.6,1c0,0.3,0,0.2-0.2,0.3c-0.1,0-0.3,0-0.4,0
		c-0.1,0-0.1,0-0.1-0.1c0-0.4-0.2-0.7-0.6-0.8c-0.4-0.1-0.8,0-1.1,0.3c-0.1,0.1-0.1,0.3-0.1,0.5C34.9,28.8,34.9,29.1,34.9,29.4z"/>
	<path class="st4" d="M27.3,29.7c0,0.6,0,1.2,0,1.8c0,0.1,0,0.2-0.2,0.2c-0.2,0-0.3,0-0.5,0c-0.1,0-0.1,0-0.1-0.1c0-0.5,0-1.1,0-1.6
		c0-0.7,0-1.4,0-2.1c0-0.1,0-0.1-0.1-0.1c-0.3,0-0.7,0-1,0c-0.1,0-0.2,0-0.2-0.2c0-0.1,0-0.3,0-0.4c0-0.1,0-0.1,0.1-0.1
		c1,0,2.1,0,3.1,0c0.1,0,0.1,0,0.1,0.1c0,0.1,0,0.3,0,0.4c0,0.1,0,0.1-0.1,0.1c-0.4,0-0.7,0-1.1,0c-0.1,0-0.1,0-0.1,0.1
		C27.3,28.5,27.3,29.1,27.3,29.7z"/>
	<path class="st4" d="M20.9,19.1c0-0.6,0-1.2,0-1.8c0-0.1,0-0.1-0.1-0.1c-0.3,0-0.7,0-1,0c-0.1,0-0.1,0-0.1-0.1c0-0.1,0-0.3,0-0.4
		c0-0.1,0-0.1,0.1-0.1c1,0,2.1,0,3.1,0c0.1,0,0.1,0,0.1,0.1c0,0.1,0,0.3,0,0.4c0,0.1,0,0.1-0.1,0.1c-0.4,0-0.7,0-1.1,0
		c-0.1,0-0.1,0-0.1,0.1c0,1.2,0,2.4,0,3.7c0,0,0,0.1,0,0.1c0,0.1,0,0.1-0.1,0.1c-0.2,0-0.4,0-0.6,0c-0.1,0-0.1,0-0.1-0.1
		c0-0.2,0-0.4,0-0.6C20.9,19.9,20.9,19.5,20.9,19.1z"/>
	<path class="st4" d="M27.5,18.8c0-0.7,0-1.4,0-2.2c0-0.1,0-0.1,0.1-0.1c0.2,0,0.3,0,0.5,0c0.1,0,0.1,0,0.1,0.1c0,1.5,0,2.9,0,4.4
		c0,0.1,0,0.1-0.1,0.1c-0.2,0-0.3,0-0.5,0c-0.1,0-0.1,0-0.1-0.1C27.5,20.3,27.5,19.5,27.5,18.8z"/>
	<path class="st4" d="M14.6,18.8c0-0.7,0-1.4,0-2.2c0-0.1,0-0.1,0.1-0.1c0.2,0,0.3,0,0.5,0c0.1,0,0.1,0,0.1,0.1c0,1,0,2,0,3
		c0,0.5,0,0.9,0,1.4c0,0.1,0,0.1-0.1,0.1c-0.2,0-0.3,0-0.5,0c-0.1,0-0.1,0-0.1-0.1C14.6,20.2,14.6,19.5,14.6,18.8z"/>
	<path class="st4" d="M13.9,17.8c0-0.4-0.2-0.7-0.5-1c-0.3-0.2-0.7-0.3-1-0.3c-0.5,0-1,0-1.6,0c-0.1,0-0.1,0-0.1,0.1
		c0,0.7,0,1.4,0,2.2c0,0.7,0,1.4,0,2.2c0,0.2,0,0.2,0.2,0.2c0.5,0,1.1,0,1.6,0c0.2,0,0.4,0,0.5-0.1c0.6-0.2,1-0.6,1-1.2
		C13.9,19.1,13.9,18.5,13.9,17.8z M13.2,19.8c0,0.4-0.3,0.7-0.8,0.7c-0.3,0-0.6,0-0.8,0c-0.1,0-0.1,0-0.1-0.1c0-0.5,0-1,0-1.5
		c0-0.5,0-1,0-1.5c0-0.1,0-0.1,0.1-0.1c0.3,0,0.6,0,0.9,0c0.4,0,0.7,0.3,0.7,0.7c0,0.4,0,0.8,0,1.2C13.2,19.3,13.2,19.5,13.2,19.8z"
		/>
	<path class="st4" d="M21.2,28.3c0-0.3-0.2-0.6-0.4-0.9c-0.3-0.3-0.7-0.4-1.1-0.4c-0.5,0-1,0-1.6,0c-0.1,0-0.1,0-0.1,0.1
		c0,0.7,0,1.4,0,2.2c0,0.7,0,1.4,0,2.2c0,0.1,0,0.1,0.1,0.1c0.5,0,1.1,0,1.6,0c0.2,0,0.4,0,0.5-0.1c0.6-0.2,1-0.6,1-1.2
		C21.2,29.7,21.2,29,21.2,28.3z M20.4,30.2c0,0.1,0,0.3-0.1,0.4C20.3,30.9,20,31,19.7,31c-0.3,0-0.6,0-0.9,0c-0.1,0-0.1,0-0.1-0.1
		c0-0.5,0-1,0-1.6c0-0.5,0-1,0-1.5c0-0.1,0-0.1,0.1-0.1c0.3,0,0.5,0,0.8,0c0.5,0,0.8,0.3,0.8,0.8C20.4,29.1,20.4,29.7,20.4,30.2z"/>
	<path class="st4" d="M26.9,21c-0.2-0.4-0.4-0.8-0.6-1.2c-0.1-0.2-0.2-0.4-0.3-0.7c0,0,0.1,0,0.1,0c0.1-0.1,0.3-0.1,0.4-0.2
		c0.5-0.4,0.5-1.2,0.3-1.7c-0.3-0.5-0.7-0.7-1.2-0.7c-0.6,0-1.2,0-1.8,0c-0.1,0-0.1,0-0.1,0.1c0,0.6,0,1.2,0,1.9c0,0.8,0,1.6,0,2.5
		c0,0.1,0,0.1,0.1,0.1c0.2,0,0.3,0,0.5,0c0.1,0,0.1,0,0.1-0.1c0-0.6,0-1.2,0-1.7c0-0.1,0-0.1,0.1-0.1c0.2,0,0.4,0,0.6,0
		c0.1,0,0.1,0,0.2,0.1c0.3,0.6,0.5,1.2,0.8,1.8c0,0.1,0.1,0.1,0.1,0.1c0.2,0,0.4,0,0.6,0C26.9,21.1,26.9,21.1,26.9,21z M25.4,18.5
		c-0.3,0-0.6,0-1,0c-0.1,0-0.1,0-0.1-0.1c0-0.2,0-0.4,0-0.6c0-0.2,0-0.4,0-0.6c0-0.1,0-0.1,0.1-0.1c0.3,0,0.6,0,1,0
		c0.4,0,0.7,0.3,0.7,0.7C26.1,18.2,25.8,18.5,25.4,18.5z"/>
	<path class="st4" d="M57.5,21c-0.2-0.4-0.4-0.7-0.5-1.1c-0.1-0.3-0.2-0.5-0.4-0.8c0,0,0.1,0,0.1,0c0.1-0.1,0.3-0.1,0.4-0.2
		c0.4-0.3,0.5-0.8,0.4-1.3c-0.1-0.6-0.6-1-1.3-1c-0.6,0-1.2,0-1.8,0c-0.1,0-0.1,0-0.1,0.1c0,0.1,0,0.3,0,0.4c0,1.3,0,2.6,0,3.9
		c0,0.1,0,0.1,0.1,0.1c0.2,0,0.3,0,0.5,0c0.1,0,0.1,0,0.1-0.1c0-0.6,0-1.1,0-1.7c0-0.1,0-0.1,0.1-0.1c0.2,0,0.4,0,0.6,0
		c0.1,0,0.1,0,0.2,0.1c0.3,0.6,0.5,1.2,0.8,1.8c0,0.1,0.1,0.1,0.1,0.1c0.2,0,0.4,0,0.6,0C57.6,21.1,57.6,21.1,57.5,21z M56.1,18.5
		c-0.3,0-0.6,0-1,0c-0.1,0-0.1,0-0.1-0.1c0-0.2,0-0.4,0-0.6c0-0.2,0-0.4,0-0.6c0-0.1,0-0.1,0.1-0.1c0.3,0,0.6,0,1,0
		c0.4,0,0.7,0.3,0.7,0.7C56.7,18.2,56.5,18.5,56.1,18.5z"/>
	<path class="st4" d="M54.4,28.6c0-0.6-0.4-1.2-0.9-1.4c-0.3-0.1-0.6-0.1-1-0.1c-0.8,0.1-1.4,0.7-1.5,1.6c0,0.5,0,1,0,1.5
		c0,0.1,0,0.2,0,0.3c0.1,0.5,0.3,0.9,0.8,1.2c0.4,0.2,0.8,0.2,1.2,0.2c0.7-0.1,1.3-0.7,1.3-1.4c0-0.3,0-0.6,0-0.9c0,0,0,0,0,0
		C54.4,29.1,54.4,28.8,54.4,28.6z M53.7,30.2c0,0.3-0.1,0.5-0.3,0.7c-0.3,0.2-0.6,0.3-1,0.1c-0.3-0.1-0.5-0.4-0.5-0.8
		c0-0.3,0-0.6,0-0.9c0,0,0,0,0,0c0-0.3,0-0.6,0-0.9c0-0.5,0.4-0.8,0.8-0.8c0.5,0,0.9,0.2,1,0.7c0,0.1,0,0.2,0,0.2
		C53.7,29.1,53.7,29.7,53.7,30.2z"/>
	<path class="st4" d="M41.4,28.6c0-0.6-0.4-1.2-0.9-1.4c-0.3-0.1-0.6-0.1-1-0.1c-0.9,0.1-1.5,0.7-1.5,1.6c0,0.5,0,1,0,1.5
		c0,0.1,0,0.2,0,0.3c0.1,0.5,0.3,0.9,0.8,1.2c0.4,0.2,0.8,0.2,1.2,0.2c0.7-0.1,1.3-0.7,1.3-1.4c0-0.3,0-0.6,0-0.9c0,0,0,0,0,0
		C41.4,29.1,41.4,28.8,41.4,28.6z M40.6,30.2c0,0.4-0.2,0.7-0.6,0.9c-0.4,0.1-0.8,0-1.1-0.3c-0.1-0.2-0.2-0.4-0.2-0.6
		c0-0.3,0-0.5,0-0.8c0,0,0,0,0,0c0-0.3,0-0.6,0-0.9c0-0.6,0.5-0.9,1-0.8c0.5,0.1,0.8,0.4,0.8,0.9C40.6,29.1,40.6,29.7,40.6,30.2z"/>
	<path class="st4" d="M19.9,21C19.8,21,19.8,21,19.9,21c-0.3-0.9-0.6-1.7-0.8-2.5c-0.2-0.6-0.4-1.2-0.6-1.9c0-0.1-0.1-0.1-0.2-0.1
		c-0.1,0-0.2,0-0.4,0c-0.1,0-0.2,0-0.3,0c-0.1,0-0.1,0-0.2,0.1c-0.3,0.9-0.6,1.7-0.8,2.6c-0.2,0.6-0.4,1.2-0.6,1.8
		c0,0.1,0,0.1,0.1,0.1c0.2,0,0.4,0,0.6,0c0.1,0,0.1,0,0.1-0.1c0.1-0.2,0.1-0.4,0.2-0.6c0-0.1,0-0.1,0.1-0.1c0.5,0,1.1,0,1.6,0
		c0.1,0,0.1,0,0.1,0.1c0.1,0.2,0.1,0.4,0.2,0.6c0,0.1,0,0.1,0.1,0.1C19.4,21.1,19.6,21.1,19.9,21C19.8,21.1,19.9,21.1,19.9,21z
		 M18.5,19.7c-0.4,0-0.8,0-1.2,0c-0.1,0-0.1,0-0.1-0.1c0.2-0.7,0.4-1.4,0.6-2.1c0,0,0,0,0-0.1c0,0,0,0,0,0
		C18.2,18.2,18.4,18.9,18.5,19.7C18.6,19.7,18.6,19.7,18.5,19.7z"/>
	<path class="st4" d="M41.8,20.9c-0.2-0.5-0.3-1-0.5-1.5c-0.3-1-0.6-1.9-0.9-2.9c0-0.1-0.1-0.1-0.2-0.1c-0.2,0-0.5,0-0.7,0
		c-0.1,0-0.1,0-0.2,0.1c-0.3,1-0.6,2-0.9,2.9C38.3,20,38.1,20.5,38,21c0,0.1,0,0.2,0.1,0.2c0.2,0,0.4,0,0.6,0c0.1,0,0.1,0,0.1-0.1
		c0.1-0.2,0.1-0.4,0.2-0.6c0-0.1,0.1-0.1,0.1-0.1c0.5,0,1.1,0,1.6,0c0.1,0,0.1,0,0.1,0.1c0.1,0.2,0.1,0.4,0.2,0.6
		c0,0.1,0,0.1,0.1,0.1c0.1,0,0.2,0,0.3,0c0.1,0,0.2,0,0.3,0C41.8,21.1,41.9,21.1,41.8,20.9z M40.5,19.7c-0.4,0-0.8,0-1.2,0
		c-0.1,0-0.1,0-0.1-0.1c0.2-0.7,0.4-1.4,0.6-2.1c0,0,0,0,0-0.1c0,0,0,0,0,0C40.1,18.2,40.4,18.9,40.5,19.7
		C40.6,19.7,40.5,19.7,40.5,19.7z"/>
	<path class="st4" d="M25.4,31.5c-0.3-0.8-0.5-1.6-0.8-2.4c-0.2-0.6-0.4-1.3-0.6-1.9c0-0.1-0.1-0.1-0.2-0.1c-0.1,0-0.2,0-0.3,0
		c-0.1,0-0.2,0-0.3,0c-0.1,0-0.1,0-0.2,0.1c-0.3,0.9-0.6,1.8-0.9,2.7c-0.2,0.5-0.4,1.1-0.5,1.6c0,0.1,0,0.1,0.1,0.1
		c0.2,0,0.4,0,0.6,0c0.1,0,0.1,0,0.1-0.1c0.1-0.2,0.1-0.4,0.2-0.6c0-0.1,0.1-0.1,0.1-0.1c0.5,0,1.1,0,1.6,0c0.1,0,0.1,0,0.1,0.1
		c0.1,0.2,0.1,0.4,0.2,0.6c0,0.1,0.1,0.1,0.2,0.1c0.2,0,0.4,0,0.6,0C25.4,31.7,25.4,31.7,25.4,31.5z M24.1,30.3c-0.4,0-0.8,0-1.2,0
		c-0.1,0-0.1,0-0.1-0.1c0.2-0.7,0.4-1.4,0.6-2.1c0,0,0,0,0.1-0.1C23.7,28.8,24,29.5,24.1,30.3C24.1,30.3,24.1,30.3,24.1,30.3z"/>
	<path class="st4" d="M5.1,16.5c-0.6,0-1.3,0-1.9,0c-0.1,0-0.1,0-0.1,0.1c0,1.5,0,2.9,0,4.4c0,0.1,0,0.1,0.1,0.1c0.2,0,0.3,0,0.5,0
		c0.1,0,0.1,0,0.1-0.1c0-0.5,0-1.1,0-1.6c0,0,0-0.1,0-0.1c0,0,0.1,0,0.1,0c0.4,0,0.7,0,1.1,0c0.7,0,1.2-0.4,1.3-1.2
		C6.4,17.2,5.9,16.5,5.1,16.5z M5.4,18.4c-0.1,0.1-0.3,0.2-0.5,0.2c-0.3,0-0.6,0-0.9,0c-0.1,0-0.1,0-0.1-0.1c0-0.2,0-0.4,0-0.7
		c0-0.2,0-0.4,0-0.6c0-0.1,0-0.1,0.1-0.1c0.3,0,0.6,0,1,0c0.3,0,0.6,0.2,0.7,0.4C5.7,17.9,5.6,18.2,5.4,18.4z"/>
</g>
<g id="CCGI" class="st0">
	<path class="st4" d="M15.5,43.2c-0.3-0.2-0.6-0.4-0.9-0.6c0.8-1.4,1.6-2.8,2.4-4.2c-1.1-0.7-2.2-1.3-3.3-1.9
		c-0.5-0.3-0.7-0.5-0.6-1.1c0-1,0-2.1,0-3.1c0-0.6-0.2-0.8-0.8-0.8c-1.1,0-2.2,0-3.4,0c-0.4,0-0.7,0-0.7-0.5c0-0.5,0.3-0.6,0.7-0.6
		c1.2,0,2.3,0,3.5,0c0.5,0,0.7-0.2,0.7-0.7c0-1.2,0-2.4,0-3.7c0-0.5-0.2-0.7-0.7-0.7c-1.2,0-2.3,0-3.5,0c-0.4,0-0.7,0-0.7-0.5
		c0-0.5,0.3-0.5,0.7-0.5c1.1,0,2.3,0,3.4,0c0.6,0,0.8-0.2,0.8-0.8c0-1.2,0-2.3,0-3.5c0-0.6-0.2-0.8-0.8-0.7c-1.2,0-2.3,0-3.5,0
		c-0.4,0-0.6-0.1-0.6-0.5c0-0.4,0.2-0.6,0.6-0.6c1.2,0,2.4,0,3.6,0c0.5,0,0.7-0.2,0.7-0.7c0-1.1,0-2.2,0-3.3c0-0.5,0.1-0.8,0.6-1
		c1.1-0.6,2.2-1.3,3.4-1.9c-0.8-1.4-1.6-2.8-2.4-4.2c0.3-0.2,0.6-0.4,0.9-0.6c0.8,1.4,1.6,2.8,2.5,4.2c1.4-0.8,2.8-1.6,4.3-2.5
		c-0.8-1.4-1.6-2.8-2.4-4.2c0.3-0.2,0.6-0.4,1-0.6c0.8,1.4,1.6,2.7,2.5,4.2c1.4-0.8,2.8-1.6,4.3-2.5c-0.8-1.4-1.6-2.8-2.4-4.2
		c0.3-0.2,0.6-0.4,1-0.6c0.8,1.4,1.6,2.8,2.5,4.2c0.9-0.5,1.9-1,2.7-1.6c0.9-0.7,1.7-0.7,2.6,0c0.8,0.6,1.7,1,2.6,1.5
		c0.8-1.4,1.6-2.8,2.4-4.2c0.3,0.2,0.6,0.4,1,0.6c-0.8,1.4-1.6,2.8-2.4,4.2c1.4,0.8,2.8,1.6,4.2,2.4c0.8-1.4,1.6-2.8,2.4-4.2
		c0.3,0.2,0.6,0.4,1,0.6c-0.8,1.4-1.6,2.8-2.4,4.2c1.4,0.8,2.8,1.6,4.2,2.4c0.8-1.4,1.6-2.8,2.4-4.2c0.3,0.2,0.6,0.4,1,0.6
		c-0.8,1.4-1.6,2.8-2.4,4.2c1.1,0.6,2.2,1.3,3.3,1.9c0.6,0.3,0.7,0.6,0.7,1.3c-0.1,1,0,2,0,3.1c0,0.5,0.2,0.7,0.7,0.7
		c1.4,0,2.7,0,4.1,0c0,0.4,0,0.7,0,1.2c-0.6,0-1.2,0-1.9,0c-0.7,0-1.3,0-2,0c-1,0-1,0-1,1c0,1.2,0,2.5,0,3.8c0.9,0,1.7,0,2.4,0
		c0.6,0,1.2,0,1.8,0c0.5,0,0.7,0.1,0.7,0.6c0,0.6-0.3,0.6-0.7,0.6c-1.2,0-2.4,0-3.6,0c-0.2,0-0.5,0.2-0.5,0.4c0,1.5,0,3,0,4.5
		c1.6,0,3.2,0,4.8,0c0,0.4,0,0.7,0,1.2c-1.2,0-2.4,0-3.6,0c-1.3,0-1.2-0.1-1.2,1.2c0,0.9,0,1.9,0,2.8c0,0.4-0.1,0.7-0.5,0.9
		c-1.1,0.6-2.2,1.3-3.4,2c0.8,1.4,1.6,2.8,2.4,4.2c-0.3,0.2-0.6,0.4-1,0.6c-0.8-1.4-1.6-2.8-2.4-4.2c-1.4,0.8-2.8,1.6-4.2,2.4
		c0.8,1.4,1.6,2.8,2.4,4.2c-0.3,0.2-0.6,0.4-1,0.6c-0.8-1.4-1.6-2.8-2.4-4.2c-1.4,0.8-2.8,1.6-4.2,2.4c0.8,1.4,1.6,2.8,2.4,4.2
		c-0.3,0.2-0.6,0.4-1,0.6c-0.8-1.4-1.6-2.8-2.4-4.2c-1.1,0.6-2.2,1.2-3.2,1.9c-0.5,0.4-1,0.3-1.5,0c-1-0.7-2.1-1.2-3.2-1.9
		c-0.8,1.4-1.6,2.8-2.4,4.2c-0.3-0.2-0.6-0.4-1-0.6c0.8-1.4,1.6-2.7,2.4-4.2c-1.4-0.8-2.8-1.6-4.3-2.5c-0.8,1.4-1.6,2.8-2.4,4.2
		c-0.3-0.2-0.6-0.4-1-0.6c0.8-1.4,1.6-2.8,2.4-4.2c-1.4-0.8-2.8-1.6-4.3-2.5C17.1,40.4,16.3,41.8,15.5,43.2z M43.3,24.9
		c0-6-4.8-10.8-10.7-10.8c-6,0-10.8,4.8-10.8,10.8c0,6,4.8,10.8,10.8,10.8C38.5,35.6,43.3,30.8,43.3,24.9z M33.4,5.6
		c0,0,0,0.1-0.1,0.1c0.1,0.1,0.3,0.3,0.4,0.4c4.2,3.3,8.3,6.6,12.5,9.9c0.3,0.2,0.7,0.6,0.7,0.9c0.7,4.8,1.4,9.6,2.1,14.4
		c0.1,0.9,0.3,1.8,0.4,2.8c0.1,0,0.1,0,0.2,0c0-0.2,0-0.5,0-0.7c0-5.9,0-11.7,0-17.6c0-0.6-0.2-1-0.7-1.3C44,11.7,39,8.9,34.1,6
		C33.8,5.9,33.6,5.8,33.4,5.6z M31.7,5.8c0,0-0.1-0.1-0.1-0.1c-0.1,0-0.2,0.1-0.3,0.1c-5.2,3-10.3,5.9-15.5,8.9
		c-0.4,0.2-0.5,0.5-0.5,1c0,6,0,12,0,18c0,0.2,0,0.4,0,0.6c0.1-0.3,0.2-0.6,0.3-0.9c0.8-5.4,1.6-10.8,2.4-16.1
		c0.1-0.4,0.3-0.8,0.6-1.1c3.6-2.9,7.2-5.7,10.8-8.5C30.2,7,30.9,6.4,31.7,5.8z M16.3,35.1c0,0,0,0.1-0.1,0.1
		c0.2,0.1,0.3,0.3,0.5,0.4c5,2.9,10.1,5.8,15.1,8.7c0.5,0.3,0.8,0.2,1.3,0c5-2.9,10.1-5.8,15.1-8.7c0.2-0.1,0.4-0.3,0.6-0.4
		c-0.4,0-0.6,0.1-0.9,0.2c-4.9,2-9.8,3.9-14.7,5.9c-0.5,0.2-0.9,0.2-1.5,0c-4.8-1.9-9.7-3.9-14.6-5.8C16.9,35.4,16.6,35.3,16.3,35.1
		z"/>
	<path class="st4" d="M32.5,25.7c-2,1.9-4.3,3-7.1,3c0-0.2-0.1-0.3-0.1-0.5c0-0.1,0-0.3,0-0.5c0.9,0.1,0.9-0.5,0.9-1.2
		c0-1.2,0-2.3,0-3.5c0-0.6-0.1-0.9-0.8-0.9c0-0.3,0-0.6,0-1c2.8-0.1,5.1,1.1,7.1,3c2-2.1,4.3-3.1,7.2-3c0,0.4,0,0.7,0,1.1
		c-0.9-0.1-0.8,0.5-0.8,1.2c0,1.1,0,2.3,0,3.4c0,0.8,0,0.8,0.8,0.9c0,0.3,0,0.7,0,1.1C36.8,28.8,34.5,27.8,32.5,25.7z M37.6,22.4
		c-0.3,0-0.5,0.1-0.7,0.1c-1,0.3-1,0.3-1,1.4c0,0.7,0,1.3,0,2c0,1.1,0.5,1.5,1.7,1.3C37.6,25.6,37.6,24.1,37.6,22.4z M27.3,27.4
		c0.4-0.1,0.6-0.2,0.9-0.2c0.7-0.2,1-0.6,0.9-1.3c-0.1-0.6,0-1.2,0-1.8c0-1.1-0.6-1.6-1.8-1.5C27.3,24.1,27.3,25.7,27.3,27.4z
		 M33.3,24.9c0.5,0.4,0.9,0.8,1.4,1.3c0-0.9,0-1.6,0-2.5C34.2,24.1,33.8,24.4,33.3,24.9z M30.2,26.1c0.5-0.5,1-0.8,1.4-1.2
		c-0.5-0.4-0.9-0.8-1.4-1.2C30.2,24.5,30.2,25.2,30.2,26.1z"/>
</g>
<g id="HTAN" class="st0">
	<g class="st2">
		<path class="st5" d="M60.8,25.8c0-3.2,0-6.4,0-9.6c1.2,0,2.4,0,3.6,0c0,5.3,0,10.6,0,15.9c-0.1,0-0.2,0-0.3,0c-0.8,0-1.6,0-2.4,0
			c-0.2,0-0.3-0.1-0.4-0.2c-2-2.5-4.1-5-6.1-7.4c-0.5-0.6-1-1.2-1.5-1.9c0,0-0.1-0.1-0.2-0.2c0,3.2,0,6.4,0,9.7c-1.2,0-2.4,0-3.6,0
			c0-0.1,0-0.2,0-0.3c0-5.1,0-10.2,0-15.2c0-0.4,0-0.4,0.4-0.4c0.8,0,1.6,0,2.4,0c0.2,0,0.3,0.1,0.4,0.2c2.5,3,5,6.1,7.4,9.1
			C60.5,25.6,60.6,25.7,60.8,25.8C60.7,25.8,60.8,25.8,60.8,25.8z"/>
		<path class="st5" d="M0.5,16.2c1.2,0,2.4,0,3.6,0c0,2.1,0,4.2,0,6.3c2.4,0,4.9,0,7.3,0c0-2.1,0-4.2,0-6.3c0.1,0,0.2,0,0.3,0
			c1,0,2.1,0,3.1,0c0.2,0,0.3,0.1,0.3,0.3c0,5.1,0,10.3,0,15.4c0,0.1,0,0.1,0,0.2c-0.1,0-0.2,0-0.3,0c-1,0-2.1,0-3.1,0
			c-0.2,0-0.3-0.1-0.3-0.3c0-2,0-3.9,0-5.9c0-0.1,0-0.2,0-0.4c-2.4,0-4.8,0-7.3,0c0,2.2,0,4.3,0,6.5c-1.2,0-2.4,0-3.6,0
			C0.5,26.8,0.5,21.5,0.5,16.2z"/>
		<path class="st5" d="M48.1,32.1c-1,0-2,0-2.9,0c-0.3,0-0.7,0.1-0.9,0c-0.2-0.1-0.3-0.5-0.4-0.8c-0.3-0.8-0.7-1.6-1-2.4
			c-0.1-0.2-0.2-0.2-0.3-0.2c-2.3,0-4.6,0-7,0c-0.2,0-0.3,0.1-0.3,0.2c-0.4,1-0.8,2-1.2,3c-0.1,0.2-0.2,0.2-0.4,0.2
			c-1.1,0-2.2,0-3.2,0c-0.1,0-0.1,0-0.3,0c0.1-0.1,0.1-0.2,0.1-0.3c2.3-5.1,4.6-10.2,6.8-15.3c0.1-0.2,0.2-0.3,0.4-0.3
			c1,0,2.1,0,3.1,0c0.2,0,0.3,0.1,0.4,0.2c1.6,3.6,3.2,7.2,4.8,10.7c0.7,1.5,1.4,3.1,2.1,4.6C47.9,31.9,48,32,48.1,32.1z M41.6,25.9
			c-0.8-2.1-1.7-4.1-2.5-6.1c0,0,0,0-0.1,0c-0.8,2-1.7,4-2.5,6.1C38.3,25.9,39.9,25.9,41.6,25.9z"/>
		<path class="st5" d="M31.1,16.2c0,0.2,0,0.4,0,0.6c0,0.7,0,1.4,0,2c0,0.3-0.1,0.3-0.3,0.3c-1.5,0-3,0-4.4,0
			c-0.3,0-0.4,0.1-0.4,0.4c0,4.1,0,8.2,0,12.2c0,0.1,0,0.2,0,0.4c-1.2,0-2.4,0-3.7,0c0-4.3,0-8.6,0-13c-1.7,0-3.4,0-5.1,0
			c0-0.5,0-1,0-1.5c0-0.4,0-0.8,0-1.2c0-0.2,0.1-0.3,0.3-0.3c0.3,0,0.6,0,0.8,0c4.1,0,8.2,0,12.4,0C30.8,16.2,30.9,16.2,31.1,16.2z"
			/>
	</g>
</g>
<g id="CCSS" class="st0">
	<path class="st4" d="M56.9,12.7c0.6,0.1,1.3,0.2,1.9,0.4c2.5,0.7,4.3,2.9,4.5,5.4c0,0.3,0.1,0.5,0.1,0.8c-0.9,0-1.8,0-2.7,0
		c-0.1-0.3-0.1-0.6-0.2-0.9c-0.4-1.8-1.6-2.7-3.3-3.1c-1.6-0.4-3.1-0.3-4.6,0.4c-1.5,0.7-2.1,2.5-1.6,3.8c0.2,0.6,0.7,1,1.3,1.3
		c1.1,0.6,2.3,0.8,3.5,1.1c1.6,0.4,3.3,0.8,4.9,1.4c1.6,0.6,2.9,1.6,3.3,3.3c0.7,2.8,0,5.2-2.8,6.8c-1.4,0.8-2.9,1.1-4.4,1.2
		c-1.6,0.1-3.2-0.1-4.7-0.6c-1.2-0.4-2.3-1.1-3.2-2.1c-0.2,0.2-0.4,0.5-0.6,0.6c-1.3,1.2-2.9,1.7-4.5,1.9c-1.9,0.3-3.7,0.2-5.5-0.4
		c-1.5-0.5-2.8-1.3-3.8-2.6c0-0.1-0.1-0.1-0.2-0.2c-0.8,1-1.7,1.8-2.8,2.4c-1.2,0.6-2.4,0.8-3.7,0.9c-1.2,0.1-2.5,0-3.7-0.3
		c-2.7-0.7-4.5-2.3-5.7-4.8c-0.1,0.1-0.1,0.2-0.2,0.3c-1.1,2.8-3.3,4.3-6.2,4.7c-1.8,0.3-3.6,0.2-5.3-0.4c-2.6-0.9-4.3-2.7-5.3-5.2
		c-0.8-2-1-4.1-0.9-6.3c0.2-2.1,0.7-4.1,1.9-5.9c1.6-2.4,3.8-3.7,6.6-4c0,0,0.1,0,0.1-0.1c0.8,0,1.7,0,2.5,0c0.1,0,0.2,0.1,0.3,0.1
		c1.9,0.2,3.6,0.9,4.9,2.2c0.8,0.8,1.3,1.7,1.7,2.8c0.1-0.1,0.1-0.2,0.2-0.3c1.1-2.1,2.8-3.5,4.9-4.2c0.7-0.3,1.5-0.4,2.3-0.5
		c0.8,0,1.6,0,2.4,0c0.1,0,0.1,0.1,0.2,0.1c1.7,0.2,3.2,0.8,4.6,1.8c0.5,0.4,1,0.9,1.5,1.3c0.8-1.5,2.3-2.3,4-2.8
		c0.5-0.2,1.1-0.2,1.7-0.4c0.8,0,1.6,0,2.4,0c0.6,0.1,1.1,0.2,1.7,0.3c1.3,0.3,2.4,1,3.3,2c0.3,0.4,0.5,0.8,0.8,1.2
		c0.9-1.6,2.2-2.5,3.9-3c0.7-0.2,1.3-0.3,2-0.4C55.3,12.7,56.1,12.7,56.9,12.7z M33.3,26.2c0.6,0.2,1.2,0.5,1.9,0.8
		c0.4,0.1,0.5,0.3,0.6,0.7c0.5,1.9,1.5,3.4,3.3,4.1c1.3,0.5,2.7,0.6,4.1,0.5c1-0.1,2-0.4,2.8-0.9c1.7-1.2,2-4.3-0.4-5.4
		c-1.1-0.5-2.2-0.8-3.3-1.1c-1.6-0.4-3.2-0.7-4.8-1.3c-2-0.7-3.4-1.9-3.5-4.1c-0.3,0.1-0.6,0.1-0.9,0.2c0-0.1-0.1-0.1-0.1-0.1
		c0-0.1,0-0.2-0.1-0.3c-0.3-1-0.7-1.9-1.6-2.6c-1.3-1.1-2.9-1.5-4.5-1.5c-2,0.1-3.7,0.9-5,2.5c-1.2,1.5-1.6,3.3-1.7,5.2
		c-0.1,1.4,0,2.8,0.4,4.2c0.4,1.5,1.1,2.9,2.4,3.9c1.5,1.1,3.1,1.5,4.9,1.3c2.2-0.2,3.8-1.4,4.7-3.4C32.9,28,33.1,27.1,33.3,26.2z
		 M16.2,19.7c-0.1-0.4-0.2-0.7-0.3-1c-0.5-1.5-1.4-2.6-2.9-3.1c-1.1-0.4-2.3-0.5-3.5-0.4c-2.6,0.3-4.4,1.8-5.4,4.2
		c-0.9,2.2-1,4.5-0.5,6.9c0.3,1.5,0.9,2.9,2,4.1c1.3,1.4,3,2,4.9,2c2.4,0,4.6-1.5,5.4-3.7c0.3-0.7,0.4-1.5,0.6-2.3
		c0.1,0,0.3,0.1,0.4,0.2c0.2,0.1,0.3,0.1,0.5,0.2c-0.5-2.6-0.3-5.1,0.6-7.6C17.4,19.3,16.8,19.5,16.2,19.7z M46.6,19.4
		c0-0.2,0-0.4-0.1-0.6c-0.2-1.2-0.7-2.2-1.8-2.8c-2-1.2-4.2-1.2-6.3-0.3c-1.3,0.6-1.8,1.7-1.7,3.1c0,1.2,0.8,1.8,1.8,2.2
		c1.1,0.4,2.3,0.7,3.5,1c1.8,0.4,3.7,0.8,5.4,1.7c1.3,0.7,2.2,1.7,2.5,3.2c0.1,0.5,0.1,1,0.2,1.5c0.4,1.7,1.4,2.7,3,3.3
		c2,0.8,4,0.7,6,0c1.4-0.5,2.1-1.6,2.2-3c0.1-1.3-0.7-2.4-2-3c-0.9-0.3-1.8-0.6-2.7-0.8c-1.8-0.5-3.6-0.9-5.3-1.4
		c-1.8-0.6-3.1-1.8-3.3-3.8c0-0.1,0-0.2-0.1-0.3C47.5,19.4,47.1,19.4,46.6,19.4z"/>
</g>
<g id="UTAH">
	<path class="st5" d="M60.5,49.5c-3.2,0-6.3,0-9.3,0c-3.4,0-6.8,0-10.3,0c-0.8,0-1.4,0-1.5-1c-0.3-1.3-1.2-1.8-2.5-1.9
		c-2.8,0-5.5,0-8.3,0c-1.7,0-2.1,0.5-3,2.8c-0.6,0-1.3,0-2,0c-5.8,0-11.6,0-17.4,0c-0.7,0-1.6,0-1.4-1c0.2-1.1-0.9-2.6,1-3.1
		c0.1,0,0.2,0,0.3-0.1c4-0.8,4-0.8,4-5c0-11,0-22,0-33.1C10,5.8,9.7,5,8.2,5C8.1,5,7.9,5,7.7,4.9c-3.5-0.6-3.5-0.6-3-4.3
		c6.9,0,13.8,0,20.8,0c1.2,2.9,1.2,2.9,4.5,2.9c2.2,0,4.5,0,6.7,0c1.4,0,2.4-0.5,2.7-2c0.1-0.4,0.7-0.9,1-0.9c6.7-0.1,13.3,0,20.3,0
		c0,1.2,0.1,2.2,0,3.2c0,0.3-0.4,0.6-0.7,0.9c-0.1,0.1-0.3,0-0.5,0.1c-1.3,0.3-3.2,0.3-3.9,1.1c-0.7,0.8-0.2,2.6-0.2,3.9
		c0,11,0,21.9,0,32.9c0,1.5,0.3,2.4,2,2.4c0.2,0,0.3,0.1,0.5,0.1C61.1,45.6,61.2,45.7,60.5,49.5z M35.8,20.2c0-1.8-1.4-3.2-3.2-3.2
		c-1.8,0-3.2,1.5-3.2,3.2c0,1.7,1.4,3.1,3.1,3.1C34.4,23.3,35.8,22,35.8,20.2z M33.2,33c1.7,0,3.2-1.5,3.2-3.2
		c0-1.7-1.4-3.1-3.1-3.1c-1.8,0-3.2,1.3-3.3,3.1C30,31.5,31.4,33,33.2,33z M42.1,25.6c0.1-1.3-1-2.6-2.3-2.7
		c-1.3-0.1-2.5,0.9-2.6,2.3c-0.1,1.4,0.9,2.6,2.3,2.6C40.8,27.9,42,26.9,42.1,25.6z M28.7,24.6c0-1.4-1-2.5-2.4-2.5
		c-1.4,0-2.5,1-2.5,2.4c0,1.4,1,2.5,2.4,2.5C27.6,27.1,28.7,26,28.7,24.6z M38.6,12.8c-1.3,0-2.4,1.1-2.4,2.3c0,1.2,1,2.3,2.2,2.3
		c1.3,0.1,2.4-1,2.5-2.3C41,14,39.9,12.9,38.6,12.8z M29.6,34.8c0-1.4-0.9-2.3-2.3-2.4c-1.3,0-2.4,1-2.4,2.3c0,1.2,1,2.2,2.3,2.3
		C28.5,37.2,29.6,36.2,29.6,34.8z M20.9,4.3c0.1,1,0.8,1.6,2,1.7c1.1,0.1,2.1-1,2-2.1c-0.1-1.2-0.8-1.9-2-1.9
		C21.7,1.9,20.8,2.9,20.9,4.3z M45,45.9c-0.1-1.1-0.7-1.8-1.9-1.9C42,43.9,41,44.8,41,46c0,1.2,0.7,1.9,1.9,2
		C44,48.1,45,47.1,45,45.9z M44.6,19.9c-0.1-1.2-0.7-1.9-1.8-1.9c-1.1,0-1.8,0.7-1.8,1.7c0,1.1,0.6,1.8,1.8,1.9
		C44,21.7,44.5,21,44.6,19.9z M25.4,29.6c-0.5-0.3-1.1-1.2-1.9-1.3c-1.1-0.2-2,0.7-1.8,1.8c0.1,0.7,1,1.6,1.7,1.8
		C24.5,32.1,25.2,31.3,25.4,29.6z M21.3,39.2c0,0.3,0,0.5,0,0.8c0.7,0.5,1.3,1.3,2.1,1.4c1.1,0.2,1.8-0.6,1.9-1.7
		c0-1.2-0.7-1.9-1.8-1.8C22.7,38,22.1,38.7,21.3,39.2z M39.9,9.9c0,0.3,0,0.5,0,0.8c0.7,0.5,1.4,1.3,2.1,1.4
		c1.1,0.2,1.8-0.7,1.8-1.8c0-1.1-0.7-1.9-1.7-1.7C41.3,8.6,40.6,9.4,39.9,9.9z M41.2,41.4c0-0.3,0-0.5,0-0.8c-0.7-0.4-1.4-1.3-2-1.2
		c-0.6,0-1.5,0.9-1.6,1.5c-0.3,1,0.6,1.9,1.6,1.7C39.9,42.6,40.5,41.8,41.2,41.4z M28.6,9.4c0-0.3,0-0.5,0-0.8
		c-0.7-0.5-1.3-1.2-2-1.3C25.6,7.2,24.7,8,25,9c0.1,0.6,1,1.5,1.6,1.6C27.2,10.6,27.9,9.8,28.6,9.4z M36.2,38c0-0.2,0-0.5,0-0.7
		c-0.6-0.4-1.3-1.1-1.9-1.1c-0.6,0-1.4,0.9-1.5,1.5c-0.2,0.9,0.6,1.7,1.6,1.5C35,39.1,35.6,38.5,36.2,38z M33.4,12.6
		c0-0.2,0-0.5,0-0.7c-0.6-0.4-1.1-1-1.8-1.1c-1-0.2-1.7,0.5-1.5,1.5c0.1,0.6,0.9,1.4,1.4,1.5C32.1,13.7,32.8,13,33.4,12.6z
		 M43.3,5.4c-0.8-0.7-1.4-1.4-1.7-1.3c-0.5,0.1-1.2,0.7-1.3,1.2c-0.1,0.3,0.7,1.2,1.1,1.2C41.8,6.5,42.3,5.9,43.3,5.4z M26.2,44.6
		c-0.8-0.6-1.4-1.3-1.7-1.2c-0.5,0.1-0.9,0.8-1.3,1.2c0.5,0.4,0.9,1.1,1.4,1.2C24.9,45.9,25.5,45.2,26.2,44.6z"/>
</g>
<g id="Default" class="st0">
	<g class="st2">
		<path class="st5" d="M32.3,0.2C18.6,0.2,7.5,11.3,7.5,25s11.1,24.8,24.8,24.8C46,49.7,57.1,38.6,57.1,25S46,0.2,32.3,0.2z
			 M32.3,44.9c-11,0-19.9-9-19.9-19.9c0-11,8.9-19.9,19.9-19.9c11,0,19.9,8.9,19.9,19.9C52.2,35.9,43.3,44.9,32.3,44.9z"/>
		<path class="st5" d="M38.1,31.7c-1.6,1.2-3.6,1.8-5.7,1.8c-2.1,0-4.1-0.7-5.7-1.8c-3,1.5-4.7,3.6-6.2,6.4c3.4,3,7.6,4.6,11.9,4.6
			c4.7,0,9.1-1.9,11.9-4.6C43,35.3,40.8,33,38.1,31.7z"/>
		<path class="st5" d="M25.6,29.8l0.1-0.1c-0.7-1.3-1.8-2.3-3.2-2.9c-0.9,0.7-2.1,1.1-3.3,1.1c-1.2,0-2.4-0.4-3.3-1.1
			c-0.4,0.2-0.8,0.5-1.2,0.8c0.4,2.9,1.7,6.2,4,8.9c0,0,0,0,0.1,0.1C20.3,33.6,22.7,31.2,25.6,29.8z"/>
		<path class="st5" d="M19.3,25.6c1.8,0,3.2-1.4,3.2-3.2c0-1.8-1.4-3.2-3.2-3.2c-1.8,0-3.2,1.4-3.2,3.2
			C16.1,24.2,17.6,25.6,19.3,25.6z"/>
		<path class="st5" d="M32.3,29.7c3,0,5.5-2.5,5.5-5.5s-2.5-5.5-5.5-5.5c-3.1,0-5.5,2.5-5.5,5.5S29.3,29.7,32.3,29.7z"/>
		<path class="st5" d="M45.3,25.6c1.8,0,3.2-1.4,3.2-3.2c0-1.8-1.4-3.2-3.2-3.2c-1.8,0-3.2,1.4-3.2,3.2
			C42.1,24.2,43.6,25.6,45.3,25.6z"/>
		<path class="st5" d="M45.3,27.8c-1.2,0-2.4-0.4-3.3-1.1c-1.3,0.7-2.4,1.7-3.2,2.9l0.1,0.1c3,1.5,5.3,3.8,6.8,6.7
			c2.1-2.5,3.6-5.6,4.1-8.9c-0.4-0.3-0.8-0.6-1.3-0.8C47.7,27.4,46.5,27.8,45.3,27.8z"/>
	</g>
</g>
<g id="Layer_3">
</g>
</svg>
