<?xml version="1.0" encoding="utf-8"?>
<!-- Generator: Adobe Illustrator 26.0.0, SVG Export Plug-In . SVG Version: 6.00 Build 0)  -->
<svg version="1.1" xmlns="http://www.w3.org/2000/svg" xmlns:xlink="http://www.w3.org/1999/xlink" x="0px" y="0px"
	 viewBox="0 0 134.9 58.8" style="enable-background:new 0 0 134.9 58.8;" xml:space="preserve">
<style type="text/css">
	.st0{display:none;}
	.st1{display:inline;fill-rule:evenodd;clip-rule:evenodd;fill:#FFBF17;}
	.st2{display:inline;fill:#FFBF17;}
	.st3{display:inline;}
	.st4{fill:#FFBF17;}
	.st5{fill-rule:evenodd;clip-rule:evenodd;fill:#FFBF17;}
</style>
<g id="Layer_1">
</g>
<g id="StJude" class="st0">
	<path class="st1" d="M103.4,57.1c-1.1-0.6-2.3-1.1-3.6-1.7c-3.9-1.7-8-2.9-12.3-4.2c-1.4-0.4-2.9-0.5-4.3-0.9
		c-0.6-0.2-1.5,0-2.1-0.3c-0.1,0-0.1,0-0.2,0c0,0,0-0.1,0-0.1c0.3-0.3,0.4-0.7,0.7-1c0.6-0.7,1.3-1.8,2-2.4c0.5-0.4,2.3-0.4,3-0.7
		c1.8-0.8,3.1-2.7,3.6-4.8c-0.1-0.1-0.3-0.2-0.4-0.2c-0.1-0.1-0.1,0,0-0.2c0-1-0.5-0.5-0.9-1c-0.5,0-0.7,0.3-1,0.5
		c-0.1-0.2-0.2-0.3-0.3-0.5c-0.9,0.1-1.6,1.2-2,1.8c-0.3,0-0.5,0-0.7,0.2c-0.1,0-0.2,0-0.3,0c0.1-0.3,0.3-0.4,0.6-0.5
		c0-0.1,0-0.2,0-0.2c0.5-0.1,0.5-0.6,0.7-0.9c0-0.5-0.1-0.7-0.2-1c-0.9-0.1-1.3,0.5-1.9,0.9c-0.2,0.1-0.5,0.1-0.7,0.2
		c-0.5,0.2-1.4,0.8-1.8,1.2c-0.4,0.3-0.6,0.8-1,1.1c-0.9,0.7-3.5,2.2-4.9,2.2c0-1.5-0.3-2.9-0.7-4.1c-0.4-1.5-0.4-3-0.9-4.3
		c-0.5-1.1-1.7-2.9-2.5-3.8c-0.1-0.1-0.3-0.1-0.3-0.2c-0.6-0.8-1.1-1.6-1.8-2.1c0,0,0-0.1,0-0.1c1.5,0.4,3.1,1.4,4-0.5
		c0.7-0.1,0.9,0.1,1.5-0.2c0.1-0.3,0-0.8,0.4-1c0.3-0.1,0.7,0,0.9-0.1c0.2-0.1,0.2-0.1,0.3-0.2c0-0.4,0.1-0.8,0.1-1.2
		c0.7-0.1,1.1-0.3,1.6-0.5c0.1-0.3,0.3-0.9,0.2-1.4c-0.1-0.6-0.8-2-0.2-2.7c0.3-0.8,1.3-1,2-1.5c1.2-0.9,1.5-2.2,3-2.9
		c0.6-2.7,0-5-1-7c-2.2-4.3-5.3-7.5-9.9-9.3c-2.3-0.9-6-0.6-8.1,0.2c-3.6,1.6-6.9,5.2-8,9.3c-0.5,1.8,0.3,4.6-0.6,6
		c-0.4,0-0.5,0.1-0.7-0.2c-0.2,0.1-0.1,0.1-0.3,0.2c0.1,0.6,0.3,1.3,0.9,1.6c0.2,0.1,0.5,0.1,0.7,0.2c0.2,0.1,0.3,0.5,0.6,0.7
		c0,0,0,0.1,0,0.1c-0.7,0.1-1.2-0.2-1.9-0.2c0.1,1.9,1.5,2.6,2.7,3.4c0.2,1,0.4,2.6-0.2,3.5c-0.2,0.5-0.9,0.5-1.2,0.7
		c-0.6,0.4-1.1,1.3-1.4,2c-0.3,0.8-0.2,1.9-0.4,2.7c-0.5,1.9-1,3.7-1.5,5.7c-0.3,1.1,0,2.3,0.2,3.1c0,1,0.1,2.1,0.1,3.1
		c0,2.5-0.5,4.9-0.3,7.2c-2,0.1-4.1,0.8-5.9,1.4c-0.8,0.3-1.4,0.2-2.1,0.5c-3.1,1.1-6.2,2.2-9.1,3.5c-1,0.4-2.1,1-3.1,1.5
		c-0.5,0.2-0.9,0.7-1.5,0.8c0,0.1,0,0.2,0,0.2c1.8-0.4,3.6-1.3,5.3-1.9c2.9-1,5.9-1.5,8.9-2.4c2.1-0.6,4.4-0.7,6.5-1.2
		c0.6-0.1,1.3-0.1,1.9-0.2c2.2-0.5,4.9-0.3,7.3-0.8c1,0,2-0.1,3.1-0.1c0.6-0.1,1.6,0.1,2.4-0.1c1-0.2,2.9-0.2,3.9,0
		c0.9,0.2,2-0.1,2.8,0.1c0.5,0,1,0,1.6,0c0.9,0,1.9,0.1,2.7,0.2c0.4,0,0.7,0,1.1,0c1.1,0.3,2.4,0.1,3.6,0.4c2.6,0.6,5.6,0.7,8,1.4
		c1.4,0.4,2.5,0.4,3.9,0.7c2.1,0.6,4.4,1.2,6.4,1.9c1.2,0.4,3.3,0.8,4.1,1.4c0.3-0.1,0.2-0.1,0.3-0.2
		C104.5,57.3,103.9,57.3,103.4,57.1z M69.6,39.8c0,0.1,0,0.1,0,0.2c-3.8,0-7.4,2-8.9,4.2c-0.5,0-0.7-0.3-1.1-0.5
		c-0.5-2.3,3.2-4.2,5-4.8c0.7-0.2,1.7-0.1,2.3-0.5c1.9,0,1.8,0.1,2.8,0.9C69.6,39.5,69.6,39.7,69.6,39.8z"/>
</g>
<g id="PedcBio" class="st0">
	<path class="st1" d="M83.4,1c4.3,0,8.7,0,13,0c0,4.3,0,8.6,0,12.9c-4.3,0-8.7,0-13,0C83.4,9.6,83.4,5.3,83.4,1z"/>
	<path class="st1" d="M81.5,1.1c0,1.2,0,2.3,0,3.5c-8.8,0-17.6,0-26.4,0c-4.5,0-8.9-0.4-10.8,2.2c-1.5,2-1.4,4.8-1.4,8.4
		c0,4.4,0,8.8,0,13.2c-1.1,0-2.2,0-3.4,0c0-6.2,0-12.5,0-18.7c0.4-1.8,1.1-3.5,2-4.8c3.1-4.1,7.8-3.7,14.8-3.7
		C64.6,1.1,73,1.1,81.5,1.1z"/>
	<path class="st1" d="M66.8,28.6c-4.3,0-8.7,0-13,0c-0.1-6.1,3.5-10.1,7.8-11.9c0.5-0.2,4.3-1.7,5-1.1c0.4,0.7,0.1,2.7,0.1,3.6
		C66.8,22.4,66.8,25.5,66.8,28.6z"/>
	<path class="st1" d="M68.7,15.5c4.3,0,8.6,0,12.9,0c0,4.3,0,8.7,0,13c-4.3,0-8.6,0-12.9,0C68.7,24.2,68.7,19.8,68.7,15.5z"/>
	<path class="st1" d="M83.4,15.5c4.3,0,8.7,0,13,0c-0.1,7.2-5.6,13-13,13C83.4,24.2,83.4,19.8,83.4,15.5z"/>
	<path class="st1" d="M92.7,28.6c1.2,0,2.3,0,3.5,0c0,4.8,0,9.7,0,14.5c0,2.4,0.4,5.4-0.2,7.3c-0.4,1.4-1.1,2.8-1.9,3.8
		c-3,4-7.6,3.6-14.4,3.6c-8.6,0-17.1,0-25.7,0c0-1.1,0-2.2,0-3.4c8.8,0,17.6,0,26.4,0c4.6,0,9.1,0.4,11.1-2.3
		c1.4-1.9,1.3-4.8,1.3-8.3C92.7,38.9,92.7,33.7,92.7,28.6z"/>
	<path class="st1" d="M52.3,30.4c0,4.3,0,8.7,0,13c-1.1,0.4-2.9,0.1-4.2,0.1c-2.9,0-5.8,0-8.8,0C39.2,36.2,45,30.4,52.3,30.4z"/>
	<path class="st1" d="M53.9,30.4c4.3,0,8.6,0,12.9,0c0,4.4,0,8.7,0,13.1c-4.2,0-8.5,0-12.7,0c-0.4-1.1-0.1-2.9-0.1-4.2
		C53.9,36.3,53.9,33.4,53.9,30.4z"/>
	<path class="st1" d="M68.7,30.4c4.3,0,8.6,0,12.9,0c0.1,7.4-5.7,13-12.9,13.1C68.7,39.1,68.7,34.8,68.7,30.4z"/>
	<path class="st1" d="M39.3,45.4c4.3,0,8.7,0,13,0c0,4.2,0,8.4,0,12.6c-4.3,0-8.7,0-13,0C39.3,53.8,39.3,49.6,39.3,45.4z"/>
</g>
<g id="PDC" class="st0">
	<path class="st2" d="M2.5,30.5c0,0.8,0.6,1.6,1.4,1.8c0.8,0.2,1.6-0.2,2-0.9c0.1-0.2,0.2-0.2,0.4-0.2c10.7,0,21.4,0,32.1,0
		c0,0,0.1,0,0.1,0c0.1,0,0.2,0,0.2,0.1c0.3,0.7,0.9,1.1,1.6,1c0.7,0,1.3-0.4,1.6-1c0.1-0.1,0.1-0.2,0.3-0.2c8.7,0,17.5,0,26.2,0
		c0.1,0,0.2,0,0.3,0.2c0.3,0.7,0.9,1,1.6,1c0.7,0,1.3-0.4,1.6-1c0.1-0.1,0.2-0.2,0.3-0.2c3.5,0,7,0,10.5,0c3.2,0,6.5,0,9.7,0
		c0.1,0,0.2,0,0.3,0.2c0.3,0.7,0.9,1,1.6,1c0.7,0,1.3-0.4,1.6-1c0.1-0.1,0.1-0.2,0.3-0.2c4.8,0,9.6,0,14.3,0c0.1,0,0.2,0,0.3,0.1
		c0.7,1.2,2.3,1.2,3.1,0c0.1-0.1,0.1-0.1,0.2-0.1c2.8,0,5.7,0,8.5,0c0.1,0,0.2,0,0.2,0.1c0.3,0.7,0.9,1.1,1.6,1.1
		c0.7,0,1.3-0.4,1.6-1c0.1-0.1,0.1-0.2,0.3-0.2c1.1,0,2.2,0,3.3,0c0.2,0,0.3,0,0.3,0.2c0.4,0.7,1.2,1.1,2,0.9
		c0.8-0.2,1.4-0.9,1.4-1.7c0-0.8-0.6-1.6-1.4-1.7c-0.8-0.2-1.7,0.2-2,1c-0.1,0.1-0.1,0.2-0.3,0.2c-1.1,0-2.2,0-3.3,0
		c-0.1,0-0.2,0-0.3-0.2c-0.3-0.7-0.9-1-1.6-1c-0.7,0-1.3,0.4-1.6,1c-0.1,0.1-0.1,0.2-0.3,0.2c-2.8,0-5.5,0-8.3,0
		c-0.2,0-0.2,0-0.3-0.2c-0.2-0.7-0.9-1.2-1.7-1.2c-0.7,0-1.4,0.5-1.7,1.2c-0.1,0.2-0.1,0.2-0.3,0.2c-4.7,0-9.4,0-14.1,0
		c-0.1,0-0.2,0-0.3-0.2c-0.3-0.7-0.9-1-1.6-1c-0.7,0-1.3,0.4-1.6,1c-0.1,0.1-0.1,0.2-0.3,0.2c-6.7,0-13.5,0-20.2,0
		c-0.2,0-0.2,0-0.3-0.2c-0.3-0.7-0.9-1-1.6-1c-0.7,0-1.3,0.4-1.6,1c-0.1,0.1-0.1,0.2-0.3,0.2c-8.7,0-17.5,0-26.2,0
		c-0.1,0-0.2,0-0.3-0.2c-0.3-0.7-0.9-1-1.6-1c-0.7,0-1.3,0.4-1.6,1c-0.1,0.1-0.2,0.2-0.3,0.2c-10.7,0-21.5,0-32.2,0
		c-0.2,0-0.2,0-0.3-0.2c-0.4-0.8-1.2-1.2-2-1C3.1,28.9,2.5,29.7,2.5,30.5z"/>
	<path class="st2" d="M102.5,41.1c-0.1-0.1-0.1-0.1-0.2-0.2c-0.7-1.1-1.5-2.2-2.2-3.3c-0.1-0.1-0.2-0.2-0.4-0.2c-0.4,0-0.7,0-1.1,0
		c-0.3,0-0.3,0-0.3,0.3c0,1.5,0,3,0,4.5c0,1.7,0,3.3,0,5c0,0.3,0,0.3,0.3,0.3c0.3,0,0.6,0,0.9,0c0.4,0,0.4,0,0.4-0.4
		c0-2.1,0-4.2,0-6.4c0-0.1,0-0.2,0-0.2c0,0,0,0,0,0c0,0.1,0.1,0.1,0.1,0.2c0.5,0.7,1,1.4,1.4,2.2c0.4,0.7,0.2,0.5,1,0.5
		c0.2,0,0.3-0.1,0.4-0.2c0.5-0.8,1.1-1.7,1.6-2.5c0,0,0.1-0.1,0.1-0.2c0,0.1,0,0.1,0,0.2c0,0.5,0,1,0,1.5c0,1.7,0,3.4,0,5
		c0,0.3,0,0.3,0.3,0.3c0.3,0,0.7,0,1,0c0.3,0,0.3,0,0.3-0.3c0-2,0-3.9,0-5.9c0-1.2,0-2.3,0-3.5c0-0.3,0-0.3-0.3-0.3
		c-0.4,0-0.7,0-1.1,0c-0.2,0-0.3,0.1-0.4,0.2c-0.5,0.7-1,1.5-1.4,2.2C103.1,40.3,102.8,40.7,102.5,41.1z"/>
	<path class="st2" d="M92.6,41.1c-0.1-0.1-0.1-0.1-0.2-0.2c-0.7-1.1-1.5-2.2-2.2-3.3c-0.1-0.2-0.2-0.2-0.4-0.2c-0.4,0-0.7,0-1.1,0
		c-0.3,0-0.3,0-0.3,0.3c0,1.5,0,3.1,0,4.6c0,1.6,0,3.2,0,4.8c0,0.3,0,0.3,0.3,0.3c0.3,0,0.7,0,1,0c0.4,0,0.4,0,0.4-0.4
		c0-2.1,0-4.3,0-6.4c0-0.1,0-0.2,0-0.2c0,0,0,0,0,0c0,0.1,0.1,0.1,0.1,0.2c0.5,0.7,1,1.4,1.4,2.2c0.4,0.7,0.2,0.5,1,0.5
		c0.2,0,0.3-0.1,0.4-0.2c0.5-0.8,1.1-1.7,1.6-2.5c0,0,0.1-0.1,0.1-0.1c0,0,0,0,0.1,0c0,0.1,0,0.1,0,0.2c0,0.5,0,1,0,1.5
		c0,1.7,0,3.3,0,5c0,0.3,0,0.3,0.3,0.3c0.3,0,0.7,0,1,0c0.3,0,0.3,0,0.3-0.3c0-2,0-4.1,0-6.1c0-1.1,0-2.2,0-3.3c0-0.3,0-0.3-0.3-0.3
		c-0.3,0-0.7,0-1,0c-0.2,0-0.3,0.1-0.4,0.2c-0.5,0.7-1,1.5-1.4,2.2C93.2,40.3,92.9,40.7,92.6,41.1z"/>
	<path class="st2" d="M122.7,44.3C122.6,44.3,122.6,44.3,122.7,44.3c-0.1,0-0.1-0.1-0.2-0.2c-1.3-2.2-2.6-4.3-4-6.5
		c-0.1-0.1-0.2-0.2-0.3-0.2c-0.4,0-0.7,0-1.1,0c-0.2,0-0.3,0.1-0.3,0.3c0,3.2,0,6.3,0,9.5c0,0.2,0.1,0.3,0.3,0.3c0.4,0,0.7,0,1.1,0
		c0.2,0,0.3,0,0.3-0.3c0-0.7,0-1.4,0-2.2c0-1.4,0-2.8,0-4.2c0-0.1,0-0.1,0-0.2c0,0,0,0,0.1,0c0.1,0.1,0.1,0.1,0.1,0.2
		c1.3,2.2,2.6,4.3,4,6.5c0.1,0.1,0.2,0.2,0.3,0.2c0.3,0,0.7,0,1,0c0.4,0,0.4,0,0.4-0.4c0-3.1,0-6.2,0-9.3c0,0,0-0.1,0-0.1
		c0-0.2-0.1-0.2-0.2-0.2c-0.4,0-0.7,0-1.1,0c-0.3,0-0.3,0-0.3,0.3c0,2.1,0,4.2,0,6.3C122.7,44.1,122.7,44.2,122.7,44.3z"/>
	<path class="st2" d="M95.1,21.3C95,21.3,95,21.3,95.1,21.3c-0.1,0-0.1-0.1-0.2-0.1c-0.2-0.3-0.4-0.7-0.6-1
		c-1.1-1.8-2.3-3.7-3.4-5.5c-0.1-0.2-0.2-0.2-0.4-0.2c-0.3,0-0.7,0-1,0c-0.3,0-0.3,0-0.3,0.3c0,1.6,0,3.2,0,4.8c0,1.5,0,3.1,0,4.6
		c0,0.3,0,0.3,0.3,0.3c0.3,0,0.7,0,1,0c0.3,0,0.3,0,0.3-0.3c0-0.7,0-1.4,0-2.1c0-1.4,0-2.9,0-4.3c0-0.1,0-0.1,0-0.2
		c0.1,0.1,0.2,0.2,0.2,0.2c1.3,2.2,2.6,4.3,3.9,6.5c0.1,0.1,0.2,0.2,0.3,0.2c0.4,0,0.7,0,1.1,0c0.3,0,0.3,0,0.3-0.3
		c0-1.1,0-2.2,0-3.4c0-2,0-4,0-6c0-0.3,0-0.3-0.3-0.3c-0.3,0-0.7,0-1,0c-0.3,0-0.3,0-0.3,0.3c0,2.1,0,4.2,0,6.3
		C95.1,21.2,95.1,21.2,95.1,21.3z"/>
	<path class="st2" d="M126.4,44.2c-0.2,0-0.4,0-0.6,0c-0.1,0-0.2,0-0.2,0.2c0,0.3,0,0.6,0.1,1c0.2,1,0.9,1.6,1.8,2
		c0.9,0.3,1.8,0.4,2.7,0.3c0.6-0.1,1.2-0.3,1.7-0.7c1.1-0.9,1.3-2.6,0.4-3.7c-0.3-0.3-0.6-0.6-1-0.7c-0.7-0.3-1.4-0.6-2.2-0.9
		c-0.4-0.2-0.9-0.4-1.3-0.7c-0.7-0.5-0.6-1.5,0.2-1.9c0.4-0.2,0.8-0.2,1.2-0.2c0.6,0,1.1,0.1,1.5,0.5c0.4,0.3,0.5,0.7,0.5,1.2
		c0,0.1,0.1,0.2,0.2,0.2c0.4,0,0.9,0,1.3,0c0.1,0,0.2-0.1,0.2-0.2c0.1-1.2-0.4-2-1.4-2.6c-0.6-0.4-1.2-0.5-1.9-0.5
		c-0.9,0-1.7,0.1-2.5,0.5c-1.5,0.9-1.5,3-0.5,3.9c0.3,0.3,0.7,0.6,1,0.7c0.6,0.3,1.2,0.5,1.9,0.8c0.5,0.2,0.9,0.4,1.3,0.7
		c0.3,0.2,0.5,0.5,0.5,0.9c0,0.6-0.4,1.1-1,1.3c-0.6,0.2-1.2,0.1-1.8-0.1c-0.5-0.2-0.9-0.5-1.1-1.1c0-0.2,0-0.3,0-0.5
		c0-0.2-0.1-0.3-0.2-0.3C126.8,44.2,126.6,44.2,126.4,44.2z"/>
	<path class="st2" d="M12.2,19.4c0,1.6,0,3.2,0,4.7c0,0.2,0,0.3,0.3,0.3c2.1,0,4.2,0,6.3,0c0.2,0,0.3-0.1,0.3-0.3c0-0.3,0-0.6,0-0.9
		c0-0.3,0-0.3-0.3-0.3c-1.5,0-3.1,0-4.6,0c-0.2,0-0.2-0.1-0.2-0.2c0-0.8,0-1.6,0-2.4c0-0.3,0-0.3,0.3-0.3c1,0,2,0,3,0
		c0.2,0,0.3,0,0.3-0.3c0-0.3,0-0.6,0-0.8c0-0.3,0-0.3-0.3-0.3c-1,0-2,0-3,0c-0.2,0-0.2-0.1-0.2-0.2c0-0.8,0-1.6,0-2.4
		c0-0.2,0.1-0.3,0.3-0.3c1.5,0,3.1,0,4.6,0c0.2,0,0.3-0.1,0.3-0.3c0-0.3,0-0.6,0-0.9c0-0.3,0-0.3-0.3-0.3c-2.1,0-4.1,0-6.2,0
		c-0.3,0-0.3,0-0.3,0.3C12.2,16.3,12.2,17.9,12.2,19.4z"/>
	<path class="st2" d="M106.8,19.5c0,1.6,0,3.2,0,4.7c0,0.2,0,0.3,0.2,0.3c2.1,0,4.2,0,6.3,0c0.2,0,0.2-0.1,0.2-0.2
		c0-0.3,0-0.6,0-0.9c0-0.3,0-0.3-0.3-0.3c-1.5,0-3.1,0-4.6,0c-0.2,0-0.2-0.1-0.2-0.2c0-0.8,0-1.6,0-2.4c0-0.2,0.1-0.3,0.3-0.3
		c1,0,2,0,3,0c0.2,0,0.3,0,0.3-0.3c0-0.3,0-0.6,0-0.8c0-0.3,0-0.3-0.3-0.3c-1,0-2,0-3,0c-0.2,0-0.2-0.1-0.2-0.2c0-0.8,0-1.6,0-2.3
		c0-0.3,0-0.3,0.3-0.3c1.5,0,3.1,0,4.6,0c0.2,0,0.3,0,0.3-0.3c0-0.3,0-0.6,0-0.9c0-0.3,0-0.3-0.3-0.3c-2.1,0-4.1,0-6.2,0
		c-0.3,0-0.3,0-0.3,0.3C106.8,16.3,106.8,17.9,106.8,19.5z"/>
	<path class="st2" d="M99.9,19.5c0-0.6,0-1.2,0-1.8c0-0.5,0.1-0.9,0.5-1.3c0.5-0.5,1.5-0.7,2.2-0.5c0.7,0.3,1.1,0.9,1.1,1.7
		c0,0.2,0.1,0.3,0.3,0.2c0.3,0,0.6,0,0.9-0.1c0.5,0,0.5,0.1,0.5-0.6c-0.1-1-0.6-1.8-1.4-2.3c-0.9-0.6-2-0.7-3-0.5
		c-1.7,0.3-2.7,1.6-2.7,3.2c0,1.2,0,2.5,0,3.7c0,1.3,0.6,2.3,1.8,2.9c1,0.5,2.1,0.5,3.2,0.1c1.3-0.4,2.1-1.5,2.1-2.9
		c0-0.1,0-0.3-0.2-0.3c-0.4,0-0.9,0-1.3-0.1c-0.2,0-0.2,0.1-0.2,0.2c-0.1,1-0.6,1.7-1.6,1.8c-1.3,0.2-2.3-0.7-2.2-1.9
		C99.9,20.6,99.9,20,99.9,19.5z"/>
	<path class="st2" d="M73.3,19.5c0-0.6,0-1.2,0-1.9c0-0.4,0.1-0.7,0.3-1c0.6-0.9,1.9-1,2.7-0.6c0.6,0.3,0.9,0.9,0.9,1.5
		c0,0.2,0,0.3,0.3,0.3c0.3,0,0.6,0,0.9,0c0.5,0,0.6,0.1,0.5-0.6c-0.1-1-0.6-1.8-1.4-2.3c-0.9-0.6-2-0.6-3-0.5
		c-1.6,0.3-2.7,1.5-2.7,3.1c0,1.3,0,2.5,0,3.8c0,1.4,0.8,2.5,2.1,3c0.9,0.4,1.9,0.4,2.9,0.1c1.4-0.4,2.2-1.5,2.2-2.9
		c0-0.1,0-0.2-0.2-0.3c-0.4,0-0.8,0-1.2-0.1c-0.2,0-0.2,0-0.2,0.2c0,1-0.6,1.6-1.6,1.8c-1.3,0.2-2.3-0.7-2.3-1.9
		C73.3,20.6,73.3,20.1,73.3,19.5z"/>
	<path class="st2" d="M61.7,19.5c0-0.6,0-1.2,0-1.8c0-0.4,0.1-0.8,0.3-1.1c0.5-0.7,1.4-1,2.3-0.7c0.8,0.2,1.2,0.9,1.3,1.7
		c0,0.2,0,0.3,0.3,0.3c0.3,0,0.6,0,0.9,0c0.5,0,0.6,0,0.5-0.6c-0.1-1-0.5-1.8-1.4-2.3c-0.9-0.6-2-0.7-3-0.5
		c-1.6,0.3-2.7,1.5-2.7,3.1c0,1.3,0,2.5,0,3.8c0,1.3,0.6,2.3,1.8,2.8c1,0.5,2.1,0.5,3.1,0.2c1.4-0.4,2.2-1.5,2.3-3
		c0-0.1,0-0.2-0.2-0.2c-0.4,0-0.8,0-1.2-0.1c-0.2,0-0.2,0-0.2,0.2c0,1-0.6,1.6-1.6,1.8c-1.3,0.2-2.3-0.7-2.3-1.9
		C61.7,20.6,61.7,20,61.7,19.5z"/>
	<path class="st2" d="M72.9,42.5c0-0.6,0-1.2,0-1.8c0-0.4,0.1-0.7,0.3-1c0.5-0.7,1.4-1,2.3-0.7c0.8,0.2,1.3,0.9,1.3,1.7
		c0,0.2,0.1,0.3,0.3,0.2c0.3,0,0.6,0,0.9,0c0.5,0,0.6,0,0.5-0.6c-0.1-1-0.5-1.8-1.4-2.3c-0.9-0.6-2-0.7-3-0.5
		c-1.6,0.3-2.7,1.5-2.7,3.1c0,1.3,0,2.6,0,3.8c0,1.3,0.6,2.3,1.8,2.8c1,0.5,2,0.5,3.1,0.2c1.4-0.4,2.2-1.5,2.3-2.9
		c0-0.1,0-0.3-0.2-0.3c-0.4,0-0.9,0-1.3-0.1c-0.2,0-0.2,0.1-0.2,0.2c-0.1,1-0.6,1.7-1.6,1.8c-1.3,0.2-2.3-0.7-2.2-1.9
		C72.9,43.6,72.9,43,72.9,42.5z"/>
	<path class="st2" d="M56.3,43.1c0-1.3,0-2.7,0-4c0-0.2,0.1-0.2,0.2-0.2c0.8,0,1.6,0,2.4,0c0.2,0,0.3,0,0.3-0.3c0-0.3,0-0.6,0-0.9
		c0-0.2-0.1-0.3-0.2-0.3c-2.3,0-4.6,0-6.8,0c-0.2,0-0.2,0.1-0.2,0.2c0,0.3,0,0.6,0,0.9c0,0.3,0,0.3,0.3,0.3c0.7,0,1.5,0,2.2,0
		c0.2,0,0.3,0.1,0.3,0.3c0,1.5,0,3.1,0,4.6c0,1.2,0,2.3,0,3.5c0,0.3,0,0.3,0.3,0.3c0.3,0,0.7,0,1,0c0.3,0,0.3,0,0.3-0.3
		C56.3,45.8,56.3,44.5,56.3,43.1z"/>
	<path class="st2" d="M42.5,20.1c0,0.9,0,1.8,0,2.7c0,0.5,0,0.9,0,1.4c0,0.2,0.1,0.2,0.2,0.2c0.4,0,0.8,0,1.2,0
		c0.2,0,0.2-0.1,0.2-0.2c0-0.1,0-0.1,0-0.2c0-2.6,0-5.3,0-7.9c0-0.2,0-0.2,0.2-0.2c0.8,0,1.6,0,2.4,0c0.2,0,0.3-0.1,0.3-0.2
		c0-0.3,0-0.6,0-0.9c0-0.2-0.1-0.3-0.3-0.3c-2.3,0-4.5,0-6.8,0c-0.2,0-0.3,0.1-0.3,0.3c0,0.3,0,0.6,0,0.9c0,0.3,0,0.3,0.3,0.3
		c0.7,0,1.5,0,2.2,0c0.2,0,0.3,0.1,0.3,0.3C42.5,17.5,42.5,18.8,42.5,20.1z"/>
	<path class="st2" d="M56.8,19.5c0,1.6,0,3.2,0,4.7c0,0.2,0,0.3,0.3,0.3c0.4,0,0.7,0,1.1,0c0.2,0,0.3-0.1,0.3-0.3c0-3.2,0-6.3,0-9.5
		c0-0.2,0-0.3-0.3-0.3c-0.4,0-0.7,0-1.1,0c-0.3,0-0.3,0-0.3,0.3C56.8,16.3,56.8,17.9,56.8,19.5z"/>
	<path class="st2" d="M28.9,19.5c0,1.6,0,3.1,0,4.7c0,0.3,0,0.3,0.3,0.3c0.4,0,0.7,0,1.1,0c0.3,0,0.3,0,0.3-0.3c0-1,0-2,0-3
		c0-2.2,0-4.3,0-6.5c0-0.2,0-0.3-0.3-0.3c-0.4,0-0.7,0-1.1,0c-0.3,0-0.3,0-0.3,0.3C28.9,16.3,28.9,17.9,28.9,19.5z"/>
	<path class="st2" d="M2.5,30.5c0-0.8,0.6-1.6,1.4-1.7c0.8-0.2,1.7,0.2,2,1c0.1,0.1,0.1,0.2,0.3,0.2c10.7,0,21.5,0,32.2,0
		c0.2,0,0.2,0,0.3-0.2c0.3-0.7,0.9-1,1.6-1c0.7,0,1.3,0.4,1.6,1c0.1,0.1,0.1,0.2,0.3,0.2c8.7,0,17.5,0,26.2,0c0.2,0,0.2,0,0.3-0.2
		c0.3-0.7,0.9-1,1.6-1c0.7,0,1.3,0.4,1.6,1c0.1,0.1,0.1,0.2,0.3,0.2c6.7,0,13.5,0,20.2,0c0.1,0,0.2,0,0.3-0.2c0.3-0.7,0.9-1,1.6-1
		c0.7,0,1.3,0.4,1.6,1c0.1,0.1,0.1,0.2,0.3,0.2c4.7,0,9.4,0,14.1,0c0.2,0,0.2,0,0.3-0.2c0.2-0.7,0.9-1.2,1.7-1.2
		c0.8,0,1.5,0.5,1.7,1.2c0,0.1,0.1,0.2,0.3,0.2c2.8,0,5.5,0,8.3,0c0.1,0,0.2,0,0.3-0.2c0.3-0.7,0.9-1,1.6-1c0.7,0,1.3,0.4,1.6,1
		c0.1,0.1,0.1,0.2,0.3,0.2c1.1,0,2.2,0,3.3,0c0.1,0,0.2,0,0.3-0.2c0.4-0.8,1.2-1.2,2-1c0.8,0.2,1.4,0.9,1.4,1.7
		c0,0.8-0.6,1.6-1.4,1.7c-0.8,0.2-1.6-0.2-2-0.9c-0.1-0.2-0.2-0.2-0.3-0.2c-1.1,0-2.2,0-3.3,0c-0.1,0-0.2,0-0.3,0.2
		c-0.3,0.7-0.9,1-1.6,1c-0.8,0-1.3-0.4-1.6-1.1c-0.1-0.1-0.1-0.1-0.2-0.1c-2.8,0-5.7,0-8.5,0c-0.1,0-0.2,0-0.2,0.1
		c-0.7,1.2-2.3,1.2-3.1,0c-0.1-0.1-0.1-0.1-0.3-0.1c-4.8,0-9.6,0-14.3,0c-0.1,0-0.2,0-0.3,0.2c-0.3,0.7-0.9,1-1.6,1
		c-0.7,0-1.3-0.4-1.6-1c-0.1-0.1-0.1-0.2-0.3-0.2c-3.2,0-6.5,0-9.7,0c-3.5,0-7,0-10.5,0c-0.1,0-0.2,0-0.3,0.2c-0.3,0.7-0.9,1-1.6,1
		c-0.7,0-1.3-0.4-1.6-1c-0.1-0.1-0.1-0.2-0.3-0.2c-8.7,0-17.5,0-26.2,0c-0.1,0-0.2,0-0.3,0.2c-0.3,0.7-0.9,1-1.6,1
		c-0.8,0-1.3-0.4-1.6-1c-0.1-0.1-0.1-0.2-0.2-0.1c0,0-0.1,0-0.1,0c-10.7,0-21.4,0-32.1,0c-0.2,0-0.3,0-0.4,0.2
		c-0.4,0.7-1.2,1.1-2,0.9C3.1,32.1,2.5,31.3,2.5,30.5z"/>
	<path class="st2" d="M102.5,41.1c0.3-0.5,0.6-0.9,0.9-1.3c0.5-0.7,1-1.5,1.4-2.2c0.1-0.2,0.2-0.2,0.4-0.2c0.4,0,0.7,0,1.1,0
		c0.3,0,0.3,0,0.3,0.3c0,1.2,0,2.3,0,3.5c0,2,0,3.9,0,5.9c0,0.3,0,0.3-0.3,0.3c-0.3,0-0.7,0-1,0c-0.3,0-0.3,0-0.3-0.3
		c0-1.7,0-3.4,0-5c0-0.5,0-1,0-1.5c0,0,0-0.1,0-0.2c-0.1,0.1-0.1,0.1-0.1,0.2c-0.6,0.8-1.1,1.7-1.6,2.5c-0.1,0.2-0.2,0.2-0.4,0.2
		c-0.8,0-0.6,0.1-1-0.5c-0.5-0.7-1-1.4-1.4-2.2c0-0.1-0.1-0.1-0.1-0.2c0,0,0,0,0,0c0,0.1,0,0.2,0,0.2c0,2.1,0,4.2,0,6.4
		c0,0.4,0,0.4-0.4,0.4c-0.3,0-0.6,0-0.9,0c-0.3,0-0.3,0-0.3-0.3c0-1.7,0-3.3,0-5c0-1.5,0-3,0-4.5c0-0.3,0-0.3,0.3-0.3
		c0.4,0,0.7,0,1.1,0c0.2,0,0.3,0.1,0.4,0.2c0.7,1.1,1.5,2.2,2.2,3.3C102.4,41,102.4,41.1,102.5,41.1z"/>
	<path class="st2" d="M92.6,41.1c0.3-0.5,0.6-0.9,0.9-1.3c0.5-0.7,1-1.5,1.4-2.2c0.1-0.2,0.2-0.2,0.4-0.2c0.3,0,0.7,0,1,0
		c0.3,0,0.3,0,0.3,0.3c0,1.1,0,2.2,0,3.3c0,2,0,4.1,0,6.1c0,0.3,0,0.3-0.3,0.3c-0.3,0-0.7,0-1,0c-0.3,0-0.3,0-0.3-0.3
		c0-1.7,0-3.3,0-5c0-0.5,0-1,0-1.5c0-0.1,0-0.1,0-0.2c0,0,0,0-0.1,0c0,0-0.1,0.1-0.1,0.1c-0.6,0.8-1.1,1.7-1.6,2.5
		c-0.1,0.2-0.2,0.2-0.4,0.2c-0.8,0-0.6,0.1-1-0.5c-0.5-0.7-1-1.4-1.4-2.2c0-0.1-0.1-0.1-0.1-0.2c0,0,0,0,0,0c0,0.1,0,0.2,0,0.2
		c0,2.1,0,4.3,0,6.4c0,0.3,0,0.4-0.4,0.4c-0.3,0-0.7,0-1,0c-0.3,0-0.3,0-0.3-0.3c0-1.6,0-3.2,0-4.8c0-1.5,0-3.1,0-4.6
		c0-0.3,0-0.3,0.3-0.3c0.4,0,0.7,0,1.1,0c0.2,0,0.3,0.1,0.4,0.2c0.7,1.1,1.5,2.2,2.2,3.3C92.5,41,92.5,41.1,92.6,41.1z"/>
	<path class="st2" d="M122.7,44.3c0-0.1,0-0.2,0-0.2c0-2.1,0-4.2,0-6.3c0-0.3,0-0.3,0.3-0.3c0.4,0,0.7,0,1.1,0
		c0.2,0,0.2,0.1,0.2,0.2c0,0,0,0.1,0,0.1c0,3.1,0,6.2,0,9.3c0,0.4,0,0.4-0.4,0.4c-0.3,0-0.7,0-1,0c-0.2,0-0.3-0.1-0.3-0.2
		c-1.3-2.2-2.6-4.3-4-6.5c0-0.1-0.1-0.1-0.1-0.2c0,0,0,0-0.1,0c0,0.1,0,0.1,0,0.2c0,1.4,0,2.8,0,4.2c0,0.7,0,1.4,0,2.2
		c0,0.2,0,0.3-0.3,0.3c-0.4,0-0.7,0-1.1,0c-0.2,0-0.3-0.1-0.3-0.3c0-3.2,0-6.3,0-9.5c0-0.2,0.1-0.3,0.3-0.3c0.4,0,0.7,0,1.1,0
		c0.2,0,0.3,0.1,0.3,0.2c1.3,2.2,2.6,4.3,4,6.5C122.5,44.2,122.6,44.3,122.7,44.3C122.6,44.3,122.6,44.3,122.7,44.3z"/>
	<path class="st2" d="M95.1,21.3c0-0.1,0-0.2,0-0.2c0-2.1,0-4.2,0-6.3c0-0.3,0-0.3,0.3-0.3c0.3,0,0.7,0,1,0c0.3,0,0.3,0,0.3,0.3
		c0,2,0,4,0,6c0,1.1,0,2.2,0,3.4c0,0.3,0,0.3-0.3,0.3c-0.4,0-0.7,0-1.1,0c-0.1,0-0.2-0.1-0.3-0.2c-1.3-2.2-2.6-4.3-3.9-6.5
		c-0.1-0.1-0.1-0.2-0.2-0.2c0,0.1,0,0.1,0,0.2c0,1.4,0,2.9,0,4.3c0,0.7,0,1.4,0,2.1c0,0.3,0,0.3-0.3,0.3c-0.3,0-0.7,0-1,0
		c-0.3,0-0.3,0-0.3-0.3c0-1.5,0-3.1,0-4.6c0-1.6,0-3.2,0-4.8c0-0.3,0-0.3,0.3-0.3c0.3,0,0.7,0,1,0c0.2,0,0.3,0.1,0.4,0.2
		c1.1,1.9,2.2,3.7,3.4,5.5c0.2,0.3,0.4,0.7,0.6,1C94.9,21.2,95,21.3,95.1,21.3C95,21.3,95,21.3,95.1,21.3z"/>
	<path class="st2" d="M67.1,47.1c-0.3-1.1-0.7-2.2-1-3.2c-0.7-2.1-1.3-4.1-2-6.2c-0.1-0.2-0.2-0.3-0.3-0.2c-0.5,0-1,0-1.5,0
		c-0.2,0-0.3,0.1-0.4,0.3c-0.7,2.1-1.4,4.3-2.1,6.4c-0.3,1-0.6,2-1,3c-0.1,0.3-0.1,0.3,0.2,0.3c0.4,0,0.8,0,1.2,0
		c0.2,0,0.3-0.1,0.3-0.2c0.1-0.4,0.3-0.9,0.4-1.3c0-0.2,0.1-0.2,0.3-0.2c1.2,0,2.3,0,3.5,0c0.2,0,0.2,0,0.3,0.2
		c0.1,0.5,0.3,0.9,0.4,1.4c0,0.1,0.1,0.2,0.2,0.2c0.2,0,0.4,0,0.7,0c0.2,0,0.4,0,0.6,0C67.2,47.5,67.2,47.4,67.1,47.1z M64.3,44.4
		c-0.9,0-1.8,0-2.6,0c-0.2,0-0.2,0-0.2-0.2c0.5-1.5,0.9-3.1,1.4-4.6c0,0,0-0.1,0.1-0.1c0,0,0,0,0.1,0c0.5,1.6,1,3.3,1.5,4.9
		C64.4,44.4,64.3,44.4,64.3,44.4z"/>
	<path class="st2" d="M126.4,44.2c0.2,0,0.4,0,0.6,0c0.2,0,0.2,0.1,0.2,0.3c0,0.2,0,0.3,0,0.5c0.1,0.6,0.5,0.9,1.1,1.1
		c0.6,0.2,1.2,0.2,1.8,0.1c0.6-0.2,1-0.7,1-1.3c0-0.4-0.2-0.7-0.5-0.9c-0.4-0.3-0.9-0.5-1.3-0.7c-0.6-0.3-1.2-0.5-1.9-0.8
		c-0.4-0.2-0.7-0.4-1-0.7c-1-0.9-0.9-3,0.5-3.9c0.8-0.5,1.6-0.6,2.5-0.5c0.7,0,1.3,0.2,1.9,0.5c1,0.6,1.5,1.5,1.4,2.6
		c0,0.1-0.1,0.2-0.2,0.2c-0.4,0-0.9,0-1.3,0c-0.1,0-0.2-0.1-0.2-0.2c0-0.5-0.1-0.9-0.5-1.2c-0.4-0.4-0.9-0.5-1.5-0.5
		c-0.4,0-0.8,0-1.2,0.2c-0.7,0.4-0.9,1.4-0.2,1.9c0.4,0.3,0.9,0.5,1.3,0.7c0.7,0.3,1.5,0.6,2.2,0.9c0.4,0.2,0.7,0.4,1,0.7
		c1,1,0.8,2.8-0.4,3.7c-0.5,0.4-1.1,0.6-1.7,0.7c-0.9,0.1-1.8,0.1-2.7-0.3c-0.9-0.4-1.6-1-1.8-2c-0.1-0.3,0-0.6-0.1-1
		c0-0.1,0.1-0.2,0.2-0.2C126,44.2,126.2,44.2,126.4,44.2z"/>
	<path class="st2" d="M12.2,19.4c0-1.6,0-3.1,0-4.7c0-0.3,0-0.3,0.3-0.3c2.1,0,4.1,0,6.2,0c0.3,0,0.3,0,0.3,0.3c0,0.3,0,0.6,0,0.9
		c0,0.2-0.1,0.3-0.3,0.3c-1.5,0-3.1,0-4.6,0c-0.2,0-0.3,0.1-0.3,0.3c0,0.8,0,1.6,0,2.4c0,0.2,0.1,0.2,0.2,0.2c1,0,2,0,3,0
		c0.3,0,0.3,0,0.3,0.3c0,0.3,0,0.6,0,0.8c0,0.2,0,0.3-0.3,0.3c-1,0-2,0-3,0c-0.3,0-0.3,0-0.3,0.3c0,0.8,0,1.6,0,2.4
		c0,0.2,0.1,0.2,0.2,0.2c1.5,0,3.1,0,4.6,0c0.3,0,0.3,0,0.3,0.3c0,0.3,0,0.6,0,0.9c0,0.2-0.1,0.3-0.3,0.3c-2.1,0-4.2,0-6.3,0
		c-0.2,0-0.3,0-0.3-0.3C12.2,22.6,12.2,21,12.2,19.4z"/>
	<path class="st2" d="M106.8,19.5c0-1.6,0-3.1,0-4.7c0-0.3,0-0.3,0.3-0.3c2.1,0,4.1,0,6.2,0c0.3,0,0.3,0,0.3,0.3c0,0.3,0,0.6,0,0.9
		c0,0.2,0,0.3-0.3,0.3c-1.5,0-3.1,0-4.6,0c-0.3,0-0.3,0-0.3,0.3c0,0.8,0,1.6,0,2.3c0,0.2,0.1,0.2,0.2,0.2c1,0,2,0,3,0
		c0.3,0,0.3,0,0.3,0.3c0,0.3,0,0.6,0,0.8c0,0.2,0,0.3-0.3,0.3c-1,0-2,0-3,0c-0.2,0-0.3,0.1-0.3,0.3c0,0.8,0,1.6,0,2.4
		c0,0.2,0,0.2,0.2,0.2c1.5,0,3.1,0,4.6,0c0.3,0,0.3,0,0.3,0.3c0,0.3,0,0.6,0,0.9c0,0.2-0.1,0.2-0.2,0.2c-2.1,0-4.2,0-6.3,0
		c-0.2,0-0.2-0.1-0.2-0.3C106.8,22.6,106.8,21,106.8,19.5z"/>
	<path class="st2" d="M99.9,19.5c0,0.6,0,1.2,0,1.8c0,1.2,0.9,2.1,2.2,1.9c1-0.1,1.6-0.8,1.6-1.8c0-0.1,0.1-0.2,0.2-0.2
		c0.4,0,0.9,0,1.3,0.1c0.2,0,0.2,0.1,0.2,0.3c0,1.4-0.8,2.5-2.1,2.9c-1.1,0.4-2.2,0.3-3.2-0.1c-1.2-0.6-1.8-1.6-1.8-2.9
		c0-1.2,0-2.5,0-3.7c0-1.7,1.1-2.9,2.7-3.2c1.1-0.2,2.1-0.1,3,0.5c0.9,0.5,1.3,1.3,1.4,2.3c0.1,0.6,0,0.5-0.5,0.6
		c-0.3,0-0.6,0-0.9,0.1c-0.2,0-0.3,0-0.3-0.2c0-0.8-0.5-1.4-1.1-1.7c-0.8-0.3-1.7-0.1-2.2,0.5c-0.3,0.4-0.5,0.8-0.5,1.3
		C99.9,18.2,99.9,18.9,99.9,19.5z"/>
	<path class="st2" d="M73.3,19.5c0,0.6,0,1.2,0,1.7c0,1.3,0.9,2.1,2.3,1.9c1-0.1,1.5-0.8,1.6-1.8c0-0.2,0.1-0.2,0.2-0.2
		c0.4,0,0.8,0,1.2,0.1c0.2,0,0.2,0.1,0.2,0.3c0,1.4-0.9,2.5-2.2,2.9c-1,0.3-1.9,0.3-2.9-0.1c-1.3-0.5-2.1-1.6-2.1-3
		c0-1.3,0-2.5,0-3.8c0-1.6,1.1-2.9,2.7-3.1c1.1-0.2,2.1-0.1,3,0.5c0.9,0.5,1.3,1.3,1.4,2.3c0.1,0.6,0,0.5-0.5,0.6
		c-0.3,0-0.6,0-0.9,0c-0.2,0-0.3,0-0.3-0.3c0-0.7-0.3-1.2-0.9-1.5c-0.7-0.4-2.1-0.4-2.7,0.6c-0.2,0.3-0.3,0.7-0.3,1
		C73.3,18.2,73.3,18.9,73.3,19.5z"/>
	<path class="st2" d="M61.7,19.5c0,0.6,0,1.2,0,1.8c0,1.3,0.9,2.1,2.3,1.9c1-0.1,1.5-0.8,1.6-1.8c0-0.2,0.1-0.2,0.2-0.2
		c0.4,0,0.8,0,1.2,0.1c0.2,0,0.2,0.1,0.2,0.2c0,1.4-0.9,2.5-2.3,3c-1.1,0.3-2.1,0.3-3.1-0.2c-1.2-0.6-1.8-1.6-1.8-2.8
		c0-1.3,0-2.5,0-3.8c0-1.6,1.1-2.9,2.7-3.1c1.1-0.2,2.1-0.1,3,0.5c0.8,0.5,1.3,1.3,1.4,2.3c0.1,0.6,0,0.5-0.5,0.6
		c-0.3,0-0.6,0-0.9,0c-0.2,0-0.3,0-0.3-0.3c0-0.8-0.5-1.5-1.3-1.7c-0.9-0.3-1.8,0-2.3,0.7c-0.2,0.3-0.3,0.7-0.3,1.1
		C61.7,18.2,61.7,18.8,61.7,19.5z"/>
	<path class="st2" d="M72.9,42.5c0,0.6,0,1.2,0,1.8c0,1.2,0.9,2.1,2.2,1.9c1-0.1,1.6-0.8,1.6-1.8c0-0.1,0-0.2,0.2-0.2
		c0.4,0,0.9,0,1.3,0.1c0.2,0,0.2,0.1,0.2,0.3c-0.1,1.5-0.9,2.6-2.3,2.9c-1,0.3-2.1,0.3-3.1-0.2c-1.2-0.6-1.8-1.5-1.8-2.8
		c0-1.3,0-2.6,0-3.8c0-1.6,1.1-2.9,2.7-3.1c1.1-0.2,2.1-0.1,3,0.5c0.8,0.5,1.3,1.3,1.4,2.3c0.1,0.6,0,0.5-0.5,0.6
		c-0.3,0-0.6,0-0.9,0c-0.2,0-0.3-0.1-0.3-0.2c0-0.8-0.5-1.5-1.3-1.7c-0.9-0.3-1.8,0-2.3,0.7c-0.2,0.3-0.3,0.7-0.3,1
		C72.9,41.2,72.9,41.8,72.9,42.5z"/>
	<path class="st2" d="M56.3,43.1c0,1.3,0,2.7,0,4c0,0.3,0,0.3-0.3,0.3c-0.3,0-0.7,0-1,0c-0.3,0-0.3,0-0.3-0.3c0-1.2,0-2.3,0-3.5
		c0-1.5,0-3.1,0-4.6c0-0.2-0.1-0.3-0.3-0.3c-0.7,0-1.5,0-2.2,0c-0.3,0-0.3,0-0.3-0.3c0-0.3,0-0.6,0-0.9c0-0.2,0.1-0.2,0.2-0.2
		c2.3,0,4.6,0,6.8,0c0.2,0,0.2,0.1,0.2,0.3c0,0.3,0,0.6,0,0.9c0,0.2,0,0.3-0.3,0.3c-0.8,0-1.6,0-2.4,0c-0.2,0-0.2,0.1-0.2,0.2
		C56.3,40.5,56.3,41.8,56.3,43.1z"/>
	<path class="st2" d="M42.5,20.1c0-1.3,0-2.7,0-4c0-0.2-0.1-0.3-0.3-0.3c-0.7,0-1.5,0-2.2,0c-0.3,0-0.3,0-0.3-0.3c0-0.3,0-0.6,0-0.9
		c0-0.2,0-0.3,0.3-0.3c2.3,0,4.5,0,6.8,0c0.2,0,0.3,0.1,0.3,0.3c0,0.3,0,0.6,0,0.9c0,0.2-0.1,0.2-0.3,0.2c-0.8,0-1.6,0-2.4,0
		c-0.2,0-0.2,0.1-0.2,0.2c0,2.6,0,5.3,0,7.9c0,0.1,0,0.1,0,0.2c0,0.1-0.1,0.2-0.2,0.2c-0.4,0-0.8,0-1.2,0c-0.2,0-0.2-0.1-0.2-0.2
		c0-0.5,0-0.9,0-1.4C42.5,21.9,42.5,21,42.5,20.1z"/>
	<path class="st2" d="M56.8,19.5c0-1.6,0-3.1,0-4.7c0-0.3,0-0.3,0.3-0.3c0.4,0,0.7,0,1.1,0c0.2,0,0.3,0,0.3,0.3c0,3.2,0,6.3,0,9.5
		c0,0.2-0.1,0.3-0.3,0.3c-0.4,0-0.7,0-1.1,0c-0.2,0-0.3,0-0.3-0.3C56.8,22.6,56.8,21,56.8,19.5z"/>
	<path class="st2" d="M28.9,19.5c0-1.6,0-3.1,0-4.7c0-0.3,0-0.3,0.3-0.3c0.4,0,0.7,0,1.1,0c0.2,0,0.3,0,0.3,0.3c0,2.2,0,4.3,0,6.5
		c0,1,0,2,0,3c0,0.3,0,0.3-0.3,0.3c-0.4,0-0.7,0-1.1,0c-0.3,0-0.3,0-0.3-0.3C28.9,22.6,28.9,21,28.9,19.5z"/>
	<path class="st2" d="M27.4,17.2c0-0.9-0.4-1.6-1.1-2.1c-0.7-0.5-1.4-0.6-2.2-0.6c-1.1,0-2.3,0-3.4,0c-0.3,0-0.3,0-0.3,0.3
		c0,1.6,0,3.1,0,4.7c0,1.6,0,3.1,0,4.7c0,0.3,0,0.3,0.3,0.3c1.2,0,2.3,0,3.5,0c0.4,0,0.8-0.1,1.2-0.2c1.3-0.4,2.1-1.3,2.1-2.6
		C27.4,20.2,27.4,18.7,27.4,17.2z M25.7,21.5C25.6,22.4,25,23,24,23c-0.6,0-1.2,0-1.8,0C22,23,22,23,22,22.8c0-1.1,0-2.2,0-3.4
		c0-1.1,0-2.2,0-3.3c0-0.2,0.1-0.2,0.2-0.2c0.6,0,1.3,0,1.9,0c0.9,0,1.5,0.6,1.6,1.5c0,0.9,0,1.7,0,2.6C25.7,20.5,25.7,21,25.7,21.5
		z"/>
	<path class="st2" d="M43.1,40.1c0-0.8-0.3-1.4-0.9-1.9c-0.7-0.6-1.5-0.8-2.4-0.8c-1.1,0-2.3,0-3.4,0c-0.3,0-0.3,0-0.3,0.3
		c0,1.6,0,3.1,0,4.7c0,1.6,0,3.1,0,4.7c0,0.3,0,0.3,0.3,0.3c1.2,0,2.3,0,3.5,0c0.4,0,0.8-0.1,1.2-0.2c1.3-0.4,2.1-1.3,2.1-2.5
		C43.2,43.2,43.2,41.7,43.1,40.1z M41.5,44.3c0,0.3-0.1,0.5-0.2,0.8c-0.2,0.6-0.8,1-1.4,1c-0.7,0-1.3,0-2,0c-0.2,0-0.2-0.1-0.2-0.2
		c0-1.1,0-2.3,0-3.4c0-1.1,0-2.2,0-3.3c0-0.2,0-0.3,0.2-0.3c0.6,0,1.2,0,1.7,0c1.1,0,1.8,0.6,1.8,1.8C41.5,41.8,41.5,43,41.5,44.3z"
		/>
	<path class="st2" d="M55.5,24.2c-0.4-0.9-0.9-1.8-1.3-2.7c-0.2-0.5-0.5-0.9-0.7-1.4c0.1,0,0.2-0.1,0.3-0.1c0.3-0.1,0.5-0.3,0.8-0.4
		c1.1-0.9,1.2-2.6,0.6-3.6c-0.5-1-1.5-1.5-2.6-1.5c-1.3,0-2.6,0-3.8,0c-0.3,0-0.3,0-0.3,0.3c0,1.4,0,2.7,0,4.1c0,1.8,0,3.6,0,5.4
		c0,0.3,0,0.3,0.3,0.3c0.4,0,0.7,0,1.1,0c0.3,0,0.3,0,0.3-0.3c0-1.3,0-2.5,0-3.8c0-0.2,0-0.2,0.2-0.2c0.5,0,0.9,0,1.4,0
		c0.2,0,0.3,0.1,0.4,0.3c0.6,1.3,1.2,2.6,1.8,3.9c0.1,0.1,0.1,0.2,0.3,0.2c0.4,0,0.8,0,1.2,0C55.5,24.5,55.6,24.4,55.5,24.2z
		 M52.3,18.9c-0.7,0-1.4,0-2.1,0c-0.2,0-0.2-0.1-0.2-0.2c0-0.4,0-0.9,0-1.3c0-0.4,0-0.9,0-1.3c0-0.1,0-0.2,0.2-0.2
		c0.7,0,1.4,0,2.1,0c0.9,0,1.5,0.6,1.5,1.5C53.8,18.2,53.2,18.9,52.3,18.9z"/>
	<path class="st2" d="M122,24.2c-0.4-0.8-0.8-1.6-1.2-2.4c-0.3-0.6-0.5-1.1-0.8-1.7c0.1,0,0.2-0.1,0.2-0.1c0.3-0.1,0.6-0.3,0.8-0.4
		c0.9-0.8,1.1-1.8,0.9-2.9c-0.3-1.4-1.4-2.2-2.8-2.2c-1.3,0-2.6,0-3.9,0c-0.2,0-0.3,0-0.3,0.3c0,0.3,0,0.6,0,1c0,2.8,0,5.6,0,8.5
		c0,0.3,0,0.3,0.3,0.3c0.3,0,0.7,0,1,0c0.3,0,0.3,0,0.3-0.3c0-1.2,0-2.5,0-3.7c0-0.3,0-0.3,0.3-0.3c0.4,0,0.9,0,1.3,0
		c0.2,0,0.3,0.1,0.4,0.3c0.6,1.3,1.2,2.6,1.8,3.9c0.1,0.1,0.2,0.2,0.3,0.2c0.4,0,0.8,0,1.2,0C122.1,24.5,122.2,24.4,122,24.2z
		 M118.9,18.9c-0.7,0-1.4,0-2.1,0c-0.1,0-0.2-0.1-0.2-0.2c0-0.4,0-0.9,0-1.3c0-0.4,0-0.9,0-1.3c0-0.1,0-0.2,0.2-0.2
		c0.7,0,1.4,0,2.1,0c0.9,0,1.5,0.6,1.5,1.5C120.4,18.2,119.8,18.9,118.9,18.9z"/>
	<path class="st2" d="M115.3,40.7c0-1.4-0.8-2.6-2.1-3.1c-0.7-0.3-1.4-0.3-2.1-0.3c-1.8,0.1-3.1,1.6-3.2,3.4c0,1.1,0,2.1,0,3.2
		c0,0.3,0,0.5,0,0.8c0.2,1.1,0.7,2,1.7,2.5c0.9,0.4,1.8,0.5,2.7,0.4c1.6-0.3,2.7-1.5,2.8-3.1c0-0.7,0-1.3,0-2c0,0,0,0,0,0
		C115.3,41.9,115.3,41.3,115.3,40.7z M113.7,44.2c0,0.6-0.2,1.1-0.7,1.5c-0.7,0.5-1.4,0.6-2.2,0.3c-0.7-0.3-1.1-0.9-1.1-1.7
		c0-0.6,0-1.2,0-1.9c0,0,0,0,0,0c0-0.6,0-1.3,0-1.9c0-1,0.8-1.8,1.8-1.8c1-0.1,1.9,0.5,2.1,1.5c0,0.2,0.1,0.3,0.1,0.5
		C113.7,41.9,113.7,43,113.7,44.2z"/>
	<path class="st2" d="M87,40.7c0-1.4-0.8-2.6-2-3.1c-0.7-0.3-1.4-0.3-2.1-0.3c-1.8,0.1-3.2,1.6-3.2,3.4c0,1.1,0,2.1,0,3.2
		c0,0.3,0,0.5,0,0.8c0.2,1.1,0.7,2,1.7,2.5c0.9,0.4,1.8,0.5,2.7,0.3c1.6-0.2,2.7-1.5,2.8-3.1c0-0.7,0-1.3,0-2c0,0,0,0,0,0
		C87,41.9,87,41.3,87,40.7z M85.4,44.2c0,0.9-0.5,1.6-1.3,1.9c-0.9,0.3-1.8,0-2.3-0.7c-0.3-0.4-0.4-0.8-0.4-1.2c0-0.6,0-1.1,0-1.7
		c0,0,0,0,0,0c0-0.6,0-1.2,0-1.9c0-1.2,1-2,2.2-1.8c1.1,0.1,1.7,0.9,1.7,2C85.4,41.9,85.4,43,85.4,44.2z"/>
	<path class="st2" d="M40.2,24.3c0-0.1,0-0.1,0-0.2c-0.6-1.8-1.2-3.6-1.7-5.4c-0.4-1.3-0.9-2.7-1.3-4c-0.1-0.2-0.1-0.3-0.3-0.3
		c-0.3,0-0.5,0-0.8,0c-0.3,0-0.5,0-0.8,0c-0.2,0-0.3,0.1-0.4,0.3c-0.6,1.9-1.2,3.7-1.8,5.6c-0.4,1.3-0.8,2.6-1.2,3.9
		c-0.1,0.2,0,0.3,0.2,0.3c0.4,0,0.8,0,1.2,0c0.2,0,0.3-0.1,0.3-0.2c0.1-0.4,0.3-0.9,0.4-1.3c0-0.1,0.1-0.2,0.3-0.2
		c1.2,0,2.3,0,3.5,0c0.2,0,0.2,0.1,0.3,0.2c0.1,0.4,0.3,0.9,0.4,1.3c0,0.1,0.1,0.2,0.2,0.2c0.5,0,0.9,0,1.4,0
		C40.2,24.5,40.3,24.4,40.2,24.3z M37.3,21.4c-0.9,0-1.8,0-2.6,0c-0.2,0-0.2,0-0.2-0.2c0.5-1.5,0.9-3.1,1.4-4.6c0,0,0-0.1,0.1-0.1
		c0,0,0,0,0.1,0c0.5,1.6,1,3.3,1.5,4.9C37.5,21.4,37.4,21.4,37.3,21.4z"/>
	<path class="st2" d="M87.9,24.1c-0.3-1.1-0.7-2.1-1-3.2c-0.7-2.1-1.3-4.1-2-6.2c-0.1-0.2-0.2-0.3-0.3-0.2c-0.5,0-1,0-1.5,0
		c-0.2,0-0.3,0.1-0.4,0.3c-0.7,2.1-1.4,4.3-2.1,6.4c-0.3,1-0.6,2-1,3c-0.1,0.3-0.1,0.3,0.2,0.3c0.4,0,0.8,0,1.2,0
		c0.2,0,0.3-0.1,0.3-0.2c0.1-0.4,0.3-0.9,0.4-1.3c0-0.2,0.1-0.2,0.3-0.2c1.2,0,2.3,0,3.5,0c0.2,0,0.2,0,0.3,0.2
		c0.1,0.5,0.3,0.9,0.4,1.4c0,0.1,0.1,0.2,0.2,0.2c0.2,0,0.4,0,0.7,0c0.2,0,0.4,0,0.6,0C88,24.5,88,24.4,87.9,24.1z M85.1,21.4
		c-0.9,0-1.8,0-2.7,0c-0.2,0-0.2,0-0.2-0.2c0.5-1.5,0.9-3,1.4-4.6c0-0.1,0-0.1,0.1-0.2c0,0,0,0,0.1,0c0.5,1.6,1,3.3,1.5,4.9
		C85.2,21.4,85.2,21.4,85.1,21.4z"/>
	<path class="st2" d="M52.3,47.1c-0.6-1.7-1.1-3.5-1.7-5.2c-0.5-1.4-0.9-2.8-1.4-4.2c-0.1-0.2-0.2-0.3-0.4-0.3c-0.3,0-0.5,0-0.8,0
		c-0.3,0-0.5,0-0.8,0c-0.2,0-0.3,0.1-0.4,0.3c-0.6,2-1.3,3.9-1.9,5.9c-0.4,1.2-0.8,2.4-1.1,3.6c-0.1,0.2,0,0.3,0.2,0.3
		c0.4,0,0.8,0,1.2,0c0.2,0,0.3-0.1,0.3-0.2c0.1-0.4,0.3-0.9,0.4-1.3c0-0.1,0.1-0.2,0.3-0.2c1.2,0,2.3,0,3.5,0c0.2,0,0.2,0.1,0.3,0.2
		c0.1,0.4,0.3,0.9,0.4,1.3c0.1,0.2,0.1,0.3,0.3,0.3c0.4,0,0.8,0,1.2,0C52.3,47.5,52.4,47.4,52.3,47.1z M49.5,44.4
		c-0.9,0-1.8,0-2.7,0c-0.2,0-0.2,0-0.1-0.2c0.5-1.5,0.9-3.1,1.4-4.6c0,0,0-0.1,0.1-0.2c0.5,1.6,1,3.2,1.5,4.9
		C49.6,44.4,49.5,44.4,49.5,44.4z"/>
	<path class="st2" d="M8.1,14.4c-1.4,0-2.7,0-4.1,0c-0.2,0-0.2,0.1-0.2,0.2c0,3.2,0,6.4,0,9.6c0,0.2,0.1,0.2,0.2,0.2
		c0.4,0,0.8,0,1.1,0c0.2,0,0.3,0,0.3-0.3c0-1.2,0-2.3,0-3.5c0-0.1,0-0.2,0-0.3c0.1,0,0.2,0,0.3,0c0.8,0,1.6,0,2.4,0
		c1.4-0.1,2.7-1,2.8-2.6C11.1,15.9,9.9,14.5,8.1,14.4z M8.8,18.6C8.5,18.9,8.1,19,7.7,19c-0.7,0-1.4,0-2.1,0c-0.1,0-0.2,0-0.2-0.2
		c0-0.5,0-1,0-1.4c0-0.5,0-0.9,0-1.4c0-0.1,0-0.2,0.2-0.2c0.7,0,1.4,0,2.1,0c0.7,0,1.2,0.4,1.5,1C9.4,17.5,9.2,18.2,8.8,18.6z"/>
</g>
<g id="Layer_8" class="st0">
	<path class="st2" d="M47.9,51c-0.4-0.2-0.7-0.4-1.1-0.7c0.9-1.6,1.8-3.2,2.8-4.9c-1.3-0.8-2.6-1.5-3.9-2.3
		c-0.5-0.3-0.8-0.6-0.7-1.3c0-1.2,0-2.5,0-3.7c0-0.7-0.2-1-0.9-0.9c-1.3,0-2.6,0-3.9,0c-0.4,0-0.9,0-0.9-0.6c0-0.6,0.3-0.7,0.8-0.7
		c1.4,0,2.7,0,4.1,0c0.6,0,0.8-0.2,0.8-0.8c0-1.4,0-2.9,0-4.3c0-0.6-0.2-0.8-0.8-0.8c-1.4,0-2.7,0-4.1,0c-0.4,0-0.8,0-0.8-0.6
		c0-0.6,0.4-0.6,0.8-0.6c1.3,0,2.7,0,4,0c0.7,0,0.9-0.2,0.9-0.9c0-1.4,0-2.7,0-4.1c0-0.7-0.2-0.9-0.9-0.9c-1.4,0-2.7,0-4.1,0
		c-0.4,0-0.7-0.1-0.7-0.6c0-0.5,0.2-0.7,0.7-0.7c1.4,0,2.8,0,4.2,0c0.6,0,0.8-0.2,0.8-0.8c0-1.3,0-2.6,0-3.9c0-0.6,0.1-0.9,0.7-1.2
		c1.3-0.7,2.6-1.5,4-2.3c-0.9-1.6-1.9-3.2-2.8-4.9c0.4-0.2,0.7-0.4,1.1-0.7c1,1.6,1.9,3.2,2.9,4.9c1.7-1,3.3-1.9,5-2.9
		c-0.9-1.7-1.9-3.3-2.8-4.9c0.4-0.2,0.7-0.4,1.1-0.7C55,6.1,56,7.7,57,9.4c1.7-1,3.3-1.9,5-2.9c-1-1.7-1.9-3.3-2.8-4.9
		c0.4-0.2,0.7-0.4,1.1-0.7c1,1.6,1.9,3.2,2.9,4.9c1.1-0.6,2.2-1.2,3.1-1.8c1.1-0.8,2-0.8,3.1,0c0.9,0.7,2,1.2,3.1,1.8
		c1-1.7,1.9-3.3,2.9-4.9c0.4,0.2,0.8,0.4,1.2,0.7c-1,1.7-1.9,3.3-2.8,4.9c1.7,1,3.3,1.9,5,2.9c1-1.7,1.9-3.3,2.9-4.9
		c0.4,0.2,0.8,0.4,1.2,0.7c-1,1.7-1.9,3.3-2.8,4.9c1.7,1,3.3,1.9,5,2.9c1-1.7,1.9-3.3,2.9-4.9c0.4,0.2,0.8,0.4,1.2,0.7
		c-0.9,1.7-1.9,3.3-2.8,4.9c1.3,0.8,2.5,1.5,3.8,2.2c0.6,0.3,0.9,0.8,0.8,1.5c-0.1,1.2,0,2.4,0,3.6c0,0.6,0.2,0.9,0.8,0.8
		c1.6,0,3.2,0,4.9,0c0,0.5,0,0.9,0,1.4c-0.7,0-1.4,0-2.2,0c-0.8,0-1.5,0-2.3,0c-1.2,0-1.2,0-1.2,1.2c0,1.5,0,2.9,0,4.5
		c1,0,1.9,0,2.9,0c0.7,0,1.4,0,2.1,0c0.5,0,0.8,0.1,0.8,0.7c0,0.7-0.4,0.7-0.9,0.7c-1.4,0-2.8,0-4.2,0c-0.2,0-0.6,0.3-0.6,0.4
		c0,1.7,0,3.5,0,5.3c1.9,0,3.8,0,5.7,0c0,0.5,0,0.9,0,1.4c-1.4,0-2.9,0-4.3,0c-1.5,0-1.4-0.2-1.4,1.4c0,1.1,0,2.2,0,3.3
		c0,0.5-0.2,0.8-0.6,1.1c-1.3,0.7-2.6,1.5-4,2.3c0.9,1.6,1.9,3.2,2.8,4.9c-0.4,0.2-0.7,0.5-1.2,0.7c-1-1.7-1.9-3.3-2.9-4.9
		c-1.7,1-3.3,1.9-5,2.9c0.9,1.7,1.9,3.2,2.8,4.9c-0.4,0.2-0.7,0.4-1.2,0.7c-1-1.6-1.9-3.2-2.9-4.9c-1.7,1-3.3,1.9-5,2.9
		c1,1.7,1.9,3.3,2.8,4.9c-0.4,0.2-0.8,0.5-1.2,0.7c-1-1.6-1.9-3.2-2.9-4.9c-1.3,0.7-2.6,1.4-3.8,2.2c-0.6,0.4-1.1,0.4-1.8,0
		c-1.2-0.8-2.5-1.4-3.8-2.2c-1,1.6-1.9,3.2-2.9,4.9c-0.4-0.2-0.7-0.4-1.2-0.7c0.9-1.6,1.8-3.2,2.8-4.9c-1.6-1-3.3-1.9-5-2.9
		c-1,1.7-1.9,3.3-2.9,4.9c-0.4-0.2-0.7-0.4-1.1-0.7c0.9-1.7,1.9-3.3,2.8-4.9c-1.7-1-3.3-1.9-5-2.9C49.8,47.8,48.9,49.4,47.9,51z
		 M80.5,29.5c0-7-5.6-12.6-12.6-12.6c-7,0-12.7,5.6-12.7,12.7c0,7,5.7,12.6,12.7,12.6C74.9,42.2,80.5,36.5,80.5,29.5z M68.9,7
		c0,0.1-0.1,0.1-0.1,0.2c0.2,0.1,0.3,0.3,0.5,0.4c4.9,3.9,9.8,7.7,14.7,11.6c0.4,0.3,0.8,0.7,0.8,1.1c0.9,5.6,1.6,11.3,2.5,16.9
		c0.2,1.1,0.3,2.2,0.5,3.2c0.1,0,0.1,0,0.2,0c0-0.3,0-0.6,0-0.8c0-6.9,0-13.8,0-20.7c0-0.7-0.2-1.1-0.9-1.5
		c-5.8-3.3-11.6-6.7-17.4-10.1C69.4,7.2,69.2,7.1,68.9,7z M66.9,7.1c0,0-0.1-0.1-0.1-0.1c-0.1,0.1-0.3,0.1-0.4,0.2
		c-6.1,3.5-12.1,7-18.2,10.4c-0.5,0.3-0.6,0.6-0.6,1.1c0,7.1,0,14.1,0,21.2c0,0.2,0,0.4,0.1,0.7c0.2-0.4,0.3-0.7,0.3-1.1
		c0.9-6.3,1.8-12.6,2.8-18.9c0.1-0.4,0.4-1,0.7-1.2c4.2-3.4,8.5-6.7,12.7-10C65.1,8.5,66,7.8,66.9,7.1z M48.9,41.6
		c0,0,0,0.1-0.1,0.1c0.2,0.1,0.4,0.3,0.6,0.4c5.9,3.4,11.8,6.8,17.7,10.2c0.6,0.3,1,0.3,1.5,0c5.9-3.4,11.8-6.8,17.7-10.2
		c0.2-0.1,0.5-0.3,0.7-0.5c-0.4,0-0.8,0.1-1.1,0.2c-5.7,2.3-11.5,4.6-17.2,6.9c-0.6,0.2-1.1,0.3-1.7,0c-5.7-2.3-11.4-4.5-17.1-6.8
		C49.6,41.8,49.2,41.7,48.9,41.6z"/>
	<path class="st2" d="M67.8,30.5c-2.4,2.3-5.1,3.5-8.3,3.5c0-0.2-0.1-0.4-0.1-0.6c0-0.2,0-0.3,0-0.6c1.1,0.1,1-0.6,1-1.4
		c0-1.4,0-2.7,0-4.1c0-0.7-0.2-1.1-1-1c0-0.4,0-0.8,0-1.2c3.3-0.1,6,1.2,8.4,3.5c2.3-2.5,5.1-3.6,8.4-3.6c0,0.4,0,0.8,0,1.3
		c-1.1-0.1-1,0.6-1,1.4c0,1.3,0,2.7,0,4c0,0.9,0,0.9,1,1.1c0,0.4,0,0.8,0,1.3C72.9,34.2,70.2,33,67.8,30.5z M73.9,26.7
		c-0.3,0.1-0.5,0.1-0.8,0.1c-1.2,0.3-1.2,0.3-1.2,1.6c0,0.8,0,1.5,0,2.3c0,1.3,0.6,1.8,2,1.6C73.9,30.4,73.9,28.6,73.9,26.7z
		 M61.7,32.5c0.4-0.1,0.7-0.2,1-0.3c0.8-0.2,1.2-0.6,1.1-1.5c-0.1-0.7,0-1.4,0-2.1c0-1.3-0.6-1.9-2.1-1.8
		C61.7,28.6,61.7,30.5,61.7,32.5z M68.8,29.5c0.6,0.5,1.1,0.9,1.7,1.5c0-1.1,0-1.9,0-3C69.8,28.6,69.4,29,68.8,29.5z M65.2,31
		c0.6-0.6,1.1-1,1.7-1.5c-0.6-0.5-1.1-0.9-1.7-1.4C65.2,29.1,65.2,30,65.2,31z"/>
</g>
<g id="HTAN" class="st0">
	<g class="st3">
		<path class="st4" d="M125.8,32.3c0-6.6,0-13.1,0-19.7c2.5,0,4.9,0,7.4,0c0,10.9,0,21.8,0,32.8c-0.2,0-0.4,0-0.6,0
			c-1.7,0-3.3,0-5,0c-0.4,0-0.6-0.1-0.9-0.4c-4.2-5.1-8.4-10.2-12.6-15.3c-1-1.3-2.1-2.6-3.1-3.8c-0.1-0.1-0.2-0.2-0.4-0.4
			c0,6.7,0,13.3,0,19.9c-2.5,0-4.9,0-7.4,0c0-0.2,0-0.4,0-0.7c0-10.5,0-20.9,0-31.4c0-0.8,0-0.8,0.8-0.8c1.7,0,3.3,0,5,0
			c0.4,0,0.6,0.1,0.9,0.4c5.1,6.3,10.2,12.5,15.3,18.7c0.2,0.2,0.4,0.5,0.6,0.7C125.7,32.3,125.7,32.3,125.8,32.3z"/>
		<path class="st4" d="M1.6,12.6c2.5,0,4.9,0,7.5,0c0,4.3,0,8.6,0,12.9c5,0,10,0,15,0c0-4.3,0-8.6,0-12.9c0.2,0,0.4-0.1,0.5-0.1
			c2.1,0,4.3,0,6.4,0c0.5,0,0.6,0.1,0.6,0.6c0,10.6,0,21.2,0,31.7c0,0.2,0,0.3,0,0.5c-0.2,0-0.4,0-0.5,0c-2.1,0-4.3,0-6.4,0
			c-0.5,0-0.6-0.2-0.6-0.6c0-4,0-8.1,0-12.1c0-0.2,0-0.5,0-0.7c-5,0-10,0-15,0c0,4.5,0,8.9,0,13.4c-2.5,0-5,0-7.5,0
			C1.6,34.4,1.6,23.5,1.6,12.6z"/>
		<path class="st4" d="M99.5,45.4c-2.1,0-4.1,0-6,0c-0.6,0-1.4,0.2-1.8-0.1c-0.4-0.3-0.6-1.1-0.8-1.6c-0.7-1.6-1.4-3.2-2-4.8
			c-0.1-0.3-0.3-0.5-0.7-0.5c-4.8,0-9.6,0-14.4,0c-0.4,0-0.5,0.2-0.7,0.5c-0.8,2-1.7,4.1-2.5,6.1c-0.1,0.4-0.3,0.5-0.7,0.5
			c-2.2,0-4.4,0-6.6,0c-0.2,0-0.3,0-0.5,0c0.1-0.3,0.2-0.5,0.3-0.7c4.7-10.5,9.4-21.1,14.1-31.6c0.2-0.4,0.4-0.5,0.8-0.5
			c2.2,0,4.3,0,6.5,0c0.4,0,0.6,0.1,0.7,0.5c3.3,7.4,6.6,14.8,9.9,22.1c1.4,3.2,2.8,6.3,4.2,9.5C99.3,44.8,99.4,45.1,99.5,45.4z
			 M86.3,32.6c-1.8-4.2-3.5-8.4-5.2-12.5c0,0-0.1,0-0.1,0c-1.7,4.2-3.4,8.3-5.2,12.5C79.4,32.6,82.8,32.6,86.3,32.6z"/>
		<path class="st4" d="M64.5,12.5c0,0.5,0,0.9,0,1.3c0,1.4,0,2.8,0,4.2c0,0.6-0.2,0.7-0.7,0.7c-3.1,0-6.1,0-9.2,0
			c-0.6,0-0.8,0.1-0.8,0.7c0,8.4,0,16.8,0,25.2c0,0.2,0,0.5,0,0.8c-2.5,0-5,0-7.5,0c0-8.9,0-17.8,0-26.7c-3.5,0-7,0-10.5,0
			c0-1.1,0-2.1,0-3.2c0-0.8,0-1.6,0-2.4c0-0.4,0.1-0.5,0.5-0.5c0.6,0,1.2,0,1.7,0c8.5,0,17,0,25.5,0C63.9,12.5,64.2,12.5,64.5,12.5z
			"/>
	</g>
</g>
<g id="Layer_10" class="st0">
	<path class="st2" d="M116.5,8.5c1.3,0.3,2.6,0.5,3.9,0.8c4.9,1.3,8.5,5.7,8.9,10.8c0,0.5,0.1,1,0.2,1.6c-1.8,0-3.5,0-5.3,0
		c-0.1-0.6-0.2-1.2-0.4-1.9c-0.9-3.5-3.2-5.4-6.6-6.2c-3.1-0.7-6.2-0.5-9.2,0.8c-2.9,1.3-4.1,5-3.1,7.7c0.5,1.2,1.4,2,2.6,2.6
		c2.2,1.2,4.6,1.6,6.9,2.2c3.3,0.8,6.6,1.6,9.7,2.7c3.2,1.1,5.8,3.2,6.6,6.6c1.4,5.6-0.1,10.4-5.5,13.5c-2.7,1.6-5.7,2.1-8.8,2.3
		c-3.2,0.2-6.3-0.2-9.3-1.2c-2.4-0.8-4.6-2.1-6.4-4.2c-0.4,0.4-0.7,0.9-1.1,1.3c-2.6,2.3-5.7,3.3-9,3.8c-3.7,0.6-7.4,0.3-11.1-0.8
		c-3-1-5.7-2.5-7.5-5.2c-0.1-0.1-0.2-0.2-0.3-0.4c-1.5,2-3.3,3.7-5.6,4.8c-2.3,1.1-4.8,1.6-7.4,1.8c-2.5,0.2-4.9,0-7.3-0.6
		c-5.3-1.3-9-4.6-11.5-9.5c-0.1,0.2-0.2,0.4-0.3,0.6c-2.2,5.7-6.5,8.5-12.3,9.4c-3.6,0.5-7.1,0.5-10.6-0.7
		C11.4,49.4,8,45.8,5.9,40.8c-1.6-4-2.1-8.2-1.8-12.5c0.3-4.2,1.4-8.2,3.7-11.8C11,11.9,15.4,9.3,21,8.7c0.1,0,0.2-0.1,0.3-0.1
		c1.7,0,3.3,0,5,0c0.2,0,0.4,0.1,0.6,0.1c3.7,0.4,7.1,1.7,9.8,4.4c1.6,1.5,2.6,3.4,3.3,5.5c0.2-0.3,0.3-0.4,0.4-0.6
		c2.1-4.1,5.5-6.9,9.9-8.4c1.5-0.5,3-0.7,4.6-1.1c1.6,0,3.2,0,4.8,0c0.1,0,0.2,0.1,0.4,0.1c3.4,0.4,6.5,1.5,9.1,3.6
		c1,0.8,2,1.7,3,2.5c1.7-2.9,4.6-4.6,8-5.6c1.1-0.3,2.2-0.5,3.3-0.7c1.6,0,3.2,0,4.8,0c1.1,0.2,2.3,0.4,3.4,0.7
		c2.6,0.6,4.8,1.9,6.6,4c0.6,0.7,1.1,1.5,1.7,2.3c1.7-3.2,4.4-5.1,7.7-6.1c1.3-0.4,2.7-0.6,4-0.9C113.3,8.5,114.9,8.5,116.5,8.5z
		 M69.5,35.5c1.1,0.5,2.4,1.1,3.7,1.5c0.7,0.2,0.9,0.6,1.1,1.3c0.9,3.7,2.9,6.7,6.7,8.1c2.6,1,5.3,1.3,8.1,0.9
		c2-0.3,3.9-0.7,5.6-1.9c3.4-2.4,3.9-8.6-0.8-10.8c-2.1-1-4.3-1.6-6.5-2.1c-3.2-0.8-6.5-1.5-9.6-2.5c-3.9-1.3-6.7-3.7-7.1-8.3
		c-0.6,0.1-1.2,0.2-1.7,0.3c-0.1-0.1-0.1-0.1-0.1-0.2c0-0.2-0.1-0.4-0.1-0.6c-0.6-2-1.5-3.8-3.1-5.2c-2.6-2.2-5.7-3-9-2.9
		c-4,0.1-7.4,1.7-9.9,5c-2.3,3-3.2,6.6-3.5,10.3c-0.2,2.8,0.1,5.6,0.8,8.4c0.9,3.1,2.3,5.8,4.9,7.8c2.9,2.3,6.3,3,9.9,2.6
		c4.4-0.4,7.6-2.7,9.3-6.8C68.7,39,69,37.2,69.5,35.5z M35.4,22.3c-0.2-0.8-0.4-1.4-0.6-2c-1.1-2.9-2.9-5.2-5.9-6.3
		c-2.3-0.8-4.6-1-6.9-0.8c-5.3,0.6-8.8,3.6-10.7,8.4c-1.8,4.4-1.9,9-0.9,13.7c0.6,3,1.8,5.8,4,8.1c2.6,2.8,5.9,4,9.8,4
		c4.7-0.1,9.1-2.9,10.8-7.4c0.5-1.4,0.8-3,1.2-4.5c0.2,0.1,0.5,0.2,0.8,0.3c0.3,0.1,0.6,0.2,1,0.4c-0.9-5.2-0.6-10.1,1.1-15.1
		C37.8,21.6,36.6,22,35.4,22.3z M95.9,21.8c-0.1-0.5-0.1-0.8-0.2-1.1c-0.4-2.3-1.4-4.3-3.5-5.6c-4-2.4-8.3-2.4-12.5-0.6
		c-2.5,1.1-3.5,3.4-3.4,6.1c0.1,2.4,1.6,3.7,3.5,4.4c2.3,0.8,4.6,1.4,7,2c3.7,0.9,7.4,1.5,10.7,3.4c2.6,1.4,4.4,3.4,5.1,6.3
		c0.2,1,0.2,2,0.4,3c0.7,3.3,2.8,5.5,5.9,6.6c4,1.5,8,1.5,12,0c2.8-1,4.2-3.1,4.4-6.1c0.2-2.7-1.3-4.9-4-5.9
		c-1.8-0.7-3.6-1.2-5.5-1.7c-3.5-1-7.1-1.7-10.6-2.9c-3.6-1.2-6.1-3.6-6.6-7.6c0-0.2-0.1-0.3-0.2-0.5C97.8,21.8,96.9,21.8,95.9,21.8
		z"/>
</g>
<g id="Utah">
	<path class="st4" d="M100.4,58c-3.7,0-7.3,0-10.9,0c-4,0-8,0-12,0c-0.9,0-1.6,0-1.8-1.1c-0.3-1.6-1.4-2.2-2.9-2.2
		c-3.2,0-6.5,0-9.7,0c-2,0-2.5,0.6-3.5,3.3c-0.7,0-1.6,0-2.4,0c-6.8,0-13.6,0-20.4,0c-0.8,0-1.9,0.1-1.6-1.2c0.2-1.2-1.1-3,1.2-3.6
		c0.1,0,0.3,0,0.4-0.1c4.7-1,4.7-1,4.7-5.9c0-12.9,0-25.8,0-38.6c0-1.6-0.3-2.6-2.1-2.5c-0.2,0-0.4-0.1-0.6-0.1
		c-4.1-0.7-4.1-0.7-3.4-5.1c8.1,0,16.2,0,24.3,0c1.4,3.3,1.4,3.3,5.3,3.3c2.6,0,5.2,0,7.8,0c1.7,0,2.7-0.6,3.2-2.3
		c0.1-0.4,0.8-1.1,1.2-1.1c7.8-0.1,15.6,0,23.7,0c0,1.4,0.1,2.5,0,3.7c0,0.4-0.5,0.7-0.8,1c-0.1,0.1-0.4,0.1-0.6,0.1
		c-1.6,0.4-3.7,0.3-4.5,1.3c-0.8,0.9-0.3,3-0.3,4.6c0,12.8,0,25.6,0,38.4c0,1.8,0.4,2.8,2.3,2.8c0.2,0,0.4,0.1,0.6,0.1
		C101.1,53.5,101.1,53.6,100.4,58z M71.5,23.8c0-2.1-1.6-3.8-3.7-3.8c-2.1,0-3.8,1.7-3.7,3.8c0,2,1.7,3.6,3.7,3.6
		C69.9,27.5,71.5,25.9,71.5,23.8z M68.4,38.8c2,0,3.7-1.7,3.7-3.8c0-2-1.6-3.6-3.6-3.7c-2.1-0.1-3.8,1.5-3.8,3.6
		C64.7,37.1,66.3,38.8,68.4,38.8z M78.9,30.1c0.1-1.5-1.2-3-2.7-3.1c-1.6-0.1-3,1.1-3.1,2.7c-0.1,1.6,1,3,2.6,3.1
		C77.3,32.9,78.7,31.7,78.9,30.1z M63.2,29c0-1.6-1.2-2.9-2.8-2.9c-1.7,0-2.9,1.2-2.9,2.8c0,1.6,1.2,2.9,2.8,3
		C61.8,31.9,63.1,30.6,63.2,29z M74.7,15.3c-1.5,0-2.8,1.2-2.8,2.7c0,1.4,1.2,2.6,2.6,2.7c1.5,0.1,2.8-1.1,2.9-2.6
		C77.5,16.6,76.3,15.3,74.7,15.3z M64.2,40.9c0-1.6-1-2.7-2.7-2.7c-1.6,0-2.8,1.1-2.8,2.7c0,1.4,1.2,2.6,2.6,2.7
		C63,43.7,64.2,42.5,64.2,40.9z M54.1,5.2c0.1,1.1,0.9,1.9,2.3,2c1.3,0.1,2.5-1.2,2.3-2.4c-0.1-1.3-0.9-2.2-2.3-2.3
		C55,2.5,54,3.6,54.1,5.2z M82.2,53.8c-0.1-1.2-0.8-2.1-2.2-2.2c-1.3-0.1-2.4,1-2.4,2.3c0,1.4,0.8,2.2,2.2,2.3
		C81.1,56.4,82.2,55.3,82.2,53.8z M81.8,23.5c-0.1-1.4-0.8-2.2-2.2-2.2c-1.2,0-2,0.8-2.1,2c0,1.3,0.7,2.2,2.1,2.2
		C81,25.6,81.7,24.8,81.8,23.5z M59.4,34.8c-0.6-0.4-1.3-1.4-2.2-1.5c-1.3-0.2-2.3,0.8-2.1,2.1c0.1,0.8,1.1,1.8,1.9,2.1
		C58.3,37.7,59.1,36.8,59.4,34.8z M54.6,46c0,0.3,0,0.6,0,0.9c0.8,0.6,1.6,1.5,2.4,1.7c1.3,0.2,2.1-0.7,2.2-2c0-1.3-0.9-2.3-2.1-2.1
		C56.2,44.6,55.4,45.5,54.6,46z M76.2,11.8c0,0.3,0,0.6,0,0.9c0.8,0.6,1.6,1.5,2.5,1.6c1.3,0.2,2.1-0.8,2.1-2.1c0-1.2-0.8-2.2-2-2
		C77.8,10.3,77.1,11.2,76.2,11.8z M77.8,48.6c0-0.3,0-0.6,0-0.9c-0.8-0.5-1.6-1.5-2.3-1.4c-0.7,0-1.7,1-1.9,1.8
		c-0.3,1.2,0.7,2.2,1.8,2C76.3,50,77,49.1,77.8,48.6z M63.1,11.2c0-0.3,0-0.6,0-0.9c-0.8-0.5-1.5-1.4-2.3-1.5
		c-1.2-0.2-2.2,0.8-1.9,2c0.2,0.8,1.2,1.8,1.9,1.8C61.4,12.7,62.3,11.7,63.1,11.2z M71.9,44.7c0-0.3,0-0.6,0-0.8
		c-0.7-0.5-1.5-1.3-2.2-1.3c-0.6,0.1-1.6,1.1-1.7,1.7c-0.2,1.1,0.7,2,1.9,1.7C70.6,45.9,71.2,45.2,71.9,44.7z M68.7,15
		c0-0.3,0-0.6,0-0.9c-0.7-0.5-1.3-1.2-2.1-1.3c-1.2-0.2-2,0.6-1.8,1.8c0.1,0.7,1.1,1.7,1.7,1.7C67.2,16.3,67.9,15.4,68.7,15z
		 M80.2,6.5c-1-0.8-1.6-1.6-2-1.5c-0.6,0.1-1.4,0.8-1.5,1.4c-0.1,0.4,0.8,1.4,1.3,1.4C78.5,7.9,79.1,7.2,80.2,6.5z M60.3,52.4
		c-1-0.7-1.6-1.5-2-1.4c-0.6,0.1-1,0.9-1.6,1.5c0.5,0.5,1,1.3,1.6,1.4C58.8,53.9,59.4,53.1,60.3,52.4z"/>
</g>
<g id="deafult" class="st0">
	<g id="Default" class="st3">
		<g>
			<path class="st4" d="M67.8,0.4c-15.9,0-28.9,12.9-28.9,28.8S51.9,58,67.8,58s28.9-12.9,28.9-28.8S83.7,0.4,67.8,0.4z M67.8,52.4
				c-12.8,0-23.1-10.5-23.1-23.2c0-12.8,10.4-23.1,23.1-23.1C80.6,6.1,91,16.5,91,29.2C90.9,41.9,80.6,52.4,67.8,52.4z"/>
			<path class="st4" d="M74.5,37.1c-1.9,1.3-4.2,2.2-6.7,2.2c-2.5,0-4.8-0.8-6.7-2.2c-3.5,1.8-5.5,4.1-7.2,7.4
				c3.9,3.5,8.9,5.3,13.8,5.3c5.4,0,10.5-2.2,13.8-5.3C80.2,41.3,77.6,38.6,74.5,37.1z"/>
			<path class="st4" d="M60,34.8l0.2-0.1c-0.9-1.5-2.1-2.7-3.7-3.4c-1.1,0.8-2.5,1.2-3.9,1.2c-1.4,0-2.7-0.4-3.9-1.2
				c-0.5,0.3-1,0.5-1.4,0.9c0.4,3.4,2,7.3,4.6,10.3c0,0,0,0.1,0.1,0.1C53.8,39.3,56.6,36.5,60,34.8z"/>
			<path class="st4" d="M52.6,29.9c2,0,3.7-1.7,3.7-3.7s-1.7-3.7-3.7-3.7c-2,0-3.7,1.7-3.7,3.7C49,28.4,50.5,29.9,52.6,29.9z"/>
			<path class="st4" d="M67.8,34.7c3.5,0,6.5-2.9,6.5-6.4s-2.9-6.5-6.5-6.5s-6.4,2.9-6.4,6.5S64.2,34.7,67.8,34.7z"/>
			<path class="st4" d="M83,29.9c2,0,3.7-1.7,3.7-3.7S85,22.6,83,22.6c-2,0-3.7,1.7-3.7,3.7C79.2,28.4,80.9,29.9,83,29.9z"/>
			<path class="st4" d="M83,32.6c-1.4,0-2.8-0.4-3.9-1.2c-1.6,0.8-2.8,1.9-3.7,3.4l0.2,0.1c3.5,1.7,6.2,4.5,8,7.8
				c2.5-2.9,4.1-6.5,4.7-10.4c-0.4-0.4-1-0.7-1.5-0.9C85.7,32.1,84.4,32.6,83,32.6z"/>
		</g>
	</g>
</g>
<g id="Ped_Genomics" class="st0">
	<g class="st3">
		<path class="st5" d="M66.9,3.5c0.8-0.2,3.5-0.3,3.8-0.2c0.6-0.3,0.3,0.1,0.5-0.7c0.6,0,0.8,0,1.1,0.2c0.2,0,0.3,0,0.5,0
			c0,0.2,0,0.5,0,0.7c1.6,0,2.4-0.2,3.2,0.2c0.5-0.1,0.4-0.1,0.7-0.2c0.2-0.2,0.3-0.9,0.5-1.1c-0.1-0.5-0.1-0.4-0.2-0.7
			c-1.7-1.3-8.5-1-10.4-0.9c0,0.7,0.1,1.8,0.5,2.3C66.9,3.2,66.9,3.3,66.9,3.5z"/>
		<path class="st5" d="M55.8,7.8c0-0.1,0-0.2,0-0.2c0.2-0.4,0,0,0-0.5c0.5-0.1,0.5-0.3,0.9,0c0.6-0.3,0.4-0.3,0.5-1.1
			c0.7-0.1,1.4,0.2,2,0c2.1-0.7,4.6-2.7,7-2.7c-0.1-0.5-0.2-1.4-0.5-1.8c0-0.2,0-0.3,0-0.5c-0.5,0-0.9,0-1.4,0
			c-1.3,1-4.3,0.9-6.3,1.8c-1.4,0.7-2.9,2.1-4.5,2.5c0.4,1.2,1.1,1.4,1.4,2.7C55.5,7.6,55.1,7.7,55.8,7.8z"/>
		<path class="st5" d="M77.7,5c0.6,0,0.8-0.1,1.1-0.2C79,5.2,79,5.2,79.1,5.7c0.5-0.1,0.9-0.2,1.4-0.2c0,0.2,0,0.5,0,0.7
			c0.5-0.2,0.4-0.1,0.7-0.5c0.6,0.5,2.1,1.1,2.5,1.8c0.2,0.5,0.2,0.3-0.2,0.7c0.6,0.9,1.6,1.2,2.3,2c1.4-0.3,1.7-1.8,2.7-2.5
			c-0.5-2.5-7.9-4.3-9.9-5.9c-1.2,0.3-0.8,1.2-1.4,2C77.3,4.4,77.5,4.4,77.7,5z"/>
		<path class="st5" d="M67.1,4.8C67,4.9,66.9,5,66.9,5c0.1,0.4,0.2,0.8,0.2,1.1c1.6,0.2,1.8,0.3,4.1,0.2c-0.1,0.5,0,0.6-0.2,0.9
			c0.3,0.2,0.8,0.5,1.1,0.7c0.2-0.5,0.4-0.6,0.9-0.9c0.1,0.2,0.2,0.5,0.2,0.7c0.5-0.2,0.4-0.5,0.7-0.7c0.5-0.2,1,0.2,1.4,0
			c0.5-0.3,0.3-0.3,0.7-0.7c0-0.2,0-0.5,0-0.7c-1.8-0.4-3.1-0.6-5-0.9C69.5,4.6,68.2,5.1,67.1,4.8z"/>
		<path class="st5" d="M66.2,5c-3.1,0.7-7.7,1.6-9.9,3.8C56.2,9,56.1,9,56,9.1c0.1,0,0.2,0,0.2,0c0.2,1,0.7,1.4,1.1,2.3
			c0.2,0.1,0.3,0.2,0.5,0.2c0.2-0.6,0-0.7,0-1.6c0.5,0.1,0.4,0.1,0.7,0.2c0.3-0.3,0.5-0.6,0.7-0.9c1.6,0.1,3.1,0.6,4.7-0.9
			c0.6-0.3,0.5-0.8,0.9-1.4C65,7,65.9,6.8,66.4,6.6c0-0.6,0-0.8-0.2-1.1C66.2,5.3,66.2,5.2,66.2,5z"/>
		<path class="st5" d="M47.2,14.3c0.5,0.2,0.8-0.2,1.6,0c0-0.5,0-0.9,0-1.4c0.3,0,0.6,0,0.9,0c0-0.4,0-0.8,0-1.1
			c0.6,0.1,0.6,0,0.9,0.2c0.2,0,0.3,0,0.5,0c-0.2-0.2-0.5-0.5-0.7-0.7c0.4-1,3.2-3,4.1-2.9c-0.3-1.1-0.8-1.9-1.6-2.5
			c0-0.1,0-0.2,0-0.2c-2,0.6-6.6,5.1-7.2,7c-0.1,0-0.2,0-0.2,0C45.7,13.6,46.4,14.1,47.2,14.3z"/>
		<path class="st5" d="M75.9,7.8c0.4,0.6,0.6,0.5,0.7,1.6c0.5-0.2,0.4-0.1,0.7-0.5c0.7,0.3,0.4,0.8,0.9,1.1c0.6,0.5,1.3,0.1,2,0.5
			c0.9,0.4,2.1,1.7,2.7,2.5c0.5-0.1,0.4-0.1,0.7-0.2c0.9-0.3,1.6-1.4,2-2.3c-2.9-1.8-6.2-3.6-9-4.7C76.4,6.4,76.3,7.3,75.9,7.8z"/>
		<path class="st5" d="M88.8,11.1c0.1,0.2,0,0.1,0.2,0c0.7-0.3,1.2-0.8,1.6-1.4c0.3-0.8-0.9-1.2-1.4-2c-0.2,0-0.5,0-0.7,0
			C87.5,9.2,87.2,9.8,88.8,11.1z"/>
		<path class="st5" d="M52.4,16.3c0.2-0.3,0.1-0.3-0.2-0.7c0.4-0.3,0.7-0.4,1.4-0.5c0-0.2,0-0.5,0-0.7c0.2,0,0.5,0,0.7,0
			c0.2-1.1,1.1-1.7,2-2c0.2-0.2,0.2-0.1,0.7-0.2c0-0.2,0-0.5,0-0.7c-0.6-0.6-1.2-1.5-1.6-2.3c-3.3,0.6-3.9,4.6-6.5,5.6
			c0.3,0.9,1,1.2,1.8,1.6C50.7,16.6,52.1,16.5,52.4,16.3z"/>
		<path class="st5" d="M58.7,10.2c0,0.2,0,0.3,0,0.5C59.1,10.5,59,10.6,58.7,10.2z"/>
		<path class="st5" d="M91,15.2c0,0.1,0,0.2,0,0.2c1-0.3,2.1-1,2.7-1.8c0.5-0.5-1.7-2.6-2-3.4c-0.2,0-0.5,0-0.7,0
			c-0.6,0.6-1.2,1.2-1.8,1.8C89.3,13.4,90.2,14.6,91,15.2z"/>
		<path class="st5" d="M52.9,38.2c0.4-0.1,0.2,0,0.5-0.2c0.2-0.6-0.7-1.3-0.9-2c-0.5-1.3-0.8-3.8-1.1-5.9c-0.1-0.7,0.3-2.7,0.5-3.4
			c1.4-6.2,4.8-11.3,10.6-13.8c1.4-0.6,4-0.6,5.2-1.4c1.2,0,2.4,0,3.6,0c-0.5-0.9-1.9-0.5-2.7-0.7c-0.5,0.3-1.4,0-2.3,0.2
			c-1.9,0.5-4.2,1.1-5.9,2c-5.1,2.8-11.6,11-9.3,19.9C51.7,34.8,52.3,36.5,52.9,38.2z"/>
		<path class="st5" d="M85.1,12c-0.1,0-0.2,0-0.2,0c0.2,0.6,0.3,0.5,0.5,1.1c0.9,0,0.9-0.1,2-0.2c-0.2-1.3-0.7-1.1-1.1-2
			C85.6,11.2,85.4,11.3,85.1,12z"/>
		<path class="st5" d="M71.4,11.1c0.1,0.4,0,0.2,0.2,0.5c1.3,0.8,3.4,0.4,4.5,1.4c0.3,0,0.6,0,0.9,0c-0.2-0.5-0.2-0.5-0.5-0.9
			C74.8,11.7,73.5,11.1,71.4,11.1z"/>
		<path class="st5" d="M82.9,17c-0.6-1.9-3.8-3.6-5.6-4.3c-0.2,0.9,4.1,3.1,5,4.3C82.4,17,82.7,17,82.9,17z"/>
		<path class="st5" d="M56.9,21.1c0.5,0.3,0.4,0.3,1.1,0.5c0.1-0.5,0.1-0.4,0.2-0.7c0-0.2,0-0.3,0-0.5c0.2,0,0.5,0,0.7,0
			c0.3-1.1,0.7-0.7,0.9-1.8c1-0.1,3.5-2,3.6-2.5c1.2-0.1,1.7-0.2,2.5-0.7c0.4-0.2,0.8,0.9,1.4,0.7c0.1-0.2,0.2-0.5,0.2-0.7
			c0.6-0.2,1.9-0.4,2.3-0.5c1.3-0.2,2.1,1.4,3.4,0.7c1.6,0.2,1.6,1.2,2,1.8c0.5,0.1,0.3,0.1,0.7-0.5c0.6,0.3,0.3-0.1,0.5,0.7
			c0.2-0.2,0.3-0.3,0.5-0.5c0.6,0.3,0.3-0.1,0.5,0.7c1.1,0.2,1.4,0.8,1.8,1.6c1.4-0.1,1.6-0.3,2-1.4c-0.4-0.3-0.3-0.1-0.5-0.7
			c-0.7,0.1-0.5,0-0.9,0.5c-0.1,0-0.2,0-0.2,0c0.2-0.2,0.3-0.3,0.5-0.5c-0.2-1.1-1.6-1.7-2.7-1.8c-0.1-0.7-0.1-0.8-0.5-1.1
			c0-0.1,0-0.2,0-0.2c-0.6,0.3-0.3-0.1-0.5,0.7c-0.6-0.3-0.3,0.1-0.5-0.7c-2.1,0-3-0.9-4.5-1.4c-0.1,0.4-0.2,0.7-0.2,1.4
			c-0.2-0.3-0.2-0.6-0.2-1.1c-1,0.1-3.9-0.1-4.7,0.5c-0.6,0.3-0.3-0.1-0.5,0.7c-1.6-0.9-4.1,1-5.4,1.8c-0.2-0.1-0.5-0.2-0.7-0.2
			c-1,0.7-0.7,1.9-2.3,2.3c-0.1,0.4-0.2,0.8-0.2,1.1c-0.8,0.2-0.6,0.3-1.1,0.7c0,0.2,0,0.5,0,0.7c0.2,0,0.5,0,0.7,0
			c0,0.2,0,0.3,0,0.5c-0.3-0.2-0.5-0.2-0.7-0.5c-1.3,1.4-2.4,3.7-2.5,5.6c0.8,0,1.2,0.1,1.6,0.5C55.8,26.4,57.3,22.1,56.9,21.1z"/>
		<path class="st5" d="M87.9,12.9c-0.5,0.8-1.2,1.9-2,2.5c0.3,0.9,0.9,1.4,1.4,2.3c1.5-0.3,1.9-1.2,3.2-1.6
			C90,15,88.9,13.3,87.9,12.9z"/>
		<path class="st5" d="M44.3,19c0.2-0.2,0.3-0.4,0.5-0.7c0.3,0,0.6,0,0.9,0c0.3-1.6,0.9-2.1,1.4-3.6c-0.6-0.5-1.3-1-2-1.4
			c-1,1.9-2.3,4-3.2,6.1c-0.4,1.1-0.3,2.3-0.9,3.2c0,0.3,0,0.6,0,0.9c1,0.2,1.6,0.5,2.9,0.5C44,21.9,45,20.9,44.3,19z"/>
		<path class="st5" d="M92.8,14.5c-0.1,1.5,0.5,2.1-0.7,3.4c0,0.2,0,0.3,0,0.5c0.5-0.2,1-0.4,1.4-0.7c0.8,1,0.8,2.6,1.6,3.6
			c0.3,0.2,1.2-0.2,2-0.2c-0.2-2.4-1.4-5.8-2.9-7c-0.1-0.1-0.2-0.2-0.2-0.2C93.6,14.3,93.5,14.4,92.8,14.5z"/>
		<path class="st5" d="M48.4,15.9c-0.6,1.8-2,3.7-2.7,5.4c-0.4,0.9-0.2,1.8-0.7,2.5c0.1,0.2,0.2,0.5,0.2,0.7c0.6,0,0.8,0,1.1,0.2
			c0.1,0,0.2,0,0.2,0c0.3-1.4,0.6-2.7,1.4-3.6c0.3-0.2,0.4,0,0.9,0.2c0.3-0.5,0.1-0.4,0.7-0.7c-0.1-0.5-0.2-0.8-0.5-1.1
			c0.2-0.2,0.5-0.3,0.7-0.5c0.2-0.5-0.4-0.8,0.2-1.6C49.8,16.3,49.3,16.1,48.4,15.9z"/>
		<path class="st5" d="M90.3,16.3c-0.5,0.4-1.1,0.8-1.6,1.1c-0.1,0.7-0.2,1.4-0.2,2c0.7-0.1,0.5,0,0.9-0.5c0.2,0.3,0.2,0.4,0.2,0.9
			c0.6-0.1,0.4-0.1,0.9,0c0.4,0.8,0.7,1.5,0.7,2.7c0.6-0.1,1.4-0.3,1.8-0.7c0.6-1.4-1.8-4.1-2.3-5.6C90.6,16.3,90.5,16.3,90.3,16.3z
			"/>
		<path class="st5" d="M67.3,16.8c-0.7,0.4-0.3,0.5-0.2,1.4c0.2,0,0.5,0,0.7,0c0-0.8-0.3-0.4,0.2-0.9c0-0.2,0-0.3,0-0.5
			C67.4,16.8,67.7,16.9,67.3,16.8z"/>
		<path class="st5" d="M68.5,17.2c-0.2,0.7-0.2,1-0.7,1.4c0,0.4,0,0.8,0,1.1C68.4,19.4,69,18,68.5,17.2z"/>
		<path class="st5" d="M83.6,17.5c-0.2,0-0.5,0-0.7,0c0.9,1.4,2.1,2.8,2.9,4.3c0.4,0.8,0.4,1.6,0.9,2.3c0.1,0.1,0.2,0.2,0.2,0.2
			c0.1-0.1,0.2-0.2,0.2-0.2C86.5,21.2,84.9,19.6,83.6,17.5z"/>
		<path class="st5" d="M85.8,30.8c0.2,0,0.3,0,0.5,0c0.1-0.4-0.4-0.8-0.5-1.4c-0.3,0-0.6,0-0.9,0c0-0.2,0-0.3,0-0.5
			c0.3,0,0.6,0,0.9,0c-0.1-3.7-1.6-4.7-2.3-8.1c-0.5,0.2-0.4,0.1-0.7,0.5c-0.2,0-0.3,0-0.5,0c0.6-1.1,0.1-1-0.2-2.3
			c-1.3,0.1-1.1,0.4-1.8,0.9c0.6,1.9,1.7,1.9,1.6,3.8c0.2,0,0.5,0,0.7,0c0.5,2.2,1.1,4.1,0.9,5.6c-0.1,1.1,0.6,2.5-0.5,3.2
			c0,0.2,0,0.3,0,0.5c0.6,0.1,1.4,0.2,1.8,0.5C85.7,33,85.4,31.5,85.8,30.8z"/>
		<path class="st5" d="M67.3,21.3c0.2-0.2,0.3-0.3,0.5-0.5c0-0.2,0-0.5,0-0.7c-0.8-0.2-0.6-0.1-0.9-0.7c-0.2,0-0.5,0-0.7,0
			c0.1,0.6,0.3,0.7,0,1.1C66.5,21.1,66.7,20.9,67.3,21.3z"/>
		<circle class="st5" cx="60.8" cy="20.2" r="0.3"/>
		<path class="st5" d="M94.9,24.9c0.2,0.6,1.1,1.4,0.5,2.5c0.1,0.8,0.3,0.7,0.5,1.4c1,0,2.2,0,2.9-0.2c0-3.1-1-4.9-1.4-7.2
			c-0.8,0.2-1.5,0.3-2.3,0.5C95,22.9,94.6,24.2,94.9,24.9z"/>
		<path class="st5" d="M61,21.5c0.3,1.1,1,1.8,0.5,2.5c0.2,0.2,0.2,0.1,0.7,0.2c0.1-1.2,0.1-1.7-0.7-2.5c0-0.1,0-0.2,0-0.2
			C61.3,21.5,61.2,21.5,61,21.5z"/>
		<path class="st5" d="M68.2,22.2c-0.2-0.7,0.1-0.3-0.5-0.7c0.1,0.4,0,0.2,0.2,0.5c0,0.1,0,0.2,0,0.2C68.1,22.2,68.1,22.2,68.2,22.2
			z"/>
		<path class="st5" d="M90.6,23.8c0.5,1.6-0.2,0.9,0,1.8c0.3,0.3,0.7,0.6,0.7,1.1c0,0.5-0.3,1,0,1.6c0,0.2,0,0.3,0,0.5
			c1.1,0,2.1,0,3.2,0c0-1.8-0.1-4.5-0.9-5.6c0-0.2,0-0.3,0-0.5C91.9,22.8,91.8,23.4,90.6,23.8z"/>
		<path class="st5" d="M44.3,35.3c-0.2,0-0.5,0-0.7,0c0.2-0.6,0.3-0.5,0.5-1.1c-0.3-0.1-0.4-0.2-0.9-0.2c0-1.1,0.7-1.5,0.5-2.5
			c-0.6-2.2-0.5-5.6-0.2-7c-0.8-0.3-1.7-0.4-2.7-0.5c-0.1,2.5-1.1,5.8-0.5,8.8c0.3,1.4,0.8,3,0.9,4.5c1.1-0.2,2.1-0.5,3.2-0.7
			C44.1,36,44.2,36.1,44.3,35.3z"/>
		<path class="st5" d="M58.1,24.2c0,0.2,0,0.5,0,0.7c0.2,0,0.3,0,0.5,0C58.3,24.4,58.4,24.5,58.1,24.2z"/>
		<path class="st5" d="M63,24.7c0.1-0.1,0.2-0.2,0.2-0.2c-0.4-0.1-0.5-0.2-1.1-0.2c0.3,0.3,0.6,0.5,0.9,0.7C63,24.8,63,24.8,63,24.7
			z"/>
		<path class="st5" d="M87.2,33.9c0.1,0,0.2,0,0.2,0c1.3-3.4,0.2-6.2,0-9.7c-0.2,0-0.3,0-0.5,0c-0.2,1.6,1.5,6.2,0.2,8.1
			C87.2,32.9,87.2,33.4,87.2,33.9z"/>
		<path class="st5" d="M46.6,25.1c-0.6-0.1-1-0.2-1.8-0.2c-0.1,3.3-1,8.7,0.7,11.1c0.5,0.3,2.3-0.5,3.2-0.7
			c-0.1-0.5-0.1-0.4-0.2-0.7c-0.4-0.2-0.5,0-0.9-0.2c-0.1-0.1-0.2-0.2-0.2-0.2c0.3-0.1,0.7-0.3,0.9-0.5c0.1-0.1,0.2-0.2,0.2-0.2
			c-0.6-0.2-0.4-0.1-1.1,0c-0.1-0.4,0-0.2-0.2-0.5c0.2-0.9,0.3-0.6,0.7-1.1c0,0,0.2-0.7,0-1.1c0.1-2.3-0.1-2.8-1.1-3.8
			C46.6,26.9,46.6,25.8,46.6,25.1z"/>
		<path class="st5" d="M68,26.5c0.2-0.4-0.2-0.6-0.2-0.7C68,26.2,67.4,26.1,68,26.5z"/>
		<circle class="st5" cx="77.7" cy="26" r="0.3"/>
		<path class="st5" d="M54.7,33.7c0,0.1,0,0.2,0,0.2c-0.3,0.1-0.6,0.2-0.9,0.2c0.2,1,0.7,2.1,1.4,2.7c0.2,0.2,0.1,0.1,0.5,0.2
			c0.3-0.3,0.7-0.7,1.1-0.9c-0.2-2.1-3.1-5.6-1.4-8.1c0-0.6-0.1-1-0.2-1.4c-0.5-0.1-1.1-0.2-1.6-0.2c-0.6,2.4-0.1,4.4,0,7.4
			C53.9,33.9,54.3,33.8,54.7,33.7z"/>
		<path class="st5" d="M78.6,26.9c0,0.1,0,0.2,0,0.2c0.7-0.1,0.7-0.2,1.1-0.5c-0.2-0.2-0.2-0.1-0.7-0.2C78.8,27,79.2,26.6,78.6,26.9
			z"/>
		<path class="st5" d="M70,26.9c0.1,0,0.2,0,0.2,0c0-0.1,0-0.2,0-0.2c-0.4,0-0.8,0-1.1,0c-0.3,0.5,0.1,0.2-0.5,0.5
			C69.1,27.4,69.6,27.3,70,26.9z"/>
		<path class="st5" d="M82.2,27.2c-0.5-0.4-1.1-0.5-2-0.5C80.3,27.6,80.6,27.2,82.2,27.2z"/>
		<path class="st5" d="M65.5,27.6c-0.3-0.5,0.1-0.2-0.5-0.5c-0.3,0.4-0.6,0.7-1.1,0.9c0.1,0.1,0.2,0.2,0.2,0.2
			c0.3,0.1,0.4-0.1,0.9,0C65.4,27.7,64.8,27.9,65.5,27.6z"/>
		<path class="st5" d="M68,27.4c-0.5,0.4-1,0.4-1.4,0.9c-0.1,0-0.2,0-0.2,0c0,0.1,0,0.2,0,0.2c1.1-0.1,1-0.4,1.8-0.7
			C68.1,27.4,68.2,27.6,68,27.4z"/>
		<path class="st5" d="M73.2,28.3c0.1,0.5,0.1,0.6,0.2,0.9c0.1,0.1,0.2,0.2,0.2,0.2c0.1,0,0.2,0,0.2,0
			C73.7,28.6,73.7,28.7,73.2,28.3z"/>
		<path class="st5" d="M98.5,29.2c-0.1-0.1-1.7-0.2-2.3-0.2c-0.6,1.8-0.3,5-2.3,6.1c0.1,0.2,0.2,0.5,0.2,0.7
			c1.3,0.3,2.2,0.4,3.6,0.9C98.2,35.6,99.3,30.4,98.5,29.2z"/>
		<path class="st5" d="M94.4,29.2c-1.1,0.1-2.3,0.2-3.4,0.2c0,1.7,0.1,4.2-0.7,4.7c0.1,0.4,0,0.2,0.2,0.5c0.6,0.4,1.7,0.3,2.3,0.7
			c0.5-0.1,0.6,0,0.9-0.2C94.6,33.9,94.5,31.1,94.4,29.2z"/>
		<path class="st5" d="M66.4,30.3c0.1,0,0.2,0,0.2,0c-0.1-0.4,0-0.2-0.2-0.5C66.4,30,66.4,30.2,66.4,30.3z"/>
		<path class="st5" d="M76.3,30.8c0.1,0,0.2,0,0.2,0c-0.1-0.4,0-0.2-0.2-0.5C76.3,30.5,76.3,30.6,76.3,30.8z"/>
		<path class="st5" d="M66,31.7c0.1,0,0.2,0,0.2,0c-0.1-0.4,0-0.2-0.2-0.5C66,31.4,66,31.5,66,31.7z"/>
		<path class="st5" d="M74.1,33.3c0.3-0.4,0.3-1,0-1.4C74,32.4,74.1,32.4,74.1,33.3z"/>
		<path class="st5" d="M74.8,34.4c0.2-0.4,0.2-0.5,0-0.9C74.8,33.8,74.8,34.1,74.8,34.4z"/>
		<path class="st5" d="M84.2,36.9c0.1-0.9,0.4-1.7,0.9-2.3c0-0.2,0-0.3,0-0.5c-0.7-0.2-1.4-0.5-2-0.7c-0.3,0.6-0.5,1.9-1.1,2.3
			C82.4,36.5,83.2,36.8,84.2,36.9z"/>
		<path class="st5" d="M86.1,38.2c0.4-1.1,0.8-2.1,1.1-3.2c-0.3-0.5,0.1-0.2-0.5-0.5c-0.2,1-0.5,2.1-1.1,2.7
			c0.1,0.5,0.1,0.4,0.2,0.7C85.9,38.1,86,38.1,86.1,38.2z"/>
		<path class="st5" d="M49.3,40.2c1.1-0.4,0.2-3.7-0.5-4.5c-0.3-0.2-2.2,0.6-3.2,0.7c0.1,1.7,0.8,3.9,1.8,4.7
			C47.7,41.4,49,40.6,49.3,40.2z"/>
		<path class="st5" d="M70.7,36c0.1-0.1,0.2-0.2,0.2-0.2c-0.2,0-0.3,0-0.5,0c0.1,0.4,0,0.2,0.2,0.5C70.7,36.1,70.7,36,70.7,36z"/>
		<path class="st5" d="M93.3,37.5C93.2,37,93.2,37,93,36.6C92,36.4,91.2,36,89.9,36c-0.1,0.6-0.1,1-0.5,1.4c0.2,0.8,0.1,0.7,0.9,0.9
			c-0.1,0.8-0.1,1-0.5,1.4c0,0.2,0,0.5,0,0.7c0.7,0.2,1.4,0.5,2,0.7C92.1,39.9,92.6,38.2,93.3,37.5z"/>
		<path class="st5" d="M58.7,39.6c0.2-0.3-1.2-2.5-2-2.7c-0.3,0.2-0.8,0.5-1.1,0.7c0.2,1.3,1,2.2,1.8,2.9c0,0.1,0,0.2,0,0.2
			C58.1,40.5,58.4,40.1,58.7,39.6z"/>
		<path class="st5" d="M82.4,36.9c-0.3,0-0.6,0-0.9,0c0,0.2,0,0.5,0,0.7c-0.4,0-0.8,0-1.1,0c0,0.6,0.2,0.3,0,0.7
			c0.1,1.2,0.6,1.1,1.1,1.8c0.5-0.1,0.6-0.1,0.9-0.2c-0.1-0.7,0-0.5-0.5-0.9c0-0.1,0-0.2,0-0.2c0.7,0.1,0.7,0.2,1.4,0
			C83.3,37.4,83,37.6,82.4,36.9z"/>
		<path class="st5" d="M46.6,41.8c-0.3-0.6,0.1-0.3-0.7-0.5c0-0.4,0-0.8,0-1.1c-0.1,0.1-0.2,0.2-0.2,0.2c-0.7-0.3-0.2-0.1-0.5-0.7
			c-0.6-0.3-0.1-0.1,0.2-0.7c-1.3-0.5-1.1-0.9-1.8-1.8c-0.5-0.2-1.2,0.1-2,0.2c-0.1,0.1-0.2,0.2-0.2,0.2c0.5,2,1.3,3.7,2,5.4
			c1.3-0.1,2.2-0.7,2.9-1.4C46.4,41.8,46.5,41.8,46.6,41.8z"/>
		<path class="st5" d="M93.7,41.8c0.4,0.5,0.6,0.7,1.4,0.9c0.2,0.2,0.1,0.1,0.5,0.2c0.7-1.5,1.8-3.1,1.8-5.2
			c-1.1-0.2-1.6-0.5-2.7-0.7C94.6,38.6,94.3,41.2,93.7,41.8z"/>
		<path class="st5" d="M55.8,42.1c0.1,0.1,0.2,0.2,0.2,0.2c0.1-0.1,0.2-0.2,0.2-0.2c-0.4-1-1.8-3-2.7-3.6c0,0.3,0,0.6,0,0.9
			C54.4,40.2,54.8,41.4,55.8,42.1z"/>
		<path class="st5" d="M65.3,38.7c0.2,0.2,0.1,0.1,0.5,0.2c0-0.1,0-0.2,0-0.2C65.6,38.7,65.4,38.7,65.3,38.7z"/>
		<path class="st5" d="M85.4,39.3c-0.2-0.7,0.1-0.3-0.5-0.7c-0.3,0.9-1,1.7-1.6,2.3c0,0.2,0,0.5,0,0.7C84.2,41,84.6,40,85.4,39.3z"
			/>
		<path class="st5" d="M64.4,39.6c0.2,0,0.3,0,0.5,0c-0.1-0.5-0.1-0.4-0.2-0.7C64.5,39.1,64.5,39.3,64.4,39.6z"/>
		<path class="st5" d="M75.7,39.8c0.1,0,0.1-0.1,0.2-0.1c-0.1-0.1-0.3-0.3-0.5-0.4C75.3,39.6,75.4,40,75.7,39.8z"/>
		<path class="st5" d="M77.3,35.7c-2-3.9-1.3-6.4-0.9-11.1c2.1-0.1,2.9-0.6,5-0.7c0-0.1,0-0.2,0-0.2c-1.4-0.5-2.9,0.2-4.7,0.2
			c0.1-0.5,0-0.6,0.2-0.9c0-0.4,0-0.8,0-1.1c-0.1,0-0.2,0-0.2,0c-0.2,1.1-0.8,1.8-0.7,2.5c-0.7,0.2-1.4,0.5-2,0.7
			c-0.1-0.3-0.2-0.4-0.2-0.9c0.2,0,0.5,0,0.7,0c-0.6-0.7-1-0.7-1.1-2c1.6,0,2.7-0.4,3.4-1.4c0.2,0.3,0.2,0.6,0.2,1.1
			c0.1,0,0.2,0,0.2,0c0.2-1,0.5-1.7,0.9-2.5c-0.1-0.1-0.2-0.2-0.2-0.2c-1.7,0.3-3.1,2.4-4.3,1.8c-0.5-0.3-0.5-0.6-0.9-0.9
			c0-1.1,0.3-1.6,0.9-2c0-0.2,0-0.3,0-0.5c-0.5,0.3-0.6,0.4-0.9,0.9c-0.1,0-0.2,0-0.2,0c0.1-0.4,0.2-0.8,0.2-1.1
			c-0.5-0.3-0.9-0.4-1.1-0.9c-1.3,0.8-0.2,2.8-1.1,4.1c-0.2,0.2-0.1,0.1-0.5,0.2c-0.2-0.6-0.1-0.7,0-1.4c-0.2,0-0.3,0-0.5,0
			c-0.3,0.5-0.7,1.2-1.1,1.6c0.1,0.1,0.2,0.2,0.2,0.2c0.2,0.4,0.3-0.2,0.7-0.5c0.1,0.1,0.2,0.2,0.2,0.2c-0.1,0.8-0.2,0.8,0,1.4
			c-0.1,0-0.2,0-0.2,0c-0.4,0.2-1.3-0.1-1.8,0.2c-0.2,0-0.3,0-0.5,0c0.3,0.4,0.2,0.2,0.5,0.7c0.7-0.1,0.5,0,0.9-0.5
			c0.1,0,0.2,0,0.2,0c-0.3,1-1.5,2.4-2.3,2.3c-0.4,0.5-0.8,1.5-0.5,2c0.1,0.4,0,0.2,0.2,0.5c1.1-2.3,2.5-2.4,3.8-4.1
			c1.1,0.2,1,0.6,1.4,1.6c0.1,0.1,0.2,0.2,0.2,0.2c0.1,0,0.2,0,0.2,0c-0.1-1.4-0.6-2.4-1.4-3.2c0-0.1,0-0.2,0-0.2
			c1,0.1,1.4,0.4,1.8,0.2c0.4,0.5-0.2,0.7,0.7,1.1c0,0-0.1,0.9-0.2,0.5c-0.1-0.1-0.2-0.2-0.2-0.2c0.2,0.5,0.6,1,0.9,1.4
			c0,0.2,0,0.3,0,0.5c-0.9,0.2-1.6,0.5-2.5,0.7c0,0.2,0,0.5,0,0.7c0.5-0.2,0.9-0.4,1.6-0.5c-0.1,0.5-0.2,0.9-0.2,1.4
			c-0.2,0-0.5,0-0.7,0c1,1.6,1.7,3.6,2.3,5.6c0.4,1.5-0.6,1.7,0.5,2.3c-0.2,0.2-0.5,0.3-0.7,0.5c-2.1-0.1-1.7-1.3-2.9-1.8
			c-0.7-0.3-1.8,0.3-2.7-0.2c-1.3-0.7-2.3-2.5-3.6-3.4c0.3-0.8,0.7-0.8,1.1-1.4c0.5,0.3,0.2-0.1,0.5,0.5c0.7-0.4,0.1-0.4,0.7-0.9
			c0-0.1,0-0.2,0-0.2c-1.3,0.2-1.5,0.9-2.9,1.1c-0.1-0.5-0.2-0.9-0.2-1.4c1.6-1.5,2.1-3.6,4.1-4.7c-0.5-0.3-0.4-0.1-0.9,0
			c0.1-0.7,0.2-0.5,0.5-0.9c-0.3-0.5-0.4-0.5-0.5-1.4c-0.1,0-0.2,0-0.2,0c-0.1,0.4,0,0.2-0.2,0.5c-0.1,0.8,0,0.7,0.2,1.6
			c-2,1.9-3.9,1.7-5.6,3.2c-1.5-0.1-2.3-1.1-2.9-2c-0.1,0-0.2,0-0.2,0c0.2,1,0.8,1.6,1.6,2c-0.6,0.5-1.7,0.7-2,0.9
			c-0.2,0-0.3,0-0.5,0c0.2,1.1,1.4,1.6,2.3,2c-0.1,0.2-0.2,0.3-0.2,0.5c-0.7-0.1-0.8-0.1-1.1-0.5c-0.2,0-0.5,0-0.7,0
			c0.4,0.4,0.2,0.3,0.9,0.5c-0.3,0.5-0.4,0.5-0.9,0.7c0.1,0.1,0.2,0.2,0.2,0.2c0.3,0.4,1.3-0.8,2.3-0.2c0.2-0.4,0.1-0.3,0-0.9
			c0.5,0.3,0.9,0.6,1.4,0.9c-0.2,1.3-1,2.3-2.3,1.4c-0.5,0-1.1,0-1.6,0c0.3,0.3,0.6,0.4,0.9,0.7c0.5,0,0.9,0,1.4,0
			c-0.4,0.7-0.5,0.2-0.9,0.5c-0.1,0-0.2,0-0.2,0c0.2,0.2,0.2,0.1,0.7,0.2c-0.3,0.7-0.6,0.8-1.1,1.1c0.1,0.5,0.1,0.4,0.2,0.7
			c0.7,0.4,2-0.7,2.5-1.4c0.2,0,0.3,0,0.5,0c-0.3,0.5,0.1,0.2-0.5,0.5c0,0.6-0.2,0.3,0,0.7c0.1,0.1,0.2,0.2,0.2,0.2
			c0.2-0.4,0.5-0.9,0.7-1.4c0.7,0.2,1.4,0.3,2,0.5c0.1,0.1,0.2,0.2,0.2,0.2c0,0.2,0,0.3,0,0.5c-0.6-0.3-1.6-0.6-2.3-0.2
			c-0.1,0-0.2,0-0.2,0c0.4,0.3,1.6,0.4,2.3,0.5c0.1,0.1,0.2,0.2,0.2,0.2c0,1.7,0.2,4.2-0.7,5c0.1,0.4,0,0.2,0.2,0.5
			c0,0.1,0,0.2,0,0.2c0.2,0,0.3,0,0.5,0c0.3-1.6,0.5-3.6,0.5-5.4c1.1,0.5,1.3,1.5,2.5,1.8c-0.1,0.1-0.2,0.2-0.2,0.2
			c-0.3,0.7-0.1,0.2-0.7,0.5c0.4,0.5,1.1,0.9,1.8,1.1c-0.4,0.6,0,0.3-0.7,0.2c-0.4,0.8-0.7,1.5-1.4,2c0,0.2,0,0.3,0,0.5
			c1.1-0.2,1.3-0.9,1.6-0.5c0.2-0.3,0.2-0.6,0.2-1.1c0.2,0,0.3,0,0.5,0c0.3,0.8,0.6,1.4,0.7,2.5c0.2,0,0.3,0,0.5,0
			c0.1-0.1,0.2-0.2,0.2-0.2c0-1.1-0.2-2-0.7-2.7c0.1-0.7,0-0.5,0.5-0.9c0.1-0.1,0.2-0.2,0.2-0.2c0.6,1.1,1.2,2.2,1.4,3.8
			c0.1-0.1,0.2-0.2,0.2-0.2c1-0.9,0.4-2.8,1.1-3.6c0.1-0.1,0.2-0.2,0.2-0.2c0.6,0.9,1.3,1.8,2,2.7c0.2,0.2,0.4-0.3,0.9,0.5
			c0.6-0.4,0.5-1.5,0.5-2.5c0.2,0.1,0.3,0.1,0.4,0.2c0-0.1,0-0.1,0.1-0.2c0.1,0.1,0.6,0.3,0.4,0.5c0.2,0.2,0.3,0.4,0.5,0.6
			c0.3,0,0.6,0,0.9,0c-0.1-0.1-0.2-0.2-0.2-0.2c-0.3-0.7-1.1-1.4-2-1.6c-0.1-0.4,0-0.2-0.2-0.5c0-0.2,0-0.5,0-0.7
			c0.7,0.2,0.6,0.3,1.4,0.5c0.1,0.5,0.1,0.4,0.2,0.7c0,0.2,0,0.3,0,0.5c0.2-0.3,0.2-0.4,0.2-0.9c0.8,0.3,1.1,0.3,1.4,1.1
			c0.2,0,0.3,0,0.5,0c0-0.1,0-0.2,0-0.2c0.2-0.5,0.1-0.5-0.5-0.9c0-0.2,0-0.5,0-0.7c0.3,0.1,0.9,0.3,1.1,0.5c0.2,0,0.5,0,0.7,0
			c0-0.1,0-0.2,0-0.2c-0.7-0.3-1.4-0.6-2.3-0.7c0-0.2,0-0.3,0-0.5c0.9,0.2,2.1,0.5,2.7,0.2c0.2,0,0.3,0,0.5,0
			C80,36.1,78.3,35.8,77.3,35.7z M70,23.3c-0.2,0-0.5,0-0.7,0c0.1-0.3,0.2-0.4,0.2-0.9c0.2,0.1,0.5,0.2,0.7,0.2
			C70.2,22.9,70.1,23.1,70,23.3z M72.1,21.7c-0.5-0.1-0.6-0.2-0.9-0.5c-0.2-0.4-0.1-0.2,0-0.7c0.5,0.2,0.5,0.4,0.9,0.7
			C72.1,21.4,72.1,21.6,72.1,21.7z M60.3,28.7c-0.7,0-0.9,0.1-1.1,0c-0.7-0.2-0.5-0.4-1.1-0.7c0.3-0.6,0.8-0.5,1.4-0.9
			c0.4,0.3,0.2,0.2,0.7,0.5c-0.2,0.2-0.1,0.1-0.5,0.2c0.2,0.2,0.5,0.5,0.7,0.7C60.3,28.6,60.3,28.7,60.3,28.7z M73.9,36.9
			c-0.2,0.4-0.1,0.3-0.5,0C73.6,36.9,73.7,36.9,73.9,36.9z M68.5,34.6c0.4,0.2,0.8,0.4,1.1,0.7c0.2,0,0.5,0,0.7,0
			c-0.3-0.5,0.1-0.2-0.5-0.5c0-0.1,0-0.2,0-0.2c0.2,0,0.3,0,0.5,0c0.1,0.3,0.2,0.4,0.2,0.9c0.5,0.1,0.4,0.1,0.7,0.2
			c0.2,0,0.3,0,0.5,0c-0.4,0.6,0,0.3-0.7,0.2c0.3,0.5-0.1,0.2,0.5,0.5c0,0.2,0,0.3,0,0.5c-1-0.1-2-1.1-2.7-2c-0.1,0-0.2,0-0.2,0
			C68.5,34.8,68.5,34.7,68.5,34.6z M70.3,37.1c-0.4-0.1-0.2,0-0.5-0.2C70.2,37,70,36.9,70.3,37.1z M60.6,26.9
			c1.2-0.4,2.6-0.7,3.4-1.6c0.2,0,0.3,0,0.5,0c-0.3,0.5-0.5,1.3-0.9,1.8c0,0.1,0,0.2,0,0.2c-0.6-0.3-0.3,0.1-0.5-0.7
			c-0.1,0-0.2,0-0.2,0c-0.1,0.5,0.1,1.2-0.2,1.8c0,0.1,0,0.2,0,0.2c-0.1-0.2-0.3-0.7-0.5-0.9c0-0.1,0-0.2,0-0.2
			c-0.4-0.1-0.3,0.1-0.5,0.2c-0.7-0.1-0.7-0.2-1.1-0.5C60.6,27.2,60.6,27.1,60.6,26.9z M60.6,29c0.2,0,0.5,0,0.7,0
			c0.2,0.2,0.3,0.3,0.5,0.5c-0.1,0.5-0.1,0.4-0.2,0.7c0,0.1,0,0.2,0,0.2C60.8,30,60.7,29.7,60.6,29z M63,33.5c-1-0.2-1.1-0.5-2-0.7
			c0.1-0.2,0.2-0.5,0.2-0.7c0.9,0.3,1.1,0.7,1.8,1.1C63,33.3,63,33.4,63,33.5z M63,31.4c0-0.1,0-0.2,0-0.2c0.6,0,0.3,0.2,0.7,0
			c1.1,0.2,1.3,0.8,2,1.4c0,0.2,0,0.3,0,0.5c-0.2-0.2-0.5-0.5-0.7-0.7c-0.1,0-0.2,0-0.2,0c0.2,0.6,0.2,0.8,0.7,1.1
			c0,0.1,0,0.2,0,0.2c-0.6-0.1-1.2-0.2-1.8-0.2c0.2-0.2,0.2-0.1,0.7-0.2C64.2,32.4,63.6,31.6,63,31.4z M68,38.4c0,0.1,0,0.2,0,0.2
			c-1-0.8-1.5-2.1-2.5-2.9c0-0.2,0-0.3,0-0.5c0.7,0.2,1.9,0.5,2.3,1.1c0.2,0,0.5,0,0.7,0c-0.6-0.9-1.8-1.5-2.7-2c0.4-0.2,0,0,0.7,0
			c-0.1-0.7-0.2-0.9-0.5-1.4c1.3,0.9,2.2,2.3,3.6,3.2c0,0.2,0,0.3,0,0.5c-0.5-0.2-0.4-0.1-0.7-0.5c-0.1,0-0.2,0-0.2,0
			c0.2,0.7,0.2,0.7,0.9,0.9C69.3,37.7,68.5,38.1,68,38.4z M70.3,40.5c-0.1,0-0.2,0-0.2,0c-0.2-0.5-0.3-0.9-0.5-1.4
			c0.4,0.3,0.2,0.2,0.7,0.5C70.3,39.9,70.3,40.2,70.3,40.5z M70.5,38.9c-0.1,0.4,0,0.2-0.2,0.5C70.1,39,70.1,39,70,38.4
			c-0.2,0-0.5,0-0.7,0c0.1,0.2,0.2,0.3,0.2,0.5c-0.2,0-0.3,0-0.5,0c0.2-0.7,0.2-0.7,0.9-0.9c0.2-0.2,0.1-0.1,0.5-0.2
			c0.1,0.1,0.2,0.2,0.2,0.2C70.7,38.5,70.7,38.6,70.5,38.9z M74.5,40c-0.1,0-0.2,0-0.2,0c-0.5-1.6-1.6-1.5-2.7-2.5
			c-0.2,0-0.3,0-0.5,0c0.3-0.6,0.5-0.2,1.1-0.7c0.3,0,0.6,0,0.9,0c-0.3,0.5,0.1,0.2-0.5,0.5c0.3,0.7,1.2,1.3,1.8,1.8
			C74.5,39.4,74.5,39.7,74.5,40z M74.5,36c0-0.2,0-0.3,0-0.5c0.2,0,0.5,0,0.7,0c0,0.2,0,0.3,0,0.5C75,36,74.8,36,74.5,36z
			 M75.4,37.1c-0.5-0.2-0.4-0.1-0.7-0.5c0.2,0.1,0.5,0.2,0.7,0.2C75.4,36.9,75.4,37,75.4,37.1z M75.4,35.1c-0.2,0.2-0.3,0.1-0.9,0.2
			c-0.2-0.2-0.1-0.1-0.5-0.2c0-3-0.9-5.2-1.4-7.6c0-0.1,0-0.2,0-0.3c0,0,0,0-0.1,0c-0.1-0.4-0.1-0.9-0.2-1.4
			c0.5-0.1,0.4-0.1,0.7-0.2c0.7,0.8,1.1,4.7,1.1,4.7c0,0.3,0,0.6,0,0.9c0.6-0.3,0.4-0.1,0.5-0.9c0.8,1,0.2,2.2,0.9,3.2
			C75.7,34.1,75.7,34.7,75.4,35.1z M75.4,28.3c0,0.5,0,1.1,0,1.6c-0.1,0-0.2,0-0.2,0c-0.4-1.2-0.6-3-1.4-3.8c0-0.2,0-0.5,0-0.7
			c0.6-0.1,1-0.2,1.8-0.2C75.7,26.1,75.8,27.7,75.4,28.3z M75.9,34.6c0.5,0.3,0.3,0.3,0.7,0.7c0,0.2,0,0.3,0,0.5
			C76,35.4,76,35.3,75.9,34.6z M76.6,36.2c0,0.2,0,0.3,0,0.5c-0.1,0-0.2,0-0.2,0c0-0.2,0-0.3,0-0.5C76.4,36.2,76.5,36.2,76.6,36.2z
			 M77.5,38c-0.6-0.2-0.4-0.3-1.1-0.5c0-0.2,0-0.5,0-0.7c0.3,0.1,0.4,0.2,0.9,0.2c0.1,0.5,0.1,0.4,0.2,0.7
			C77.5,37.8,77.5,37.9,77.5,38z"/>
		<path class="st5" d="M68.5,37.5c0.2,0,0.3,0,0.5,0c0-0.2,0-0.3,0-0.5c-0.2-0.1-0.5-0.2-0.7-0.2C68.3,37.1,68.4,37.3,68.5,37.5z"/>
		<circle class="st5" cx="68" cy="37.5" r="0.3"/>
		<path class="st5" d="M79.3,42.3c0.9-0.4,1.2-1.1,2.3-1.4c0-0.2,0-0.3,0-0.5c-0.4-0.3-0.8-0.5-1.1-0.9c-1.2,0.1-1.2,0.5-2.3,0.7
			c-0.2,1.2-0.3,0.9-0.5,2c-0.2-0.2-0.3-0.3-0.5-0.5c-0.6-0.2-0.5,0.6-0.7,0.5c-0.3-0.3-0.2-0.6-0.7-0.9c-0.3,0.7-0.4,0.7-0.5,1.8
			c-1.8-0.7-2.2,1-3.6,0.2c-0.6,0.3-0.3-0.1-0.5,0.7c-1.1-0.5-2.3,0-3.8-0.2c-0.2,0.5-0.2,1.1-0.2,1.8c0.8,0,1.2,0.1,1.8,0.2
			c0.1-0.3,0.2-0.4,0.2-0.9c0.2,0.3,0.2,0.4,0.2,0.9c0.5,0.1,0.9,0.2,1.4,0.2c0.3-0.5,0.3-0.4,0.5-1.1c0.2,0.3,0.2,0.4,0.2,0.9
			c1.6-0.3,2.6-1.2,4.7-1.4c0.1-0.8,0.2-0.6-0.2-1.1c0-0.1,0-0.2,0-0.2c0.2,0.2,0.5,0.3,0.7,0.5c0,0.2,0,0.5,0,0.7
			c1.2-0.3,1-0.9,0.9-1.8c0.6,0.4,0.5,0.6,1.6,0.7c-0.1-0.7-0.1-0.8-0.5-1.1c0-0.1,0-0.2,0-0.2C79,42,79.1,42.1,79.3,42.3z"/>
		<path class="st5" d="M64.2,39.8c-0.2,0-0.3,0-0.5,0C64.1,40.1,63.9,40.2,64.2,39.8z"/>
		<path class="st5" d="M53.3,44.8c-0.2-1.3-2.1-3.8-3.2-4.3c-0.6,0.6-1.5,0.9-2,1.6c-0.1,0.1-0.2,0.2-0.2,0.2
			c1.2,1.3,1.7,3.1,3.2,4.1c0,0.1,0,0.2,0,0.2C52.1,46.2,52.5,45.3,53.3,44.8z"/>
		<path class="st5" d="M91,42.1c-1-0.5-2-1.1-2.9-1.6c-0.6,1.7,0.1,2.4,1.4,2.9c-0.2,0.2-0.3,0.3-0.5,0.5c0,0.1,0,0.2,0,0.2
			c-0.8-0.2-1.6-0.8-2-1.4c-0.1,0.2-0.3,0.7-0.5,0.9c0.6,0.6,1.2,1.2,1.8,1.8C89.6,45,90.5,43.3,91,42.1z"/>
		<path class="st5" d="M73,42.3c0-0.6,0-1-0.2-1.4c-0.1,0.3-0.2,0.6-0.2,0.9c0.1,0,0.2,0,0.2,0c0,0.2,0,0.3,0,0.5
			C72.8,42.3,72.9,42.3,73,42.3z"/>
		<path class="st5" d="M65.3,44.3c0-0.4,0-0.8,0-1.1c-1.9-0.3-3-0.4-4.5-2c-0.5,0.1-0.6,0.1-0.9,0.2c-0.1,0.4,0,0.2-0.2,0.5
			c0.2,0.8,0.3,0.6,0.7,1.1c0.2,0,0.5,0,0.7,0c0,0.3,0,0.6,0,0.9c1-0.1,1.5,0,2.3,0.7c0.6-0.3,0.3,0.1,0.5-0.7c0.1,0,0.2,0,0.2,0
			c-0.1,0.5-0.2,0.9-0.2,1.4c0.6,0,0.8,0,1.1-0.2C65,44.8,65.1,44.5,65.3,44.3z"/>
		<path class="st5" d="M66.6,41.6c0,0.2,0,0.3,0,0.5C67,41.8,66.9,42,66.6,41.6z"/>
		<path class="st5" d="M77.5,46.8c0.2-0.3,0.3-0.6,0.5-0.9c0.7-0.4,1.3-0.3,2-0.7c0.2-0.1,0.3-0.8,0.5-0.9c0.4-0.3,0.7,0.5,1.1,0
			c0.6-0.6,0.4-1.2,1.4-1.8c-0.2-0.7,0.1-0.3-0.5-0.7c-2.2,4.1-9.8,6.1-15.6,5.6c0,0.2,0,0.3,0,0.5c1.2,0.2,2.4,0.3,3.6,0.5
			c1.5-0.3,3.2-0.8,5-1.4C76.1,46.9,76.8,46.9,77.5,46.8z"/>
		<path class="st5" d="M46.8,42.5c-0.7,0.7-1.8,1.2-2.7,1.6c0.4,1.2,2.9,4.8,4.1,5.2c0.2,0.2,0.1,0.1,0.5,0.2
			c0.5-0.5,1.1-1.1,1.6-1.6c-0.4-1.9-2.3-2.7-2.9-4.5C47.1,43.2,46.9,42.7,46.8,42.5z"/>
		<path class="st5" d="M91.5,42.5c0,1.8-0.9,2.6-2,3.4c0.3,1.3,1.4,1.4,2,2.3c1.7-0.3,2.1-2.3,3.2-3.4
			C94.4,43.5,92.8,42.6,91.5,42.5z"/>
		<path class="st5" d="M66.6,43.2c-0.3,0.3-0.6,0.5-0.9,0.7c0,0.6-0.1,1-0.2,1.4c0.2,0.1,0.5,0.2,0.7,0.2
			C67.2,45.9,67.3,43.9,66.6,43.2z"/>
		<path class="st5" d="M64.4,46.8c-2.6-0.6-4.1-2.7-6.5-2.9c1.2,2.1,3.9,1.9,5.6,3.4c0.3,0,0.6,0,0.9,0
			C64.4,47.1,64.4,46.9,64.4,46.8z"/>
		<path class="st5" d="M84.7,49.1c1.3-0.4,1.9-1.5,2.9-2.3c-0.3-1-1.2-1.9-2.5-2c0.2,0.5,0.1,0.4,0.5,0.7c-0.1,0.2-0.2,0.5-0.2,0.7
			c-0.8-0.2-0.8-0.3-1.4-0.7c-0.1,0.1-0.2,0.2-0.2,0.2c0.3,0.3,0.6,0.6,0.9,0.9c-0.2,0.6-0.2,1-0.5,1.4
			C84.4,48.6,84.4,48.6,84.7,49.1z"/>
		<path class="st5" d="M65.1,47.7c0.5,0.1,0.4,0.1,0.7,0.2c0.3,0,0.6,0,0.9,0c0-0.2,0-0.3,0-0.5c-0.3-0.1-0.9-0.3-1.1-0.5
			C65,47.4,65.3,47,65.1,47.7z"/>
		<path class="st5" d="M84.2,49.7c-0.3-1.1-1.2-2.2-2-2.7c-0.1,0.1-0.2,0.2-0.2,0.2c0.2,0.2,0.3,0.3,0.5,0.5
			c-0.3,1.2-0.9,0.8-1.6,1.8c-1.5-0.3-3.1-0.4-4.5,0.9c-0.6,0.4-0.4,1.1-0.9,1.6c-0.3,0.4-0.1,0-0.5-0.2c-0.3,0.3-0.6,0.5-0.9,0.7
			c-0.1,0.8,0,0.5,0,1.4c2.2-0.3,5.1-1,7.2-2.3C82.3,51,83.1,50,84.2,49.7z"/>
		<path class="st5" d="M63.7,53.6c0.2-0.8,0.5-1.5,0.7-2.3c-0.6-0.4-0.5-0.6-0.9-1.1c-0.2-0.6-0.4,0.2-0.5,0.5
			c-0.6-0.3-0.8-0.8-1.4-1.1c-0.2,0.3-0.2,0.5-0.5,0.7c0,0.1,0,0.2,0,0.2c-0.1,0-0.2,0-0.2,0c0.1-0.5,0.1-0.6,0.2-0.9
			c-1.2-0.5-1.9-1.3-3.4-1.4c0,0.2,0,0.5,0,0.7c-0.1,0.1-0.2,0.2-0.2,0.2c-1.3-0.2-1.3-0.9-2.3-1.4c-0.5,0.5-0.9,0.9-1.4,1.4
			C55.8,51.5,60.4,51.9,63.7,53.6z"/>
		<path class="st5" d="M89.2,47.7c-0.3,0-0.6,0-0.9,0c-0.2,0.6,0.1,0.6-0.5,1.1c-0.2,0.3-0.9-0.4-1.4-0.7c-0.4,0.7-0.6,0.9-1.1,0.9
			c0.2,1.7,1.1,2.3,1.8,3.4c1.8-0.3,2.4-1.9,3.6-2.7C90.5,48.6,89.8,48.5,89.2,47.7z"/>
		<path class="st5" d="M74.1,50.9c-0.1-0.4,0-0.2-0.2-0.5c-0.2,0.2-0.9,0.3-1.1,0.5c-0.1,0-0.2,0-0.2,0c0,0.1,0,0.2,0,0.2
			c0.6,0,0.8,0,1.1-0.2C73.8,50.9,73.9,50.9,74.1,50.9z"/>
		<path class="st5" d="M62.6,54.2c-0.6,0.2-0.8,0.6-1.4,0.2c0-0.2,0-0.3,0-0.5c-0.5-0.2-0.6,0.3-1.1,0c-0.1,0-0.2,0-0.2,0
			c0.1-0.2,0.2-0.3,0.2-0.5c-0.1,0-0.2,0-0.2,0c-0.2,0-0.1-0.1-0.5,0.5c-0.6-0.2-1.1-0.7-1.6-1.1c-0.1,0-0.2,0-0.2,0
			c0.1,0.2,0.2,0.5,0.2,0.7c-0.7-0.4-0.4-0.4-0.7-0.7c-0.4-0.2,0,0-0.7,0c0.1-0.4,0.2-0.9,0.2-1.6c-1.2,0.3-0.8,0.8-1.1,0.9
			c-0.8,0.3-2-1.1-2.5-1.4c-0.2-0.2-0.1-0.1-0.5-0.2c-0.4,0.7-0.7,1.2-1.4,1.6c1.4,3.4,8,3.3,10.8,5.4c1.2-0.3,1-1.3,1.4-2.3
			C63,55,62.8,54.9,62.6,54.2z"/>
		<path class="st5" d="M85.1,50.9c-1.1,0.1-0.4,0.1-0.9,0.7c-0.4,0.2-0.3,0.1-0.9,0c-0.1,0.5,0,0.6-0.2,1.1c-0.6,0.1-1.4-0.1-1.8,0
			c-0.4,0.4-0.8,0.8-1.1,1.1c-1,0.5-3.8,1.4-4.3,1.4c-0.7,0.3-0.2,0.1-0.5,0.7c-0.5-0.1-0.4-0.1-0.7-0.2c-0.2,0-0.3,0-0.5,0
			c0.2,0.8,0.4,1.1,0.5,2.3c3.7-0.1,7-1.7,9.7-3.2c0.9-0.5,1.3-1.4,2.5-1.6c-0.4-1-1.2-1.5-1.6-2.5C85.3,50.7,85.2,50.8,85.1,50.9z"
			/>
		<path class="st5" d="M73.4,54c-0.1-0.5-0.2-0.9-0.2-1.4c-1.1,0.1-2.3,0.1-2.7,0.2c-0.6,0-0.8,0-1.1-0.2c-0.2-0.4-0.2-0.3,0-0.7
			c-0.3-0.2-0.8-0.5-1.1-0.7c-0.2,0.5-0.2,0.4-0.5,0.9c-0.5-0.3-0.4-0.2-0.7-0.7c-0.7,0.3-0.2,0.1-0.5,0.7c-0.6,0-1.2,0-1.8,0
			c-0.1,0.5-0.2,0.9-0.2,1.4C68.4,54.4,69.6,54.1,73.4,54z"/>
		<path class="st5" d="M73.6,55.6c-1.8,0.2-2.3,0.4-4.3,0.5c0,0.2,0,0.5,0,0.7c-1.5-0.2-0.9-0.4-1.6-0.9c-0.3-0.2-3.6,0-3.6,0
			C64.1,55.9,64,56,63.9,56c-0.1,0.2-0.2,1.1-0.2,1.8c3.9,0.5,7.7,0.3,10.2,0.5c0.1-0.1,0.2-0.2,0.2-0.2c-0.1-0.8-0.2-1.5-0.2-2.3
			C73.8,55.7,73.7,55.7,73.6,55.6z"/>
	</g>
</g>
</svg>
